<svg xmlns="http://www.w3.org/2000/svg" xmlns:xlink="http://www.w3.org/1999/xlink" width="80" height="50.303" viewBox="0 0 80 50.303">
  <defs>
    <clipPath id="clip-path">
      <rect id="Rectangle_521" data-name="Rectangle 521" width="80" height="50.303" transform="translate(0 0)" fill="#e12058"/>
    </clipPath>
  </defs>
  <g id="Group_1942" data-name="Group 1942" transform="translate(0 0)">
    <g id="Group_989" data-name="Group 989" transform="translate(0 0)" clip-path="url(#clip-path)">
      <path id="Path_1191" data-name="Path 1191" d="M52.061,241.26a1.254,1.254,0,1,1-1.254-1.254,1.254,1.254,0,0,1,1.254,1.254m22.568,3.761a1.254,1.254,0,1,0,1.254,1.254,1.254,1.254,0,0,0-1.254-1.254m-15.046,0a1.254,1.254,0,1,0,1.254,1.254,1.254,1.254,0,0,0-1.254-1.254m-26.33-5.015a1.254,1.254,0,1,0,1.254,1.254,1.254,1.254,0,0,0-1.254-1.254m8.777,5.015a1.254,1.254,0,1,0,1.254,1.254,1.254,1.254,0,0,0-1.254-1.254m41.375-5.015a1.254,1.254,0,1,0,1.254,1.254,1.254,1.254,0,0,0-1.254-1.254m17.553,0a1.254,1.254,0,1,0,1.254,1.254,1.254,1.254,0,0,0-1.254-1.254m-8.777,5.015a1.254,1.254,0,1,0,1.254,1.254,1.254,1.254,0,0,0-1.254-1.254" transform="translate(-26.894 -202.338)" fill="#e12058"/>
      <path id="Path_1192" data-name="Path 1192" d="M76.481,171.589H3.761A3.761,3.761,0,0,1,0,167.828V147.767a3.761,3.761,0,0,1,3.761-3.761H33.852a1.254,1.254,0,0,1,1.087,1.881,19.2,19.2,0,0,0-2.341,8.15c0,3.769,4.527,6.269,7.523,6.269s7.523-2.5,7.523-6.269a19.092,19.092,0,0,0-2.34-8.15,1.254,1.254,0,0,1,1.086-1.881H76.481a3.761,3.761,0,0,1,3.761,3.761v20.061a3.761,3.761,0,0,1-3.761,3.761M3.761,146.514a1.254,1.254,0,0,0-1.254,1.254v20.061a1.254,1.254,0,0,0,1.254,1.254h72.72a1.254,1.254,0,0,0,1.254-1.254V147.767a1.254,1.254,0,0,0-1.254-1.254H48.4a19.766,19.766,0,0,1,1.755,7.523c0,4.942-5.391,8.777-10.03,8.777s-10.03-3.834-10.03-8.777a19.766,19.766,0,0,1,1.755-7.523Z" transform="translate(0.091 -121.384)" fill="#e12058"/>
      <path id="Path_1193" data-name="Path 1193" d="M66.027,189a16.632,16.632,0,0,1-6.933-1.338,14.294,14.294,0,0,0-6.028-1.17,1.254,1.254,0,1,1,0-2.508A16.637,16.637,0,0,1,60,185.318a14.294,14.294,0,0,0,6.028,1.17,14.294,14.294,0,0,0,6.028-1.17,16.637,16.637,0,0,1,6.933-1.338,1.254,1.254,0,1,1,0,2.508,14.294,14.294,0,0,0-6.028,1.17A16.637,16.637,0,0,1,66.027,189m-44.9-1.338a14.277,14.277,0,0,1,6.024-1.17,1.254,1.254,0,1,0,0-2.508,16.614,16.614,0,0,0-6.93,1.338,14.263,14.263,0,0,1-6.018,1.17,14.268,14.268,0,0,1-6.018-1.17,16.606,16.606,0,0,0-6.936-1.338,1.254,1.254,0,1,0,0,2.508,14.268,14.268,0,0,1,6.018,1.17A16.6,16.6,0,0,0,14.2,189a16.609,16.609,0,0,0,6.928-1.338" transform="translate(0.091 -155.09)" fill="#e12058"/>
      <path id="Path_1194" data-name="Path 1194" d="M230.269,159.529a3.761,3.761,0,1,1,3.761-3.761,3.761,3.761,0,0,1-3.761,3.761m0-5.015-3.761,7.523a1.254,1.254,0,1,0,1.254,1.254,1.254,1.254,0,0,0-1.254-1.254m6.269-1.254a1.254,1.254,0,1,0,1.254,1.254,1.254,1.254,0,0,0-1.254-1.254m-7.523-3.761a1.254,1.254,0,1,0,1.254,1.254,1.254,1.254,0,0,0-1.254-1.254" transform="translate(-188.803 -128.13)" fill="#e12058"/>
      <path id="Path_1195" data-name="Path 1195" d="M139.217,5.9a1.254,1.254,0,0,1-1.773,0l-1.621-1.621V17.554a1.254,1.254,0,1,1-2.508,0V4.281L131.694,5.9a1.254,1.254,0,0,1-1.773-1.773L133.683.368a1.254,1.254,0,0,1,1.773,0l0,0,3.761,3.761a1.254,1.254,0,0,1,0,1.773m17.824,5.861a1.254,1.254,0,0,0,0-.958,1.24,1.24,0,0,0-.272-.409l-3.761-3.761a1.254,1.254,0,0,0-1.773,1.773l1.622,1.622h-5.75a6.276,6.276,0,0,0-6.269,6.269v2.508a1.254,1.254,0,0,0,2.508,0V16.3a3.761,3.761,0,0,1,3.761-3.761h5.75l-1.621,1.621a1.254,1.254,0,0,0,1.742,1.8l.031-.031,3.761-3.761a1.24,1.24,0,0,0,.271-.407m-35.01-1.733h-5.75L117.9,8.41a1.254,1.254,0,0,0-1.773-1.773L112.368,10.4a1.24,1.24,0,0,0-.272.409,1.254,1.254,0,0,0,0,.958,1.24,1.24,0,0,0,.272.409l3.761,3.761a1.254,1.254,0,0,0,1.773-1.773l-1.621-1.624h5.75a3.761,3.761,0,0,1,3.761,3.761v2.508a1.254,1.254,0,1,0,2.508,0V16.3a6.276,6.276,0,0,0-6.269-6.269" transform="translate(-94.357 0.053)" fill="#e12058"/>
    </g>
  </g>
</svg>
