<svg xmlns="http://www.w3.org/2000/svg" xmlns:xlink="http://www.w3.org/1999/xlink" width="62.783" height="68" viewBox="0 0 62.783 68">
  <defs>
    <clipPath id="clip-path">
      <rect id="Rectangle_518" data-name="Rectangle 518" width="62.783" height="68" fill="#e12058"/>
    </clipPath>
  </defs>
  <g id="Group_1941" data-name="Group 1941" transform="translate(0 0)">
    <g id="Group_983" data-name="Group 983" transform="translate(0 0)" clip-path="url(#clip-path)">
      <path id="Path_1156" data-name="Path 1156" d="M49.568,57.209c2.811-2.754,4.554-7.024,5.336-13.15a10.231,10.231,0,0,0,.351-1.428,9.846,9.846,0,0,0,.033-2.982c.066-1.314.1-2.692.1-4.147a50.036,50.036,0,0,0-2.906-18.068l-.046-.119c-.174-.446-.349-.887-.535-1.31-.228-.524-.462-1.035-.707-1.525-.131-.259-.259-.524-.395-.774-.054-.1-.109-.193-.163-.291C45.1,3.374,35.891,1.069,29.39.843,29,.828,28.618.821,28.26.821q-.414,0-.865.012C22.532.966,15.832,2.271,10.413,7.479L8.436,3.862,5.454,9.316,0,12.3,5.033,15.05c-2.374,4.944-3.9,11.574-3.9,20.452,0,1.454.034,2.833.1,4.147a9.891,9.891,0,0,0,.033,2.982,10.043,10.043,0,0,0,.352,1.428c.781,6.126,2.524,10.4,5.335,13.15a13.808,13.808,0,0,0,7.288,3.6c3.8,4.234,8.691,6.789,14.02,6.789a18.123,18.123,0,0,0,11.955-4.764l2.654,4.852,2.982-5.454L51.3,59.253l-2.524-1.38c.264-.218.537-.417.788-.664m-21.308,8.3a16.115,16.115,0,0,1-10.642-4.278c-.414-.363-.813-.748-1.2-1.15-.373-.382-.738-.773-1.09-1.19A28.524,28.524,0,0,1,9.951,48.77c-.1-.345-.188-.7-.282-1.056s-.2-.7-.286-1.063a36.264,36.264,0,0,1-.948-8.269c0-.745.01-1.468.028-2.175.01-.381.028-.745.043-1.115s.025-.741.044-1.1a48.477,48.477,0,0,1,1.26-9.037c8.225-.235,21.922-1.576,28.084-7.644A27.044,27.044,0,0,0,47.241,27.5,53.741,53.741,0,0,1,47.97,34c.019.355.03.731.044,1.1s.033.734.043,1.115c.018.707.029,1.43.029,2.175a36.263,36.263,0,0,1-.949,8.269c-.084.36-.189.708-.284,1.063s-.178.711-.283,1.056a31.276,31.276,0,0,1-2.042,5.08l-1.659-3.033L39.886,56.27l-5.443,2.977-.011.006,1.893,1.036,1.8.984.442.242a16,16,0,0,1-10.308,4M8.414,55.718a15.766,15.766,0,0,1-3.869-7.437c.015.011.029.025.044.036a5.428,5.428,0,0,0,3.1,1.021c.088,0,.175-.021.262-.025A31.792,31.792,0,0,0,12.1,58.052a10.655,10.655,0,0,1-3.691-2.334M3.335,39.788c.339-2.04,1.49-3.668,3.051-3.963h0c-.025.829-.04,1.678-.04,2.558A38.1,38.1,0,0,0,7.38,47.228a3.505,3.505,0,0,1-1.6-.62,6.068,6.068,0,0,1-2.109-2.959,7.932,7.932,0,0,1-.351-1.358,7.685,7.685,0,0,1,.01-2.5M33.474,3.378q.944.174,1.848.413c.124.033.248.069.373.1.664.189,1.315.4,1.944.64.018.008.037.015.055.022,8.379,3.258,13.645,11.267,15.148,23.354a13.726,13.726,0,0,1-3.7-1.659c-.393-.235-.8-.5-1.22-.782-.439-.3-.885-.618-1.336-.963a22.329,22.329,0,0,1-7.415-9.479l-.667-1.765-1.141,1.5c-4.742,6.262-18.432,7.76-26.937,8.064q-.586.023-1.138.037c-.374.01-.74.017-1.087.022-1.529.025-2.785.012-3.638-.006a35.987,35.987,0,0,1,1.87-5.811l2,3.66,2.981-5.454,1.159-.633L16.87,12.3l-.854-.468-4.57-2.5c.424-.432.862-.822,1.305-1.2.13-.112.257-.225.388-.331.367-.3.741-.571,1.118-.838.287-.2.577-.389.869-.573.073-.047.146-.09.219-.134A22.724,22.724,0,0,1,24.1,3.2c.15-.021.3-.046.45-.065.237-.029.473-.055.709-.079.41-.04.82-.077,1.224-.1.11-.007.218-.01.327-.015.487-.022.973-.037,1.448-.037.81,0,1.6.036,2.374.1l.283.022q1.1.1,2.146.275c.138.023.275.051.411.077m16.7,35.005c0-.88-.015-1.729-.04-2.558h0c1.562.3,2.713,1.924,3.051,3.965a7.627,7.627,0,0,1-.341,3.858,6.055,6.055,0,0,1-2.109,2.96,3.483,3.483,0,0,1-1.6.62,38.1,38.1,0,0,0,1.032-8.844m.349-4.609a4.581,4.581,0,0,0-.476-.039c-.1-1.755-.264-3.375-.476-4.893a10.142,10.142,0,0,0,3.512,1.165c.137,1.674.214,3.442.218,5.324a5.181,5.181,0,0,0-2.778-1.557M4.09,24.965c.771.023,2.006.047,3.562.033a51.758,51.758,0,0,0-1.176,8.738A4.577,4.577,0,0,0,6,33.774,5.188,5.188,0,0,0,3.221,35.33,59.3,59.3,0,0,1,4.09,24.965M45.85,56.27,45.7,56a32.707,32.707,0,0,0,2.865-6.683c.088,0,.174.025.262.025a5.425,5.425,0,0,0,3.1-1.021c.015-.011.029-.025.046-.036a15.779,15.779,0,0,1-3.871,7.437,10.09,10.09,0,0,1-1.3,1.072Z" transform="translate(0 0.312)" fill="#e12058"/>
      <path id="Path_1157" data-name="Path 1157" d="M21.342,38.523h2.086V36.436H21.342c-.477,0-1.01-.7-1.042-1.65L21.516,28.3l-2.051-.384L18.23,34.506l-.018.192c0,2.146,1.374,3.825,3.13,3.825" transform="translate(6.92 10.607)" fill="#e12058"/>
      <path id="Path_1158" data-name="Path 1158" d="M15.151,23.7a10.742,10.742,0,0,1,4.056.941l.94.448.9-1.877-.937-.453a12.789,12.789,0,0,0-4.962-1.147,16.013,16.013,0,0,0-5.28,1.121l-.965.4L9.7,25.06l.966-.395a14.108,14.108,0,0,1,4.486-.965" transform="translate(3.384 8.213)" fill="#e12058"/>
      <path id="Path_1159" data-name="Path 1159" d="M25.1,24.642a10.763,10.763,0,0,1,4.056-.941,14.05,14.05,0,0,1,4.486.966l.965.395.793-1.928-.965-.4a16.009,16.009,0,0,0-5.28-1.122,12.778,12.778,0,0,0-4.962,1.148l-.938.453.905,1.877Z" transform="translate(8.834 8.213)" fill="#e12058"/>
      <path id="Path_1160" data-name="Path 1160" d="M25.742,39.577a8.324,8.324,0,0,1-7.461,0l-.945-.443-.886,1.889.945.443a10.424,10.424,0,0,0,9.232,0l.945-.443-.886-1.889Z" transform="translate(6.25 14.87)" fill="#e12058"/>
      <path id="Path_1161" data-name="Path 1161" d="M40.4,4.1l-4.1,2.244,4.1,2.245,2.245,4.1,2.244-4.1,4.1-2.245L44.888,4.1,42.644,0Z" transform="translate(13.79 0)" fill="#e12058"/>
      <path id="Path_1162" data-name="Path 1162" d="M33.2,28.98l.92-.487-.973-1.842-.922.484a8.58,8.58,0,0,1-3.312.923,6.557,6.557,0,0,1-2.956-.887l-.886-.549-1.1,1.772.886.551a8.664,8.664,0,0,0,4.057,1.2A10.631,10.631,0,0,0,33.2,28.98" transform="translate(9.11 10.116)" fill="#e12058"/>
      <path id="Path_1163" data-name="Path 1163" d="M18.681,26.625l-.887.544a6.555,6.555,0,0,1-2.957.889,8.58,8.58,0,0,1-3.312-.923L10.6,26.65l-.974,1.842.92.487a10.649,10.649,0,0,0,4.288,1.165,8.632,8.632,0,0,0,4.056-1.2l.885-.549Z" transform="translate(3.658 10.117)" fill="#e12058"/>
    </g>
  </g>
</svg>
