<svg xmlns="http://www.w3.org/2000/svg" xmlns:xlink="http://www.w3.org/1999/xlink" width="80" height="50.303" viewBox="0 0 80 50.303">
  <defs>
    <clipPath id="clip-path">
      <rect id="Rectangle_520" data-name="Rectangle 520" width="80" height="50.303" fill="#e12058"/>
    </clipPath>
  </defs>
  <g id="Group_1943" data-name="Group 1943" transform="translate(0 0.116)">
    <g id="Group_987" data-name="Group 987" transform="translate(0 -0.116)" clip-path="url(#clip-path)">
      <path id="Path_1178" data-name="Path 1178" d="M222.26,100.531a1.252,1.252,0,0,1-1.235-1.045c-.028-.158-.725-3.963-3.774-3.963a1.252,1.252,0,0,1,0-2.5c3.078,0,3.766-3.923,3.774-3.963a1.252,1.252,0,0,1,2.469,0c.028.158.725,3.963,3.774,3.963a1.252,1.252,0,0,1,0,2.5c-3.078,0-3.766,3.923-3.774,3.963a1.252,1.252,0,0,1-1.235,1.045m-1.437-6.26a6.919,6.919,0,0,1,1.437,1.64" transform="translate(-182.195 -74.017)" fill="#e12058"/>
      <path id="Path_1179" data-name="Path 1179" d="M296.764,17.529h0a1.252,1.252,0,0,1-1.232-1.044c-.048-.263-1.171-6.468-6.28-6.468a1.252,1.252,0,1,1,0-2.5c5.11,0,6.233-6.205,6.278-6.469a1.251,1.251,0,0,1,2.467,0c.048.263,1.171,6.468,6.28,6.468a1.252,1.252,0,1,1,0,2.5c-5.11,0-6.233,6.205-6.278,6.469a1.252,1.252,0,0,1-1.234,1.043m3.218-8.764" transform="translate(-242.926 0.221)" fill="#e12058"/>
      <path id="Path_1180" data-name="Path 1180" d="M145.252,240A1.252,1.252,0,1,1,144,241.252,1.252,1.252,0,0,1,145.252,240" transform="translate(-121.463 -202.217)" fill="#e12058"/>
      <path id="Path_1181" data-name="Path 1181" d="M297.252,272A1.252,1.252,0,1,1,296,273.252,1.252,1.252,0,0,1,297.252,272" transform="translate(-249.674 -229.209)" fill="#e12058"/>
      <path id="Path_1182" data-name="Path 1182" d="M201.252,272A1.252,1.252,0,1,1,200,273.252,1.252,1.252,0,0,1,201.252,272" transform="translate(-168.699 -229.209)" fill="#e12058"/>
      <path id="Path_1183" data-name="Path 1183" d="M33.252,240A1.252,1.252,0,1,1,32,241.252,1.252,1.252,0,0,1,33.252,240" transform="translate(-26.992 -202.217)" fill="#e12058"/>
      <path id="Path_1184" data-name="Path 1184" d="M89.252,272A1.252,1.252,0,1,1,88,273.252,1.252,1.252,0,0,1,89.252,272" transform="translate(-74.227 -229.209)" fill="#e12058"/>
      <path id="Path_1185" data-name="Path 1185" d="M353.252,240A1.252,1.252,0,1,1,352,241.252,1.252,1.252,0,0,1,353.252,240" transform="translate(-296.91 -202.217)" fill="#e12058"/>
      <path id="Path_1186" data-name="Path 1186" d="M465.252,240A1.252,1.252,0,1,1,464,241.252,1.252,1.252,0,0,1,465.252,240" transform="translate(-391.381 -202.217)" fill="#e12058"/>
      <path id="Path_1187" data-name="Path 1187" d="M409.252,272A1.252,1.252,0,1,1,408,273.252,1.252,1.252,0,0,1,409.252,272" transform="translate(-344.145 -229.209)" fill="#e12058"/>
      <path id="Path_1188" data-name="Path 1188" d="M76.375,171.545H3.756A3.756,3.756,0,0,1,0,167.789V147.756A3.756,3.756,0,0,1,3.756,144H33.805a1.252,1.252,0,0,1,1.086,1.878,19.158,19.158,0,0,0-2.338,8.138c0,3.764,4.521,6.26,7.512,6.26s7.512-2.5,7.512-6.26a19.059,19.059,0,0,0-2.336-8.138A1.252,1.252,0,0,1,46.326,144H76.375a3.756,3.756,0,0,1,3.756,3.756v20.033a3.756,3.756,0,0,1-3.756,3.756M3.756,146.5A1.252,1.252,0,0,0,2.5,147.756v20.033a1.252,1.252,0,0,0,1.252,1.252H76.375a1.252,1.252,0,0,0,1.252-1.252V147.756a1.252,1.252,0,0,0-1.252-1.252H48.329a19.732,19.732,0,0,1,1.753,7.512c0,4.936-5.384,8.764-10.016,8.764s-10.016-3.829-10.016-8.764A19.732,19.732,0,0,1,31.8,146.5Z" transform="translate(0 -121.242)" fill="#e12058"/>
      <path id="Path_1189" data-name="Path 1189" d="M344.788,188.984a16.589,16.589,0,0,1-6.924-1.336,14.274,14.274,0,0,0-6.02-1.168,1.252,1.252,0,0,1,0-2.5,16.594,16.594,0,0,1,6.924,1.336,16.1,16.1,0,0,0,12.04,0,16.594,16.594,0,0,1,6.924-1.336,1.252,1.252,0,1,1,0,2.5,14.274,14.274,0,0,0-6.02,1.168,16.594,16.594,0,0,1-6.924,1.336" transform="translate(-278.852 -154.957)" fill="#e12058"/>
      <path id="Path_1190" data-name="Path 1190" d="M14.183,188.982a16.562,16.562,0,0,1-6.921-1.336,14.248,14.248,0,0,0-6.01-1.168,1.252,1.252,0,1,1,0-2.5A16.562,16.562,0,0,1,8.17,185.31a14.248,14.248,0,0,0,6.01,1.168,14.243,14.243,0,0,0,6.01-1.168,16.571,16.571,0,0,1,6.929-1.336,1.252,1.252,0,1,1,0,2.5,14.255,14.255,0,0,0-6.01,1.168,16.564,16.564,0,0,1-6.925,1.336" transform="translate(0 -154.956)" fill="#e12058"/>
    </g>
  </g>
</svg>
