<svg xmlns="http://www.w3.org/2000/svg" width="49.794" height="62.996" viewBox="0 0 49.794 62.996">
  <g id="autumn-tree" transform="translate(-8 -2.008)">
    <circle id="Ellipse_181" data-name="Ellipse 181" cx="1.016" cy="1.016" r="1.016" transform="translate(52.713 29.437)"/>
    <circle id="Ellipse_182" data-name="Ellipse 182" cx="1.016" cy="1.016" r="1.016" transform="translate(55.761 53.826)"/>
    <circle id="Ellipse_183" data-name="Ellipse 183" cx="1.016" cy="1.016" r="1.016" transform="translate(15.113 18.259)"/>
    <circle id="Ellipse_184" data-name="Ellipse 184" cx="1.016" cy="1.016" r="1.016" transform="translate(8 40.615)"/>
    <path id="Path_1387" data-name="Path 1387" d="M52.98,38.259a1.016,1.016,0,0,0-1.356,0c-.107.1-2.625,2.384-2.625,5.33s2.518,5.233,2.625,5.33a1.016,1.016,0,0,0,1.356,0c.107-.1,2.625-2.384,2.625-5.33S53.088,38.356,52.98,38.259Zm-.678,8.4a5.233,5.233,0,0,1-1.27-3.069A5.233,5.233,0,0,1,52.3,40.52a5.233,5.233,0,0,1,1.27,3.069A5.231,5.231,0,0,1,52.3,46.659Z" transform="translate(0.664 0.583)"/>
    <path id="Path_1388" data-name="Path 1388" d="M23.919,46.98a1.016,1.016,0,0,0,0-1.356c-.1-.107-2.385-2.625-5.33-2.625s-5.233,2.518-5.33,2.625a1.016,1.016,0,0,0,0,1.356c.1.107,2.385,2.625,5.33,2.625S23.822,47.088,23.919,46.98Zm-5.33-1.948a5.233,5.233,0,0,1,3.069,1.27,5.232,5.232,0,0,1-3.069,1.27A5.232,5.232,0,0,1,15.52,46.3a5.232,5.232,0,0,1,3.069-1.27Z" transform="translate(0.081 0.664)"/>
    <path id="Path_1389" data-name="Path 1389" d="M43.47,57.891a6.057,6.057,0,0,0-2.828.7,9.174,9.174,0,0,0-4.426-3.247l-.823-14.83A14.169,14.169,0,0,0,48.043,26.389a3.011,3.011,0,0,0-.335-1.36,6.4,6.4,0,0,0,2.859-1.575c2.082-2.083,1.921-5.481,1.912-5.625a1.015,1.015,0,0,0-.959-.959c-.142-.007-3.544-.169-5.625,1.913A7.517,7.517,0,0,0,44,23.52a3.043,3.043,0,0,0-2.055,2.869,8.08,8.08,0,0,1-6.891,8.027L34.426,23.1a10.142,10.142,0,0,0,8.028-9.918,1.016,1.016,0,0,0-2.032,0,8.117,8.117,0,0,1-6.112,7.867l-1-18.085a1.016,1.016,0,0,0-2.028,0l-.616,11.081a9.171,9.171,0,0,1-6.262-4.4,6.02,6.02,0,0,0,3.827-5.606,1.016,1.016,0,1,0-2.032,0A4.012,4.012,0,0,1,23.578,7.8a9.058,9.058,0,0,1-.432-2.748,1.016,1.016,0,0,0-2.032,0,11.211,11.211,0,0,0,9.434,11.04L29.89,27.926a6.129,6.129,0,0,1-3.7-5.6,3.049,3.049,0,1,0-6.1,0,11.981,11.981,0,0,0,.892,4.508,4.06,4.06,0,0,1-3.263-1.162,1.016,1.016,0,1,0-1.437,1.437,6.094,6.094,0,0,0,4.31,1.781,5.864,5.864,0,0,0,1.346-.18,12.261,12.261,0,0,0,7.6,5.483l-1.23,22.146a9.207,9.207,0,0,0-1.382,1.109A8.111,8.111,0,0,0,14,63.988,1.016,1.016,0,0,0,15.016,65H48.551a1.016,1.016,0,0,0,1.016-1.016A6.1,6.1,0,0,0,43.47,57.891Zm3.863-37.67A5.231,5.231,0,0,1,50.4,18.948a5.258,5.258,0,0,1-1.27,3.069,5.233,5.233,0,0,1-3.067,1.272A5.258,5.258,0,0,1,47.333,20.22ZM30.758,32.356A10.22,10.22,0,0,1,22.13,22.324a1.016,1.016,0,1,1,2.032,0,8.164,8.164,0,0,0,6.461,7.957,1.016,1.016,0,0,0,1.223-.938l.446-8.011.792,14.245a1.015,1.015,0,0,0,1.013.96h.032a10.109,10.109,0,0,0,9.849-10.148,1.016,1.016,0,0,1,2.032,0A12.146,12.146,0,0,1,34.284,38.558a1.016,1.016,0,0,0-.976,1.072L34.157,54.9c-.281-.027-.563-.056-.849-.056a9.09,9.09,0,0,0-2.9.481L31.62,33.418a1.015,1.015,0,0,0-.861-1.061ZM22.13,57.891a6.038,6.038,0,0,1,3.5,1.139,9.079,9.079,0,0,0-1.412,3.942H16.117A6.107,6.107,0,0,1,22.13,57.891Zm11.178-1.016a7.125,7.125,0,0,1,5.738,2.93,6.075,6.075,0,0,0-1.581,3.167h-11.2a7.124,7.124,0,0,1,7.041-6.1Zm6.226,6.1a4.065,4.065,0,0,1,7.871,0Z" transform="translate(0.097)"/>
  </g>
</svg>
