<svg xmlns="http://www.w3.org/2000/svg" width="80.119" height="52.578" viewBox="0 0 80.119 52.578">
  <g id="skin-2" transform="translate(0 -11)">
    <path id="Path_1199" data-name="Path 1199" d="M24.03,44.252A1.252,1.252,0,1,1,22.778,43,1.252,1.252,0,0,1,24.03,44.252Zm22.533,3.756a1.252,1.252,0,1,0,1.252,1.252A1.252,1.252,0,0,0,46.563,48.007Zm-15.022,0a1.252,1.252,0,1,0,1.252,1.252A1.252,1.252,0,0,0,31.541,48.007ZM5.252,43A1.252,1.252,0,1,0,6.5,44.252,1.252,1.252,0,0,0,5.252,43Zm8.763,5.007a1.252,1.252,0,1,0,1.252,1.252A1.252,1.252,0,0,0,14.015,48.007ZM55.326,43a1.252,1.252,0,1,0,1.252,1.252A1.252,1.252,0,0,0,55.326,43ZM39.052,43A1.252,1.252,0,1,0,40.3,44.252,1.252,1.252,0,0,0,39.052,43Zm33.8,0A1.252,1.252,0,1,0,74.1,44.252,1.252,1.252,0,0,0,72.852,43Zm-8.763,5.007a1.252,1.252,0,1,0,1.252,1.252A1.252,1.252,0,0,0,64.089,48.007Z" transform="translate(1.007 8.06)" fill="#e12058"/>
    <path id="Path_1200" data-name="Path 1200" d="M76.363,58.541H3.756A3.756,3.756,0,0,1,0,54.785V34.756A3.756,3.756,0,0,1,3.756,31H76.363a3.756,3.756,0,0,1,3.756,3.756v20.03A3.756,3.756,0,0,1,76.363,58.541ZM3.756,33.5A1.252,1.252,0,0,0,2.5,34.756v20.03a1.252,1.252,0,0,0,1.252,1.252H76.363a1.252,1.252,0,0,0,1.252-1.252V34.756A1.252,1.252,0,0,0,76.363,33.5Z" transform="translate(0 5.037)" fill="#e12058"/>
    <path id="Path_1201" data-name="Path 1201" d="M65.925,41.008A16.588,16.588,0,0,1,59,39.673,14.271,14.271,0,0,0,52.984,38.5a14.242,14.242,0,0,0-6.009,1.168,16.573,16.573,0,0,1-6.924,1.336,16.58,16.58,0,0,1-6.92-1.336A14.257,14.257,0,0,0,27.113,38.5,14.251,14.251,0,0,0,21.1,39.673a16.562,16.562,0,0,1-6.923,1.336,16.565,16.565,0,0,1-6.92-1.336A14.24,14.24,0,0,0,1.252,38.5a1.252,1.252,0,1,1,0-2.5,16.559,16.559,0,0,1,6.917,1.336A14.245,14.245,0,0,0,14.177,38.5a14.242,14.242,0,0,0,6.009-1.168A16.566,16.566,0,0,1,27.113,36a16.594,16.594,0,0,1,6.923,1.336A14.249,14.249,0,0,0,40.051,38.5a14.242,14.242,0,0,0,6.009-1.168A16.573,16.573,0,0,1,52.984,36a16.583,16.583,0,0,1,6.923,1.336A14.271,14.271,0,0,0,65.925,38.5a14.271,14.271,0,0,0,6.019-1.168A16.588,16.588,0,0,1,78.867,36a1.252,1.252,0,1,1,0,2.5,14.271,14.271,0,0,0-6.019,1.168A16.583,16.583,0,0,1,65.925,41.008Z" transform="translate(0 6.296)" fill="#e12058"/>
    <path id="Path_1202" data-name="Path 1202" d="M61.578,34.785H56.571a1.252,1.252,0,0,1-1.252-1.252v-2.5h-2.5a1.252,1.252,0,0,1-1.252-1.252V24.77a1.252,1.252,0,0,1,1.252-1.252h2.5v-2.5a1.252,1.252,0,0,1,1.252-1.252h5.007a1.252,1.252,0,0,1,1.252,1.252v2.5h2.5a1.252,1.252,0,0,1,1.252,1.252v5.007a1.252,1.252,0,0,1-1.252,1.252h-2.5v2.5A1.252,1.252,0,0,1,61.578,34.785Zm-3.756-2.5h2.5v-2.5a1.252,1.252,0,0,1,1.252-1.252h2.5v-2.5h-2.5a1.252,1.252,0,0,1-1.252-1.252v-2.5h-2.5v2.5a1.252,1.252,0,0,1-1.252,1.252h-2.5v2.5h2.5a1.252,1.252,0,0,1,1.252,1.252Zm-38.808,2.5H14.007a1.252,1.252,0,0,1-1.252-1.252v-2.5h-2.5A1.252,1.252,0,0,1,9,29.778V24.77a1.252,1.252,0,0,1,1.252-1.252h2.5v-2.5a1.252,1.252,0,0,1,1.252-1.252h5.007a1.252,1.252,0,0,1,1.252,1.252v2.5h2.5a1.252,1.252,0,0,1,1.252,1.252v5.007A1.252,1.252,0,0,1,22.77,31.03h-2.5v2.5A1.252,1.252,0,0,1,19.015,34.785Zm-3.756-2.5h2.5v-2.5a1.252,1.252,0,0,1,1.252-1.252h2.5v-2.5h-2.5a1.252,1.252,0,0,1-1.252-1.252v-2.5h-2.5v2.5a1.252,1.252,0,0,1-1.252,1.252H11.5v2.5h2.5a1.252,1.252,0,0,1,1.252,1.252ZM40.3,28.526H35.289a1.252,1.252,0,0,1-1.252-1.252V23.519H30.282a1.252,1.252,0,0,1-1.252-1.252V17.259a1.252,1.252,0,0,1,1.252-1.252h3.756V12.252A1.252,1.252,0,0,1,35.289,11H40.3a1.252,1.252,0,0,1,1.252,1.252v3.756H45.3a1.252,1.252,0,0,1,1.252,1.252v5.007A1.252,1.252,0,0,1,45.3,23.519H41.548v3.756A1.252,1.252,0,0,1,40.3,28.526Zm-3.756-2.5h2.5V22.267A1.252,1.252,0,0,1,40.3,21.015h3.756v-2.5H40.3a1.252,1.252,0,0,1-1.252-1.252V13.5h-2.5v3.756a1.252,1.252,0,0,1-1.252,1.252H31.533v2.5h3.756a1.252,1.252,0,0,1,1.252,1.252Z" transform="translate(2.267 0)" fill="#e12058"/>
  </g>
</svg>
