<svg xmlns="http://www.w3.org/2000/svg" width="54.02" height="66.855" viewBox="0 0 54.02 66.855">
  <g id="skin-type" transform="translate(-31.167 -20.015)">
    <path id="Path_1533" data-name="Path 1533" d="M91.18,74.13h0l-7.194-12.1a.575.575,0,0,0-.083-.106.756.756,0,0,0-.56-.265H75.37v-5a.756.756,0,0,0-1.513,0v4.962H65.809a.757.757,0,0,0-.56.265l-.091.144L57.972,74.07h0a.756.756,0,0,0-.076.227.1.1,0,0,0,0,.045.7.7,0,0,0,0,.25v.053a.341.341,0,0,0,0,.083,8.571,8.571,0,0,0,15.742,0v-.083a.144.144,0,0,0,0-.053.7.7,0,0,0,0-.25V74.3a.582.582,0,0,0-.083-.227L67.14,63.132H82.012l-6.5,10.938h0a.756.756,0,0,0-.076.227v.045a.56.56,0,0,0,0,.25.144.144,0,0,0,0,.053.341.341,0,0,0,0,.083,8.571,8.571,0,0,0,15.742,0,.341.341,0,0,0,0-.083.144.144,0,0,0,0-.053.56.56,0,0,0,0-.25s0,0,0-.045A.757.757,0,0,0,91.18,74.13ZM65.809,78.419a7.058,7.058,0,0,1-5.916-3.208H71.724A7.05,7.05,0,0,1,65.809,78.419Zm5.847-4.72H59.961l5.847-9.834Zm11.687-9.834L89.19,73.7h-11.7Zm0,14.562A7.065,7.065,0,0,1,77.42,75.22H89.259a7.058,7.058,0,0,1-5.915,3.2Z" transform="translate(-6.407 -8.629)" stroke="#101010" stroke-width="0.8"/>
    <path id="Path_1534" data-name="Path 1534" d="M80.606,38.579h.045a.757.757,0,0,0,.045-1.513c-14.085-.862-25.25-9.932-25.364-10.023a.756.756,0,0,0-.961,1.165C54.842,28.594,66.014,37.687,80.606,38.579Z" transform="translate(-5.494 -1.566)" stroke="#101010" stroke-width="0.8"/>
    <path id="Path_1535" data-name="Path 1535" d="M51.565,84.238c-6.165.961-9.493.953-10.772,0a2.02,2.02,0,0,1-.756-1.513,4.024,4.024,0,0,1,.484-1.876c.431-1.021.976-2.269.136-3.548a.885.885,0,0,0-.567-.348A1.384,1.384,0,0,1,39.03,75.7a1.513,1.513,0,0,1,.893-1.513.462.462,0,0,0,.166-.1l1.067-.84a.755.755,0,0,0-.378-1.346l-3.245-.386a1.546,1.546,0,0,1-.756-1.982,18.911,18.911,0,0,0,1.21-3.124c.348-1.4-1.263-2.058-2.678-2.632-.832-.34-2.1-.855-2.232-1.309-.045-.136.061-.333.151-.477a17.759,17.759,0,0,1,1.324-1.679c2.413-2.9,6.445-7.731,5.219-14.826-.983-5.734,1.815-11.263,4.539-15.068A31.589,31.589,0,0,0,51.565,36c.688.567,7,5.5,19.894,6.362h.053a.757.757,0,0,0,.053-1.513c-12.86-.855-19.009-5.991-19.07-6.052l-.106-.076c-7-4.138-9.032-7.625-9.5-9.834a4.281,4.281,0,0,1,.416-3.253.756.756,0,0,0-1.218-.893A5.7,5.7,0,0,0,41.4,25.13a10.189,10.189,0,0,0,1.914,4.062c-4.145,5.711-5.878,11.415-5,16.521,1.1,6.384-2.5,10.711-4.9,13.586-.567.681-1.059,1.278-1.415,1.808a2.027,2.027,0,0,0-.348,1.763c.356,1.142,1.755,1.71,3.109,2.269a7.474,7.474,0,0,1,1.785.87,18.253,18.253,0,0,1-1.112,2.844,2.973,2.973,0,0,0-.068,2.383,3.026,3.026,0,0,0,1.679,1.679l.189.053,1.445.166a3.026,3.026,0,0,0-1.157,2.708,2.9,2.9,0,0,0,2,2.519c.189.484,0,1.036-.386,1.891a5.3,5.3,0,0,0-.6,2.632,3.48,3.48,0,0,0,1.316,2.534c.923.7,2.322,1.051,4.539,1.051a50.374,50.374,0,0,0,7.406-.756.765.765,0,0,0-.235-1.513Z" stroke="#101010" stroke-width="0.8"/>
  </g>
</svg>
