<svg xmlns="http://www.w3.org/2000/svg" width="80.989" height="55.681" viewBox="0 0 80.989 55.681">
  <g id="skin" transform="translate(0 -10)">
    <path id="Path_1212" data-name="Path 1212" d="M24.247,45.265A1.265,1.265,0,1,1,22.982,44,1.265,1.265,0,0,1,24.247,45.265Zm22.778,3.8a1.265,1.265,0,1,0,1.265,1.265A1.265,1.265,0,0,0,47.026,49.062Zm-15.186,0a1.265,1.265,0,1,0,1.265,1.265A1.265,1.265,0,0,0,31.84,49.062ZM5.265,44a1.265,1.265,0,1,0,1.265,1.265A1.265,1.265,0,0,0,5.265,44Zm8.858,5.062a1.265,1.265,0,1,0,1.265,1.265A1.265,1.265,0,0,0,14.124,49.062ZM55.884,44a1.265,1.265,0,1,0,1.265,1.265A1.265,1.265,0,0,0,55.884,44ZM39.433,44A1.265,1.265,0,1,0,40.7,45.265,1.265,1.265,0,0,0,39.433,44ZM73.6,44a1.265,1.265,0,1,0,1.265,1.265A1.265,1.265,0,0,0,73.6,44Zm-8.858,5.062a1.265,1.265,0,1,0,1.265,1.265A1.265,1.265,0,0,0,64.742,49.062Z" transform="translate(1.062 9.026)" fill="#e12058"/>
    <path id="Path_1213" data-name="Path 1213" d="M77.193,59.84H3.8a3.8,3.8,0,0,1-3.8-3.8V35.8A3.8,3.8,0,0,1,3.8,32h73.4a3.8,3.8,0,0,1,3.8,3.8V56.044A3.8,3.8,0,0,1,77.193,59.84ZM3.8,34.531A1.265,1.265,0,0,0,2.531,35.8V56.044A1.265,1.265,0,0,0,3.8,57.309h73.4a1.265,1.265,0,0,0,1.265-1.265V35.8a1.265,1.265,0,0,0-1.265-1.265Z" transform="translate(0 5.84)" fill="#e12058"/>
    <path id="Path_1214" data-name="Path 1214" d="M66.642,42.063a16.789,16.789,0,0,1-7-1.35,14.426,14.426,0,0,0-6.084-1.181,14.409,14.409,0,0,0-6.074,1.181,16.766,16.766,0,0,1-7,1.35,16.771,16.771,0,0,1-7-1.35,14.415,14.415,0,0,0-6.082-1.181,14.409,14.409,0,0,0-6.074,1.181,16.762,16.762,0,0,1-7,1.35,16.76,16.76,0,0,1-7-1.35,14.4,14.4,0,0,0-6.074-1.181,1.265,1.265,0,1,1,0-2.531,16.76,16.76,0,0,1,6.992,1.35,14.4,14.4,0,0,0,6.074,1.181,14.4,14.4,0,0,0,6.074-1.181,16.769,16.769,0,0,1,7-1.35,16.78,16.78,0,0,1,7,1.35,14.411,14.411,0,0,0,6.082,1.181,14.4,14.4,0,0,0,6.074-1.181,16.769,16.769,0,0,1,7-1.35,16.794,16.794,0,0,1,7,1.35,14.426,14.426,0,0,0,6.084,1.181,14.426,14.426,0,0,0,6.084-1.181,16.794,16.794,0,0,1,7-1.35,1.265,1.265,0,0,1,0,2.531,14.426,14.426,0,0,0-6.084,1.181,16.794,16.794,0,0,1-7,1.35Z" transform="translate(0 7.166)" fill="#e12058"/>
    <path id="Path_1215" data-name="Path 1215" d="M56.557,16.265v5.062a1.265,1.265,0,1,1-2.531,0V19.32L34.673,38.673a1.265,1.265,0,0,1-1.789,0L11.371,17.16a1.265,1.265,0,1,1,1.789-1.789L33.778,35.989,52.236,17.531H50.229a1.265,1.265,0,1,1,0-2.531h5.062A1.265,1.265,0,0,1,56.557,16.265Z" transform="translate(2.92 1.327)" fill="#e12058"/>
    <path id="Path_1216" data-name="Path 1216" d="M64.964,16.265v5.062a1.265,1.265,0,1,1-2.531,0V19.32L43.08,38.673a1.265,1.265,0,0,1-1.789,0l-13.92-13.92a1.265,1.265,0,1,1,1.789-1.789L42.186,35.989,60.643,17.531H58.636a1.265,1.265,0,0,1,0-2.531H63.7A1.265,1.265,0,0,1,64.964,16.265Z" transform="translate(7.167 1.327)" fill="#e12058"/>
    <path id="Path_1217" data-name="Path 1217" d="M28.062,22.655A5.062,5.062,0,0,1,23,17.593V11.265a1.265,1.265,0,1,1,2.531,0v6.327a2.531,2.531,0,0,0,5.062,0V11.265a1.265,1.265,0,0,1,2.531,0v6.327A5.062,5.062,0,0,1,28.062,22.655Zm13.84-.821L45.7,11.71a1.266,1.266,0,1,0-2.371-.886l-2.611,6.961-2.611-6.96a1.266,1.266,0,0,0-2.371.886l3.8,10.124a1.265,1.265,0,0,0,2.371,0Z" transform="translate(6.106 0)" fill="#e12058"/>
  </g>
</svg>
