<svg xmlns="http://www.w3.org/2000/svg" width="52.445" height="61.779" viewBox="0 0 52.445 61.779">
  <g id="feather" transform="translate(-38.678)">
    <g id="Group_1135" data-name="Group 1135" transform="translate(38.678 0)">
      <path id="Path_1390" data-name="Path 1390" d="M90.548,19.376a1.208,1.208,0,0,0-.767-.171,11.041,11.041,0,0,0,1-6.227A45.087,45.087,0,0,0,87.4.725a1.207,1.207,0,0,0-1.638-.6,39.643,39.643,0,0,0-8.328,5.491,14.017,14.017,0,0,0-4.359,6.837,1.207,1.207,0,0,0-1.949,0,40.134,40.134,0,0,0-4.366,7.566l-.008.019c-.382.921-.807,1.839-1.261,2.728a15.232,15.232,0,0,0-1.35,3.813l-.027-.005a1.207,1.207,0,0,0-1.2.5,36.727,36.727,0,0,1-6.709,7.35,1.207,1.207,0,0,0,1.544,1.855,38.953,38.953,0,0,0,5.708-5.877q.275.8.585,1.575a1.207,1.207,0,0,0,2.315-.617l-.006-.044a12.583,12.583,0,0,1,1.286-7.453c.481-.943.931-1.915,1.337-2.891a36.518,36.518,0,0,1,2.7-5.05c.351,1.024.747,2.03,1.186,3.011a1.207,1.207,0,0,0,2.289-.708l-.012-.068A11.525,11.525,0,0,1,79.008,7.446a37.23,37.23,0,0,1,6.679-4.57,42.7,42.7,0,0,1,2.7,10.41,8.6,8.6,0,0,1-3.633,8.194l-.044.031a1.207,1.207,0,0,0,1.113,2.121c.927-.351,1.847-.746,2.752-1.179a42.336,42.336,0,0,1-1.8,9.04,11.933,11.933,0,0,1-3.542,5.415,11.669,11.669,0,0,1-5.84,2.733l-.074.012a1.207,1.207,0,0,0,.081,2.394,35.719,35.719,0,0,0,4.276.115q-.548.828-1.133,1.628a42.717,42.717,0,0,1-6.675,7.222,27.1,27.1,0,0,1-12.486,6.014,27.574,27.574,0,0,1-11.27-.184A73.193,73.193,0,0,0,64.414,45.775a23.422,23.422,0,0,0,3.1.209A19.48,19.48,0,0,0,73.5,45.1a1.207,1.207,0,1,0-.748-2.294,17.574,17.574,0,0,1-6.2.747A71.39,71.39,0,0,0,81.938,17.425a1.207,1.207,0,1,0-2.291-.758A69.173,69.173,0,0,1,73.021,31a15.9,15.9,0,0,1,.25-6.308,1.207,1.207,0,0,0-2.338-.6,18.649,18.649,0,0,0,.247,9.763,70.1,70.1,0,0,1-7.071,8.776q-2.362,2.495-4.974,4.753A10.784,10.784,0,0,1,60.371,39.7a1.207,1.207,0,0,0-2.11-1.171,13.182,13.182,0,0,0-1.154,10.546,71.06,71.06,0,0,1-9.092,6.2,21.12,21.12,0,0,1,2.716-11.387,1.207,1.207,0,1,0-2.1-1.182,23.514,23.514,0,0,0-2.94,13.846q-3.059,1.6-6.254,2.9a1.207,1.207,0,1,0,.9,2.238,71.563,71.563,0,0,0,6.782-3.162,29.985,29.985,0,0,0,14.731.867,29.515,29.515,0,0,0,13.6-6.551A45.132,45.132,0,0,0,82.5,45.214c.891-1.22,1.731-2.5,2.495-3.8a1.207,1.207,0,0,0-1.16-1.812l-.142.014a14.19,14.19,0,0,0,1.133-.89,14.346,14.346,0,0,0,4.259-6.51A44.8,44.8,0,0,0,91.122,20.45a1.207,1.207,0,0,0-.574-1.074Z" transform="translate(-38.678 0)"/>
      <circle id="Ellipse_185" data-name="Ellipse 185" cx="1.207" cy="1.207" r="1.207" transform="translate(13.003 37.714)"/>
    </g>
  </g>
</svg>
