<svg xmlns="http://www.w3.org/2000/svg" width="80.446" height="41.48" viewBox="0 0 80.446 41.48">
  <g id="skin-3" transform="translate(0 -21)">
    <circle id="Ellipse_126" data-name="Ellipse 126" cx="1.282" cy="1.282" r="1.282" transform="translate(22.564 49.718)" fill="#e12058"/>
    <circle id="Ellipse_127" data-name="Ellipse 127" cx="1.282" cy="1.282" r="1.282" transform="translate(46.666 54.846)" fill="#e12058"/>
    <circle id="Ellipse_128" data-name="Ellipse 128" cx="1.282" cy="1.282" r="1.282" transform="translate(31.282 54.846)" fill="#e12058"/>
    <circle id="Ellipse_129" data-name="Ellipse 129" cx="1.282" cy="1.282" r="1.282" transform="translate(5.128 49.718)" fill="#e12058"/>
    <circle id="Ellipse_130" data-name="Ellipse 130" cx="1.282" cy="1.282" r="1.282" transform="translate(13.846 54.846)" fill="#e12058"/>
    <circle id="Ellipse_131" data-name="Ellipse 131" cx="1.282" cy="1.282" r="1.282" transform="translate(55.384 49.718)" fill="#e12058"/>
    <circle id="Ellipse_132" data-name="Ellipse 132" cx="1.282" cy="1.282" r="1.282" transform="translate(72.82 49.718)" fill="#e12058"/>
    <circle id="Ellipse_133" data-name="Ellipse 133" cx="1.282" cy="1.282" r="1.282" transform="translate(64.102 54.846)" fill="#e12058"/>
    <path id="Path_1203" data-name="Path 1203" d="M76.675,59.653H3.771A3.771,3.771,0,0,1,0,55.883V35.771A3.771,3.771,0,0,1,3.771,32H33.938a1.257,1.257,0,0,1,1.09,1.885,19.251,19.251,0,0,0-2.347,8.17c0,3.778,4.539,6.285,7.542,6.285s7.542-2.506,7.542-6.285a19.132,19.132,0,0,0-2.346-8.17A1.257,1.257,0,0,1,46.508,32H76.675a3.771,3.771,0,0,1,3.771,3.771V55.883A3.771,3.771,0,0,1,76.675,59.653ZM3.771,34.514a1.257,1.257,0,0,0-1.257,1.257V55.883a1.257,1.257,0,0,0,1.257,1.257h72.9a1.257,1.257,0,0,0,1.257-1.257V35.771a1.257,1.257,0,0,0-1.257-1.257H48.519a19.809,19.809,0,0,1,1.76,7.542c0,4.955-5.4,8.8-10.056,8.8s-10.056-3.844-10.056-8.8a19.809,19.809,0,0,1,1.76-7.542Z" transform="translate(0 2.827)" fill="#e12058"/>
    <path id="Path_1204" data-name="Path 1204" d="M55.576,42.029a16.656,16.656,0,0,1-6.951-1.341,14.33,14.33,0,0,0-6.044-1.173,1.257,1.257,0,0,1,0-2.514,16.651,16.651,0,0,1,6.951,1.341,14.33,14.33,0,0,0,6.044,1.173,14.33,14.33,0,0,0,6.044-1.173A16.656,16.656,0,0,1,68.57,37a1.257,1.257,0,0,1,0,2.514,14.33,14.33,0,0,0-6.044,1.173A16.651,16.651,0,0,1,55.576,42.029Z" transform="translate(10.619 4.111)" fill="#e12058"/>
    <path id="Path_1205" data-name="Path 1205" d="M14.239,42.029A16.632,16.632,0,0,1,7.29,40.688a14.3,14.3,0,0,0-6.033-1.173,1.257,1.257,0,0,1,0-2.514A16.627,16.627,0,0,1,8.2,38.342a14.3,14.3,0,0,0,6.033,1.173,14.3,14.3,0,0,0,6.033-1.173A16.634,16.634,0,0,1,27.224,37a1.257,1.257,0,0,1,0,2.514,14.309,14.309,0,0,0-6.033,1.173,16.63,16.63,0,0,1-6.951,1.341Z" transform="translate(0 4.111)" fill="#e12058"/>
    <path id="Path_1206" data-name="Path 1206" d="M49.827,26.514H37.257a1.257,1.257,0,1,1,0-2.514h12.57a1.257,1.257,0,0,1,0,2.514Z" transform="translate(9.251 0.771)" fill="#e12058"/>
    <path id="Path_1207" data-name="Path 1207" d="M37.257,27.285a1.257,1.257,0,0,1-.889-2.146l3.771-3.771a1.257,1.257,0,1,1,1.777,1.777l-3.771,3.771a1.257,1.257,0,0,1-.889.368Z" transform="translate(9.251 0)" fill="#e12058"/>
    <path id="Path_1208" data-name="Path 1208" d="M41.028,30.285a1.257,1.257,0,0,1-.888-.368l-3.771-3.771a1.257,1.257,0,1,1,1.777-1.777l3.771,3.771a1.257,1.257,0,0,1-.889,2.146Z" transform="translate(9.251 0.771)" fill="#e12058"/>
    <path id="Path_1209" data-name="Path 1209" d="M29.827,26.514H17.257a1.257,1.257,0,0,1,0-2.514h12.57a1.257,1.257,0,1,1,0,2.514Z" transform="translate(4.112 0.771)" fill="#e12058"/>
    <path id="Path_1210" data-name="Path 1210" d="M28.028,27.285a1.257,1.257,0,0,1-.888-.368l-3.771-3.771a1.257,1.257,0,1,1,1.777-1.777l3.771,3.771a1.257,1.257,0,0,1-.889,2.146Z" transform="translate(5.91)" fill="#e12058"/>
    <path id="Path_1211" data-name="Path 1211" d="M24.257,30.285a1.257,1.257,0,0,1-.889-2.146l3.771-3.771a1.257,1.257,0,1,1,1.778,1.777l-3.771,3.771A1.257,1.257,0,0,1,24.257,30.285Z" transform="translate(5.91 0.771)" fill="#e12058"/>
  </g>
</svg>
