<svg xmlns="http://www.w3.org/2000/svg" xmlns:xlink="http://www.w3.org/1999/xlink" width="149" height="149" viewBox="0 0 149 149">
  <defs>
    <filter id="Ellipse_4" x="0" y="0" width="149" height="149" filterUnits="userSpaceOnUse">
      <feOffset dx="4" dy="4" input="SourceAlpha"/>
      <feGaussianBlur stdDeviation="1.5" result="blur"/>
      <feFlood flood-opacity="0.161"/>
      <feComposite operator="in" in2="blur"/>
      <feComposite in="SourceGraphic"/>
    </filter>
    <clipPath id="clip-path">
      <rect id="Rectangle_21" data-name="Rectangle 21" width="105.839" height="107.59" fill="none"/>
    </clipPath>
  </defs>
  <g id="Group_17" data-name="Group 17" transform="translate(-138.237 -448.237)">
    <g transform="matrix(1, 0, 0, 1, 138.24, 448.24)" filter="url(#Ellipse_4)">
      <g id="Ellipse_4-2" data-name="Ellipse 4" transform="translate(0.5 0.5)" fill="#e12058" stroke="#fff" stroke-width="4">
        <circle cx="70" cy="70" r="70" stroke="none"/>
        <circle cx="70" cy="70" r="68" fill="none"/>
      </g>
    </g>
    <g id="Group_14" data-name="Group 14" transform="translate(155.462 464.942)">
      <g id="Group_13" data-name="Group 13" clip-path="url(#clip-path)">
        <path id="Path_29" data-name="Path 29" d="M81.537,94.005a8.908,8.908,0,0,1-2.068-5.39,7,7,0,0,1,2.146-4.949l-.627-.606.611.622c.278-.272.566-.538.862-.79h0a25.2,25.2,0,0,1,2.412-1.775h0c1.526-1.015,3.2-1.976,4.775-3.061h0a17.626,17.626,0,0,0,4.011-3.565,9.733,9.733,0,0,0,2.087-5.171v-.015c.032-.4.054-.807.054-1.215a6.875,6.875,0,0,0-.844-3.5.872.872,0,0,0-1.519.856,5.13,5.13,0,0,1,.619,2.642c0,.345-.019.7-.049,1.078l.87.069-.868-.084a7.964,7.964,0,0,1-1.724,4.264,15.953,15.953,0,0,1-3.622,3.2l0,0c-1.495,1.031-3.16,1.989-4.75,3.044h0a26.9,26.9,0,0,0-2.578,1.9h0c-.332.283-.648.576-.952.873l-.017.017a8.756,8.756,0,0,0-2.637,6.161,10.64,10.64,0,0,0,2.435,6.46.872.872,0,1,0,1.378-1.07" transform="translate(-30.162 -24.894)" fill="#fff"/>
        <path id="Path_30" data-name="Path 30" d="M83.147,103.367A13.1,13.1,0,0,1,84.721,97.8a8.009,8.009,0,0,1,3.558-3.466h0a5.084,5.084,0,0,1,1.56-.4c.835-.1,1.764-.078,2.764-.274a5.435,5.435,0,0,0,1.522-.533,5.217,5.217,0,0,0,1.448-1.163l-.654-.578.631.6a5.478,5.478,0,0,0,1-1.434,4.1,4.1,0,0,0,.405-1.751,3.928,3.928,0,0,0-.307-1.513.872.872,0,1,0-1.611.669,2.167,2.167,0,0,1,.173.844,2.342,2.342,0,0,1-.239,1.008,3.716,3.716,0,0,1-.685.973l-.023.024a3.339,3.339,0,0,1-1.3.936,7.681,7.681,0,0,1-2.377.376,8.351,8.351,0,0,0-3.037.624h0a9.748,9.748,0,0,0-4.355,4.2,14.841,14.841,0,0,0-1.794,6.312.872.872,0,1,0,1.741.108" transform="translate(-31.591 -33.668)" fill="#fff"/>
        <path id="Path_31" data-name="Path 31" d="M103.844,78.682a3.268,3.268,0,0,0,2.074.775A3.419,3.419,0,0,0,107.582,79a5.328,5.328,0,0,0,1.846-1.806,6.426,6.426,0,0,0,.939-2.492v0a5.35,5.35,0,0,0,.059-.785,4.421,4.421,0,0,0-.248-1.494,3.754,3.754,0,0,0-.829-1.344l-.629.6.408.771a5.429,5.429,0,0,0,2.128-1.908,4.5,4.5,0,0,0,.674-2.388V68.1a5.92,5.92,0,0,0-1.686-3.919,6.05,6.05,0,0,0-1.751-1.289,4.959,4.959,0,0,0-2.147-.5,4.74,4.74,0,0,0-2.786.928.872.872,0,1,0,1.016,1.417,2.987,2.987,0,0,1,1.77-.6,3.212,3.212,0,0,1,1.392.333A4.488,4.488,0,0,1,109.476,66a3.967,3.967,0,0,1,.709,2.12v.04a2.736,2.736,0,0,1-.412,1.469,3.691,3.691,0,0,1-1.463,1.286.872.872,0,0,0-.22,1.376,2.013,2.013,0,0,1,.444.723,2.707,2.707,0,0,1,.146.906,3.578,3.578,0,0,1-.04.529v0a4.712,4.712,0,0,1-1.059,2.311,3.193,3.193,0,0,1-.847.714,1.683,1.683,0,0,1-.818.234,1.521,1.521,0,0,1-.975-.386.872.872,0,1,0-1.1,1.355" transform="translate(-40.047 -24.211)" fill="#fff"/>
        <path id="Path_32" data-name="Path 32" d="M80.423,57.346a14.818,14.818,0,0,0-2.386-.208,8.585,8.585,0,0,0-3.394.622,5.591,5.591,0,0,0-2.221,1.667h0A5.852,5.852,0,0,0,71.2,63.085a6.345,6.345,0,0,0,.48,2.445v0a10.339,10.339,0,0,0,1.072,1.913,24.045,24.045,0,0,0,3.365,3.68h0a34.52,34.52,0,0,1,3,2.972,8.928,8.928,0,0,1,1.113,1.632,4.8,4.8,0,0,1,.526,1.682.872.872,0,1,0,1.735-.181,6.518,6.518,0,0,0-.708-2.3A12.329,12.329,0,0,0,79.673,72.1c-.8-.839-1.65-1.589-2.367-2.257h0a22.377,22.377,0,0,1-3.125-3.4,8.6,8.6,0,0,1-.894-1.589v0a4.626,4.626,0,0,1-.343-1.767,4.111,4.111,0,0,1,.844-2.573v0a3.852,3.852,0,0,1,1.54-1.146,6.868,6.868,0,0,1,2.708-.482,13.029,13.029,0,0,1,2.1.185.872.872,0,0,0,.282-1.722" transform="translate(-27.631 -22.174)" fill="#fff"/>
        <path id="Path_33" data-name="Path 33" d="M70.306,60.2l-.04-.047h0a3,3,0,0,0-1.118-.81,3.329,3.329,0,0,0-1.291-.247,4.993,4.993,0,0,0-2.145.534,6.92,6.92,0,0,0-1.866,1.334l0,0a6.166,6.166,0,0,0-1.177,1.6,4.323,4.323,0,0,0-.482,1.926,3.662,3.662,0,0,0,.963,2.462h0a5.632,5.632,0,0,0,1.516,1.174l.422-.763-.5-.717a4.833,4.833,0,0,0-1.485,1.57,3.7,3.7,0,0,0-.488,1.833,4.135,4.135,0,0,0,.472,1.884A5.533,5.533,0,0,0,65.1,74.072a5.611,5.611,0,0,0,2.946.863,5.064,5.064,0,0,0,1.759-.314l-.3-.818-.873-.032c0,.087,0,.173,0,.257a5.087,5.087,0,0,0,.238,1.605,3.92,3.92,0,0,0,1.39,1.917,12.373,12.373,0,0,0,2.752,1.362,7.667,7.667,0,0,1,1.157.583,2.918,2.918,0,0,1,.808.739.873.873,0,0,0,1.416-1.02,5.267,5.267,0,0,0-2.025-1.6c-.545-.267-1.09-.473-1.586-.68A5.194,5.194,0,0,1,71.018,75.9a2.062,2.062,0,0,1-.461-.718,3.2,3.2,0,0,1-.185-1.158c0-.062,0-.126,0-.192a.872.872,0,0,0-1.174-.851,3.318,3.318,0,0,1-1.155.206,3.98,3.98,0,0,1-2.59-1.021,3.6,3.6,0,0,1-.811-1.029,2.4,2.4,0,0,1-.281-1.089,1.939,1.939,0,0,1,.262-.974,3.08,3.08,0,0,1,.96-1,.872.872,0,0,0-.075-1.48,3.935,3.935,0,0,1-1.054-.8h0a1.909,1.909,0,0,1-.525-1.305,2.592,2.592,0,0,1,.3-1.147,4.42,4.42,0,0,1,.846-1.142l0,0a5.2,5.2,0,0,1,1.393-1,3.266,3.266,0,0,1,1.386-.36,1.6,1.6,0,0,1,.62.113,1.249,1.249,0,0,1,.472.344h0l.04.047A.872.872,0,0,0,70.306,60.2" transform="translate(-24.133 -22.935)" fill="#fff"/>
        <path id="Path_34" data-name="Path 34" d="M87.039,64.664a3,3,0,0,1-.613.069,1.844,1.844,0,0,1-1.371-.535,1.558,1.558,0,0,1-.454-1.052.981.981,0,0,1,.033-.261v0a.664.664,0,0,1,.259-.382,1.252,1.252,0,0,1,.742-.187,3.085,3.085,0,0,1,.581.061h-.007a4.174,4.174,0,0,1,2.36,1.259,2.779,2.779,0,0,1,.732,1.834,2.262,2.262,0,0,1-.665,1.619,3.4,3.4,0,0,1-2.221.89l-.021,0a2.727,2.727,0,0,1-.286.019H86.08l-.14,0a5.912,5.912,0,0,1-2.431-.571A6.834,6.834,0,0,1,81.373,65.9a4.421,4.421,0,0,1-1.288-2.975,3.724,3.724,0,0,1,.153-1.049l0-.013c.027-.095.05-.174.076-.246a4.162,4.162,0,0,1,1.157-1.708,6.173,6.173,0,0,1,1.9-1.147l0,0a8.034,8.034,0,0,1,2.917-.561,6.49,6.49,0,0,1,1.049.082h0c.4.065.78.147,1.148.241l-.006,0a8.662,8.662,0,0,1,2.923,1.335,10.15,10.15,0,0,1,2.306,2.379.872.872,0,0,0,1.415-1.019,11.882,11.882,0,0,0-2.7-2.777,10.4,10.4,0,0,0-3.5-1.6l-.006,0c-.411-.1-.843-.2-1.294-.271h0a8.258,8.258,0,0,0-1.333-.105,9.746,9.746,0,0,0-3.563.685h0a7.894,7.894,0,0,0-2.433,1.48,5.908,5.908,0,0,0-1.63,2.422c-.044.125-.079.244-.111.358l.841.233-.838-.245a5.459,5.459,0,0,0-.223,1.539,6.16,6.16,0,0,0,1.751,4.159,8.568,8.568,0,0,0,2.688,1.936,7.627,7.627,0,0,0,3.161.731c.064,0,.128,0,.192,0l-.027-.871v.872a4.466,4.466,0,0,0,.46-.028l-.087-.868.065.87a5.126,5.126,0,0,0,3.325-1.4,4.011,4.011,0,0,0,1.174-2.85,4.518,4.518,0,0,0-1.171-2.991,5.915,5.915,0,0,0-3.321-1.813h-.006a4.8,4.8,0,0,0-.912-.092,2.972,2.972,0,0,0-1.756.513,2.42,2.42,0,0,0-.926,1.339v0a2.746,2.746,0,0,0-.093.717,3.291,3.291,0,0,0,.949,2.269,3.594,3.594,0,0,0,2.621,1.062,4.749,4.749,0,0,0,.969-.105.872.872,0,0,0-.356-1.708" transform="translate(-30.402 -21.907)" fill="#fff"/>
        <path id="Path_35" data-name="Path 35" d="M95.586,70.154q.017.174.035.349l.868-.087-.869.076q.062.716.061,1.45a26.083,26.083,0,0,1-1.028,6.808.872.872,0,1,0,1.682.464,27.822,27.822,0,0,0,1.09-7.272c0-.535-.021-1.069-.068-1.6v-.012c-.012-.116-.023-.232-.035-.348a.872.872,0,1,0-1.736.174Z" transform="translate(-36.72 -26.852)" fill="#fff"/>
        <path id="Path_36" data-name="Path 36" d="M76.717,63.1A10.573,10.573,0,0,0,74.936,66a25.9,25.9,0,0,1-1.267,2.669.872.872,0,1,0,1.494.9,26.68,26.68,0,0,0,1.362-2.853A8.938,8.938,0,0,1,78,64.281a.872.872,0,0,0-1.285-1.18" transform="translate(-28.54 -24.378)" fill="#fff"/>
        <path id="Path_37" data-name="Path 37" d="M91.106,70.769a6.328,6.328,0,0,1-.841,2.387.872.872,0,1,0,1.545.81,8.026,8.026,0,0,0,1.032-3.022.872.872,0,1,0-1.736-.175" transform="translate(-34.991 -27.159)" fill="#fff"/>
        <path id="Path_38" data-name="Path 38" d="M83.977,65.386c-.409.586-.911,1.155-1.409,1.775a9.215,9.215,0,0,0-1.341,2.109.872.872,0,1,0,1.6.688,7.544,7.544,0,0,1,1.1-1.705c.46-.576.99-1.172,1.477-1.866a.872.872,0,0,0-1.429-1Z" transform="translate(-31.494 -25.23)" fill="#fff"/>
        <path id="Path_39" data-name="Path 39" d="M61,69.859a18.082,18.082,0,0,0-3.386,5.268,13.616,13.616,0,0,0-.981,5.149c0,.535.028,1.069.08,1.6a23.359,23.359,0,0,0,.519,3.058v0a14.053,14.053,0,0,0,2.96,5.73,21.144,21.144,0,0,0,4.827,4.222h0a19.43,19.43,0,0,0,7.483,2.8l.133-.862-.144.86q.773.129,1.548.184L74.1,97l-.072.87c.565.046,1.133.069,1.7.069a19.357,19.357,0,0,0,9.667-2.512,15.791,15.791,0,0,0,6.71-7.511l0-.007a14.675,14.675,0,0,0,1.3-5.691c0-.268-.009-.54-.029-.813v0a12.845,12.845,0,0,0-1.15-4.4l-.8.356.809-.326-.012-.029a.872.872,0,1,0-1.619.65l.012.029.013.03a11.109,11.109,0,0,1,1,3.8v0q.025.347.024.687a12.966,12.966,0,0,1-1.169,5.021l0-.007a14.036,14.036,0,0,1-5.98,6.685,17.605,17.605,0,0,1-8.792,2.278c-.518,0-1.037-.021-1.555-.064h-.01q-.69-.049-1.384-.165l-.01,0a17.689,17.689,0,0,1-6.811-2.542h0a19.421,19.421,0,0,1-4.427-3.867,12.316,12.316,0,0,1-2.6-5.011v0a21.649,21.649,0,0,1-.481-2.827c-.047-.483-.072-.962-.072-1.436a11.88,11.88,0,0,1,.855-4.5,16.37,16.37,0,0,1,3.07-4.757.872.872,0,0,0-1.3-1.16" transform="translate(-21.976 -26.996)" fill="#fff"/>
        <path id="Path_40" data-name="Path 40" d="M83.729,103.941c0,.088-.018.219-.019.393h.873l-.871-.044q-.019.382-.02.758a8.711,8.711,0,0,0,1.385,5.1,5.87,5.87,0,0,0,1.977,1.754,7.605,7.605,0,0,0,2.867.851h0a8.776,8.776,0,0,0,.986.056,9.619,9.619,0,0,0,3.354-.633,33.661,33.661,0,0,0,4.243-2.12,12.664,12.664,0,0,1,4.083-1.546h-.009a8.978,8.978,0,0,1,1.256-.088,8.508,8.508,0,0,1,3.752.843.872.872,0,0,0,1.259-.714,12.552,12.552,0,0,1,1.538-4.536,13.466,13.466,0,0,0,1.661-5.144v0c.012-.2.02-.405.02-.613a14.393,14.393,0,0,0-1.444-6.036h0a8.614,8.614,0,0,0-3.278-3.814l-.048-.025a8.758,8.758,0,0,0-3.823-.832c-.108,0-.216,0-.324,0a.872.872,0,0,0,.059,1.744c.088,0,.176,0,.265,0a7.024,7.024,0,0,1,3.055.654l.383-.783-.431.758a6.93,6.93,0,0,1,2.571,3.06h0a12.7,12.7,0,0,1,1.267,5.271c0,.173-.006.341-.016.5v0a11.875,11.875,0,0,1-1.489,4.486,14.138,14.138,0,0,0-1.708,5.165l.87.067.389-.781a10.239,10.239,0,0,0-4.53-1.026,10.741,10.741,0,0,0-1.5.105h-.008a18.271,18.271,0,0,0-6.015,2.484,19.816,19.816,0,0,1-2.653,1.27,7.867,7.867,0,0,1-2.751.526,7.052,7.052,0,0,1-.792-.045h0a5.874,5.874,0,0,1-2.215-.647,4.223,4.223,0,0,1-1.863-2.063,8.067,8.067,0,0,1-.593-3.263c0-.22.006-.442.017-.669v-.044c0-.058.008-.16.017-.3a.872.872,0,1,0-1.742-.089" transform="translate(-32.478 -33.979)" fill="#fff"/>
        <path id="Path_41" data-name="Path 41" d="M52.381,88.068a4.712,4.712,0,0,0-1.318-.181,6.2,6.2,0,0,0-1.843.3,6.861,6.861,0,0,0-1.344.583,10.347,10.347,0,0,0-3.416,3.3l0-.007A10.947,10.947,0,0,0,42.891,95.6l.85.2-.844-.222a7.78,7.78,0,0,0-.253,2,15.414,15.414,0,0,0,.706,4.047A13.842,13.842,0,0,1,44,105.175a5.688,5.688,0,0,1-.567,2.506.873.873,0,0,0,.874,1.243c.236-.023.466-.034.69-.034a7.627,7.627,0,0,1,2.951.628,33.058,33.058,0,0,1,4.3,2.429,14.677,14.677,0,0,0,5.023,2.115,11.811,11.811,0,0,0,2.055.186,9.146,9.146,0,0,0,5.269-1.581,10.245,10.245,0,0,0,3.507-4.4v0c.516-1.163.912-2.426,1.281-3.54a.872.872,0,1,0-1.656-.549c-.374,1.13-.758,2.345-1.219,3.38v0a8.508,8.508,0,0,1-2.9,3.664,7.4,7.4,0,0,1-4.28,1.273,10.1,10.1,0,0,1-1.751-.159,10.427,10.427,0,0,1-2.985-1.073c-1.448-.747-2.852-1.748-4.386-2.594a10.66,10.66,0,0,0-5.206-1.532c-.283,0-.57.013-.863.043l.088.868.788.374a7.426,7.426,0,0,0,.734-3.255,15.282,15.282,0,0,0-.706-4.012,13.862,13.862,0,0,1-.646-3.591,6.049,6.049,0,0,1,.2-1.552L44.59,96a9.243,9.243,0,0,1,1.324-2.971l0-.006a8.631,8.631,0,0,1,2.83-2.741,5.1,5.1,0,0,1,.994-.43,4.505,4.505,0,0,1,1.321-.217,2.975,2.975,0,0,1,.832.113.872.872,0,1,0,.486-1.675" transform="translate(-16.549 -34.106)" fill="#fff"/>
        <path id="Path_42" data-name="Path 42" d="M42.766,80.485A4.648,4.648,0,0,1,40.746,78.1a8.961,8.961,0,0,1-.441-3.156c0-.974.064-2,.064-3.044a10.02,10.02,0,0,0-.608-3.853,5.874,5.874,0,0,0-1.119-1.76,6.913,6.913,0,0,0-1.89-1.42l-.406.772.181.854a11.362,11.362,0,0,0,3.4-1.366c1.521-.89,2.832-1.963,4.189-2.817a9.6,9.6,0,0,1,4.441-1.639h-.007c.2-.015.428-.021.671-.027.109,0,.217,0,.326,0a7.46,7.46,0,0,1,2.243.29,3.057,3.057,0,0,1,1.6,1.091l.008.01.018.023A.872.872,0,1,0,54.808,61l-.017-.023-.7.526.7-.516a4.807,4.807,0,0,0-2.47-1.72A9.146,9.146,0,0,0,49.55,58.9c-.124,0-.246,0-.367,0-.245.006-.5.012-.76.031h-.006a10.255,10.255,0,0,0-3.682,1.034A33.732,33.732,0,0,0,40.4,62.754a11.746,11.746,0,0,1-4.236,2.033.873.873,0,0,0-.226,1.626,5.143,5.143,0,0,1,1.419,1.059,4.368,4.368,0,0,1,1.021,1.951,10.2,10.2,0,0,1,.244,2.479c0,.967-.064,2-.064,3.044a10.628,10.628,0,0,0,.554,3.773,6.413,6.413,0,0,0,2.733,3.248.872.872,0,1,0,.919-1.483" transform="translate(-13.766 -22.856)" fill="#fff"/>
        <path id="Path_43" data-name="Path 43" d="M57.876,51.03a1.62,1.62,0,0,1-.239-.853,2.9,2.9,0,0,1,.42-1.374,8.607,8.607,0,0,1,1.886-2.188,11.028,11.028,0,0,1,2.093-1.444l.019-.01c1.332-.711,3-1.246,4.594-2.059a10.216,10.216,0,0,0,2.263-1.528,7.03,7.03,0,0,0,1.716-2.394l-.8-.349-.759.429a3.856,3.856,0,0,0,.964,1.125,5.856,5.856,0,0,0,2.2,1.016c1.166.3,2.393.419,3.479.649a8.2,8.2,0,0,1,1.485.436,3.551,3.551,0,0,1,1.109.7l.6-.629-.617.617a4.6,4.6,0,0,1,1.076,1.787,7.129,7.129,0,0,1,.356,2.272,7.536,7.536,0,0,1-.451,2.606.872.872,0,1,0,1.633.615,9.241,9.241,0,0,0,.563-3.221,8.858,8.858,0,0,0-.449-2.834,6.348,6.348,0,0,0-1.494-2.459l-.013-.012a6,6,0,0,0-2.581-1.376c-1.377-.387-2.812-.5-3.978-.77a5.6,5.6,0,0,1-1.481-.524,2.233,2.233,0,0,1-.89-.857.872.872,0,0,0-1.559.08,5.273,5.273,0,0,1-1.3,1.806,10.617,10.617,0,0,1-2.983,1.78c-1.138.5-2.364.944-3.512,1.551l.409.771-.39-.78a13.256,13.256,0,0,0-3.3,2.479,9.046,9.046,0,0,0-1.426,1.866,4.611,4.611,0,0,0-.639,2.222,3.374,3.374,0,0,0,.487,1.75.872.872,0,1,0,1.5-.9Z" transform="translate(-21.69 -14.73)" fill="#fff"/>
        <path id="Path_44" data-name="Path 44" d="M95.781,48.316a6.473,6.473,0,0,1,3.054-1.007,4.245,4.245,0,0,1,1.944.532,30.427,30.427,0,0,1,2.618,1.589l.472-.734-.484.725a9.565,9.565,0,0,0,5.3,1.63,8.8,8.8,0,0,0,3.771-.84l-.373-.788-.849-.2a5.911,5.911,0,0,0-.162,1.379,10.335,10.335,0,0,0,.4,2.528,8.735,8.735,0,0,1,.344,2.076,3.838,3.838,0,0,1-.05.627l.86.141-.855-.17a5.766,5.766,0,0,1-.516,1.457h0a8.361,8.361,0,0,1-1.533,2.088,7.2,7.2,0,0,1-1.983,1.436.872.872,0,1,0,.737,1.581,8.92,8.92,0,0,0,2.479-1.782,10.116,10.116,0,0,0,1.856-2.533h0a7.5,7.5,0,0,0,.67-1.9l0-.028a5.582,5.582,0,0,0,.073-.909,10.264,10.264,0,0,0-.4-2.494,8.8,8.8,0,0,1-.345-2.111,4.121,4.121,0,0,1,.114-.972.872.872,0,0,0-1.221-.992,7.05,7.05,0,0,1-3.025.672,7.83,7.83,0,0,1-4.329-1.336l-.012-.008a31.521,31.521,0,0,0-2.784-1.683,5.99,5.99,0,0,0-2.722-.715,8.137,8.137,0,0,0-3.894,1.222.872.872,0,1,0,.84,1.529" transform="translate(-36.668 -17.682)" fill="#fff"/>
        <path id="Path_45" data-name="Path 45" d="M125.318,84.146a6.523,6.523,0,0,0,2.664-3.284A32.381,32.381,0,0,0,129.1,75.3a8.008,8.008,0,0,1,.759-2.3,4.488,4.488,0,0,1,1.6-1.705.872.872,0,0,0-.37-1.606,11.259,11.259,0,0,1-2.77-.554,4.931,4.931,0,0,1-2.111-1.523l-.669.561.676-.551a16.615,16.615,0,0,1-1.114-1.668,8.738,8.738,0,0,0-1.393-1.8.872.872,0,1,0-1.187,1.279,7.162,7.162,0,0,1,1.1,1.448,17.875,17.875,0,0,0,1.241,1.843l.007.009a6.7,6.7,0,0,0,2.829,2.034,12.876,12.876,0,0,0,3.2.657l.094-.867-.464-.739a6.407,6.407,0,0,0-2.626,3.262A34.043,34.043,0,0,0,126.8,78.63a8,8,0,0,1-.773,2.309,4.624,4.624,0,0,1-1.639,1.731.872.872,0,1,0,.929,1.477Z" transform="translate(-47.441 -24.806)" fill="#fff"/>
        <path id="Path_46" data-name="Path 46" d="M11.138,62.208l-.649,1.731L1.017,60.381l1.552-4.128A3.149,3.149,0,0,1,3.2,55.2a2.449,2.449,0,0,1,.907-.623,2.914,2.914,0,0,1,1.13-.188,3.877,3.877,0,0,1,1.28.264,3.42,3.42,0,0,1,1.524,1.058,2.506,2.506,0,0,1,.524,1.655l4.558-.427-.723,1.926L8.1,59.2l-.615,1.637ZM6.819,58.045a1.161,1.161,0,0,0,.018-.892,1.125,1.125,0,0,0-.685-.586l-.625-.236a1.1,1.1,0,0,0-.9-.007,1.175,1.175,0,0,0-.567.685l-.836,2.227,2.753,1.033Z" transform="translate(-0.395 -21.107)" fill="#fff"/>
        <path id="Path_47" data-name="Path 47" d="M20.317,44.985a4.446,4.446,0,0,1-1.239,1.283,3.467,3.467,0,0,1-1.568.57,4.772,4.772,0,0,1-1.842-.177,7.5,7.5,0,0,1-2.061-.98,7.519,7.519,0,0,1-1.716-1.491,4.8,4.8,0,0,1-.906-1.622,3.473,3.473,0,0,1-.1-1.665A4.759,4.759,0,0,1,12.8,37.973a3.554,3.554,0,0,1,1.573-.577,4.643,4.643,0,0,1,1.847.181,7.673,7.673,0,0,1,2.051.984A7.659,7.659,0,0,1,20,40.05a4.636,4.636,0,0,1,.9,1.617A3.574,3.574,0,0,1,21,43.34a4.44,4.44,0,0,1-.679,1.645M18.9,44.058a2.1,2.1,0,0,0,.31-1.8,3.013,3.013,0,0,0-1.357-1.631l-1.309-.859a3.027,3.027,0,0,0-2.04-.589,2.291,2.291,0,0,0-1.832,2.8,3.014,3.014,0,0,0,1.357,1.633l1.31.859a3.019,3.019,0,0,0,2.038.589,2.09,2.09,0,0,0,1.523-1" transform="translate(-4.201 -14.502)" fill="#fff"/>
        <path id="Path_48" data-name="Path 48" d="M31.168,31.711a4.493,4.493,0,0,1-1.85,1.161,5.019,5.019,0,0,1-1.929.181l.018-1.764a3.581,3.581,0,0,0,1.449-.129,3,3,0,0,0,1.207-.738,1.9,1.9,0,0,0,.655-1.173,1.306,1.306,0,0,0-.409-1.038,1.2,1.2,0,0,0-.775-.391,1.863,1.863,0,0,0-1.072.405l-.761.543q-2.426,1.7-4.151-.059a3,3,0,0,1-.688-1.054,2.623,2.623,0,0,1-.154-1.168,3.221,3.221,0,0,1,.375-1.209,4.741,4.741,0,0,1,.907-1.183,4.619,4.619,0,0,1,1.645-1.081,3.8,3.8,0,0,1,1.792-.189l-.037,1.764a2.926,2.926,0,0,0-1.153.081,2.674,2.674,0,0,0-1.131.706,1.934,1.934,0,0,0-.64,1.058,1.035,1.035,0,0,0,.324.9,1.053,1.053,0,0,0,.822.38,2.21,2.21,0,0,0,1.021-.437l.773-.511a4.106,4.106,0,0,1,2.251-.833,2.656,2.656,0,0,1,1.88.911,3.416,3.416,0,0,1,.743,1.109,2.876,2.876,0,0,1,.2,1.226,3.214,3.214,0,0,1-.359,1.274,4.777,4.777,0,0,1-.953,1.258" transform="translate(-8.808 -8.844)" fill="#fff"/>
        <path id="Path_49" data-name="Path 49" d="M40.706,22.667l-5.441-8.53,5.428-3.463.911,1.43-3.87,2.47,1.317,2.065,3.421-2.183.913,1.429-3.421,2.183,1.387,2.177,3.87-2.47.913,1.43Z" transform="translate(-13.686 -4.142)" fill="#fff"/>
        <path id="Path_50" data-name="Path 50" d="M62.143,12.985l-2.509-9.8,4.257-1.092a3.137,3.137,0,0,1,1.228-.081,2.566,2.566,0,0,1,1.048.389,2.8,2.8,0,0,1,.8.819,3.971,3.971,0,0,1,.506,1.187A3.938,3.938,0,0,1,67.6,5.7a2.779,2.779,0,0,1-.311,1.1,2.538,2.538,0,0,1-.731.846,3.12,3.12,0,0,1-1.117.518l-2.468.632.957,3.735Zm.425-5.794,2.3-.589a1.16,1.16,0,0,0,.739-.5,1.116,1.116,0,0,0,.089-.9l-.165-.646a1.1,1.1,0,0,0-.508-.737,1.172,1.172,0,0,0-.885-.073l-2.305.589Z" transform="translate(-23.142 -0.77)" fill="#fff"/>
        <path id="Path_51" data-name="Path 51" d="M79.086,10.188,78.638.082,80.484,0l.373,8.413L84.7,8.242l.076,1.694Z" transform="translate(-30.517 0)" fill="#fff"/>
        <path id="Path_52" data-name="Path 52" d="M98.467,11.421l-.333-2.675-3.42-.592-1.2,2.41-1.847-.321L96.622.833l2.261.393,1.472,10.522ZM97.441,2.74l-.069-.012L95.434,6.615l2.537.439Z" transform="translate(-35.574 -0.323)" fill="#fff"/>
        <path id="Path_53" data-name="Path 53" d="M112.8,16.013a4.48,4.48,0,0,1-1.485-.971,3.484,3.484,0,0,1-.852-1.414,4.484,4.484,0,0,1-.162-1.817,7.658,7.658,0,0,1,.589-2.18,7.958,7.958,0,0,1,1.141-1.981,4.675,4.675,0,0,1,1.423-1.214A3.581,3.581,0,0,1,115.071,6a4.231,4.231,0,0,1,1.743.346,3.851,3.851,0,0,1,1.794,1.375,3.959,3.959,0,0,1,.607,2.152l-1.794.195a2.319,2.319,0,0,0-.214-1.274,1.923,1.923,0,0,0-1.044-.881,2.035,2.035,0,0,0-1.8.039,3.061,3.061,0,0,0-1.341,1.64l-.612,1.472a3,3,0,0,0-.214,2.1,2.061,2.061,0,0,0,1.249,1.281,1.974,1.974,0,0,0,1.425.091,2.707,2.707,0,0,0,1.144-.764l1.032,1.417a4.393,4.393,0,0,1-1.981,1.083,3.681,3.681,0,0,1-2.27-.26" transform="translate(-42.793 -2.329)" fill="#fff"/>
        <path id="Path_54" data-name="Path 54" d="M123.293,21.144l5.788-8.3,5.281,3.681-.971,1.391-3.765-2.626-1.4,2.01,3.33,2.321-.97,1.391-3.33-2.322-1.476,2.117,3.765,2.625-.969,1.391Z" transform="translate(-47.846 -4.985)" fill="#fff"/>
        <path id="Path_55" data-name="Path 55" d="M141.1,29.573l.869-2.164-.029-.03L136.561,32.3l-1.182-1.289,7.463-6.832,1.37,1.5-1.842,5.673-.871,2.162.029.03,5.378-4.922,1.18,1.291-7.463,6.83-1.369-1.5Z" transform="translate(-52.536 -9.384)" fill="#fff"/>
        <path id="Path_56" data-name="Path 56" d="M156.671,44.325,149.4,48.564l-.931-1.6,7.275-4.241-1.394-2.394,1.465-.854,3.721,6.385-1.465.855Z" transform="translate(-57.615 -15.321)" fill="#fff"/>
        <path id="Path_57" data-name="Path 57" d="M155.113,65.462l2.169-1.6-1.162-3.271-2.688.138L152.8,58.96l10.629-.3.769,2.164-8.446,6.448Zm7.061-5.154-.024-.065-4.337.22.863,2.426Z" transform="translate(-59.299 -22.763)" fill="#fff"/>
        <path id="Path_58" data-name="Path 58" d="M.3,97.656,0,95.762,9.995,94.2l.707,4.519a3.4,3.4,0,0,1-.023,1.269,2.547,2.547,0,0,1-.478,1.023,2.89,2.89,0,0,1-.89.741,3.725,3.725,0,0,1-1.242.407,3.317,3.317,0,0,1-1.849-.189,2.576,2.576,0,0,1-1.278-1.234L1.2,103.423l-.331-2.109,3.562-2.467-.281-1.794Zm5.823,1.589a1.236,1.236,0,0,0,.428.816,1.107,1.107,0,0,0,.888.184l.658-.1a1.073,1.073,0,0,0,.78-.446,1.242,1.242,0,0,0,.152-.906l-.38-2.438-2.907.455Z" transform="translate(0 -36.556)" fill="#fff"/>
        <path id="Path_59" data-name="Path 59" d="M5.742,117.667a4.761,4.761,0,0,1-.378-1.806,3.617,3.617,0,0,1,.4-1.661,4.766,4.766,0,0,1,1.179-1.447,7.28,7.28,0,0,1,1.972-1.15,7.264,7.264,0,0,1,2.208-.557,4.742,4.742,0,0,1,1.86.206,3.616,3.616,0,0,1,1.451.906,5.112,5.112,0,0,1,1.373,3.36,3.675,3.675,0,0,1-.4,1.668,4.575,4.575,0,0,1-1.184,1.449,7.342,7.342,0,0,1-1.969,1.141,7.351,7.351,0,0,1-2.212.566,4.578,4.578,0,0,1-1.854-.207,3.66,3.66,0,0,1-1.453-.913,4.766,4.766,0,0,1-.994-1.553m1.57-.641a2.213,2.213,0,0,0,1.327,1.332,2.947,2.947,0,0,0,2.123-.17l1.449-.593a2.947,2.947,0,0,0,1.635-1.364,2.441,2.441,0,0,0-1.313-3.213,2.952,2.952,0,0,0-2.123.168l-1.449.592a2.949,2.949,0,0,0-1.635,1.366,2.218,2.218,0,0,0-.014,1.881" transform="translate(-2.082 -43.087)" fill="#fff"/>
        <path id="Path_60" data-name="Path 60" d="M14.611,133.919a4.84,4.84,0,0,1-.893-2.079,5.163,5.163,0,0,1,.1-1.978l1.765.338a3.719,3.719,0,0,0-.081,1.486,3.221,3.221,0,0,0,.565,1.352,2.023,2.023,0,0,0,1.081.873,1.272,1.272,0,0,0,1.1-.223,1.166,1.166,0,0,0,.5-.709,1.956,1.956,0,0,0-.25-1.155l-.433-.867q-1.357-2.757.661-4.176a2.92,2.92,0,0,1,1.155-.5,2.634,2.634,0,0,1,1.194.057,3.4,3.4,0,0,1,1.157.6,5.14,5.14,0,0,1,1.053,1.133,4.9,4.9,0,0,1,.844,1.856,3.937,3.937,0,0,1-.07,1.841L22.3,131.4a3.033,3.033,0,0,0,.083-1.178,2.83,2.83,0,0,0-.542-1.27,2.054,2.054,0,0,0-.966-.837,1.023,1.023,0,0,0-.95.161,1.035,1.035,0,0,0-.5.761,2.381,2.381,0,0,0,.289,1.111l.4.873a4.339,4.339,0,0,1,.506,2.422,2.6,2.6,0,0,1-1.185,1.731,3.293,3.293,0,0,1-1.221.546,2.836,2.836,0,0,1-1.256-.021,3.377,3.377,0,0,1-1.226-.592,5.21,5.21,0,0,1-1.122-1.191" transform="translate(-5.303 -48.988)" fill="#fff"/>
        <path id="Path_61" data-name="Path 61" d="M27.792,149.433l1.138-2.454-2.659-2.428-2.328,1.368L22.5,144.606l9.329-5.182,1.759,1.6-4.331,9.746ZM31.53,141.5l-.055-.048-3.758,2.2,1.973,1.8Z" transform="translate(-8.733 -54.106)" fill="#fff"/>
        <path id="Path_62" data-name="Path 62" d="M49.669,150.484l3.372,1.5A4.829,4.829,0,0,1,54.55,153a3.65,3.65,0,0,1,.876,1.428,4.322,4.322,0,0,1,.168,1.8,8,8,0,0,1-1.794,4.041,4.3,4.3,0,0,1-1.45,1.083,3.651,3.651,0,0,1-1.645.31,4.882,4.882,0,0,1-1.77-.437l-3.371-1.5Zm-.046,9.193a2.316,2.316,0,0,0,1.816.117,2.637,2.637,0,0,0,1.362-1.513l.647-1.458a2.625,2.625,0,0,0,.207-2.024,2.3,2.3,0,0,0-1.3-1.269l-1.619-.718L48,158.959Z" transform="translate(-17.682 -58.398)" fill="#fff"/>
        <path id="Path_63" data-name="Path 63" d="M69.161,167.948l-.3-2.688-3.531-.7-1.285,2.376-1.909-.379,5.3-9.264,2.338.461,1.341,10.579Zm-.909-8.719-.071-.014L66.1,163.045l2.621.518Z" transform="translate(-24.114 -61.041)" fill="#fff"/>
        <path id="Path_64" data-name="Path 64" d="M90.226,161.44l-.058,0-.7,1.647L87.6,167.022l-2.275-3.71-.869-1.566-.058,0L84.78,169l-1.811.1-.536-10.1,2.162-.113,2.855,4.8.059,0,2.305-5.073,2.074-.11.536,10.1-1.814.1Z" transform="translate(-31.99 -61.506)" fill="#fff"/>
        <path id="Path_65" data-name="Path 65" d="M112.05,164.448l-1.548-2.219-3.436,1.079.01,2.7-1.858.582.212-10.669,2.273-.713,6.244,8.643Zm-4.975-7.219-.069.021.012,4.356,2.55-.8Z" transform="translate(-40.832 -60.232)" fill="#fff"/>
        <path id="Path_66" data-name="Path 66" d="M125.075,158.065a4.823,4.823,0,0,1-2.152.7,5.161,5.161,0,0,1-1.96-.276l.5-1.729a3.7,3.7,0,0,0,1.472.214,3.221,3.221,0,0,0,1.4-.441,2.027,2.027,0,0,0,.966-1,1.281,1.281,0,0,0-.124-1.116,1.173,1.173,0,0,0-.661-.565,1.956,1.956,0,0,0-1.173.145l-.9.356q-2.868,1.1-4.1-1.035a2.935,2.935,0,0,1-.4-1.2,2.62,2.62,0,0,1,.165-1.184,3.377,3.377,0,0,1,.7-1.1,5.2,5.2,0,0,1,1.221-.948,4.936,4.936,0,0,1,1.925-.674,3.961,3.961,0,0,1,1.83.236l-.515,1.723a3.026,3.026,0,0,0-1.166-.191,2.845,2.845,0,0,0-1.313.427,2.059,2.059,0,0,0-.922.888,1.175,1.175,0,0,0,.789,1.527,2.353,2.353,0,0,0,1.132-.187l.9-.322a4.335,4.335,0,0,1,2.458-.287,2.6,2.6,0,0,1,1.617,1.336,3.278,3.278,0,0,1,.437,1.265,2.856,2.856,0,0,1-.135,1.25,3.358,3.358,0,0,1-.7,1.168,5.221,5.221,0,0,1-1.286,1.01" transform="translate(-45.763 -57.512)" fill="#fff"/>
        <path id="Path_67" data-name="Path 67" d="M139.91,147.169a4.773,4.773,0,0,1-1.559.973,3.64,3.64,0,0,1-1.679.2,4.439,4.439,0,0,1-1.736-.607,7.447,7.447,0,0,1-1.73-1.455,7.715,7.715,0,0,1-1.3-1.884,4.629,4.629,0,0,1-.469-1.826,3.71,3.71,0,0,1,.335-1.682,4.491,4.491,0,0,1,1.106-1.472,4.1,4.1,0,0,1,2.066-1.094,3.987,3.987,0,0,1,2.243.333l-.63,1.746a2.321,2.321,0,0,0-1.264-.33,2.038,2.038,0,0,0-1.277.6,2.15,2.15,0,0,0-.777,1.684,2.984,2.984,0,0,0,.9,1.927l1.07,1.18a2.918,2.918,0,0,0,1.828,1.074,2.177,2.177,0,0,0,1.735-.627,2.07,2.07,0,0,0,.725-1.284,2.678,2.678,0,0,0-.182-1.38l1.764-.367a4.448,4.448,0,0,1,.1,2.29,3.922,3.922,0,0,1-1.265,2" transform="translate(-51.007 -53.663)" fill="#fff"/>
        <path id="Path_68" data-name="Path 68" d="M148.5,136.459l-8.218-5.9,3.9-5.426,1.377.991-2.778,3.867,1.989,1.429L147.219,128l1.377.991-2.456,3.42,2.095,1.5,2.778-3.867,1.379.989Z" transform="translate(-54.437 -48.56)" fill="#fff"/>
        <path id="Path_69" data-name="Path 69" d="M154.05,116.747l-2.342.151-.018.04,6.721,2.824-.7,1.674-9.328-3.919.816-1.941,5.964-.8,2.342-.151.018-.04-6.721-2.824.7-1.674L160.83,114l-.816,1.941Z" transform="translate(-57.582 -42.721)" fill="#fff"/>
        <path id="Path_70" data-name="Path 70" d="M165.73,97.6l-2.675.393-.573,3.554,2.419,1.2-.31,1.921L155.144,99.7l.379-2.352,10.523-1.716Zm-8.682,1.219-.01.073,3.9,1.937.425-2.638Z" transform="translate(-60.207 -37.113)" fill="#fff"/>
        <path id="Path_71" data-name="Path 71" d="M8.6,80.5A3.028,3.028,0,1,1,5.57,77.468,3.027,3.027,0,0,1,8.6,80.5" transform="translate(-0.986 -30.063)" fill="#fff"/>
        <path id="Path_72" data-name="Path 72" d="M168.522,80.5a3.028,3.028,0,1,1-3.027-3.027,3.027,3.027,0,0,1,3.027,3.027" transform="translate(-63.049 -30.063)" fill="#fff"/>
      </g>
    </g>
  </g>
</svg>
