<svg xmlns="http://www.w3.org/2000/svg" width="28.774" height="28.774" viewBox="0 0 28.774 28.774">
  <g id="ready-stock" transform="translate(0 0)">
    <path id="Path_75" data-name="Path 75" d="M65.7,44.8l-11.51,5.115a1.439,1.439,0,0,0-.854,1.315V65.188a1.439,1.439,0,0,0,.854,1.315L65.7,71.618a1.439,1.439,0,0,0,1.169,0L78.373,66.5a1.439,1.439,0,0,0,.854-1.315V51.232a1.439,1.439,0,0,0-.854-1.315L66.864,44.8A1.439,1.439,0,0,0,65.7,44.8Z" transform="translate(-52.612 -43.823)" fill="#ff9500"/>
    <path id="Path_76" data-name="Path 76" d="M67.856,44.8l-11.51,5.115a1.436,1.436,0,0,0-.7.668L68.44,56.052l12.689-5.64a1.435,1.435,0,0,0-.6-.5L69.025,44.8a1.439,1.439,0,0,0-1.169,0Z" transform="translate(-54.773 -43.823)" fill="#fac100"/>
    <circle id="Ellipse_6" data-name="Ellipse 6" cx="6.505" cy="6.505" r="6.505" transform="translate(15.042 15.042)" fill="#00cf66"/>
    <path id="Path_77" data-name="Path 77" d="M56.732,59.053l-.415.208L44.106,53.834V39.583l11.937,5.305a.72.72,0,0,0,.584,0l11.937-5.305V45.67a.719.719,0,1,0,1.439,0V38.476a.719.719,0,0,0-.427-.657L56.627,32.064a.721.721,0,0,0-.584,0L43.094,37.819a.72.72,0,0,0-.427.657V54.3a.719.719,0,0,0,.427.657l12.948,5.755a.719.719,0,0,0,.614-.013l.719-.36a.719.719,0,1,0-.644-1.287Zm-.4-15.61-5.089-2.262,11.136-4.949c.013-.006.023-.014.036-.02l5.094,2.264Zm0-9.935,4.317,1.919L49.568,40.353a.71.71,0,0,0-.083.047l-4.328-1.924Z" transform="translate(-42.667 -32.002)"/>
    <path id="Path_78" data-name="Path 78" d="M263.193,245.333a7.194,7.194,0,1,0,7.193,7.194A7.194,7.194,0,0,0,263.193,245.333Zm0,12.948a5.755,5.755,0,1,1,5.755-5.755A5.755,5.755,0,0,1,263.193,258.281Z" transform="translate(-241.612 -230.946)"/>
    <path id="Path_79" data-name="Path 79" d="M320.273,320.212l-3.088,3.088-1.29-1.29a.719.719,0,1,0-1.017,1.017l1.8,1.8a.719.719,0,0,0,1.017,0l3.6-3.6a.719.719,0,1,0-1.017-1.017Z" transform="translate(-296.324 -300.579)"/>
  </g>
</svg>
