<svg xmlns="http://www.w3.org/2000/svg" xmlns:xlink="http://www.w3.org/1999/xlink" width="21" height="21" viewBox="0 0 21 21">
  <defs>
    <clipPath id="clip-path">
      <path id="Rectangle_27" data-name="Rectangle 27" d="M1,0H21a0,0,0,0,1,0,0V20a1,1,0,0,1-1,1H1a1,1,0,0,1-1-1V1A1,1,0,0,1,1,0Z" transform="translate(-0.273 0.001)" fill="#00cf66" stroke="#101010" stroke-width="1"/>
    </clipPath>
  </defs>
  <g id="Group_1827" data-name="Group 1827" transform="translate(0.273 -0.001)">
    <g id="Group_20" data-name="Group 20" transform="translate(0 0)">
      <g id="Group_19" data-name="Group 19" transform="translate(0 0)" clip-path="url(#clip-path)">
        <path id="Path_80" data-name="Path 80" d="M9.627.448h0A2.1,2.1,0,0,1,13,1.845a2.1,2.1,0,0,0,1.826,1.826,2.1,2.1,0,0,1,1.4,3.374,2.1,2.1,0,0,0,0,2.583A2.1,2.1,0,0,1,14.828,13,2.1,2.1,0,0,0,13,14.829a2.1,2.1,0,0,1-3.374,1.4,2.1,2.1,0,0,0-2.583,0,2.1,2.1,0,0,1-3.374-1.4A2.1,2.1,0,0,0,1.844,13a2.1,2.1,0,0,1-1.4-3.374,2.1,2.1,0,0,0,0-2.583,2.1,2.1,0,0,1,1.4-3.374A2.1,2.1,0,0,0,3.671,1.845,2.1,2.1,0,0,1,7.045.448a2.1,2.1,0,0,0,2.583,0" transform="translate(2.186 2.142)" fill="#00cf66" stroke="#101010" stroke-width="1"/>
      </g>
    </g>
    <path id="Path_81" data-name="Path 81" d="M321.656,320.264l-3.85,3.85-1.608-1.608a.9.9,0,1,0-1.268,1.268l2.242,2.242a.9.9,0,0,0,1.268,0l4.484-4.484a.9.9,0,1,0-1.268-1.268Z" transform="translate(-308.405 -312.319)"/>
  </g>
</svg>
