<svg xmlns="http://www.w3.org/2000/svg" xmlns:xlink="http://www.w3.org/1999/xlink" width="115.409" height="71.454" viewBox="0 0 115.409 71.454">
  <defs>
    <clipPath id="clip-path">
      <rect id="Rectangle_453" data-name="Rectangle 453" width="115.409" height="71.454" fill="#e12058"/>
    </clipPath>
  </defs>
  <g id="Group_1967" data-name="Group 1967" transform="translate(-1)">
    <g id="Group_878" data-name="Group 878" transform="translate(1)" clip-path="url(#clip-path)">
      <path id="Path_1007" data-name="Path 1007" d="M109.129,251.448a4.223,4.223,0,0,1-4.116,3.762,3.366,3.366,0,0,1-3.407-3.762,4.223,4.223,0,0,1,4.116-3.761,3.365,3.365,0,0,1,3.407,3.761" transform="translate(-78.645 -191.747)" fill="#e12058"/>
      <path id="Path_1010" data-name="Path 1010" d="M418.1,251.448a4.224,4.224,0,0,1-4.116,3.762,3.366,3.366,0,0,1-3.407-3.762,4.223,4.223,0,0,1,4.116-3.761,3.365,3.365,0,0,1,3.407,3.761" transform="translate(-317.832 -191.747)" fill="#e12058"/>
      <path id="Path_1016" data-name="Path 1016" d="M143.6,49.142a2.614,2.614,0,0,0-.2-.2l.6-6.358h0l.052-.556a4.252,4.252,0,0,0-.935-3.129l-3.955-4.817a.071.071,0,0,0-.006-.009l-12.777-15.56a4.233,4.233,0,0,0-3.3-1.531H112.223l.64-6.785A9.162,9.162,0,0,0,103.616,0H54.8A11.112,11.112,0,0,0,43.98,9.882L40.359,48.289a3.252,3.252,0,0,0-2.411,2.817l-.536,5.686a2.932,2.932,0,0,0,2.941,3.239h3.584A10.676,10.676,0,0,0,54.768,71.454,13.039,13.039,0,0,0,67.441,60.031H72.6a1.691,1.691,0,1,0,0-3.381H40.82l.48-5.084h99.638l-.48,5.084H80.492a1.691,1.691,0,1,0,0,3.381h33.224a10.677,10.677,0,0,0,10.832,11.423,13.04,13.04,0,0,0,12.673-11.423h3.386a3.247,3.247,0,0,0,3.2-2.921l.536-5.687a2.977,2.977,0,0,0-.749-2.282M54.768,68.073a7.3,7.3,0,0,1-7.444-8.043h2.882a5.043,5.043,0,0,0,5.113,5.122,5.881,5.881,0,0,0,5.78-5.122h2.936a9.6,9.6,0,0,1-9.267,8.043m2.881-8.043a2.547,2.547,0,0,1-2.33,1.741,1.664,1.664,0,0,1-1.731-1.741Zm65.718,0h4.062a2.547,2.547,0,0,1-2.33,1.741,1.665,1.665,0,0,1-1.732-1.741m1.181,8.043a7.3,7.3,0,0,1-7.444-8.043h2.882a5.043,5.043,0,0,0,5.113,5.122,5.881,5.881,0,0,0,5.779-5.122h2.936a9.6,9.6,0,0,1-9.266,8.043m13.647-20.421a1.719,1.719,0,0,1-.415-1.342,2.49,2.49,0,0,1,2.39-2.191h.288l-.383,4.064h-.616a1.686,1.686,0,0,1-1.264-.531M122.211,32.338,123.336,20.4a.79.79,0,0,1,.427.259l10.509,12.8H123.218a.987.987,0,0,1-.764-.313,1.033,1.033,0,0,1-.243-.807M82.071,3.381l-2.137,13-3.278-2.267a1.69,1.69,0,0,0-1.791-.083l-3.651,2.057L73.3,3.381ZM47.346,10.2A7.66,7.66,0,0,1,54.8,3.382H69.877L67.4,18.455a1.952,1.952,0,0,0,1.924,2.283,2.029,2.029,0,0,0,1-.266L75.6,17.5l4.184,2.892h0a1.972,1.972,0,0,0,1.9.184A2.092,2.092,0,0,0,82.93,19L85.5,3.381h18.118a5.871,5.871,0,0,1,4.413,1.881A5.935,5.935,0,0,1,109.5,9.883L108.251,23.1a1.69,1.69,0,0,0,3.366.317l.288-3.051h8.039l-1.1,11.655a4.347,4.347,0,0,0,4.373,4.819h13.83l3.2,3.9h-.078a5.837,5.837,0,0,0-5.758,5.255,5.234,5.234,0,0,0,.25,2.191H109.282l1.68-17.825a1.69,1.69,0,0,0-3.366-.317l-1.71,18.142H43.764Z" transform="translate(-28.952)" fill="#e12058"/>
      <path id="Path_1017" data-name="Path 1017" d="M14.646,8.657a1.691,1.691,0,0,0-1.69-1.69H1.691a1.69,1.69,0,1,0,0,3.381H12.956a1.69,1.69,0,0,0,1.69-1.69" transform="translate(0 -5.394)" fill="#e12058"/>
      <path id="Path_1018" data-name="Path 1018" d="M24.48,39.187a1.69,1.69,0,0,0-1.69-1.69H17.156a1.69,1.69,0,0,0,0,3.381h5.633a1.69,1.69,0,0,0,1.69-1.69" transform="translate(-11.973 -29.028)" fill="#e12058"/>
      <path id="Path_1019" data-name="Path 1019" d="M31.633,69.718a1.691,1.691,0,0,0-1.69-1.69H28.4a1.69,1.69,0,1,0,0,3.381h1.547a1.691,1.691,0,0,0,1.69-1.69" transform="translate(-20.674 -52.664)" fill="#e12058"/>
      <path id="Path_1289" data-name="Path 1289" d="M9.789,47.388,13.2,11.075s.546-8.927,8.04-8.928,15.172,0,15.172,0L34.027,17.623l2.385,1.735,6.039-3.913L47.2,19.358l2.122-1.735L51.886,2.362l18.226-.215s7.669.338,6.641,7.325-4.041,37.779-4.041,37.779Z" transform="translate(4.546 0.997)" fill="#e12058"/>
      <text id="FREE" transform="translate(27.928 38.344)" fill="#fff" stroke="#fff" stroke-width="1" font-size="16" font-family="SegoeUI, Segoe UI" letter-spacing="0.05em"><tspan x="0" y="0">FREE</tspan></text>
    </g>
  </g>
</svg>
