<svg xmlns="http://www.w3.org/2000/svg" width="79.1" height="85.872" viewBox="0 0 79.1 85.872">
  <g id="beauty-treatment-2" transform="translate(-4.793 -0.489)">
    <circle id="Ellipse_145" data-name="Ellipse 145" cx="4.239" cy="4.239" r="4.239" transform="translate(65.918 57.47)" fill="#e12058"/>
    <circle id="Ellipse_146" data-name="Ellipse 146" cx="3.832" cy="3.832" r="3.832" transform="translate(4.793 40.401)" fill="#e12058"/>
    <circle id="Ellipse_147" data-name="Ellipse 147" cx="2.618" cy="2.618" r="2.618" transform="translate(78.656 43.806)" fill="#e12058"/>
    <circle id="Ellipse_148" data-name="Ellipse 148" cx="2.618" cy="2.618" r="2.618" transform="translate(6.951 27.081)" fill="#e12058"/>
    <circle id="Ellipse_149" data-name="Ellipse 149" cx="2.062" cy="2.062" r="2.062" transform="translate(16.877 62.729)" fill="#e12058"/>
    <circle id="Ellipse_150" data-name="Ellipse 150" cx="2.532" cy="2.532" r="2.532" transform="translate(77.92 21.756)" fill="#e12058"/>
    <path id="Path_1304" data-name="Path 1304" d="M62.682,69.16A3.8,3.8,0,0,1,60.2,68.128a.946.946,0,0,1,1.231-1.43,1.645,1.645,0,0,0,2.493,0,.946.946,0,0,1,1.231,1.43A3.8,3.8,0,0,1,62.682,69.16Z" transform="translate(-17.863 -21.39)" fill="#e12058"/>
    <path id="Path_1305" data-name="Path 1305" d="M66.974,76.16a.728.728,0,0,0-.852-.577H66.11a6.651,6.651,0,0,1-2.282.059c-.189-.028-.374-.064-.595-.107a2.7,2.7,0,0,0-.963-.047,2.381,2.381,0,0,0-.937.383.163.163,0,0,1-.166,0,2.381,2.381,0,0,0-.937-.383,2.7,2.7,0,0,0-.963.047c-.22.043-.406.079-.595.107a6.646,6.646,0,0,1-2.282-.059h-.013a.727.727,0,0,0-.427,1.382,6.736,6.736,0,0,0,2.872.556c.245-.007.492-.027.7-.043s.282.015.575.187a2.136,2.136,0,0,0,1.074.311h.151a2.135,2.135,0,0,0,1.074-.311c.293-.172.378-.2.575-.187s.458.037.7.043a6.736,6.736,0,0,0,2.872-.556A.728.728,0,0,0,66.974,76.16Z" transform="translate(-16.43 -24.29)" fill="#e12058"/>
    <path id="Path_1306" data-name="Path 1306" d="M63.028,83a3.425,3.425,0,0,1-1.5-.354,1.014,1.014,0,0,1,.879-1.825,1.312,1.312,0,0,0,1.233,0,1.014,1.014,0,1,1,.879,1.825A3.429,3.429,0,0,1,63.028,83Z" transform="translate(-18.209 -25.984)" fill="#e12058"/>
    <path id="Path_1307" data-name="Path 1307" d="M72.75,57.035a4.045,4.045,0,0,0,1.626.141,8.729,8.729,0,0,0,1.8-.368c.3-.095.6-.193.894-.312.139-.047.933-.392.933-.392a3.11,3.11,0,0,1,1.394-.258,1.638,1.638,0,0,1,1.321.786.477.477,0,0,1-.473.694l-.135-.015a1.164,1.164,0,0,0-.638.114c-.184.08-1.069.626-1.069.626-.174.1-.347.2-.524.282a8.53,8.53,0,0,1-1.1.432A7.228,7.228,0,0,1,74.4,59.1a3.951,3.951,0,0,1-2.443-.859A.725.725,0,0,1,72.653,57Z" transform="translate(-21.677 -17.932)" fill="#e12058"/>
    <path id="Path_1308" data-name="Path 1308" d="M51.695,58.248a3.951,3.951,0,0,1-2.443.859,7.227,7.227,0,0,1-2.378-.341,8.527,8.527,0,0,1-1.1-.432c-.178-.085-1.41-.828-1.593-.908a1.164,1.164,0,0,0-.638-.114l-.135.015a.477.477,0,0,1-.527-.421.466.466,0,0,1,.051-.27,1.638,1.638,0,0,1,1.321-.786,2.994,2.994,0,0,1,1.394.258c.234.1.787.343.933.392.291.119.594.217.894.312a8.729,8.729,0,0,0,1.8.368,4.045,4.045,0,0,0,1.622-.141l.1-.032a.725.725,0,0,1,.7,1.241Z" transform="translate(-12.34 -17.933)" fill="#e12058"/>
    <path id="Path_1309" data-name="Path 1309" d="M80.624,84.963a19.3,19.3,0,0,0-4.783-7.151c-2.128-1.971-6.017-3.245-9.773-4.483a45.509,45.509,0,0,1-5.857-2.2C56.368,69.183,56.155,65.608,56,63c0-.063-.007-.116-.011-.178a27.089,27.089,0,0,0,5.218-4.086A20.153,20.153,0,0,0,66,50.773c3.317-.105,6.665-3.647,7.191-6.833a8.2,8.2,0,0,0,.11-1.051A2.915,2.915,0,0,0,74.755,41.7c1.209-1.961.541-4.317-.165-6.814l-.043-.15c1.468-5.317.921-16.57-4.935-24.675C65.558,4.454,56.116-1.349,49.22,1.043a1.779,1.779,0,0,1-1.17,0c-6.9-2.392-16.338,3.411-20.389,9.014-5.859,8.108-6.406,19.361-4.935,24.675l-.043.15c-.706,2.5-1.374,4.854-.166,6.814a2.91,2.91,0,0,0,1.452,1.19,8.087,8.087,0,0,0,.109,1.047c.527,3.192,3.874,6.733,7.192,6.839a20.146,20.146,0,0,0,4.791,7.964,27.109,27.109,0,0,0,5.22,4.086c0,.062-.008.115-.011.178-.154,2.61-.364,6.184-4.208,8.134a45.511,45.511,0,0,1-5.857,2.2c-3.759,1.235-7.645,2.512-9.773,4.483a19.3,19.3,0,0,0-4.783,7.151,1.014,1.014,0,0,0,.55,1.323,1,1,0,0,0,.383.076,1.014,1.014,0,0,0,.94-.631,17.356,17.356,0,0,1,4.284-6.43c1.8-1.67,5.642-2.931,9.027-4.044a46.774,46.774,0,0,0,6.142-2.314c4.481-2.274,5.076-6.331,5.268-9.108a21.41,21.41,0,0,0,4.2,1.389,5.476,5.476,0,0,0,2.373,0,21.438,21.438,0,0,0,4.2-1.39c.192,2.776.787,6.835,5.268,9.108a46.77,46.77,0,0,0,6.142,2.314c3.386,1.113,7.224,2.374,9.027,4.044a17.356,17.356,0,0,1,4.284,6.43,1.014,1.014,0,0,0,.94.631,1,1,0,0,0,.383-.076,1.014,1.014,0,0,0,.557-1.322ZM67.9,40.423q.592.519,1.134.971a.956.956,0,0,0-.147-.03,3.085,3.085,0,0,0-1.045.082C67.865,41.109,67.881,40.765,67.9,40.423Zm-.334,3.686c.417-.785.946-.744,1.124-.725A1.009,1.009,0,0,0,69.7,41.942c.222.178.446.358.652.515a3.018,3.018,0,0,0,.917.479,6.306,6.306,0,0,1-.075.669,7.07,7.07,0,0,1-4.529,5.043,37.083,37.083,0,0,0,.9-4.539Zm-38.2-3.683c.018.343.037.683.062,1.02a3.1,3.1,0,0,0-1.045-.082.956.956,0,0,0-.147.03Q28.779,40.943,29.368,40.425ZM26.075,43.6A6.3,6.3,0,0,1,26,42.937a3.033,3.033,0,0,0,.914-.477c.208-.158.432-.338.655-.518a1.009,1.009,0,0,0,1.014,1.441c.176-.019.705-.059,1.123.725a37.317,37.317,0,0,0,.9,4.538A7.081,7.081,0,0,1,26.075,43.6Zm23.3,19.644a3.448,3.448,0,0,1-1.493,0,20.651,20.651,0,0,1-10.417-5.964,18.786,18.786,0,0,1-4.462-7.672c-.011-.031-.1-.293-.11-.338a33.64,33.64,0,0,1-1.213-5.634,43.793,43.793,0,0,1-.347-5C33.1,37,35.065,35.068,37.189,32.867l.043-.018a40.438,40.438,0,0,1,5.631.347l.034.007a.8.8,0,0,0,.49-1.518,8.886,8.886,0,0,0-2.82-.736,12.6,12.6,0,0,0-1.487-.062c2.357-2.493,4.9-5.281,7.591-8.333a2.621,2.621,0,0,1,3.927,0c2.695,3.052,5.234,5.84,7.59,8.333a12.6,12.6,0,0,0-1.487.062,8.886,8.886,0,0,0-2.82.736A.8.8,0,0,0,54.37,33.2L54.4,33.2a40.324,40.324,0,0,1,5.63-.346l.045.018c2.125,2.2,4.088,4.137,5.851,5.771a43.748,43.748,0,0,1-.347,4.994A33.762,33.762,0,0,1,64.4,49.166c-.015.047-.135.431-.149.468A18.766,18.766,0,0,1,59.8,57.273,20.58,20.58,0,0,1,49.379,63.243Z" transform="translate(-3.816 0)" fill="#e12058"/>
  </g>
</svg>
