<svg xmlns="http://www.w3.org/2000/svg" width="75.76" height="87.715" viewBox="0 0 75.76 87.715">
  <g id="refund" transform="translate(-53.316 -21.334)">
    <path id="Path_1229" data-name="Path 1229" d="M160.6,138.667A21.929,21.929,0,1,0,182.524,160.6,21.929,21.929,0,0,0,160.6,138.667Zm3.5,31.306a7.984,7.984,0,0,1-1.511.569v2.015a1.994,1.994,0,1,1-3.987,0v-1.916a10.769,10.769,0,0,1-4.171-1.906,1.993,1.993,0,1,1,2.361-3.212c2.751,2.022,4.91,1.193,5.508.892a2.077,2.077,0,0,0,1.286-1.484c0-.946-.873-1.439-2.83-2.187-.352-.135-.68-.262-.966-.386-.2-.087-.431-.175-.689-.273-1.78-.676-5.483-2.082-5.483-5.948a5.853,5.853,0,0,1,3.473-5.042,7.975,7.975,0,0,1,1.511-.561v-1.9a1.994,1.994,0,1,1,3.987,0v1.8a10.736,10.736,0,0,1,4.171,1.892,1.993,1.993,0,1,1-2.361,3.212c-2.751-2.022-4.91-1.193-5.508-.892a2.077,2.077,0,0,0-1.286,1.484c0,.938,1.023,1.5,2.911,2.221.332.126.633.241.884.352.229.1.495.2.778.309,1.886.72,5.395,2.061,5.395,5.911a5.852,5.852,0,0,1-3.473,5.043Z" transform="translate(-69.4 -95.404)" fill="#e12058"/>
    <path id="Path_1230" data-name="Path 1230" d="M265.362,60.451a37.876,37.876,0,0,0-36.946-33.131l2.6-2.577a1.993,1.993,0,1,0-2.807-2.831l-6.315,6.263a1.993,1.993,0,0,0-.012,2.819l6.314,6.367a1.993,1.993,0,1,0,2.831-2.807l-3.22-3.246a33.891,33.891,0,0,1,21.156,60.35,1.993,1.993,0,0,0,2.494,3.11,37.658,37.658,0,0,0,13.906-34.317Z" transform="translate(-136.591)" fill="#e12058"/>
    <path id="Path_1231" data-name="Path 1231" d="M90.788,153.279a1.993,1.993,0,1,0-2.831,2.807l3.22,3.246A33.89,33.89,0,0,1,70.015,98.99a1.994,1.994,0,1,0-2.5-3.11,37.881,37.881,0,0,0,23.049,67.44l-2.6,2.578a1.993,1.993,0,1,0,2.807,2.831l6.314-6.263a1.993,1.993,0,0,0,.012-2.819Z" transform="translate(0 -60.257)" fill="#e12058"/>
  </g>
</svg>
