<svg xmlns="http://www.w3.org/2000/svg" xmlns:xlink="http://www.w3.org/1999/xlink" width="47.629" height="46.453" viewBox="0 0 47.629 46.453">
  <defs>
    <clipPath id="clip-path">
      <rect id="Rectangle_361" data-name="Rectangle 361" width="34.783" height="37.77" fill="#f7c6cb" stroke="#e12058" stroke-linecap="round" stroke-linejoin="round" stroke-width="2"/>
    </clipPath>
    <clipPath id="clip-path-2">
      <rect id="Rectangle_361-2" data-name="Rectangle 361" width="17.693" height="19.212" fill="#f7c6cb" stroke="#e12058" stroke-linecap="round" stroke-linejoin="round" stroke-width="2"/>
    </clipPath>
  </defs>
  <g id="Group_2388" data-name="Group 2388" transform="translate(-317.925 -11760.153)">
    <g id="Group_2078" data-name="Group 2078" transform="translate(317.925 11760.153)">
      <g id="Group_272" data-name="Group 272" transform="translate(0 0)" clip-path="url(#clip-path)">
        <path id="Path_470" data-name="Path 470" d="M0,14.872s9.123-.82,10.462-3.159S12.277,0,12.277,0,14.314,8.4,16,10.623c1.98,2.593,10.571,3.121,10.571,3.121s-7.825.865-9.555,3.463c-1.181,1.767-2.761,8.851-2.626,11.648,0,0-1.657-10.349-4.118-11.579S0,14.872,0,14.872" transform="translate(4.105 4.457)" fill="#f7c6cb" stroke="#e12058" stroke-linecap="round" stroke-linejoin="round" stroke-width="2"/>
      </g>
    </g>
    <g id="Group_2077" data-name="Group 2077" transform="translate(347.861 11787.394)">
      <g id="Group_272-2" data-name="Group 272" transform="translate(0 0)" clip-path="url(#clip-path-2)">
        <path id="Path_470-2" data-name="Path 470" d="M0,7.565s4.64-.417,5.322-1.607S6.245,0,6.245,0s1.036,4.274,1.9,5.4c1.007,1.319,5.377,1.588,5.377,1.588s-3.98.44-4.86,1.762a16.119,16.119,0,0,0-1.336,5.925s-.843-5.264-2.095-5.89A28.6,28.6,0,0,0,0,7.565" transform="translate(2.088 2.267)" fill="#f7c6cb" stroke="#e12058" stroke-linecap="round" stroke-linejoin="round" stroke-width="2"/>
      </g>
    </g>
  </g>
</svg>
