<svg id="Group_260" data-name="Group 260" xmlns="http://www.w3.org/2000/svg" xmlns:xlink="http://www.w3.org/1999/xlink" width="109.773" height="109.773" viewBox="0 0 109.773 109.773">
  <defs>
    <clipPath id="clip-path">
      <rect id="Rectangle_355" data-name="Rectangle 355" width="109.773" height="109.773" transform="translate(0 0)" fill="none"/>
    </clipPath>
  </defs>
  <g id="Group_259" data-name="Group 259" clip-path="url(#clip-path)">
    <path id="Path_469" data-name="Path 469" d="M63.389,2.944h0a13.814,13.814,0,0,1,22.214,9.2A13.814,13.814,0,0,0,97.628,24.17a13.814,13.814,0,0,1,9.2,22.214,13.813,13.813,0,0,0,0,17.006,13.814,13.814,0,0,1-9.2,22.214A13.814,13.814,0,0,0,85.6,97.629a13.814,13.814,0,0,1-22.214,9.2,13.813,13.813,0,0,0-17.006,0,13.814,13.814,0,0,1-22.214-9.2A13.814,13.814,0,0,0,12.144,85.6a13.814,13.814,0,0,1-9.2-22.214,13.813,13.813,0,0,0,0-17.006,13.814,13.814,0,0,1,9.2-22.214A13.814,13.814,0,0,0,24.169,12.145a13.814,13.814,0,0,1,22.214-9.2,13.813,13.813,0,0,0,17.006,0" fill="#e12058"/>
  </g>
</svg>
