<svg xmlns="http://www.w3.org/2000/svg" width="60.576" height="80.994" viewBox="0 0 60.576 80.994">
  <g id="Group_1955" data-name="Group 1955" transform="translate(-1411.802 -14018.273)">
    <g id="biology" transform="translate(1413.118 14019.523)">
      <path id="Path_1398" data-name="Path 1398" d="M212.252,55.449H196.058a1.627,1.627,0,0,1-1.627-1.627V51.058a1.627,1.627,0,0,1,1.627-1.627h16.194a1.627,1.627,0,0,1,1.627,1.627v2.764A1.627,1.627,0,0,1,212.252,55.449Z" transform="translate(-175.183 -42.809)" fill="none" stroke="#fff" stroke-linecap="round" stroke-linejoin="round" stroke-miterlimit="10" stroke-width="2.5"/>
      <path id="Path_1399" data-name="Path 1399" d="M114.554,175.644l15.119,25.115a5.726,5.726,0,0,1-4.905,8.679H78.294a5.726,5.726,0,0,1-4.905-8.679l20.121-33.422a4.875,4.875,0,0,0,.7-2.518v-4.9" transform="translate(-72.559 -135.847)" fill="none" stroke="#fff" stroke-linecap="round" stroke-linejoin="round" stroke-miterlimit="10" stroke-width="2.5"/>
      <path id="Path_1400" data-name="Path 1400" d="M302.36,90.74v15.825a4.875,4.875,0,0,0,.7,2.518l2.15,3.571" transform="translate(-266.066 -77.593)" fill="none" stroke="#fff" stroke-linecap="round" stroke-linejoin="round" stroke-miterlimit="10" stroke-width="2.5"/>
      <line id="Line_18" data-name="Line 18" y1="5.555" transform="translate(21.65 12.99)" fill="none" stroke="#fff" stroke-linecap="round" stroke-linejoin="round" stroke-miterlimit="10" stroke-width="2.5"/>
      <g id="Group_1159" data-name="Group 1159" transform="translate(14.943 37.379)">
        <path id="Path_1401" data-name="Path 1401" d="M291.275,334.964c-2.828,1.029-4.839-.372-5.384-1.869s.1-3.864,2.923-4.893,7.316,1.166,7.316,1.166S294.1,333.935,291.275,334.964Z" transform="translate(-266.991 -314.699)" fill="none" stroke="#fff" stroke-linecap="round" stroke-linejoin="round" stroke-miterlimit="10" stroke-width="2.5"/>
        <path id="Path_1402" data-name="Path 1402" d="M213.075,254.237c2.137,3.489,5.464,3.7,7.312,2.569s3.169-4.192,1.032-7.681-8.772-4.953-8.772-4.953S210.938,250.748,213.075,254.237Z" transform="translate(-204.92 -244.172)" fill="none" stroke="#fff" stroke-linecap="round" stroke-linejoin="round" stroke-miterlimit="10" stroke-width="2.5"/>
        <path id="Path_1403" data-name="Path 1403" d="M261.354,365.485a5.82,5.82,0,0,1,1.436-2.229,6.958,6.958,0,0,1,2.575-1.585" transform="translate(-246.48 -343.114)" fill="none" stroke="#fff" stroke-linecap="round" stroke-linejoin="round" stroke-miterlimit="10" stroke-width="2.5"/>
        <path id="Path_1404" data-name="Path 1404" d="M172.029,366.324c2.828,1.029,4.839-.372,5.384-1.869s-.1-3.864-2.923-4.893-7.316,1.166-7.316,1.166S169.2,365.295,172.029,366.324Z" transform="translate(-167.174 -341.106)" fill="none" stroke="#fff" stroke-linecap="round" stroke-linejoin="round" stroke-miterlimit="10" stroke-width="2.5"/>
        <path id="Path_1405" data-name="Path 1405" d="M236.1,397.092a6.3,6.3,0,0,0-1.436-2.476,6.957,6.957,0,0,0-2.575-1.585" transform="translate(-221.833 -369.521)" fill="none" stroke="#fff" stroke-linecap="round" stroke-linejoin="round" stroke-miterlimit="10" stroke-width="2.5"/>
        <path id="Path_1406" data-name="Path 1406" d="M248.164,313.212c0-2.856,1.337-2.856,1.337-5.712s-1.486-2.856-1.486-5.712a5.321,5.321,0,0,1,.331-1.981,8.765,8.765,0,0,0-.155-6.774c-.044-.1-.087-.19-.127-.277-.387-.83-.79-1.59-1.189-2.278" transform="translate(-234.288 -283.164)" fill="none" stroke="#fff" stroke-linecap="round" stroke-linejoin="round" stroke-miterlimit="10" stroke-width="2.5"/>
      </g>
      <path id="Path_1407" data-name="Path 1407" d="M158.35,406.807c4.242,1.475,7.361,3.383,15.429,3.383,13.151,0,13.151-5.07,26.3-5.07" transform="translate(-144.8 -342.321)" fill="none" stroke="#fff" stroke-linecap="round" stroke-linejoin="round" stroke-miterlimit="10" stroke-width="2.5"/>
      <path id="Path_1408" data-name="Path 1408" d="M95.007,405.482a38.313,38.313,0,0,0-5.507-.362" transform="translate(-86.824 -342.321)" fill="none" stroke="#fff" stroke-linecap="round" stroke-linejoin="round" stroke-miterlimit="10" stroke-width="2.5"/>
      <path id="Path_1409" data-name="Path 1409" d="M108.87,477.17v2.69a1.626,1.626,0,0,0,1.627,1.627h28.424" transform="translate(-103.135 -402.992)" fill="none" stroke="#fff" stroke-linecap="round" stroke-linejoin="round" stroke-miterlimit="10" stroke-width="2.5"/>
      <path id="Path_1410" data-name="Path 1410" d="M345.036,476.5v2.8a1.626,1.626,0,0,1-1.627,1.627H334.14" transform="translate(-292.827 -402.428)" fill="none" stroke="#fff" stroke-linecap="round" stroke-linejoin="round" stroke-miterlimit="10" stroke-width="2.5"/>
      <path id="Path_1411" data-name="Path 1411" d="M208.468,13.881l-1.056-4.445a1.573,1.573,0,0,1,1.53-1.936h12.214a1.573,1.573,0,0,1,1.53,1.936l-1.015,4.272" transform="translate(-186.078 -7.5)" fill="none" stroke="#fff" stroke-linecap="round" stroke-linejoin="round" stroke-miterlimit="10" stroke-width="2.5"/>
      <line id="Line_19" data-name="Line 19" transform="translate(48.971 67.831)" fill="none" stroke="#fff" stroke-linecap="round" stroke-linejoin="round" stroke-miterlimit="10" stroke-width="2.5"/>
      <line id="Line_20" data-name="Line 20" transform="translate(11.469 68.62)" fill="none" stroke="#fff" stroke-linecap="round" stroke-linejoin="round" stroke-miterlimit="10" stroke-width="2.5"/>
      <line id="Line_21" data-name="Line 21" transform="translate(6.794 67.831)" fill="none" stroke="#fff" stroke-linecap="round" stroke-linejoin="round" stroke-miterlimit="10" stroke-width="2.5"/>
    </g>
  </g>
</svg>
