<svg xmlns="http://www.w3.org/2000/svg" xmlns:xlink="http://www.w3.org/1999/xlink" width="156" height="155" viewBox="0 0 156 155">
  <defs>
    <clipPath id="clip-path">
      <rect id="Rectangle_198" data-name="Rectangle 198" width="141.631" height="141.631" fill="#001aa8"/>
    </clipPath>
  </defs>
  <g id="Group_1975" data-name="Group 1975" transform="translate(-1514 -16870)">
    <ellipse id="Ellipse_95" data-name="Ellipse 95" cx="78" cy="77.5" rx="78" ry="77.5" transform="translate(1514 16870)" fill="#c2d3fb"/>
    <g id="Group_1015" data-name="Group 1015" transform="translate(1520.838 16876.684)">
      <g id="Group_133" data-name="Group 133" clip-path="url(#clip-path)">
        <path id="Path_183" data-name="Path 183" d="M70.815,141.631A70.834,70.834,0,0,1,43.251,5.565a70.833,70.833,0,0,1,55.13,130.5,70.373,70.373,0,0,1-27.565,5.565m0-139.933a69.136,69.136,0,0,0-26.9,132.8A69.136,69.136,0,0,0,97.719,7.129,68.682,68.682,0,0,0,70.815,1.7" transform="translate(0 0)" fill="#001aa8"/>
        <path id="Path_184" data-name="Path 184" d="M202.028,250.238a48.064,48.064,0,1,1,18.766-3.789,47.907,47.907,0,0,1-18.766,3.789m0-94.662a46.3,46.3,0,1,0,18.081,3.65,46.159,46.159,0,0,0-18.081-3.65" transform="translate(-131.213 -131.212)" fill="#001aa8"/>
        <path id="Path_185" data-name="Path 185" d="M860.1,429.689a1.276,1.276,0,1,1,.192.014,1.414,1.414,0,0,1-.192-.014m-1.327-19.958h0a1.276,1.276,0,1,1,1.482,1.03,1.213,1.213,0,0,1-.227.021,1.277,1.277,0,0,1-1.256-1.051" transform="translate(-732.555 -348.237)" fill="#001aa8"/>
        <path id="Path_186" data-name="Path 186" d="M821.784,661.919a1.258,1.258,0,0,1-.25-.026,1.329,1.329,0,0,1-.239-.073,1.263,1.263,0,0,1-.22-.117,1.272,1.272,0,0,1-.568-1.061,1.258,1.258,0,0,1,.026-.25,1.188,1.188,0,0,1,.072-.239,1.233,1.233,0,0,1,.118-.221,1.258,1.258,0,0,1,.353-.353,1.347,1.347,0,0,1,.22-.118,1.409,1.409,0,0,1,.239-.072,1.257,1.257,0,0,1,.5,0,1.4,1.4,0,0,1,.239.072,1.348,1.348,0,0,1,.22.118,1.282,1.282,0,0,1,.194.159,1.268,1.268,0,0,1,.159.194,1.248,1.248,0,0,1,.118.221,1.181,1.181,0,0,1,.072.239,1.267,1.267,0,0,1,.026.25,1.271,1.271,0,0,1-.568,1.061,1.264,1.264,0,0,1-.22.117,1.317,1.317,0,0,1-.239.073,1.249,1.249,0,0,1-.25.026" transform="translate(-699.929 -562.467)" fill="#001aa8"/>
        <path id="Path_187" data-name="Path 187" d="M127.154,661.919a1.249,1.249,0,0,1-.25-.026,1.325,1.325,0,0,1-.239-.073,1.271,1.271,0,0,1-.414-.275,1.287,1.287,0,0,1-.374-.9,1.267,1.267,0,0,1,.025-.25,1.188,1.188,0,0,1,.072-.239,1.241,1.241,0,0,1,.118-.221,1.258,1.258,0,0,1,.353-.353,1.349,1.349,0,0,1,.22-.118,1.4,1.4,0,0,1,.239-.072,1.257,1.257,0,0,1,.5,0,1.4,1.4,0,0,1,.239.072,1.342,1.342,0,0,1,.22.118,1.258,1.258,0,0,1,.353.353,1.24,1.24,0,0,1,.118.221,1.187,1.187,0,0,1,.072.239,1.266,1.266,0,0,1,.026.25,1.288,1.288,0,0,1-.374.9,1.27,1.27,0,0,1-.414.275,1.318,1.318,0,0,1-.239.073,1.249,1.249,0,0,1-.25.026" transform="translate(-107.379 -562.467)" fill="#001aa8"/>
        <path id="Path_188" data-name="Path 188" d="M85.871,428.625a1.277,1.277,0,1,1,1.452,1.072,1.42,1.42,0,0,1-.192.014,1.277,1.277,0,0,1-1.26-1.087m1.3-17.856a1.27,1.27,0,1,1,.228.021,1.227,1.227,0,0,1-.228-.021" transform="translate(-73.239 -348.243)" fill="#001aa8"/>
        <path id="Path_189" data-name="Path 189" d="M630.137,347.971a14.337,14.337,0,0,1,1.44.178.807.807,0,0,0,.141.012.8.8,0,0,0,.139-1.579,15.856,15.856,0,0,0-1.6-.2.8.8,0,0,0-.119,1.587" transform="translate(-536.907 -295.479)" fill="#001aa8"/>
        <path id="Path_190" data-name="Path 190" d="M313.979,348.162a.806.806,0,0,0,.141-.012,14.355,14.355,0,0,1,1.44-.178.8.8,0,1,0-.119-1.587,15.859,15.859,0,0,0-1.6.2.8.8,0,0,0,.139,1.579" transform="translate(-267.159 -295.479)" fill="#001aa8"/>
        <path id="Path_191" data-name="Path 191" d="M331.721,287.864c-.988-1.135-2.091-2.275-3.294-3.41,1.2-1.135,2.306-2.275,3.294-3.41,4.595-5.28,6.187-9.9,4.484-13.017a5.337,5.337,0,0,0-.981-1.28.8.8,0,1,0-1.1,1.146,3.745,3.745,0,0,1,.69.9c1.34,2.451-.223,6.536-4.288,11.209a46.935,46.935,0,0,1-3.27,3.377,74.3,74.3,0,0,0-8.188-6.287,76.83,76.83,0,0,0-1.31-9.391,43.243,43.243,0,0,1,7.366-1.479.8.8,0,0,0-.161-1.584,44.65,44.65,0,0,0-7.547,1.507,50.171,50.171,0,0,0-1.581-5.443c-2.363-6.614-5.609-10.257-9.14-10.257s-6.777,3.643-9.14,10.257a50.177,50.177,0,0,0-1.581,5.443,44.651,44.651,0,0,0-7.547-1.507.8.8,0,1,0-.16,1.584,43.244,43.244,0,0,1,7.366,1.479,76.859,76.859,0,0,0-1.31,9.391,74.3,74.3,0,0,0-8.188,6.287,46.934,46.934,0,0,1-3.27-3.377c-4.066-4.672-5.629-8.758-4.288-11.209a3.75,3.75,0,0,1,.69-.9.8.8,0,1,0-1.1-1.146,5.336,5.336,0,0,0-.981,1.28c-1.7,3.114-.11,7.737,4.484,13.017.988,1.135,2.091,2.275,3.294,3.41-1.2,1.135-2.306,2.275-3.294,3.41-4.595,5.28-6.187,9.9-4.484,13.017a6.509,6.509,0,0,0,4.146,3,15.854,15.854,0,0,0,4.369.541,37.137,37.137,0,0,0,9.15-1.347q.562-.146,1.131-.307a50.17,50.17,0,0,0,1.58,5.441c2.363,6.614,5.609,10.257,9.14,10.257a5.26,5.26,0,0,0,1.588-.249.8.8,0,0,0-.48-1.518,3.671,3.671,0,0,1-1.108.175c-2.767,0-5.552-3.353-7.641-9.2a48.751,48.751,0,0,1-1.551-5.359,75.614,75.614,0,0,0,9.192-3.566,75.61,75.61,0,0,0,9.19,3.566,44.321,44.321,0,0,1-2.279,7.235.8.8,0,1,0,1.466.621,45.728,45.728,0,0,0,2.34-7.4q.57.161,1.134.308a37.13,37.13,0,0,0,9.15,1.347,15.86,15.86,0,0,0,4.369-.541,6.509,6.509,0,0,0,4.146-3c1.7-3.114.11-7.737-4.484-13.017m-5.652-3.41a71.439,71.439,0,0,1-6.872,5.35c.1-1.756.154-3.544.154-5.35s-.052-3.6-.152-5.349a71.422,71.422,0,0,1,6.87,5.349m-30.449,0c0-2.2.076-4.361.225-6.468,1.754-1.148,3.593-2.26,5.5-3.321,1.778-.99,3.567-1.907,5.346-2.746,1.779.839,3.568,1.756,5.346,2.746,1.9,1.061,3.744,2.172,5.5,3.321.149,2.107.225,4.271.225,6.468s-.078,4.36-.229,6.47c-1.753,1.147-3.591,2.258-5.495,3.318-1.784.993-3.573,1.91-5.346,2.746-1.774-.836-3.562-1.753-5.346-2.746-1.9-1.061-3.744-2.172-5.5-3.321-.149-2.107-.225-4.271-.225-6.468m21.748-8.467q-2.205-1.4-4.558-2.712-2.112-1.176-4.238-2.216a73.255,73.255,0,0,1,7.65-2.9,73.948,73.948,0,0,1,1.146,7.832m-18.319-14.752c2.089-5.847,4.874-9.2,7.641-9.2s5.552,3.353,7.641,9.2a48.726,48.726,0,0,1,1.552,5.362,76.276,76.276,0,0,0-9.192,3.567A76.278,76.278,0,0,0,297.5,266.6a48.74,48.74,0,0,1,1.552-5.362m-1.892,6.92a73.258,73.258,0,0,1,7.65,2.9q-2.12,1.039-4.238,2.216-2.349,1.308-4.558,2.712a73.956,73.956,0,0,1,1.146-7.832m-2.977,10.95c-.1,1.753-.152,3.54-.152,5.349s.052,3.6.152,5.349a71.413,71.413,0,0,1-6.87-5.349,71.418,71.418,0,0,1,6.87-5.349m-8.469,23.73a14.373,14.373,0,0,1-3.95-.485,5,5,0,0,1-3.191-2.234c-1.34-2.451.223-6.536,4.288-11.209a46.9,46.9,0,0,1,3.27-3.377,74.316,74.316,0,0,0,8.188,6.287,76.843,76.843,0,0,0,1.311,9.392,37.327,37.327,0,0,1-9.916,1.624m11.446-2.083a73.957,73.957,0,0,1-1.146-7.832q2.205,1.4,4.558,2.712,2.112,1.176,4.235,2.217a73.756,73.756,0,0,1-7.647,2.9m11.418-2.9q2.119-1.039,4.235-2.217,2.347-1.307,4.555-2.71a74.65,74.65,0,0,1-1.146,7.829,73.761,73.761,0,0,1-7.644-2.9m26.234,2.267a5,5,0,0,1-3.191,2.234c-3.264.943-8.193.481-13.871-1.14a77.561,77.561,0,0,0,1.311-9.39,74.32,74.32,0,0,0,8.192-6.289,46.9,46.9,0,0,1,3.27,3.377c4.066,4.672,5.629,8.758,4.288,11.209" transform="translate(-235.874 -213.639)" fill="#001aa8"/>
        <path id="Path_192" data-name="Path 192" d="M511.462,674.576a.8.8,0,0,0-1.1.236,14.6,14.6,0,0,1-.851,1.188.8.8,0,0,0,1.243.995,16.215,16.215,0,0,0,.945-1.318.8.8,0,0,0-.236-1.1" transform="translate(-434.486 -575.334)" fill="#001aa8"/>
        <path id="Path_193" data-name="Path 193" d="M449.222,454.639a5.67,5.67,0,1,0-5.626-5.67,5.655,5.655,0,0,0,5.626,5.67m0-9.748a4.078,4.078,0,1,1-4.034,4.078,4.061,4.061,0,0,1,4.034-4.078" transform="translate(-378.407 -378.154)" fill="#001aa8"/>
        <path id="Path_194" data-name="Path 194" d="M100.189,276.373a4.866,4.866,0,0,1-1.18,1.483,4.35,4.35,0,0,1-1.563.841,4.448,4.448,0,0,1-1.791.147,5.213,5.213,0,0,1-1.853-.594,4.875,4.875,0,0,1-1.492-1.192,4.506,4.506,0,0,1-.859-1.587,4.607,4.607,0,0,1-.17-1.8,4.925,4.925,0,0,1,.567-1.83,4.817,4.817,0,0,1,.764-1.063,4.282,4.282,0,0,1,1.008-.792,3.8,3.8,0,0,1,1.15-.427l.631,1.734a3.956,3.956,0,0,0-.785.315,2.967,2.967,0,0,0-.65.468,2.505,2.505,0,0,0-.483.646,2.668,2.668,0,0,0-.2,2.071,2.769,2.769,0,0,0,.529.943,3.1,3.1,0,0,0,.94.743,3.212,3.212,0,0,0,1.152.371,2.584,2.584,0,0,0,1.08-.1,2.624,2.624,0,0,0,.94-.538,3.269,3.269,0,0,0,.732-.946,2.826,2.826,0,0,0,.277-.777,2.972,2.972,0,0,0,.051-.8,3.085,3.085,0,0,0-.15-.757l1.817-.141a3.325,3.325,0,0,1,.167,1.064,5.053,5.053,0,0,1-.156,1.266,5.476,5.476,0,0,1-.477,1.252" transform="translate(-77.847 -229.944)" fill="#001aa8"/>
        <path id="Path_195" data-name="Path 195" d="M124.293,246.918l-7.421-5.465,1.171-1.59,5.99,4.411,2.475-3.361,1.431,1.054Z" transform="translate(-99.697 -204.614)" fill="#001aa8"/>
        <path id="Path_196" data-name="Path 196" d="M159.568,189.39l-1.227-1.175,1.066-1.112-4.2-4.025-1.066,1.112-1.227-1.175,3.5-3.651,1.227,1.175-1.065,1.112,4.2,4.025,1.066-1.112,1.226,1.175Z" transform="translate(-130.442 -153.005)" fill="#001aa8"/>
        <path id="Path_197" data-name="Path 197" d="M198.145,142.523l-5.618-7.306,1.4-1.075,8.236,2.353-.292.225q-.291-.291-.559-.575t-.539-.582q-.271-.3-.547-.625t-.58-.7q-.3-.373-.648-.822l-1.533-1.994,1.534-1.18,5.618,7.306-1.419,1.091-8.36-2.341.4-.295.8.855.572.615q.242.262.414.462t.321.384q.15.184.31.393l2.022,2.63Z" transform="translate(-164.234 -111.101)" fill="#001aa8"/>
        <path id="Path_198" data-name="Path 198" d="M259.832,112.787l-.819-1.488,1.349-.743-2.808-5.1-1.349.743-.819-1.487,4.428-2.439.819,1.488-1.349.743,2.808,5.1,1.349-.743.82,1.488Z" transform="translate(-217.855 -87.246)" fill="#001aa8"/>
        <path id="Path_199" data-name="Path 199" d="M314.807,89.534a4.86,4.86,0,0,1-1.864.343,4.354,4.354,0,0,1-1.731-.393,4.446,4.446,0,0,1-1.447-1.066,5.21,5.21,0,0,1-1.007-1.665,4.877,4.877,0,0,1-.341-1.879,4.5,4.5,0,0,1,.4-1.76,4.608,4.608,0,0,1,1.057-1.471,4.926,4.926,0,0,1,1.63-1.007,4.814,4.814,0,0,1,1.274-.3,4.275,4.275,0,0,1,1.28.065,3.806,3.806,0,0,1,1.147.434l-.664,1.722a3.97,3.97,0,0,0-.8-.278,2.963,2.963,0,0,0-.8-.074,2.506,2.506,0,0,0-.788.169,2.668,2.668,0,0,0-1.509,1.433,2.773,2.773,0,0,0-.221,1.058,3.094,3.094,0,0,0,.22,1.178,3.215,3.215,0,0,0,.624,1.037,2.584,2.584,0,0,0,.879.635,2.624,2.624,0,0,0,1.062.213,3.27,3.27,0,0,0,1.173-.232,2.818,2.818,0,0,0,.719-.4,2.962,2.962,0,0,0,.564-.569,3.091,3.091,0,0,0,.384-.67l1.462,1.088a3.323,3.323,0,0,1-.574.912,5.048,5.048,0,0,1-.949.851,5.464,5.464,0,0,1-1.182.631" transform="translate(-263.093 -68.512)" fill="#001aa8"/>
        <path id="Path_200" data-name="Path 200" d="M370.3,77.277l-1.993-9,1.928-.427,1.609,7.263,4.075-.9.384,1.735Z" transform="translate(-314.182 -57.88)" fill="#001aa8"/>
        <path id="Path_201" data-name="Path 201" d="M428.834,67.43l-.73-9.187,1.969-.156.589,7.415,4.161-.331.141,1.772Z" transform="translate(-365.192 -49.55)" fill="#001aa8"/>
        <path id="Path_202" data-name="Path 202" d="M472.1,64.754l.176-4.591.067.648-3.521-5.405,2.276.087,2.685,4.188-.893-.074,2.721-3.94,2.2.084-3.773,5.27.232-.887-.18,4.7Z" transform="translate(-399.925 -47.263)" fill="#001aa8"/>
        <path id="Path_203" data-name="Path 203" d="M559.3,74.55l2.376-8.9,3.778,1.008a2.856,2.856,0,0,1,2.075,2.053,2.971,2.971,0,0,1-.015,1.563,3.067,3.067,0,0,1-.772,1.388,2.964,2.964,0,0,1-1.291.78,2.8,2.8,0,0,1-1.541,0l-1.87-.5-.832,3.117Zm3.173-4.332,1.679.448a1.008,1.008,0,0,0,.589-.013,1.221,1.221,0,0,0,.5-.323,1.3,1.3,0,0,0,.309-.572,1.223,1.223,0,0,0,.013-.637,1.2,1.2,0,0,0-.279-.511,1.038,1.038,0,0,0-.506-.3l-1.679-.448Z" transform="translate(-477.109 -55.998)" fill="#001aa8"/>
        <path id="Path_204" data-name="Path 204" d="M613.32,92.685l3.728-8.429,3.733,1.651a3.141,3.141,0,0,1,1.264.984,2.931,2.931,0,0,1,.582,1.4,2.823,2.823,0,0,1-.24,1.535,2.9,2.9,0,0,1-.977,1.216,2.935,2.935,0,0,1-1.439.537,3.1,3.1,0,0,1-1.581-.267l-1.987-.879-1.337,3.022Zm3.732-3.719,1.9.841a1.177,1.177,0,0,0,.639.1,1.086,1.086,0,0,0,.566-.254,1.5,1.5,0,0,0,.4-.549,1.323,1.323,0,0,0,.12-.7,1.176,1.176,0,0,0-.274-.618,1.688,1.688,0,0,0-.632-.459l-1.673-.74ZM618.1,94.8l-.46-4.753,1.987.519.563,5.173Z" transform="translate(-523.189 -71.874)" fill="#001aa8"/>
        <path id="Path_205" data-name="Path 205" d="M677.518,131.486a4.863,4.863,0,0,1-1.372-1.337,4.562,4.562,0,0,1-.7-1.655,4.352,4.352,0,0,1,.02-1.8,5.478,5.478,0,0,1,2.108-3.176,4.375,4.375,0,0,1,1.651-.713,4.562,4.562,0,0,1,1.795,0,5.11,5.11,0,0,1,3.121,2.072,4.539,4.539,0,0,1,.686,1.656,4.443,4.443,0,0,1-.02,1.8,5.418,5.418,0,0,1-2.1,3.159,4.442,4.442,0,0,1-1.655.719,4.537,4.537,0,0,1-1.793.011,4.779,4.779,0,0,1-1.749-.734m1.023-1.565a2.617,2.617,0,0,0,1.02.416,2.527,2.527,0,0,0,1.037-.038,2.88,2.88,0,0,0,.972-.453,3.39,3.39,0,0,0,1.282-1.93,2.883,2.883,0,0,0,.04-1.072,2.525,2.525,0,0,0-.367-.971,2.621,2.621,0,0,0-.779-.778,2.585,2.585,0,0,0-1.009-.409,2.658,2.658,0,0,0-1.048.031,2.592,2.592,0,0,0-.972.453,3.611,3.611,0,0,0-1.281,1.93,2.594,2.594,0,0,0-.04,1.072,2.668,2.668,0,0,0,.378.978,2.587,2.587,0,0,0,.768.771" transform="translate(-576.118 -104.678)" fill="#001aa8"/>
        <path id="Path_206" data-name="Path 206" d="M735.189,162.739l3.61-9.241,1.53,1.43-2,4.958q-.163.406-.293.708t-.251.558q-.122.256-.239.5t-.267.517l-.288-.251q.356-.226.666-.414t.677-.377q.366-.189.861-.43l4.735-2.4,1.52,1.42-9,4.206Z" transform="translate(-627.149 -130.941)" fill="#001aa8"/>
        <path id="Path_207" data-name="Path 207" d="M766.217,214.167l7.247-5.694,3.847,4.9-1.367,1.074-2.652-3.375-4.514,3.546,2.709,3.447-1.367,1.074Zm3.6-1.659,1.325-1.041,2.888,3.675-1.325,1.041Z" transform="translate(-653.617 -177.837)" fill="#001aa8"/>
        <path id="Path_208" data-name="Path 208" d="M799.474,264.653l8.079-4.434.849,1.547-3.585,7.78-.177-.323q.332-.243.654-.464t.658-.444q.336-.222.7-.445t.781-.466q.415-.243.911-.515l2.2-1.21.931,1.7-8.079,4.434-.862-1.569,3.592-7.9.229.445-.968.659-.695.472q-.3.2-.52.338t-.429.258q-.2.12-.435.247l-2.909,1.6Z" transform="translate(-681.987 -221.978)" fill="#001aa8"/>
        <path id="Path_209" data-name="Path 209" d="M147.95,723.536l1.32-1.113,1.08,1.281,4.524-3.814-1.08-1.281,1.32-1.113,3.546,4.206-1.32,1.113-1.08-1.281-4.524,3.814,1.08,1.281-1.32,1.113Z" transform="translate(-126.208 -612.056)" fill="#001aa8"/>
        <path id="Path_210" data-name="Path 210" d="M187.874,762.266l5.96-7.232,1.481,1.221-.174,8.929-.31-.255q.22-.357.438-.689t.45-.67q.232-.338.492-.687t.56-.736q.3-.386.666-.83l1.626-1.973,1.625,1.339-5.96,7.232-1.5-1.239.128-9.053.412.356-.66.992-.474.711q-.2.3-.362.517t-.307.406q-.148.19-.318.4l-2.146,2.6Z" transform="translate(-160.265 -644.078)" fill="#001aa8"/>
        <path id="Path_211" data-name="Path 211" d="M266.284,818.683a5.937,5.937,0,0,1-1.713-1.314,5.036,5.036,0,0,1-1-1.682,4.531,4.531,0,0,1-.243-1.866,4.8,4.8,0,0,1,.553-1.872,4.6,4.6,0,0,1,1.235-1.507,4.516,4.516,0,0,1,1.7-.833,5.236,5.236,0,0,1,1.973-.107,6.09,6.09,0,0,1,2.058.671,5.755,5.755,0,0,1,1.264.89,5.635,5.635,0,0,1,.925,1.1,3.98,3.98,0,0,1,.515,1.177l-1.789.543a4.741,4.741,0,0,0-.421-.863,3.649,3.649,0,0,0-.587-.716,3.389,3.389,0,0,0-.759-.542,3.293,3.293,0,0,0-1.2-.374,3.185,3.185,0,0,0-1.174.095,2.8,2.8,0,0,0-1.031.533,2.978,2.978,0,0,0-.763.945,2.845,2.845,0,0,0-.328,1.166,2.978,2.978,0,0,0,.161,1.173,3.234,3.234,0,0,0,.609,1.045,3.368,3.368,0,0,0,1.008.793,2.99,2.99,0,0,0,.868.3,2.4,2.4,0,0,0,.837.008,1.811,1.811,0,0,0,.715-.283,1.485,1.485,0,0,0,.488-.545l.149-.285.08.465-2.537-1.33.777-1.482,4.111,2.155-.136.337q-.08.2-.17.387t-.146.294a3.956,3.956,0,0,1-1.088,1.319,3.9,3.9,0,0,1-1.472.709,4.458,4.458,0,0,1-1.7.071,5.429,5.429,0,0,1-1.764-.585" transform="translate(-224.616 -690.502)" fill="#001aa8"/>
        <path id="Path_212" data-name="Path 212" d="M331.088,841.011l2.727-8.965,4.249,1.292a3.613,3.613,0,0,1,1.5.87,3.113,3.113,0,0,1,.835,1.366,2.731,2.731,0,0,1-.026,1.587,2.8,2.8,0,0,1-.864,1.339,3.1,3.1,0,0,1-1.462.7,3.558,3.558,0,0,1-1.734-.108l-2.261-.688-.978,3.215Zm3.44-4.173,2.166.659a1.348,1.348,0,0,0,.7.038,1.135,1.135,0,0,0,.568-.317,1.437,1.437,0,0,0,.347-.6,1.274,1.274,0,0,0,.024-.72,1.251,1.251,0,0,0-.386-.6,1.946,1.946,0,0,0-.746-.4l-1.9-.579Zm2,5.828-1.208-4.789,2.208.322,1.381,5.206Z" transform="translate(-282.433 -709.772)" fill="#001aa8"/>
        <path id="Path_213" data-name="Path 213" d="M403.2,858.653l1.212-9.292,6.719.876-.229,1.752-4.631-.6-.755,5.788,4.73.617-.228,1.752Zm1.5-3.76.222-1.7,5.043.658-.222,1.7Z" transform="translate(-343.943 -724.543)" fill="#001aa8"/>
        <path id="Path_214" data-name="Path 214" d="M469.249,864.594l-.366-9.364,4.108-.161a5.571,5.571,0,0,1,2.01.263,4.568,4.568,0,0,1,1.583.9,4.165,4.165,0,0,1,1.053,1.439,5.408,5.408,0,0,1,.148,3.792,4.2,4.2,0,0,1-.93,1.523,4.471,4.471,0,0,1-1.508,1.024,5.628,5.628,0,0,1-1.99.419Zm2.09-1.542-.243-.339,2.119-.083a3.081,3.081,0,0,0,1.152-.253,2.58,2.58,0,0,0,.858-.609,2.365,2.365,0,0,0,.516-.924,3.613,3.613,0,0,0,.14-1.2,3.556,3.556,0,0,0-.232-1.176,2.436,2.436,0,0,0-.587-.881,2.533,2.533,0,0,0-.9-.547,3.088,3.088,0,0,0-1.168-.162l-2.161.085.259-.332Z" transform="translate(-399.978 -729.407)" fill="#001aa8"/>
        <path id="Path_215" data-name="Path 215" d="M538.027,855.059l-.332-1.695,1.645-.323-1.138-5.806-1.645.322-.332-1.695,5.4-1.058.332,1.695-1.645.322,1.138,5.807,1.645-.322.332,1.695Z" transform="translate(-457.423 -720.656)" fill="#001aa8"/>
        <path id="Path_216" data-name="Path 216" d="M588.179,837.516l-3.119-8.837,6.389-2.255.588,1.667-4.4,1.554,1.942,5.5,4.5-1.588.588,1.666Zm-.36-4.032-.57-1.616,4.8-1.693.57,1.616Z" transform="translate(-499.082 -704.976)" fill="#001aa8"/>
        <path id="Path_217" data-name="Path 217" d="M643.813,804.586l-4.678-8.12,1.663-.958,8.3,3.3-.348.2q-.257-.331-.491-.652t-.469-.657q-.235-.336-.471-.7t-.492-.783q-.256-.416-.544-.915l-1.277-2.216,1.825-1.051,4.678,8.12-1.688.973-8.432-3.3.478-.26.7.966.5.694q.211.3.358.52t.273.43q.127.205.26.437l1.684,2.923Z" transform="translate(-545.211 -675.638)" fill="#001aa8"/>
        <path id="Path_218" data-name="Path 218" d="M705.916,762.04l-4.935-5.732-2.214,1.907-1.179-1.37,6.123-5.272,1.179,1.37-2.28,1.963,4.935,5.732Z" transform="translate(-595.073 -641.126)" fill="#001aa8"/>
        <path id="Path_219" data-name="Path 219" d="M759.2,723.071a6.3,6.3,0,0,1-1.243,1.176,4.441,4.441,0,0,1-1.35.652,5.125,5.125,0,0,1-1.453.187l-.252-1.95a4.05,4.05,0,0,0,1.844-.293,3.5,3.5,0,0,0,1.213-.959,2.454,2.454,0,0,0,.412-.691,1.373,1.373,0,0,0,.1-.634.7.7,0,0,0-.261-.474.8.8,0,0,0-.369-.173,1.035,1.035,0,0,0-.43.017,2.241,2.241,0,0,0-.479.182,4.222,4.222,0,0,0-.519.315,5.594,5.594,0,0,0-.545.442,8.349,8.349,0,0,1-1.217.817,3.349,3.349,0,0,1-1.112.384A2.34,2.34,0,0,1,752.51,722a2.746,2.746,0,0,1-.94-.522,2.264,2.264,0,0,1-.682-.931,2.78,2.78,0,0,1-.183-1.18,3.819,3.819,0,0,1,.3-1.273,4.869,4.869,0,0,1,.741-1.218,6.135,6.135,0,0,1,1.163-1.121,3.67,3.67,0,0,1,1.189-.572,3.4,3.4,0,0,1,1.229-.093l.088,1.833a3.4,3.4,0,0,0-.9.1,2.615,2.615,0,0,0-.777.344,2.81,2.81,0,0,0-.63.567,2.611,2.611,0,0,0-.431.7,1.2,1.2,0,0,0-.083.627.758.758,0,0,0,.276.477.738.738,0,0,0,.413.172,1.118,1.118,0,0,0,.49-.08,2.909,2.909,0,0,0,.564-.3,7.092,7.092,0,0,0,.627-.468,8.2,8.2,0,0,1,1.2-.849,4.362,4.362,0,0,1,1.137-.466,2.419,2.419,0,0,1,1.062-.027,2.19,2.19,0,0,1,.956.47,2.678,2.678,0,0,1,.942,1.4,3.063,3.063,0,0,1-.064,1.691,5.234,5.234,0,0,1-1,1.775" transform="translate(-640.381 -609.986)" fill="#001aa8"/>
      </g>
    </g>
  </g>
</svg>
