<svg id="Group_1973" data-name="Group 1973" xmlns="http://www.w3.org/2000/svg" xmlns:xlink="http://www.w3.org/1999/xlink" width="156" height="154.301" viewBox="0 0 156 154.301">
  <defs>
    <clipPath id="clip-path">
      <rect id="Rectangle_591" data-name="Rectangle 591" width="156" height="154.3" fill="none"/>
    </clipPath>
  </defs>
  <g id="Group_1166" data-name="Group 1166">
    <g id="Group_1165" data-name="Group 1165" clip-path="url(#clip-path)">
      <path id="Path_1412" data-name="Path 1412" d="M148.933,92.464C150.159,87.07,156,82.037,156,76.271s-5.841-10.8-7.067-16.192c-1.267-5.573,1.783-12.634-.642-17.659-2.465-5.11-9.91-7.113-13.416-11.5-3.52-4.408-3.83-12.11-8.24-15.631-4.388-3.5-11.958-2.1-17.069-4.57C104.541,8.292,100.93,1.478,95.359.21,89.965-1.017,83.766,3.529,78,3.529S66.035-1.014,60.642.21C55.07,1.478,51.459,8.292,46.434,10.717c-5.109,2.466-12.681,1.066-17.069,4.57-4.41,3.521-4.72,11.221-8.24,15.629-3.5,4.389-10.952,6.394-13.415,11.5-2.427,5.028.624,12.089-.643,17.662C5.841,65.472,0,70.5,0,76.271s5.841,10.8,7.068,16.193c1.267,5.571-1.784,12.633.643,17.659,2.463,5.107,9.91,7.113,13.412,11.5,3.522,4.408,3.833,12.11,8.243,15.631,4.386,3.5,11.957,2.1,17.069,4.57,5.025,2.424,8.636,9.239,14.207,10.506,5.394,1.225,11.591-3.321,17.359-3.321s11.965,4.545,17.358,3.321c5.571-1.267,9.182-8.082,14.207-10.506,5.11-2.466,12.681-1.066,17.069-4.57,4.409-3.522,4.72-11.221,8.24-15.631,3.5-4.389,10.951-6.392,13.414-11.5,2.427-5.026-.623-12.087.643-17.659" transform="translate(0 0)" fill="#2e3192"/>
    </g>
  </g>
  <text id="D" transform="translate(20.078 64.921) rotate(100.838)" fill="#fff" font-size="12" font-family="SegoeUI, Segoe UI"><tspan x="0" y="0">D</tspan></text>
  <text id="E" transform="matrix(-0.028, 1, -1, -0.028, 19.251, 75.205)" fill="#fff" font-size="11" font-family="SegoeUI, Segoe UI"><tspan x="0" y="0">E</tspan></text>
  <text id="R" transform="translate(18.036 83.894) rotate(82.858)" fill="#fff" font-size="12" font-family="SegoeUI, Segoe UI"><tspan x="0" y="0">R</tspan></text>
  <text id="M" transform="matrix(0.298, 0.954, -0.954, 0.298, 19.229, 93.562)" fill="#fff" font-size="12" font-family="SegoeUI, Segoe UI"><tspan x="0" y="0">M</tspan></text>
  <text id="A" transform="matrix(0.467, 0.885, -0.885, 0.467, 22.973, 104.921)" fill="#fff" font-size="12" font-family="SegoeUI, Segoe UI"><tspan x="0" y="0">A</tspan></text>
  <text id="T" transform="matrix(0.585, 0.811, -0.811, 0.585, 27.186, 112.804)" fill="#fff" font-size="12" font-family="SegoeUI, Segoe UI"><tspan x="0" y="0">T</tspan></text>
  <text id="O" transform="matrix(0.703, 0.711, -0.711, 0.703, 31.861, 119.38)" fill="#fff" font-size="12" font-family="SegoeUI, Segoe UI"><tspan x="0" y="0">O</tspan></text>
  <text id="L" transform="matrix(0.808, 0.589, -0.589, 0.808, 39.63, 126.998)" fill="#fff" font-size="12" font-family="SegoeUI, Segoe UI"><tspan x="0" y="0">L</tspan></text>
  <text id="O-2" data-name="O" transform="matrix(0.889, 0.457, -0.457, 0.889, 46.207, 131.86)" fill="#fff" font-size="12" font-family="SegoeUI, Segoe UI"><tspan x="0" y="0">O</tspan></text>
  <text id="G" transform="translate(56.026 136.796) rotate(16.839)" fill="#fff" font-size="12" font-family="SegoeUI, Segoe UI"><tspan x="0" y="0">G</tspan></text>
  <text id="I" transform="matrix(0.989, 0.147, -0.147, 0.989, 66.026, 139.646)" fill="#fff" font-size="12" font-family="SegoeUI, Segoe UI"><tspan x="0" y="0">I</tspan></text>
  <text id="S" transform="translate(73.047 139.693) rotate(0.892)" fill="#fff" font-size="11" font-family="SegoeUI, Segoe UI"><tspan x="0" y="0">S</tspan></text>
  <text id="T-2" data-name="T" transform="translate(81.697 140.764) rotate(-7.233)" fill="#fff" font-size="12" font-family="SegoeUI, Segoe UI"><tspan x="0" y="0">T</tspan></text>
  <text id="_" data-name=" " transform="translate(89.541 138.639) rotate(-13.059)" fill="#fff" font-size="11" font-family="SegoeUI, Segoe UI"><tspan x="0" y="0"> </tspan></text>
  <text id="F" transform="matrix(0.946, -0.326, 0.326, 0.946, 93.928, 138.726)" fill="#fff" font-size="12" font-family="SegoeUI, Segoe UI"><tspan x="0" y="0">F</tspan></text>
  <text id="O-3" data-name="O" transform="translate(101.915 136.014) rotate(-28.23)" fill="#fff" font-size="12" font-family="SegoeUI, Segoe UI"><tspan x="0" y="0">O</tspan></text>
  <text id="R-2" data-name="R" transform="matrix(0.786, -0.618, 0.618, 0.786, 111.493, 130.721)" fill="#fff" font-size="12" font-family="SegoeUI, Segoe UI"><tspan x="0" y="0">R</tspan></text>
  <text id="M-2" data-name="M" transform="translate(119.193 124.684) rotate(-48.526)" fill="#fff" font-size="12" font-family="SegoeUI, Segoe UI"><tspan x="0" y="0">M</tspan></text>
  <text id="U" transform="matrix(0.512, -0.859, 0.859, 0.512, 127.006, 115.6)" fill="#fff" font-size="12" font-family="SegoeUI, Segoe UI"><tspan x="0" y="0">U</tspan></text>
  <text id="L-2" data-name="L" transform="translate(132.156 106.705) rotate(-68.091)" fill="#fff" font-size="12" font-family="SegoeUI, Segoe UI"><tspan x="0" y="0">L</tspan></text>
  <text id="A-2" data-name="A" transform="matrix(0.23, -0.973, 0.973, 0.23, 135.279, 98.906)" fill="#fff" font-size="12" font-family="SegoeUI, Segoe UI"><tspan x="0" y="0">A</tspan></text>
  <text id="T-3" data-name="T" transform="translate(137.283 90.206) rotate(-84.746)" fill="#fff" font-size="12" font-family="SegoeUI, Segoe UI"><tspan x="0" y="0">T</tspan></text>
  <text id="E-2" data-name="E" transform="matrix(-0.051, -0.999, 0.999, -0.051, 137.009, 81.89)" fill="#fff" font-size="11" font-family="SegoeUI, Segoe UI"><tspan x="0" y="0">E</tspan></text>
  <text id="D-2" data-name="D" transform="translate(137.558 73.11) rotate(-101.972)" fill="#fff" font-size="12" font-family="SegoeUI, Segoe UI"><tspan x="0" y="0">D</tspan></text>
  <g id="Group_1168" data-name="Group 1168">
    <g id="Group_1167" data-name="Group 1167" clip-path="url(#clip-path)">
      <path id="Path_1413" data-name="Path 1413" d="M96.518,25.548l.569-1.772a.457.457,0,0,0-.168-.511L95.41,22.177a.457.457,0,0,1,.265-.829l1.861-.006a.459.459,0,0,0,.435-.318l.568-1.772a.458.458,0,0,1,.871,0l.581,1.768a.457.457,0,0,0,.437.314l1.86-.006a.458.458,0,0,1,.272.827l-1.5,1.1a.458.458,0,0,0-.165.512l.581,1.768a.458.458,0,0,1-.7.514l-1.509-1.088a.458.458,0,0,0-.539,0l-1.5,1.1a.458.458,0,0,1-.706-.509" transform="translate(-21.323 -4.24)" fill="#fefffd"/>
      <path id="Path_1414" data-name="Path 1414" d="M80.552,33.506l.616-1.92a.5.5,0,0,0-.182-.553l-1.635-1.18a.5.5,0,0,1,.289-.9l2.016-.007a.5.5,0,0,0,.47-.345l.616-1.919a.5.5,0,0,1,.944,0l.63,1.915a.5.5,0,0,0,.473.341l2.016-.007a.5.5,0,0,1,.295.9l-1.627,1.19a.5.5,0,0,0-.178.556l.629,1.915a.5.5,0,0,1-.761.557l-1.635-1.18a.5.5,0,0,0-.584,0l-1.627,1.19a.5.5,0,0,1-.765-.552" transform="translate(-17.723 -5.898)" fill="#fefffd"/>
      <path id="Path_1415" data-name="Path 1415" d="M112.122,33.506l.616-1.92a.5.5,0,0,0-.182-.553l-1.635-1.18a.5.5,0,0,1,.289-.9l2.016-.007a.5.5,0,0,0,.47-.345l.616-1.919a.5.5,0,0,1,.944,0l.63,1.915a.5.5,0,0,0,.473.341l2.016-.007a.5.5,0,0,1,.295.9l-1.627,1.19a.5.5,0,0,0-.178.556l.629,1.915a.5.5,0,0,1-.761.557l-1.635-1.18a.5.5,0,0,0-.584,0l-1.627,1.19a.5.5,0,0,1-.765-.552" transform="translate(-24.793 -5.898)" fill="#fefffd"/>
      <path id="Path_1416" data-name="Path 1416" d="M39.042,52.941c.165-.256.3-.532.475-.782.456-.665.971-1.281,1.468-1.911.167-.212.321-.434.493-.641.518-.626,1.07-1.218,1.628-1.808.22-.231.438-.464.664-.691.6-.6,1.218-1.172,1.859-1.728.129-.112.262-.219.392-.327.354-.3.7-.6,1.066-.889a7.95,7.95,0,0,0,2.448,2.058,8.088,8.088,0,0,0,2.345.823,7.964,7.964,0,0,0,5.068-.729c.069-.035.134-.081.2-.119a8.161,8.161,0,0,0,.94-.546l5.924-4.292a.926.926,0,0,0,.058-1.189l-.485-.3-1.27-.2a2.319,2.319,0,0,1-.581-.176,2.21,2.21,0,0,1-.8-.608,2.194,2.194,0,0,1-.537-1.506,2.194,2.194,0,0,1,.155-.792,2.281,2.281,0,0,1,.2-.412,2.092,2.092,0,0,0-2.283-3.152,2.29,2.29,0,0,1-2.832-2.58l.046-.286.158-.982-.056-.234-.077-.318-.11-.151a.68.68,0,0,0-.141-.13.727.727,0,0,0-.664-.14.737.737,0,0,0-.231.1l-3.826,2.77-1.469,1.066-.293.213a8.176,8.176,0,0,0-.689.607,7.964,7.964,0,0,0-2.477,3.866,8.492,8.492,0,0,0-.376,1.941,7.729,7.729,0,0,0,.858,4.129,37.281,37.281,0,0,0-4.167,3.785,12.985,12.985,0,0,0,.246-1.513c.04-.383.052-.771.054-1.171a9.636,9.636,0,0,0-.291-2.549,11.31,11.31,0,0,0-3.068-5c-.148-.147-.288-.282-.432-.414-.293-.269-.57-.51-.83-.717a13.929,13.929,0,0,0-1.42-1.007l-.567-.076-.068.053-.385.3c-.031.054-.269.5-.553,1.161A15.788,15.788,0,0,0,34.054,38a12.942,12.942,0,0,0-.4,2.722,10.2,10.2,0,0,0,.176,2.238c.043.228.056.454.118.683a.126.126,0,0,0,0,.013,9.387,9.387,0,0,0,.771,1.908c.172.328.345.654.542.954a12.583,12.583,0,0,0,1.122,1.461c.29.327.581.634.868.906.357.34.692.624,1.005.875s.556.431.778.586a38.077,38.077,0,0,0-2.819,4.381,13.292,13.292,0,0,0-.195-1.592,11.355,11.355,0,0,0-.373-1.455,9.742,9.742,0,0,0-.636-1.511c-.1-.194-.172-.4-.289-.586a8.913,8.913,0,0,0-.549-.733,10.054,10.054,0,0,0-.736-.878,11.5,11.5,0,0,0-1.639-1.4,14.92,14.92,0,0,0-2.686-1.509,14.236,14.236,0,0,0-1.939-.68l-.319.051-.245.039-.334.463c-.015.062-.12.574-.2,1.321A15.648,15.648,0,0,0,26,48.56a12.464,12.464,0,0,0,.615,3.462,9.586,9.586,0,0,0,.732,1.667c.061.109.1.222.162.328a9.09,9.09,0,0,0,.612.823,10.062,10.062,0,0,0,.976,1.083,12.965,12.965,0,0,0,2.782,2.022c.068.036.132.067.2.1.5.262.98.474,1.4.641.3.12.563.214.791.291a37.551,37.551,0,0,0-2.549,11.563c.154.13.309.259.463.388.3.251.6.505.9.754l.063.053c0-.037.005-.073.006-.109.009-.3.033-.605.05-.907q.068-1.216.216-2.431c.034-.274.07-.546.11-.818q.171-1.152.419-2.3c.078-.369.148-.74.239-1.106.18-.726.4-1.444.621-2.161.1-.307.174-.615.278-.92.254-.738.549-1.467.854-2.194.12-.287.235-.575.362-.861q.483-1.076,1.038-2.133c.046-.086.081-.175.127-.261.1-.19.228-.361.334-.549.392-.7.813-1.38,1.246-2.048m8.586-16.718a7.3,7.3,0,0,1,.667-1.1,7.207,7.207,0,0,1,1.549-1.57l.6-.437.861-.622,1.4-1.01,1.436-1.041a3.933,3.933,0,0,0,.22,1.665,3.776,3.776,0,0,0,1,1.486c.026.024.058.037.085.061a3.939,3.939,0,0,0,3.4.8.59.59,0,0,1,.639.231.857.857,0,0,1,.087.2.529.529,0,0,1-.068.479,3.779,3.779,0,0,0,2.349,5.72L59.6,42.719l-.59.428-1.8,1.3a6.5,6.5,0,0,1-3.584,1.233,6.582,6.582,0,0,1-.913-.048c-.189-.019-.377-.013-.567-.049a6.488,6.488,0,0,1-3.831-2.292,6.807,6.807,0,0,1-.484-.605c-.092-.144-.148-.3-.227-.452a5.937,5.937,0,0,1-.467-1.151,6.264,6.264,0,0,1-.254-1.69,6.977,6.977,0,0,1,.738-3.169M35.876,44.556a7.991,7.991,0,0,1-.363-.931c-.04-.124-.094-.242-.129-.369a8.5,8.5,0,0,1-.229-2.811,11.988,11.988,0,0,1,.369-2.216,14.632,14.632,0,0,1,.775-2.185c.207.149.462.348.73.568a13.668,13.668,0,0,1,1.563,1.5c.118.133.232.28.348.422a10.159,10.159,0,0,1,1.15,1.774c.119.235.229.474.327.723a7.443,7.443,0,0,1,.278.8,7.732,7.732,0,0,1,.213,1.19,8.929,8.929,0,0,1,.026,1.452v.006a13.448,13.448,0,0,1-1.152,4.567,12.424,12.424,0,0,1-3.9-4.492m-6.582,9.4a7.575,7.575,0,0,1-.518-.718,7.656,7.656,0,0,1-.393-.759,8.763,8.763,0,0,1-.466-1.2,10.908,10.908,0,0,1-.4-2.274,14.463,14.463,0,0,1,.081-2.939c.282.1.641.241,1.028.41a13.661,13.661,0,0,1,1.969,1.057,9.271,9.271,0,0,1,2.816,2.753c.016.026.037.047.053.073,0,.007.008.015.012.022a9.749,9.749,0,0,1,1.279,4.659c.01.251.014.491.012.726a14.987,14.987,0,0,1-.12,1.768,14.07,14.07,0,0,1-2.857-1.369,10.951,10.951,0,0,1-1.464-1.111,8.821,8.821,0,0,1-1.028-1.1" transform="translate(-5.82 -6.309)" fill="#fff"/>
      <path id="Path_1417" data-name="Path 1417" d="M150.74,54.988c.1.188.231.359.334.549.046.085.081.175.126.261q.558,1.056,1.039,2.133c.127.285.242.573.362.86.3.727.6,1.456.854,2.194.1.3.181.614.278.92.225.718.441,1.436.62,2.161.092.367.161.737.24,1.106.164.764.3,1.529.419,2.3q.059.409.11.819.15,1.214.216,2.431c.017.3.041.6.05.906,0,.037.005.073.006.11l.063-.053c.3-.249.6-.5.9-.754.154-.13.309-.258.463-.389a37.555,37.555,0,0,0-2.548-11.563c.228-.076.491-.172.79-.291.418-.167.893-.379,1.4-.641.067-.034.132-.064.2-.1a12.985,12.985,0,0,0,2.782-2.022,10.144,10.144,0,0,0,.976-1.083,8.928,8.928,0,0,0,.611-.823c.065-.107.1-.22.163-.329a9.585,9.585,0,0,0,.732-1.667,12.46,12.46,0,0,0,.615-3.462,15.651,15.651,0,0,0-.075-2.3c-.084-.747-.19-1.258-.2-1.321l-.334-.463-.245-.039-.32-.05a13.962,13.962,0,0,0-1.938.68,14.912,14.912,0,0,0-2.686,1.509,11.5,11.5,0,0,0-1.64,1.4,9.942,9.942,0,0,0-.736.879,8.667,8.667,0,0,0-.549.733c-.117.19-.189.39-.289.584a9.749,9.749,0,0,0-.636,1.511,11.463,11.463,0,0,0-.373,1.456,13.407,13.407,0,0,0-.194,1.592,38.02,38.02,0,0,0-2.819-4.382c.222-.154.479-.347.778-.586s.647-.535,1-.875c.287-.272.578-.579.868-.906a12.585,12.585,0,0,0,1.122-1.461c.2-.3.371-.625.542-.954a9.443,9.443,0,0,0,.771-1.908l0-.014c.061-.229.075-.455.118-.683a10.146,10.146,0,0,0,.175-2.237,12.884,12.884,0,0,0-.4-2.722,15.668,15.668,0,0,0-.753-2.25c-.285-.666-.523-1.107-.553-1.162l-.385-.3-.068-.053-.566.076a13.978,13.978,0,0,0-1.42,1.007c-.261.207-.537.449-.83.717-.144.133-.284.268-.432.414a11.319,11.319,0,0,0-3.069,5,9.61,9.61,0,0,0-.29,2.549,11.566,11.566,0,0,0,.054,1.171,13.129,13.129,0,0,0,.245,1.513,37.361,37.361,0,0,0-4.167-3.785,7.721,7.721,0,0,0,.858-4.128,8.456,8.456,0,0,0-.375-1.942,7.988,7.988,0,0,0-2.477-3.866,8.6,8.6,0,0,0-.689-.607l-.293-.213-1.47-1.064-3.825-2.771a.809.809,0,0,0-1.038.166l-.11.151-.076.32-.056.234.157.981.046.286a2.288,2.288,0,0,1-2.831,2.58,2.092,2.092,0,0,0-2.283,3.153,2.274,2.274,0,0,1,.2.411,2.217,2.217,0,0,1,.155.792,2.19,2.19,0,0,1-.537,1.506,2.227,2.227,0,0,1-.8.608,2.328,2.328,0,0,1-.581.175l-1.27.2-.484.3a.925.925,0,0,0,.057,1.188l5.924,4.292a8.044,8.044,0,0,0,.939.546c.069.037.134.083.2.118a7.963,7.963,0,0,0,5.068.73A8.1,8.1,0,0,0,139,46.222a7.966,7.966,0,0,0,2.448-2.059c.366.286.712.591,1.066.889.13.11.264.216.393.327q.962.833,1.858,1.728c.226.227.444.459.664.691.558.589,1.111,1.181,1.627,1.807.172.207.327.429.493.641.5.63,1.013,1.246,1.469,1.911.171.251.31.528.475.782.434.668.854,1.347,1.246,2.048m-9.094-15.6a6.305,6.305,0,0,1-.254,1.691,5.957,5.957,0,0,1-.467,1.151c-.079.149-.135.307-.228.451a6.66,6.66,0,0,1-.483.605,6.493,6.493,0,0,1-3.831,2.293c-.19.036-.378.029-.567.048a6.189,6.189,0,0,1-4.5-1.185l-1.8-1.3-.59-.427-2.244-1.627a3.778,3.778,0,0,0,2.349-5.72.532.532,0,0,1-.068-.479.821.821,0,0,1,.088-.2.591.591,0,0,1,.639-.231,3.931,3.931,0,0,0,3.4-.8c.027-.023.059-.037.085-.061a3.843,3.843,0,0,0,1.217-3.151l1.437,1.04,1.4,1.01.86.623.6.437a7.159,7.159,0,0,1,1.549,1.571,7.241,7.241,0,0,1,.667,1.093,6.987,6.987,0,0,1,.738,3.169m7.11,9.655A13.484,13.484,0,0,1,147.6,44.48v-.007a8.928,8.928,0,0,1,.026-1.452,6.506,6.506,0,0,1,.49-1.991c.1-.249.208-.488.327-.723a10.066,10.066,0,0,1,1.15-1.773c.116-.144.23-.289.348-.424a13.668,13.668,0,0,1,1.563-1.5c.268-.22.522-.419.729-.568a14.545,14.545,0,0,1,.775,2.185,11.944,11.944,0,0,1,.369,2.216,8.523,8.523,0,0,1-.229,2.812c-.035.127-.088.244-.129.369a8.005,8.005,0,0,1-.364.932,12.42,12.42,0,0,1-3.9,4.491m9.459,6.008a11.134,11.134,0,0,1-1.464,1.112,14.094,14.094,0,0,1-2.857,1.367,15.009,15.009,0,0,1-.119-1.768c0-.234,0-.473.012-.726a9.746,9.746,0,0,1,1.279-4.659.207.207,0,0,1,.012-.023c.016-.026.036-.047.052-.073a9.279,9.279,0,0,1,2.816-2.753,13.67,13.67,0,0,1,1.969-1.058c.387-.169.746-.311,1.028-.41a14.418,14.418,0,0,1,.08,2.939,10.914,10.914,0,0,1-.4,2.275,8.689,8.689,0,0,1-.466,1.2,5.968,5.968,0,0,1-.911,1.478,8.814,8.814,0,0,1-1.028,1.1" transform="translate(-27.83 -6.309)" fill="#fff"/>
      <path id="Path_1418" data-name="Path 1418" d="M93.393,122.781A24.657,24.657,0,0,1,86.3,74.511V61.381c-2.7-.757-4.129-1.9-4.129-3.308,0-2.008,3.512-4.168,11.223-4.168s11.223,2.161,11.223,4.168c0,1.413-1.423,2.551-4.128,3.308v13.13a24.657,24.657,0,0,1-7.095,48.27m0-67.125c-6.249,0-9.471,1.693-9.471,2.417,0,.31.844,1.153,3.457,1.779l.671.161v15.83l-.647.175a22.9,22.9,0,1,0,11.98,0l-.647-.175V60.012l.672-.161c2.611-.626,3.457-1.468,3.457-1.779,0-.723-3.222-2.417-9.471-2.417" transform="translate(-15.393 -12.071)" fill="#fff"/>
      <path id="Path_1419" data-name="Path 1419" d="M106.681,101.406a28.366,28.366,0,0,1,1.9-4.231c-4.76,5.73-6.836,10.928-10.277,17.451H96.4l-2.5-2.518V121.7a1.028,1.028,0,0,0,1.025,1.025h8.2a1.028,1.028,0,0,0,1.024-1.025V111.656H114.2a1.028,1.028,0,0,0,1.024-1.025v-8.2a1.028,1.028,0,0,0-1.024-1.025Z" transform="translate(-21.028 -21.761)" fill="#fff" fill-rule="evenodd"/>
      <path id="Path_1420" data-name="Path 1420" d="M91.734,88.362h8.2a1.027,1.027,0,0,1,1.024,1.025V99.43l-7.507,9.206-3.921-3.8L87.523,107.1l2.738,2.584h-9.6a1.028,1.028,0,0,1-1.024-1.025v-8.2a1.027,1.027,0,0,1,1.024-1.024H90.708V89.387a1.028,1.028,0,0,1,1.026-1.025" transform="translate(-17.834 -19.787)" fill="#fff" fill-rule="evenodd"/>
    </g>
  </g>
</svg>
