<svg id="Group_1974" data-name="Group 1974" xmlns="http://www.w3.org/2000/svg" xmlns:xlink="http://www.w3.org/1999/xlink" width="159.438" height="159.438" viewBox="0 0 159.438 159.438">
  <defs>
    <clipPath id="clip-path">
      <rect id="Rectangle_636" data-name="Rectangle 636" width="159.438" height="159.438" fill="none"/>
    </clipPath>
  </defs>
  <g id="Group_1290" data-name="Group 1290">
    <g id="Group_1289" data-name="Group 1289" clip-path="url(#clip-path)">
      <path id="Path_1478" data-name="Path 1478" d="M79.719,0A79.719,79.719,0,1,1,0,79.719,79.719,79.719,0,0,1,79.719,0" fill="#83d6ff" fill-rule="evenodd"/>
      <path id="Path_1479" data-name="Path 1479" d="M79.719,0A79.719,79.719,0,1,1,0,79.719,79.719,79.719,0,0,1,79.719,0m0,2.717A77,77,0,1,1,25.271,25.272,76.754,76.754,0,0,1,79.719,2.718M132.1,27.336a74.081,74.081,0,1,0,21.7,52.383,73.851,73.851,0,0,0-21.7-52.383M79.719,25.2A54.519,54.519,0,1,1,25.2,79.719,54.519,54.519,0,0,1,79.719,25.2" transform="translate(0 0)" fill="#009bdf" fill-rule="evenodd"/>
      <path id="Path_1480" data-name="Path 1480" d="M17.376,85.479a3.4,3.4,0,1,1-3.4,3.4,3.4,3.4,0,0,1,3.4-3.4m126.642,0a3.4,3.4,0,1,1-3.4,3.4,3.4,3.4,0,0,1,3.4-3.4" transform="translate(-0.979 -5.983)" fill="#fff" fill-rule="evenodd"/>
      <path id="Path_1481" data-name="Path 1481" d="M81.8,29.779A52.025,52.025,0,1,1,29.778,81.8,52.025,52.025,0,0,1,81.8,29.779m0,3.2A48.826,48.826,0,1,1,32.977,81.8,48.825,48.825,0,0,1,81.8,32.978" transform="translate(-2.084 -2.084)" fill="#009bdf" fill-rule="evenodd"/>
      <path id="Path_1482" data-name="Path 1482" d="M89.465,78.055A47.411,47.411,0,0,1,114,71.386v2.85a47.585,47.585,0,0,0-25.362,7.693,5.522,5.522,0,0,0,.54-2.443,4.889,4.889,0,0,0-.063-.684,2.939,2.939,0,0,0,.349-.748m-11.7,2.577a47.371,47.371,0,0,0-24.075-6.4V97.85c-.284.022-.567.047-.853.077V71.386a47.4,47.4,0,0,1,24.533,6.668,2.941,2.941,0,0,0,.35.751,4.861,4.861,0,0,0-.061.681,5.135,5.135,0,0,0,.106,1.146" transform="translate(-3.698 -4.997)" fill="#00adee" fill-rule="evenodd"/>
      <path id="Path_1483" data-name="Path 1483" d="M51.677,78.389q-1.077.186-2.166.41v26.541a41.112,41.112,0,0,1,30.326,2.317c-8.025-5.943-17.048-9.58-27.353-8.511l-.807.084Zm29.85,36.585q12.188-6.99,36.409-1.564-22.838-6.971-35.982-.853-11.626-8.1-34.418,1.422,23.677-7.451,33.991,1m35.679-30.2q1,.347,2.013.727v26.541c-11.963-5.521-22.752-6.2-32.774-3.719l.012-.006a40.385,40.385,0,0,1,29.807-2.279l.942.283Zm-68.428,0q-1,.347-2.013.727v26.541c11.964-5.521,22.753-6.2,32.775-3.719l-.012-.006a40.385,40.385,0,0,0-29.807-2.279l-.943.283Zm65.53-6.388q1.077.186,2.166.41v26.541a41.112,41.112,0,0,0-30.326,2.317c8.025-5.943,17.048-9.58,27.352-8.511l.808.084Z" transform="translate(-3.273 -5.487)" fill="#929497" fill-rule="evenodd"/>
      <path id="Path_1484" data-name="Path 1484" d="M84.586,60.313c4.984-6.823,9.759-4.463,17.029-5.3q7.936-.914,10.463-4.234-1.032,6.047-4.51,8.291-1.032,3.5-3.636,3.927-1.518,2.7-4.072,2.473c-1.491,2.009-4.588,2.566-7.695,2.23a4.227,4.227,0,0,1-2,3.819,18.615,18.615,0,0,1-4.756,2.226l-.031.011A6.663,6.663,0,0,1,87.745,76a4.034,4.034,0,0,1,.578,1.983,4.483,4.483,0,0,1-.484,2.073,9.392,9.392,0,0,1-2.966,3.268,8.48,8.48,0,0,1,1.652,1.721,4.114,4.114,0,0,1,.814,2.555,4.357,4.357,0,0,1-1.03,2.517,9.43,9.43,0,0,1-1.824,1.707c-.2,1.766-.65,3.78-.912,5.359-.262-1.579-.713-3.593-.912-5.359a9.431,9.431,0,0,1-1.824-1.707,4.357,4.357,0,0,1-1.03-2.517,4.114,4.114,0,0,1,.814-2.555,8.48,8.48,0,0,1,1.652-1.721,9.392,9.392,0,0,1-2.966-3.268,4.483,4.483,0,0,1-.484-2.073A4.034,4.034,0,0,1,79.4,76a6.663,6.663,0,0,1,2.364-2.241l-.031-.011a18.615,18.615,0,0,1-4.756-2.226,4.227,4.227,0,0,1-2-3.819c-3.107.336-6.2-.221-7.695-2.23Q64.734,65.7,63.216,63q-2.6-.428-3.636-3.927-3.478-2.245-4.51-8.291Q57.6,54.1,65.533,55.012c7.27.838,12.045-1.522,17.029,5.3V55.927a3.273,3.273,0,1,1,2.024,0ZM90.6,67.457a12.987,12.987,0,0,1-6.017-2.714V72.5l.338-.121A17.5,17.5,0,0,0,89.3,70.353a2.862,2.862,0,0,0,1.3-2.9m-6.017,7.515v6.739a7.2,7.2,0,0,0,1.947-2.294,3.061,3.061,0,0,0,.341-1.408,2.6,2.6,0,0,0-.379-1.279,5.278,5.278,0,0,0-1.909-1.758m0,10.026v4.857a6.21,6.21,0,0,0,.588-.64,2.962,2.962,0,0,0,.717-1.681,2.72,2.72,0,0,0-.557-1.668A5.988,5.988,0,0,0,84.586,85m-2.024,4.857V85a5.921,5.921,0,0,0-.747.868,2.715,2.715,0,0,0-.558,1.668,2.968,2.968,0,0,0,.717,1.681,6.21,6.21,0,0,0,.588.64m0-8.145V74.972a5.278,5.278,0,0,0-1.909,1.758,2.6,2.6,0,0,0-.379,1.279,3.061,3.061,0,0,0,.341,1.408,7.2,7.2,0,0,0,1.947,2.294m0-9.209V64.743a12.987,12.987,0,0,1-6.017,2.714,2.862,2.862,0,0,0,1.3,2.9,17.5,17.5,0,0,0,4.375,2.028Z" transform="translate(-3.855 -3.468)" fill="#009bdf" fill-rule="evenodd"/>
      <path id="Path_1485" data-name="Path 1485" d="M109.36,87.755c.007.119.012.238.012.359a5.817,5.817,0,0,1-3.153,5.109l.363.823v.9H99.806v-.9l.363-.823a5.815,5.815,0,0,1-3.153-5.109c0-.121,0-.24.011-.359Zm-8.982-.674a2.539,2.539,0,0,1-3.056-2.767,3.129,3.129,0,0,1,3.345,2.743,5.433,5.433,0,0,0-2.5-1.925,20.183,20.183,0,0,1,2.213,1.949m9.934-4.607a1.264,1.264,0,0,1-1.115,2.16l-2.138,2.724h-2.937l4.1-3.641a1.265,1.265,0,0,1,2.09-1.243m-9.077,4.378a2.538,2.538,0,0,0,2.014-3.6,3.131,3.131,0,0,0-2.3,3.666,5.425,5.425,0,0,1,1.759-2.622,20.162,20.162,0,0,0-1.477,2.553" transform="translate(-6.791 -5.749)" fill="#00a551" fill-rule="evenodd"/>
      <path id="Path_1486" data-name="Path 1486" d="M64.3,81.864h4.409a.363.363,0,0,1,.361.362v3.831H72.9a.362.362,0,0,1,.362.361v4.409a.363.363,0,0,1-.362.362H69.073v3.831a.362.362,0,0,1-.361.361H64.3a.363.363,0,0,1-.362-.361V91.188H60.111a.363.363,0,0,1-.361-.362V86.417a.362.362,0,0,1,.361-.361h3.831V82.226a.363.363,0,0,1,.362-.362" transform="translate(-4.182 -5.73)" fill="#009bdf" fill-rule="evenodd"/>
    </g>
  </g>
  <text id="D" transform="translate(22.088 62.468) rotate(-65.65)" fill="#fff" font-size="17" font-family="SegoeUI, Segoe UI"><tspan x="0" y="0">D</tspan></text>
  <text id="E" transform="translate(27.504 50.683) rotate(-54.432)" fill="#fff" font-size="17" font-family="SegoeUI, Segoe UI"><tspan x="0" y="0">E</tspan></text>
  <text id="R" transform="matrix(0.722, -0.692, 0.692, 0.722, 33.624, 41.963)" fill="#fff" font-size="17" font-family="SegoeUI, Segoe UI"><tspan x="0" y="0">R</tspan></text>
  <text id="M" transform="translate(42.048 33.587) rotate(-31.153)" fill="#fff" font-size="17" font-family="SegoeUI, Segoe UI"><tspan x="0" y="0">M</tspan></text>
  <text id="A" transform="translate(54.844 25.985) rotate(-18.408)" fill="#fff" font-size="17" font-family="SegoeUI, Segoe UI"><tspan x="0" y="0">A</tspan></text>
  <text id="T" transform="matrix(0.989, -0.149, 0.149, 0.989, 65.369, 22.446)" fill="#fff" font-size="17" font-family="SegoeUI, Segoe UI"><tspan x="0" y="0">T</tspan></text>
  <text id="O" transform="translate(74.972 20.753) rotate(2.11)" fill="#fff" font-size="17" font-family="SegoeUI, Segoe UI"><tspan x="0" y="0">O</tspan></text>
  <text id="L" transform="matrix(0.973, 0.232, -0.232, 0.973, 88.549, 21.374)" fill="#fff" font-size="17" font-family="SegoeUI, Segoe UI"><tspan x="0" y="0">L</tspan></text>
  <text id="O-2" data-name="O" transform="translate(98.242 23.443) rotate(24.46)" fill="#fff" font-size="17" font-family="SegoeUI, Segoe UI"><tspan x="0" y="0">O</tspan></text>
  <text id="G" transform="matrix(0.797, 0.604, -0.604, 0.797, 110.597, 29.035)" fill="#fff" font-size="17" font-family="SegoeUI, Segoe UI"><tspan x="0" y="0">G</tspan></text>
  <text id="I" transform="translate(120.901 37.035) rotate(47.241)" fill="#fff" font-size="17" font-family="SegoeUI, Segoe UI"><tspan x="0" y="0">I</tspan></text>
  <text id="S" transform="translate(126.81 43.256) rotate(56.366)" fill="#fff" font-size="17" font-family="SegoeUI, Segoe UI"><tspan x="0" y="0">S</tspan></text>
  <text id="T-2" data-name="T" transform="matrix(0.401, 0.916, -0.916, 0.401, 132.75, 52.155)" fill="#fff" font-size="17" font-family="SegoeUI, Segoe UI"><tspan x="0" y="0">T</tspan></text>
  <text id="R-2" data-name="R" transform="matrix(0.49, 0.872, -0.872, 0.49, 15.707, 108.332)" fill="#fff" font-size="17" font-family="SegoeUI, Segoe UI"><tspan x="0" y="0">R</tspan></text>
  <text id="E-2" data-name="E" transform="matrix(0.642, 0.767, -0.767, 0.642, 22.539, 120.118)" fill="#fff" font-size="17" font-family="SegoeUI, Segoe UI"><tspan x="0" y="0">E</tspan></text>
  <text id="C" transform="matrix(0.77, 0.638, -0.638, 0.77, 30.508, 129.528)" fill="#fff" font-size="17" font-family="SegoeUI, Segoe UI"><tspan x="0" y="0">C</tspan></text>
  <text id="O-3" data-name="O" transform="matrix(0.885, 0.466, -0.466, 0.885, 40.985, 138.135)" fill="#fff" font-size="17" font-family="SegoeUI, Segoe UI"><tspan x="0" y="0">O</tspan></text>
  <text id="M-2" data-name="M" transform="translate(54.936 145.348) rotate(14.316)" fill="#fff" font-size="17" font-family="SegoeUI, Segoe UI"><tspan x="0" y="0">M</tspan></text>
  <text id="M-3" data-name="M" transform="matrix(1, 0.016, -0.016, 1, 71.511, 149.288)" fill="#fff" font-size="17" font-family="SegoeUI, Segoe UI"><tspan x="0" y="0">M</tspan></text>
  <text id="E-3" data-name="E" transform="translate(88.346 149.107) rotate(-11.52)" fill="#fff" font-size="17" font-family="SegoeUI, Segoe UI"><tspan x="0" y="0">E</tspan></text>
  <text id="N" transform="translate(100.203 145.698) rotate(-23.058)" fill="#fff" font-size="16" font-family="SegoeUI, Segoe UI"><tspan x="0" y="0">N</tspan></text>
  <text id="D-2" data-name="D" transform="matrix(0.813, -0.582, 0.582, 0.813, 114.904, 140.298)" fill="#fff" font-size="17" font-family="SegoeUI, Segoe UI"><tspan x="0" y="0">D</tspan></text>
  <text id="E-4" data-name="E" transform="matrix(0.687, -0.727, 0.727, 0.687, 126.736, 131.538)" fill="#fff" font-size="17" font-family="SegoeUI, Segoe UI"><tspan x="0" y="0">E</tspan></text>
  <text id="D-3" data-name="D" transform="translate(135.259 122.497) rotate(-57.659)" fill="#fff" font-size="17" font-family="SegoeUI, Segoe UI"><tspan x="0" y="0">D</tspan></text>
</svg>
