<svg xmlns="http://www.w3.org/2000/svg" xmlns:xlink="http://www.w3.org/1999/xlink" width="156" height="155" viewBox="0 0 156 155">
  <defs>
    <clipPath id="clip-path">
      <rect id="Rectangle_525" data-name="Rectangle 525" width="149.123" height="149.123" fill="none"/>
    </clipPath>
  </defs>
  <g id="Group_1972" data-name="Group 1972" transform="translate(-1514 -15099)">
    <ellipse id="Ellipse_91" data-name="Ellipse 91" cx="78" cy="77.5" rx="78" ry="77.5" transform="translate(1514 15099)" fill="#77de7a"/>
    <g id="Group_999" data-name="Group 999" transform="translate(1517.438 15101.938)">
      <path id="Path_1233" data-name="Path 1233" d="M34.422,101.969l-1.446.872-.9-1.493-8.08,4.871.9,1.494-1.446.872-2.882-4.779,1.446-.872.91,1.509L31,99.572l-.911-1.51,1.447-.872Z"/>
      <path id="Path_1234" data-name="Path 1234" d="M17.907,89l.028.087,2.286.315,5.741,1.077-3.994,4.261L20.31,96.342l.029.087,9.316-3.048.617,1.884L18.094,99.249l-.765-2.337,5.126-5.289-.034-.1L15.16,90.282l-.731-2.233,12.178-3.985.616,1.885Z"/>
      <g id="Group_998" data-name="Group 998">
        <g id="Group_997" data-name="Group 997" clip-path="url(#clip-path)">
          <path id="Path_1235" data-name="Path 1235" d="M26.333,81.345l-12.8.679-.291-5.5a3.572,3.572,0,0,1,.9-2.805A3.96,3.96,0,0,1,16.9,72.6a3.959,3.959,0,0,1,2.856.823,3.575,3.575,0,0,1,1.191,2.694l.182,3.428,5.1-.271Zm-7.039-1.7-.175-3.3a1.735,1.735,0,0,0-.474-1.207,1.518,1.518,0,0,0-1.195-.377l-.872.046a1.522,1.522,0,0,0-1.148.5,1.743,1.743,0,0,0-.344,1.25l.175,3.3Z"/>
          <path id="Path_1236" data-name="Path 1236" d="M27.134,65.381a5.761,5.761,0,0,1-.852,2.144A4.7,4.7,0,0,1,24.708,69a5.79,5.79,0,0,1-2.248.708,9.435,9.435,0,0,1-2.878-.151,9.417,9.417,0,0,1-2.728-.928,5.8,5.8,0,0,1-1.825-1.491,4.691,4.691,0,0,1-.914-1.952,6.167,6.167,0,0,1,.856-4.452,4.718,4.718,0,0,1,1.573-1.473,5.817,5.817,0,0,1,2.249-.708,9.43,9.43,0,0,1,2.877.152,9.443,9.443,0,0,1,2.729.927,5.836,5.836,0,0,1,1.825,1.491,4.709,4.709,0,0,1,.914,1.952,5.765,5.765,0,0,1,0,2.308m-1.8-.347a3.472,3.472,0,0,0,0-1.374,2.855,2.855,0,0,0-.535-1.168,3.475,3.475,0,0,0-1.041-.883,4.894,4.894,0,0,0-1.511-.533l-1.991-.383a4.879,4.879,0,0,0-1.6-.065,3.449,3.449,0,0,0-1.293.433,2.846,2.846,0,0,0-.931.887,3.683,3.683,0,0,0-.512,2.658,2.854,2.854,0,0,0,.538,1.159,3.419,3.419,0,0,0,1.04.883,4.921,4.921,0,0,0,1.511.534L21,67.565a4.908,4.908,0,0,0,1.6.065,3.472,3.472,0,0,0,1.294-.433,2.862,2.862,0,0,0,.928-.878,3.438,3.438,0,0,0,.51-1.285"/>
          <path id="Path_1237" data-name="Path 1237" d="M29.66,55.991l-.886,1.875L17.19,52.393l2.36-5a3.582,3.582,0,0,1,2.1-2.013,3.909,3.909,0,0,1,2.971.307,3.91,3.91,0,0,1,1.8,1.549,3.354,3.354,0,0,1,.358,2.23l6.063-.2-.988,2.091-5.778.112-1.09,2.307Zm-4.845-5.944a1.735,1.735,0,0,0,.154-1.288,1.534,1.534,0,0,0-.878-.9l-.793-.375a1.53,1.53,0,0,0-1.254-.105,1.735,1.735,0,0,0-.9.936L19.735,51.3,23.4,53.034Z"/>
          <path id="Path_1238" data-name="Path 1238" d="M28.12,37.355,36.8,44.073l-1.269,1.64L26.85,38.995l-2.336,3.02-1.452-1.123,5.943-7.68,1.451,1.123Z"/>
          <path id="Path_1239" data-name="Path 1239" d="M40.405,39.888l-8.244-9.809L38.443,24.8l1.181,1.4L34.93,30.15l2.291,2.726L41.479,29.3l1.181,1.4L38.4,34.282l2.409,2.866L45.505,33.2l1.181,1.406Z"/>
          <path id="Path_1240" data-name="Path 1240" d="M42.875,21.83,46.928,19.8a5.9,5.9,0,0,1,2.174-.64,4.506,4.506,0,0,1,2.065.308,5.543,5.543,0,0,1,1.874,1.3,9.179,9.179,0,0,1,1.6,2.328,9.212,9.212,0,0,1,.912,2.675,5.517,5.517,0,0,1-.078,2.278,4.512,4.512,0,0,1-.986,1.84,5.928,5.928,0,0,1-1.812,1.362L48.625,33.28ZM51.854,29.6a3.086,3.086,0,0,0,1.662-1.842,3.632,3.632,0,0,0-.4-2.758l-.923-1.837A3.626,3.626,0,0,0,50.222,21.2a3.091,3.091,0,0,0-2.472.234l-2.2,1.1,4.1,8.169Z"/>
          <path id="Path_1241" data-name="Path 1241" d="M63.522,27.221l-.287-1.665,1.719-.295-1.6-9.3-1.718.3-.287-1.665,5.5-.947.286,1.665-1.736.3,1.6,9.3,1.737-.3.286,1.664Z"/>
          <path id="Path_1242" data-name="Path 1242" d="M75.028,18.938l-1.317-2.765-.055,0-.345,9.8L71.33,25.9l.451-12.8,2.311.081L78.026,20.4l1.316,2.764.056,0,.345-9.795,1.981.069-.451,12.8-2.312-.081Z"/>
          <path id="Path_1243" data-name="Path 1243" d="M92.435,27.252l-.07-.021a2.48,2.48,0,0,1-1.492,1.155,4.1,4.1,0,0,1-2.435-.1,5.148,5.148,0,0,1-1.894-1.026,4.613,4.613,0,0,1-1.24-1.7,5.984,5.984,0,0,1-.452-2.305,9.4,9.4,0,0,1,.452-2.846,9.13,9.13,0,0,1,1.209-2.6,5.911,5.911,0,0,1,1.694-1.664,4.718,4.718,0,0,1,2.057-.709,5.883,5.883,0,0,1,2.321.253,5.326,5.326,0,0,1,2.572,1.575,5.071,5.071,0,0,1,1.159,2.562l-1.9.456a3.32,3.32,0,0,0-.663-1.733,3.6,3.6,0,0,0-4.327-.88,3.855,3.855,0,0,0-1.689,2.376l-.61,2.01a3.859,3.859,0,0,0,.084,2.914,3.226,3.226,0,0,0,2.062,1.646,4.23,4.23,0,0,0,1.152.186,3,3,0,0,0,1.056-.162,2.317,2.317,0,0,0,.853-.532,2.184,2.184,0,0,0,.544-.943l.29-.955-2.53-.767.517-1.7L95.6,23.09l-1.983,6.535L91.875,29.1Z"/>
          <path id="Path_1244" data-name="Path 1244" d="M97.608,31.789l-1.775-1.073,6.629-10.965,4.728,2.859a3.58,3.58,0,0,1,1.788,2.293,3.909,3.909,0,0,1-.609,2.924,3.91,3.91,0,0,1-1.724,1.628,3.343,3.343,0,0,1-2.254.128l-.42,6.052-1.98-1.2.479-5.759-2.183-1.32Zm6.408-4.213a1.732,1.732,0,0,0,1.265.285,1.536,1.536,0,0,0,.987-.781l.454-.751a1.529,1.529,0,0,0,.232-1.236,1.728,1.728,0,0,0-.839-.988l-2.828-1.71-2.1,3.472Z"/>
          <path id="Path_1245" data-name="Path 1245" d="M105.636,37.1l8.938-9.18,5.878,5.723-1.28,1.315-4.393-4.276-2.484,2.551,3.985,3.88L115,38.427l-3.986-3.88L108.4,37.23l4.392,4.277-1.28,1.315Z"/>
          <path id="Path_1246" data-name="Path 1246" d="M123.832,37.733l2.432,3.826a5.906,5.906,0,0,1,.856,2.1,4.5,4.5,0,0,1-.1,2.086,5.525,5.525,0,0,1-1.1,1.995,10.37,10.37,0,0,1-4.725,3,5.514,5.514,0,0,1-2.274.152,4.489,4.489,0,0,1-1.931-.8,5.9,5.9,0,0,1-1.537-1.665l-2.432-3.826ZM117,47.448a3.091,3.091,0,0,0,2,1.469,3.623,3.623,0,0,0,2.7-.675l1.735-1.1a3.628,3.628,0,0,0,1.758-2.161,3.091,3.091,0,0,0-.482-2.434L123.4,40.468l-7.715,4.9Z"/>
          <path id="Path_1247" data-name="Path 1247" d="M118.931,54.7l1.578-.6.621,1.63,8.818-3.357-.621-1.63,1.579-.6,1.984,5.215-1.578.6-.627-1.647-8.817,3.356.626,1.647-1.578.6Z"/>
          <path id="Path_1248" data-name="Path 1248" d="M121.649,62.188l12.614-2.248,1.44,8.078-1.807.322L132.82,62.3l-3.506.625.976,5.475-1.808.323-.975-5.476-3.687.657,1.076,6.036-1.807.322Z"/>
          <path id="Path_1249" data-name="Path 1249" d="M130.155,76.472l2.8-1.246,0-.054-9.784-.6.121-1.979,12.789.78-.141,2.309-7.328,3.745-2.8,1.246,0,.055,9.783.6-.12,1.978-12.789-.779.141-2.309Z"/>
          <path id="Path_1250" data-name="Path 1250" d="M131.145,93.022,120.65,89.8l.608-1.983,10.494,3.22,1.12-3.65,1.755.538-2.848,9.283-1.755-.538Z"/>
          <path id="Path_1251" data-name="Path 1251" d="M116.768,98.063a5.88,5.88,0,0,1,1.853-2.107,6.108,6.108,0,0,1,2.324-.919l.469,1.9a4.809,4.809,0,0,0-1.82.7,3.989,3.989,0,0,0-1.279,1.419,2.729,2.729,0,0,0-.425,1.886,1.879,1.879,0,0,0,.993,1.271,1.607,1.607,0,0,0,1.256.2,3.05,3.05,0,0,0,1.338-1.038l.733-.894a5.487,5.487,0,0,1,2.445-1.85,3.17,3.17,0,0,1,2.572.367,3.583,3.583,0,0,1,1.18,1.029,3.213,3.213,0,0,1,.569,1.35,4.19,4.19,0,0,1-.053,1.58,6.206,6.206,0,0,1-.681,1.743,5.825,5.825,0,0,1-1.67,1.947,5.042,5.042,0,0,1-2.161.873L124,105.625a3.761,3.761,0,0,0,1.489-.554,3.722,3.722,0,0,0,1.207-1.365,2.853,2.853,0,0,0,.449-1.705,1.487,1.487,0,0,0-.825-1.156,1.446,1.446,0,0,0-1.291-.156,3.606,3.606,0,0,0-1.274,1.054l-.764.877a5.377,5.377,0,0,1-2.466,1.848,3.256,3.256,0,0,1-2.549-.407,4.142,4.142,0,0,1-1.273-1.07,3.451,3.451,0,0,1-.653-1.407,4.149,4.149,0,0,1,.009-1.668,6.238,6.238,0,0,1,.711-1.853"/>
          <path id="Path_1252" data-name="Path 1252" d="M64.914,87.624c2.125,1.011,3.923,1.868,5.548,1.868a3.968,3.968,0,0,0,1.565-.328,31.63,31.63,0,0,1,2.344,11.723l.054,2.033,4.066-.109-.055-2.034a35.5,35.5,0,0,0-1.714-10.554,13,13,0,0,0,2.618.272A19.523,19.523,0,0,0,90.9,86.243c6.508-4.962,12.278-19.552,12.521-20.17l1.064-2.715L101.57,63.3A83.046,83.046,0,0,0,84.9,64.69a16.556,16.556,0,0,1,1.323-1.415c5.97-5.574,8.05-10.63,8.136-10.842l1.116-2.771-2.987-.023c-.533-.015-12.764-.033-19,5.786a16.089,16.089,0,0,0-4.062,5.941c-6.474-3.454-15.733-3.407-16.2-3.4L50.151,58l1.232,2.817a48.925,48.925,0,0,0,6.173,9.72c-6.7.464-11.418,5.9-11.649,6.177l-1.268,1.5,1.45,1.321c.159.147,4,3.584,12.023,5.467a33.853,33.853,0,0,1,6.8,2.626M68.5,65.563a8.645,8.645,0,0,1,1.761,1.471c.116.134.195.258.306.391a20.2,20.2,0,0,1,2.569,3.738c-.323.378-.633.76-.922,1.153a18.791,18.791,0,0,0-1.126,1.726l-.049.086c-.229.4-.443.8-.635,1.208-.312-.275-.632-.544-.971-.8a20.581,20.581,0,0,0-5.556-2.97c-.576-.584-1.162-1.206-1.762-1.9a51.52,51.52,0,0,1-5.4-7.474c3.655.329,8.6,1.257,11.78,3.371M88.89,53.922A35.707,35.707,0,0,1,83.445,60.3a31.055,31.055,0,0,0-5,6.51,12.748,12.748,0,0,0-2.007,1.2c-.1.075-.184.158-.28.234a26.549,26.549,0,0,0-2.833-3.879c-.14-.162-.308-.3-.458-.456a11.726,11.726,0,0,1,3.4-5.513c3.229-3.015,8.92-4.093,12.624-4.477M75.384,85.39,88.5,76.645,86.244,73.26,74.326,81.205l-.438.292-.719.48a6.393,6.393,0,0,1-.069-1.16c.007-.245.015-.491.041-.706a8.994,8.994,0,0,1,.227-1.174c.038-.145.1-.291.142-.437.007-.022.015-.044.022-.065a11.679,11.679,0,0,1,.874-2.05A14.823,14.823,0,0,1,76,74.042a17.379,17.379,0,0,1,1.808-1.885c.351-.312.715-.617,1.1-.907A10.549,10.549,0,0,1,81.259,70c4.6-1.885,12.245-2.507,17.2-2.627-2.191,4.91-6.223,12.732-10.025,15.629-4.477,3.414-9.982,4.306-13.047,2.383m-14.859-10.6c.4.094.786.209,1.171.325a14.889,14.889,0,0,1,7.4,4.7c-.016.148-.006.288-.016.434A9.7,9.7,0,0,0,70,85.337a22.207,22.207,0,0,1-3.342-1.386,37.608,37.608,0,0,0-7.622-2.913,29.675,29.675,0,0,1-8.383-3.254c2.027-1.672,5.706-3.965,9.867-2.989"/>
          <circle id="Ellipse_134" data-name="Ellipse 134" cx="44.698" cy="44.698" r="44.698" transform="translate(29.864 29.863)" fill="none" stroke="#000" stroke-miterlimit="10" stroke-width="2"/>
          <circle id="Ellipse_135" data-name="Ellipse 135" cx="66.391" cy="66.391" r="66.391" transform="translate(8.171 8.17)" fill="none" stroke="#000" stroke-miterlimit="10" stroke-width="2"/>
          <circle id="Ellipse_136" data-name="Ellipse 136" cx="72.562" cy="72.562" r="72.562" transform="translate(1.906 147.03) rotate(-89.926)" fill="none" stroke="#000" stroke-miterlimit="10" stroke-width="4"/>
          <path id="Path_1253" data-name="Path 1253" d="M41.1,115.411H38.44l1.884-1.884-.907-.907L37.533,114.5V111.84H36.25V114.5l-1.884-1.884-.907.907,1.883,1.884H32.678v1.283h2.664l-1.883,1.884.907.907L36.25,117.6v2.664h1.283V117.6l1.884,1.883.907-.907-1.884-1.884H41.1Z"/>
          <path id="Path_1254" data-name="Path 1254" d="M51.83,122.83H49.166l1.884-1.884-.907-.907-1.884,1.884v-2.664H46.976v2.664l-1.884-1.884-.907.907,1.883,1.884H43.4v1.283h2.664L44.185,126l.907.907,1.884-1.883v2.664h1.283v-2.664l1.884,1.883L51.05,126l-1.884-1.884H51.83Z"/>
          <path id="Path_1255" data-name="Path 1255" d="M65.14,128.05H62.476l1.884-1.884-.907-.907-1.884,1.884v-2.664H60.286v2.664L58.4,125.259l-.907.907,1.883,1.884H56.714v1.283h2.664L57.5,131.217l.907.907,1.884-1.883V132.9h1.283v-2.664l1.884,1.883.907-.907-1.884-1.884H65.14Z"/>
          <path id="Path_1256" data-name="Path 1256" d="M78.774,129.842H76.11l1.884-1.884-.908-.907L75.2,128.935v-2.664H73.921v2.664l-1.884-1.884-.907.907,1.883,1.884H70.348v1.283h2.664l-1.883,1.884.907.907,1.884-1.883V134.7H75.2v-2.664l1.883,1.883.908-.907-1.884-1.884h2.664Z"/>
          <path id="Path_1257" data-name="Path 1257" d="M93.1,128.05H90.438l1.884-1.884-.908-.907-1.883,1.884v-2.664H88.249v2.664l-1.884-1.884-.907.907,1.883,1.884H84.676v1.283H87.34l-1.883,1.884.907.907,1.884-1.883V132.9h1.283v-2.664l1.883,1.883.908-.907-1.884-1.884H93.1Z"/>
          <path id="Path_1258" data-name="Path 1258" d="M105.661,122.83H103l1.884-1.884-.907-.907-1.884,1.884v-2.664h-1.283v2.664l-1.884-1.884-.907.907L99.9,122.83H97.235v1.283H99.9L98.016,126l.907.907,1.884-1.883v2.664h1.283v-2.664l1.884,1.883.907-.907L103,124.113h2.664Z"/>
          <path id="Path_1259" data-name="Path 1259" d="M117.03,114.4h-2.664l1.884-1.884-.907-.907-1.884,1.884v-2.664h-1.283V113.5l-1.884-1.884-.907.907,1.883,1.884H108.6v1.283h2.664l-1.883,1.884.907.907,1.884-1.883v2.664h1.283V116.6l1.884,1.883.907-.907-1.884-1.884h2.664Z"/>
        </g>
      </g>
    </g>
  </g>
</svg>
