<svg xmlns="http://www.w3.org/2000/svg" xmlns:xlink="http://www.w3.org/1999/xlink" width="156" height="156" viewBox="0 0 156 156">
  <defs>
    <clipPath id="clip-path">
      <rect id="Rectangle_21" data-name="Rectangle 21" width="117.935" height="119.886" fill="none" stroke="rgba(0,0,0,0)" stroke-width="1"/>
    </clipPath>
  </defs>
  <g id="Group_1971" data-name="Group 1971" transform="translate(-138.737 -448.736)">
    <g id="Ellipse_4" data-name="Ellipse 4" transform="translate(138.737 448.736)" fill="#e12058" stroke="#f7c6cb" stroke-width="4">
      <circle cx="78" cy="78" r="78" stroke="none"/>
      <circle cx="78" cy="78" r="76" fill="none"/>
    </g>
    <g id="Group_14" data-name="Group 14" transform="translate(157.373 466.794)">
      <g id="Group_13" data-name="Group 13" clip-path="url(#clip-path)">
        <path id="Path_29" data-name="Path 29" d="M81.972,97.417a9.926,9.926,0,0,1-2.3-6.006A7.8,7.8,0,0,1,82.059,85.9l-.7-.675.681.693c.31-.3.631-.6.96-.88h0a28.079,28.079,0,0,1,2.687-1.978h0c1.7-1.131,3.565-2.2,5.321-3.411h0a19.64,19.64,0,0,0,4.47-3.973A10.846,10.846,0,0,0,97.8,69.913V69.9c.035-.448.061-.9.061-1.354a7.661,7.661,0,0,0-.941-3.9.972.972,0,0,0-1.693.954,5.717,5.717,0,0,1,.69,2.944c0,.384-.021.783-.055,1.2l.969.076-.968-.093a8.874,8.874,0,0,1-1.921,4.751,17.776,17.776,0,0,1-4.036,3.567l0,0c-1.666,1.149-3.521,2.216-5.293,3.392h0a29.972,29.972,0,0,0-2.873,2.117h0c-.37.315-.722.642-1.06.973l-.018.018a9.757,9.757,0,0,0-2.938,6.865,11.856,11.856,0,0,0,2.714,7.2.972.972,0,1,0,1.536-1.192" transform="translate(-24.726 -20.408)" fill="#fff" stroke="rgba(0,0,0,0)" stroke-width="1"/>
        <path id="Path_30" data-name="Path 30" d="M83.346,105.265a14.594,14.594,0,0,1,1.754-6.2A8.925,8.925,0,0,1,89.065,95.2h0A5.665,5.665,0,0,1,90.8,94.76c.93-.113,1.966-.087,3.08-.3a6.056,6.056,0,0,0,1.7-.594,5.813,5.813,0,0,0,1.613-1.3l-.729-.644.7.671a6.1,6.1,0,0,0,1.116-1.6,4.566,4.566,0,0,0,.451-1.952,4.377,4.377,0,0,0-.342-1.686.972.972,0,1,0-1.8.746,2.415,2.415,0,0,1,.193.94,2.61,2.61,0,0,1-.266,1.124,4.141,4.141,0,0,1-.763,1.084l-.025.027a3.72,3.72,0,0,1-1.444,1.043,8.559,8.559,0,0,1-2.648.419,9.305,9.305,0,0,0-3.384.7h0a10.861,10.861,0,0,0-4.853,4.677,16.537,16.537,0,0,0-2,7.033.972.972,0,1,0,1.94.12" transform="translate(-25.898 -27.6)" fill="#fff" stroke="rgba(0,0,0,0)" stroke-width="1"/>
        <path id="Path_31" data-name="Path 31" d="M103.918,80.544a3.641,3.641,0,0,0,2.311.864,3.809,3.809,0,0,0,1.855-.506,5.937,5.937,0,0,0,2.057-2.013,7.16,7.16,0,0,0,1.047-2.777v0a5.962,5.962,0,0,0,.065-.875,4.926,4.926,0,0,0-.277-1.664,4.183,4.183,0,0,0-.924-1.5l-.7.674.455.859a6.049,6.049,0,0,0,2.372-2.126,5.01,5.01,0,0,0,.751-2.661v-.07a6.6,6.6,0,0,0-1.879-4.367,6.742,6.742,0,0,0-1.951-1.436,5.525,5.525,0,0,0-2.393-.563,5.281,5.281,0,0,0-3.1,1.034A.972.972,0,1,0,104.733,65a3.329,3.329,0,0,1,1.972-.669,3.579,3.579,0,0,1,1.551.371,5,5,0,0,1,1.939,1.714,4.42,4.42,0,0,1,.79,2.362v.044a3.048,3.048,0,0,1-.459,1.636,4.113,4.113,0,0,1-1.63,1.433.971.971,0,0,0-.245,1.533,2.243,2.243,0,0,1,.5.805,3.016,3.016,0,0,1,.163,1.01,3.987,3.987,0,0,1-.045.589v0a5.25,5.25,0,0,1-1.18,2.575,3.558,3.558,0,0,1-.944.8,1.875,1.875,0,0,1-.911.261,1.7,1.7,0,0,1-1.087-.43.972.972,0,1,0-1.224,1.51" transform="translate(-32.83 -19.848)" fill="#fff" stroke="rgba(0,0,0,0)" stroke-width="1"/>
        <path id="Path_32" data-name="Path 32" d="M81.477,57.37a16.512,16.512,0,0,0-2.659-.232,9.567,9.567,0,0,0-3.782.693,6.23,6.23,0,0,0-2.474,1.857h0A6.521,6.521,0,0,0,71.2,63.764a7.07,7.07,0,0,0,.535,2.725v0a11.52,11.52,0,0,0,1.195,2.132,26.793,26.793,0,0,0,3.75,4.1h0a38.465,38.465,0,0,1,3.344,3.311,9.948,9.948,0,0,1,1.24,1.819,5.344,5.344,0,0,1,.586,1.874.972.972,0,1,0,1.933-.2,7.263,7.263,0,0,0-.789-2.558,13.739,13.739,0,0,0-2.353-3.151C79.747,72.877,78.8,72.042,78,71.3h0a24.934,24.934,0,0,1-3.482-3.792,9.578,9.578,0,0,1-1-1.77v0a5.155,5.155,0,0,1-.382-1.969,4.581,4.581,0,0,1,.94-2.867v0A4.292,4.292,0,0,1,75.8,59.619a7.653,7.653,0,0,1,3.018-.537,14.518,14.518,0,0,1,2.344.207.972.972,0,0,0,.314-1.919" transform="translate(-22.651 -18.178)" fill="#fff" stroke="rgba(0,0,0,0)" stroke-width="1"/>
        <path id="Path_33" data-name="Path 33" d="M71.234,60.33l-.045-.052h0a3.338,3.338,0,0,0-1.246-.9A3.71,3.71,0,0,0,68.5,59.1a5.563,5.563,0,0,0-2.391.595,7.71,7.71,0,0,0-2.08,1.486l0,0a6.871,6.871,0,0,0-1.312,1.784,4.817,4.817,0,0,0-.537,2.147,4.08,4.08,0,0,0,1.073,2.744h0a6.276,6.276,0,0,0,1.69,1.308l.47-.85-.554-.8a5.385,5.385,0,0,0-1.655,1.749,4.117,4.117,0,0,0-.543,2.043,4.608,4.608,0,0,0,.526,2.1,6.165,6.165,0,0,0,2.237,2.381,6.252,6.252,0,0,0,3.283.962,5.643,5.643,0,0,0,1.96-.35l-.335-.912-.972-.036c0,.1-.005.192-.005.286a5.669,5.669,0,0,0,.265,1.789,4.368,4.368,0,0,0,1.549,2.136,13.788,13.788,0,0,0,3.066,1.518,8.543,8.543,0,0,1,1.289.65,3.252,3.252,0,0,1,.9.823.972.972,0,0,0,1.578-1.137,5.869,5.869,0,0,0-2.256-1.785c-.608-.3-1.214-.527-1.767-.758a5.788,5.788,0,0,1-1.96-1.144,2.3,2.3,0,0,1-.513-.8,3.571,3.571,0,0,1-.207-1.29c0-.07,0-.14,0-.214A.972.972,0,0,0,70,74.572a3.7,3.7,0,0,1-1.287.229,4.435,4.435,0,0,1-2.886-1.137,4.012,4.012,0,0,1-.9-1.147,2.676,2.676,0,0,1-.313-1.214,2.16,2.16,0,0,1,.292-1.085,3.432,3.432,0,0,1,1.07-1.109.971.971,0,0,0-.084-1.649,4.384,4.384,0,0,1-1.174-.9h0a2.127,2.127,0,0,1-.585-1.454,2.888,2.888,0,0,1,.333-1.278,4.926,4.926,0,0,1,.942-1.272l0,0a5.8,5.8,0,0,1,1.552-1.111,3.639,3.639,0,0,1,1.544-.4,1.783,1.783,0,0,1,.691.126,1.392,1.392,0,0,1,.526.383h0l.044.052a.972.972,0,0,0,1.465-1.278" transform="translate(-19.784 -18.802)" fill="#fff" stroke="rgba(0,0,0,0)" stroke-width="1"/>
        <path id="Path_34" data-name="Path 34" d="M88.033,65.6a3.34,3.34,0,0,1-.683.076,2.055,2.055,0,0,1-1.528-.6,1.736,1.736,0,0,1-.506-1.172,1.093,1.093,0,0,1,.037-.291v0a.74.74,0,0,1,.288-.426,1.4,1.4,0,0,1,.826-.209,3.437,3.437,0,0,1,.647.068h-.008a4.651,4.651,0,0,1,2.629,1.4,3.1,3.1,0,0,1,.815,2.044,2.52,2.52,0,0,1-.741,1.8,3.786,3.786,0,0,1-2.475.991l-.023,0a3.039,3.039,0,0,1-.318.021h-.029l-.155,0a6.588,6.588,0,0,1-2.709-.636,7.615,7.615,0,0,1-2.38-1.712,4.926,4.926,0,0,1-1.435-3.315,4.149,4.149,0,0,1,.17-1.169l0-.014c.03-.106.056-.194.085-.274a4.637,4.637,0,0,1,1.289-1.9,6.878,6.878,0,0,1,2.114-1.279l0,0a8.952,8.952,0,0,1,3.25-.625,7.231,7.231,0,0,1,1.169.091h0c.443.073.869.164,1.279.269l-.006,0A9.652,9.652,0,0,1,92.9,60.24a11.31,11.31,0,0,1,2.569,2.65.972.972,0,0,0,1.577-1.136,13.24,13.24,0,0,0-3.014-3.094,11.587,11.587,0,0,0-3.9-1.788l-.007,0c-.458-.116-.939-.22-1.442-.3h0a9.2,9.2,0,0,0-1.486-.117,10.86,10.86,0,0,0-3.97.763h0a8.8,8.8,0,0,0-2.711,1.649,6.583,6.583,0,0,0-1.816,2.7c-.049.139-.088.271-.123.4l.938.259-.933-.273a6.083,6.083,0,0,0-.248,1.715A6.864,6.864,0,0,0,80.293,68.3a9.548,9.548,0,0,0,2.995,2.157,8.5,8.5,0,0,0,3.522.815c.072,0,.143,0,.214,0l-.03-.971v.972a4.975,4.975,0,0,0,.512-.031l-.1-.967.073.969a5.712,5.712,0,0,0,3.705-1.558A4.469,4.469,0,0,0,92.5,66.5a5.035,5.035,0,0,0-1.305-3.333,6.591,6.591,0,0,0-3.7-2.02h-.007a5.343,5.343,0,0,0-1.016-.1,3.311,3.311,0,0,0-1.957.571,2.7,2.7,0,0,0-1.032,1.492v0a3.059,3.059,0,0,0-.1.8,3.667,3.667,0,0,0,1.058,2.528,4.005,4.005,0,0,0,2.92,1.184,5.291,5.291,0,0,0,1.079-.117.972.972,0,0,0-.4-1.9" transform="translate(-24.923 -17.959)" fill="#fff" stroke="rgba(0,0,0,0)" stroke-width="1"/>
        <path id="Path_35" data-name="Path 35" d="M95.7,70.264q.019.194.04.389l.967-.1-.968.085q.069.8.068,1.615a29.064,29.064,0,0,1-1.146,7.586.972.972,0,1,0,1.874.517,31,31,0,0,0,1.215-8.1c0-.6-.024-1.191-.076-1.784v-.013c-.014-.129-.026-.258-.04-.388a.972.972,0,1,0-1.934.194Z" transform="translate(-30.102 -22.013)" fill="#fff" stroke="rgba(0,0,0,0)" stroke-width="1"/>
        <path id="Path_36" data-name="Path 36" d="M77.08,63.133A11.781,11.781,0,0,0,75.1,66.361a28.854,28.854,0,0,1-1.411,2.974.972.972,0,1,0,1.665,1,29.73,29.73,0,0,0,1.518-3.179,9.959,9.959,0,0,1,1.645-2.712.972.972,0,0,0-1.432-1.315" transform="translate(-23.397 -19.985)" fill="#fff" stroke="rgba(0,0,0,0)" stroke-width="1"/>
        <path id="Path_37" data-name="Path 37" d="M91.214,70.859a7.051,7.051,0,0,1-.937,2.66.972.972,0,1,0,1.722.9,8.943,8.943,0,0,0,1.15-3.367.972.972,0,1,0-1.934-.2" transform="translate(-28.685 -22.264)" fill="#fff" stroke="rgba(0,0,0,0)" stroke-width="1"/>
        <path id="Path_38" data-name="Path 38" d="M84.3,65.429c-.455.653-1.015,1.287-1.57,1.978a10.268,10.268,0,0,0-1.495,2.35.972.972,0,1,0,1.786.766,8.406,8.406,0,0,1,1.225-1.9c.513-.642,1.1-1.306,1.645-2.079A.972.972,0,0,0,84.3,65.429Z" transform="translate(-25.819 -20.683)" fill="#fff" stroke="rgba(0,0,0,0)" stroke-width="1"/>
        <path id="Path_39" data-name="Path 39" d="M61.495,69.892a20.148,20.148,0,0,0-3.773,5.87A15.172,15.172,0,0,0,56.629,81.5c0,.6.031,1.191.089,1.786a26.028,26.028,0,0,0,.578,3.407v0a15.659,15.659,0,0,0,3.3,6.384,23.561,23.561,0,0,0,5.379,4.7h0a21.651,21.651,0,0,0,8.339,3.116l.149-.961-.16.959q.861.143,1.724.2l.069-.969-.08.969c.63.052,1.262.077,1.892.077a21.569,21.569,0,0,0,10.771-2.8,17.6,17.6,0,0,0,7.477-8.37l0-.008a16.352,16.352,0,0,0,1.452-6.341c0-.3-.01-.6-.033-.906v0a14.313,14.313,0,0,0-1.281-4.9l-.887.4.9-.363-.013-.032a.972.972,0,1,0-1.8.725l.013.033.014.033a12.378,12.378,0,0,1,1.117,4.238v0q.028.387.027.765a14.448,14.448,0,0,1-1.3,5.6l0-.008A15.64,15.64,0,0,1,87.7,96.7a19.617,19.617,0,0,1-9.8,2.538c-.577,0-1.156-.023-1.733-.071h-.012q-.769-.054-1.542-.183l-.011,0a19.711,19.711,0,0,1-7.589-2.832h0a21.641,21.641,0,0,1-4.933-4.309,13.724,13.724,0,0,1-2.9-5.584v0a24.122,24.122,0,0,1-.536-3.15c-.052-.539-.08-1.072-.08-1.6a13.238,13.238,0,0,1,.953-5.015,18.241,18.241,0,0,1,3.421-5.3.972.972,0,0,0-1.452-1.292" transform="translate(-18.016 -22.131)" fill="#fff" stroke="rgba(0,0,0,0)" stroke-width="1"/>
        <path id="Path_40" data-name="Path 40" d="M83.734,105.813c0,.1-.02.244-.021.438h.972l-.971-.049q-.021.425-.022.844a9.706,9.706,0,0,0,1.543,5.685,6.541,6.541,0,0,0,2.2,1.955,8.474,8.474,0,0,0,3.195.948h0a9.78,9.78,0,0,0,1.1.062,10.718,10.718,0,0,0,3.737-.706,37.51,37.51,0,0,0,4.728-2.363,14.111,14.111,0,0,1,4.55-1.722h-.01a10,10,0,0,1,1.4-.1,9.481,9.481,0,0,1,4.181.939.972.972,0,0,0,1.4-.8,13.986,13.986,0,0,1,1.714-5.054,15,15,0,0,0,1.851-5.732v0c.014-.224.022-.451.022-.683a16.038,16.038,0,0,0-1.609-6.726h0a9.6,9.6,0,0,0-3.652-4.249l-.053-.028a9.759,9.759,0,0,0-4.26-.927c-.12,0-.241,0-.361.005a.972.972,0,0,0,.065,1.943c.1,0,.2,0,.3,0a7.827,7.827,0,0,1,3.4.729l.427-.873-.48.845a7.722,7.722,0,0,1,2.865,3.41h0a14.151,14.151,0,0,1,1.411,5.873c0,.193-.007.38-.018.559v0a13.232,13.232,0,0,1-1.66,5,15.754,15.754,0,0,0-1.9,5.755l.969.074.433-.87a11.409,11.409,0,0,0-5.047-1.143,11.968,11.968,0,0,0-1.673.117h-.009a20.359,20.359,0,0,0-6.7,2.768,22.081,22.081,0,0,1-2.956,1.415,8.766,8.766,0,0,1-3.066.586,7.859,7.859,0,0,1-.883-.05h0a6.545,6.545,0,0,1-2.468-.721,4.705,4.705,0,0,1-2.076-2.3,8.989,8.989,0,0,1-.661-3.636c0-.245.007-.493.019-.746v-.049c0-.065.009-.178.018-.339a.972.972,0,1,0-1.941-.1" transform="translate(-26.625 -27.855)" fill="#fff" stroke="rgba(0,0,0,0)" stroke-width="1"/>
        <path id="Path_41" data-name="Path 41" d="M53.494,88.089a5.251,5.251,0,0,0-1.469-.2,6.9,6.9,0,0,0-2.054.331,7.646,7.646,0,0,0-1.5.65,11.529,11.529,0,0,0-3.806,3.672l0-.007a12.2,12.2,0,0,0-1.752,3.947l.947.222-.941-.248a8.669,8.669,0,0,0-.282,2.224,17.175,17.175,0,0,0,.786,4.509,15.424,15.424,0,0,1,.72,3.964,6.338,6.338,0,0,1-.631,2.792.972.972,0,0,0,.974,1.385c.263-.026.519-.038.768-.038a8.5,8.5,0,0,1,3.289.7,36.836,36.836,0,0,1,4.789,2.706,16.354,16.354,0,0,0,5.6,2.357,13.161,13.161,0,0,0,2.29.207A10.191,10.191,0,0,0,67.1,115.5a11.416,11.416,0,0,0,3.908-4.9v0c.575-1.3,1.016-2.7,1.427-3.945a.972.972,0,1,0-1.845-.612c-.417,1.259-.845,2.613-1.358,3.767v0A9.48,9.48,0,0,1,66,113.9a8.248,8.248,0,0,1-4.769,1.419,11.258,11.258,0,0,1-1.951-.177,11.619,11.619,0,0,1-3.326-1.2c-1.613-.832-3.178-1.948-4.887-2.89a11.878,11.878,0,0,0-5.8-1.707c-.315,0-.635.015-.962.048l.1.968.878.417a8.275,8.275,0,0,0,.818-3.628,17.029,17.029,0,0,0-.786-4.471,15.446,15.446,0,0,1-.719-4,6.74,6.74,0,0,1,.218-1.729l.007-.026a10.3,10.3,0,0,1,1.475-3.31l0-.007a9.617,9.617,0,0,1,3.153-3.054,5.683,5.683,0,0,1,1.108-.479,5.02,5.02,0,0,1,1.472-.242,3.316,3.316,0,0,1,.927.125.972.972,0,1,0,.541-1.867" transform="translate(-13.567 -27.96)" fill="#fff" stroke="rgba(0,0,0,0)" stroke-width="1"/>
        <path id="Path_42" data-name="Path 42" d="M43.6,82.952A5.179,5.179,0,0,1,41.348,80.3a9.985,9.985,0,0,1-.492-3.517c0-1.086.071-2.233.072-3.392a11.165,11.165,0,0,0-.678-4.294A6.545,6.545,0,0,0,39,67.134,7.7,7.7,0,0,0,36.9,65.551l-.453.861.2.951a12.661,12.661,0,0,0,3.792-1.523c1.694-.991,3.156-2.187,4.668-3.139a10.691,10.691,0,0,1,4.949-1.826h-.007c.227-.016.477-.023.747-.03.121,0,.242,0,.363,0a8.313,8.313,0,0,1,2.5.323,3.407,3.407,0,0,1,1.78,1.216l.009.011.02.026a.972.972,0,1,0,1.55-1.172L57,61.219l-.775.586.783-.575a5.356,5.356,0,0,0-2.753-1.916,10.191,10.191,0,0,0-3.095-.417c-.138,0-.274,0-.408,0-.273.007-.554.013-.847.035H49.9a11.426,11.426,0,0,0-4.1,1.152,37.587,37.587,0,0,0-4.829,3.106,13.088,13.088,0,0,1-4.72,2.266.972.972,0,0,0-.252,1.812,5.731,5.731,0,0,1,1.581,1.18,4.867,4.867,0,0,1,1.138,2.174,11.368,11.368,0,0,1,.271,2.762c0,1.077-.071,2.226-.072,3.392a11.843,11.843,0,0,0,.618,4.2A7.146,7.146,0,0,0,42.576,84.6.972.972,0,1,0,43.6,82.952" transform="translate(-11.286 -18.737)" fill="#fff" stroke="rgba(0,0,0,0)" stroke-width="1"/>
        <path id="Path_43" data-name="Path 43" d="M58.1,52.524a1.805,1.805,0,0,1-.266-.951,3.233,3.233,0,0,1,.468-1.531,9.591,9.591,0,0,1,2.1-2.438,12.288,12.288,0,0,1,2.333-1.609l.021-.011c1.484-.792,3.347-1.388,5.119-2.294a11.384,11.384,0,0,0,2.522-1.7,7.833,7.833,0,0,0,1.912-2.667l-.891-.389-.846.478a4.3,4.3,0,0,0,1.074,1.254A6.525,6.525,0,0,0,74.1,41.794c1.3.336,2.666.467,3.877.723A9.134,9.134,0,0,1,79.633,43a3.957,3.957,0,0,1,1.236.781l.674-.7-.687.687a5.128,5.128,0,0,1,1.2,1.991,7.944,7.944,0,0,1,.4,2.532,8.4,8.4,0,0,1-.5,2.9.972.972,0,1,0,1.819.685,10.3,10.3,0,0,0,.627-3.589,9.87,9.87,0,0,0-.5-3.158,7.073,7.073,0,0,0-1.664-2.74l-.014-.014a6.687,6.687,0,0,0-2.875-1.534c-1.535-.432-3.134-.556-4.432-.858a6.236,6.236,0,0,1-1.651-.584,2.489,2.489,0,0,1-.991-.955.972.972,0,0,0-1.737.089,5.875,5.875,0,0,1-1.445,2.013,11.83,11.83,0,0,1-3.324,1.984c-1.268.555-2.634,1.052-3.913,1.729l.455.859-.434-.869a14.771,14.771,0,0,0-3.675,2.762,10.08,10.08,0,0,0-1.589,2.08,5.138,5.138,0,0,0-.713,2.476,3.76,3.76,0,0,0,.543,1.95.972.972,0,1,0,1.667-1Z" transform="translate(-17.782 -12.076)" fill="#fff" stroke="rgba(0,0,0,0)" stroke-width="1"/>
        <path id="Path_44" data-name="Path 44" d="M95.929,48.631a7.213,7.213,0,0,1,3.4-1.122,4.73,4.73,0,0,1,2.166.593,33.9,33.9,0,0,1,2.917,1.771l.526-.818-.539.808a10.659,10.659,0,0,0,5.9,1.816,9.81,9.81,0,0,0,4.2-.936l-.416-.878-.946-.227a6.587,6.587,0,0,0-.18,1.537,11.516,11.516,0,0,0,.441,2.817,9.734,9.734,0,0,1,.384,2.313,4.276,4.276,0,0,1-.056.7l.959.158-.953-.189a6.425,6.425,0,0,1-.576,1.624h0a9.317,9.317,0,0,1-1.709,2.327,8.026,8.026,0,0,1-2.209,1.6.972.972,0,1,0,.822,1.761,9.939,9.939,0,0,0,2.762-1.986,11.272,11.272,0,0,0,2.068-2.823h0a8.353,8.353,0,0,0,.747-2.122l.005-.031a6.22,6.22,0,0,0,.082-1.013,11.437,11.437,0,0,0-.441-2.779,9.807,9.807,0,0,1-.384-2.352,4.592,4.592,0,0,1,.127-1.083.972.972,0,0,0-1.361-1.105,7.856,7.856,0,0,1-3.37.749,8.725,8.725,0,0,1-4.824-1.489l-.013-.009a35.125,35.125,0,0,0-3.1-1.876,6.675,6.675,0,0,0-3.033-.8,9.067,9.067,0,0,0-4.339,1.362.972.972,0,1,0,.936,1.7" transform="translate(-30.06 -14.496)" fill="#fff" stroke="rgba(0,0,0,0)" stroke-width="1"/>
        <path id="Path_45" data-name="Path 45" d="M125.669,86.458a7.269,7.269,0,0,0,2.968-3.659c.8-2.078.864-4.294,1.248-6.2a8.923,8.923,0,0,1,.846-2.562,5,5,0,0,1,1.787-1.9.972.972,0,0,0-.413-1.789,12.546,12.546,0,0,1-3.086-.618,5.5,5.5,0,0,1-2.352-1.7l-.745.625.753-.614a18.514,18.514,0,0,1-1.242-1.858,9.736,9.736,0,0,0-1.552-2.005.972.972,0,1,0-1.322,1.425,7.98,7.98,0,0,1,1.227,1.614,19.918,19.918,0,0,0,1.383,2.053l.008.01a7.466,7.466,0,0,0,3.152,2.267,14.348,14.348,0,0,0,3.565.732l.1-.966-.518-.823a7.139,7.139,0,0,0-2.926,3.634c-.78,2.067-.844,4.277-1.236,6.185a8.918,8.918,0,0,1-.862,2.573,5.152,5.152,0,0,1-1.826,1.929.972.972,0,1,0,1.035,1.645Z" transform="translate(-38.892 -20.335)" fill="#fff" stroke="rgba(0,0,0,0)" stroke-width="1"/>
        <path id="Path_46" data-name="Path 46" d="M12.294,63.1l-.723,1.928L1.017,61.066l1.729-4.6a3.509,3.509,0,0,1,.7-1.171A2.729,2.729,0,0,1,4.456,54.6a3.247,3.247,0,0,1,1.259-.209,4.32,4.32,0,0,1,1.426.294,3.811,3.811,0,0,1,1.7,1.179,2.792,2.792,0,0,1,.584,1.844l5.079-.475-.806,2.147-4.782.371-.685,1.824ZM7.482,58.463a1.294,1.294,0,0,0,.02-.993,1.254,1.254,0,0,0-.764-.653l-.7-.263a1.225,1.225,0,0,0-1-.007,1.309,1.309,0,0,0-.632.763l-.931,2.482,3.068,1.151Z" transform="translate(-0.324 -17.304)" fill="#fff" stroke="rgba(0,0,0,0)" stroke-width="1"/>
        <path id="Path_47" data-name="Path 47" d="M21.4,45.855a4.954,4.954,0,0,1-1.38,1.429,3.863,3.863,0,0,1-1.747.635,5.318,5.318,0,0,1-2.052-.2,8.362,8.362,0,0,1-2.3-1.092,8.378,8.378,0,0,1-1.913-1.662A5.353,5.353,0,0,1,11,43.161a3.87,3.87,0,0,1-.117-1.855,5.3,5.3,0,0,1,2.136-3.263,3.96,3.96,0,0,1,1.752-.643,5.174,5.174,0,0,1,2.059.2,8.55,8.55,0,0,1,2.285,1.1,8.535,8.535,0,0,1,1.924,1.66,5.166,5.166,0,0,1,1,1.8,3.982,3.982,0,0,1,.113,1.863,4.948,4.948,0,0,1-.757,1.834m-1.581-1.033a2.339,2.339,0,0,0,.345-2A3.358,3.358,0,0,0,18.654,41L17.2,40.045a3.373,3.373,0,0,0-2.273-.657,2.553,2.553,0,0,0-2.041,3.117,3.358,3.358,0,0,0,1.512,1.819l1.459.957a3.364,3.364,0,0,0,2.271.657,2.329,2.329,0,0,0,1.7-1.116" transform="translate(-3.444 -11.888)" fill="#fff" stroke="rgba(0,0,0,0)" stroke-width="1"/>
        <path id="Path_48" data-name="Path 48" d="M32.136,32.73a5.007,5.007,0,0,1-2.062,1.293,5.592,5.592,0,0,1-2.149.2l.02-1.966a3.99,3.99,0,0,0,1.615-.144,3.341,3.341,0,0,0,1.345-.822,2.122,2.122,0,0,0,.73-1.307,1.455,1.455,0,0,0-.455-1.157,1.337,1.337,0,0,0-.864-.436,2.076,2.076,0,0,0-1.195.451l-.848.605q-2.7,1.9-4.625-.065a3.348,3.348,0,0,1-.767-1.175,2.922,2.922,0,0,1-.171-1.3,3.589,3.589,0,0,1,.418-1.347,5.283,5.283,0,0,1,1.011-1.319,5.147,5.147,0,0,1,1.834-1.2,4.233,4.233,0,0,1,2-.211l-.042,1.965a3.26,3.26,0,0,0-1.285.091,2.979,2.979,0,0,0-1.26.787,2.155,2.155,0,0,0-.713,1.179,1.154,1.154,0,0,0,.361,1,1.173,1.173,0,0,0,.916.423,2.463,2.463,0,0,0,1.137-.487l.862-.569a4.575,4.575,0,0,1,2.508-.929,2.96,2.96,0,0,1,2.1,1.015,3.807,3.807,0,0,1,.828,1.236,3.2,3.2,0,0,1,.222,1.366,3.581,3.581,0,0,1-.4,1.42,5.323,5.323,0,0,1-1.062,1.4" transform="translate(-7.22 -7.251)" fill="#fff" stroke="rgba(0,0,0,0)" stroke-width="1"/>
        <path id="Path_49" data-name="Path 49" d="M41.328,24.038l-6.062-9.5,6.049-3.859,1.015,1.594L38.018,15.02l1.467,2.3L43.3,14.888l1.017,1.593L40.5,18.913l1.545,2.425,4.312-2.753,1.017,1.594Z" transform="translate(-11.219 -3.396)" fill="#fff" stroke="rgba(0,0,0,0)" stroke-width="1"/>
        <path id="Path_50" data-name="Path 50" d="M62.43,14.243l-2.8-10.92,4.744-1.216a3.5,3.5,0,0,1,1.368-.091,2.86,2.86,0,0,1,1.167.434,3.12,3.12,0,0,1,.893.913,4.425,4.425,0,0,1,.564,1.323,4.387,4.387,0,0,1,.144,1.439,3.1,3.1,0,0,1-.347,1.222,2.828,2.828,0,0,1-.814.942,3.477,3.477,0,0,1-1.244.578l-2.75.7,1.066,4.161ZM62.9,7.786l2.567-.657a1.292,1.292,0,0,0,.824-.554,1.243,1.243,0,0,0,.1-1l-.183-.72a1.225,1.225,0,0,0-.566-.822,1.306,1.306,0,0,0-.986-.081l-2.569.657Z" transform="translate(-18.972 -0.631)" fill="#fff" stroke="rgba(0,0,0,0)" stroke-width="1"/>
        <path id="Path_51" data-name="Path 51" d="M79.138,11.352,78.638.091,80.695,0l.416,9.374L85.4,9.184l.085,1.888Z" transform="translate(-25.018 0)" fill="#fff" stroke="rgba(0,0,0,0)" stroke-width="1"/>
        <path id="Path_52" data-name="Path 52" d="M99.244,12.631,98.873,9.65l-3.811-.66-1.336,2.685-2.058-.357L97.188.833l2.519.438L101.348,13ZM98.1,2.958l-.077-.014L95.865,7.276l2.827.489Z" transform="translate(-29.163 -0.265)" fill="#fff" stroke="rgba(0,0,0,0)" stroke-width="1"/>
        <path id="Path_53" data-name="Path 53" d="M113.086,17.157a4.992,4.992,0,0,1-1.654-1.082,3.882,3.882,0,0,1-.95-1.576,5,5,0,0,1-.18-2.024,8.534,8.534,0,0,1,.657-2.429,8.868,8.868,0,0,1,1.272-2.208,5.209,5.209,0,0,1,1.585-1.353,3.99,3.99,0,0,1,1.8-.483,4.715,4.715,0,0,1,1.942.386,4.291,4.291,0,0,1,2,1.532,4.411,4.411,0,0,1,.676,2.4l-2,.217A2.584,2.584,0,0,0,118,9.115a2.143,2.143,0,0,0-1.163-.982,2.267,2.267,0,0,0-2,.044A3.411,3.411,0,0,0,113.34,10l-.682,1.641a3.337,3.337,0,0,0-.239,2.34,2.3,2.3,0,0,0,1.392,1.427,2.2,2.2,0,0,0,1.587.1,3.016,3.016,0,0,0,1.275-.852l1.15,1.579a4.895,4.895,0,0,1-2.208,1.206,4.1,4.1,0,0,1-2.53-.29" transform="translate(-35.081 -1.909)" fill="#fff" stroke="rgba(0,0,0,0)" stroke-width="1"/>
        <path id="Path_54" data-name="Path 54" d="M123.293,22.093l6.449-9.246,5.885,4.1-1.082,1.55-4.2-2.926-1.561,2.24L132.5,20.4l-1.081,1.55-3.71-2.587-1.645,2.359,4.2,2.925-1.08,1.55Z" transform="translate(-39.224 -4.087)" fill="#fff" stroke="rgba(0,0,0,0)" stroke-width="1"/>
        <path id="Path_55" data-name="Path 55" d="M141.751,30.189l.968-2.411-.032-.033L136.7,33.229l-1.317-1.437,8.316-7.612,1.526,1.668-2.052,6.321-.97,2.409.032.033,5.993-5.484,1.315,1.439-8.316,7.61L139.7,36.508Z" transform="translate(-43.069 -7.693)" fill="#fff" stroke="rgba(0,0,0,0)" stroke-width="1"/>
        <path id="Path_56" data-name="Path 56" d="M157.609,44.879,149.5,49.6l-1.037-1.778,8.107-4.726-1.553-2.667,1.632-.952,4.146,7.115-1.632.953Z" transform="translate(-47.232 -12.56)" fill="#fff" stroke="rgba(0,0,0,0)" stroke-width="1"/>
        <path id="Path_57" data-name="Path 57" d="M155.377,66.239l2.417-1.786L156.5,60.808l-2.995.153-.7-1.967,11.843-.338.857,2.411-9.412,7.185Zm7.868-5.743-.027-.073-4.832.245.962,2.7Z" transform="translate(-48.612 -18.661)" fill="#fff" stroke="rgba(0,0,0,0)" stroke-width="1"/>
        <path id="Path_58" data-name="Path 58" d="M.329,98.05,0,95.941,11.137,94.2l.788,5.035a3.784,3.784,0,0,1-.025,1.413,2.838,2.838,0,0,1-.533,1.14,3.22,3.22,0,0,1-.991.826,4.151,4.151,0,0,1-1.384.453,3.7,3.7,0,0,1-2.06-.211,2.87,2.87,0,0,1-1.424-1.375l-4.174,2.995-.369-2.35,3.969-2.749-.314-2Zm6.488,1.77a1.377,1.377,0,0,0,.477.909,1.234,1.234,0,0,0,.989.205l.734-.115a1.2,1.2,0,0,0,.869-.5,1.383,1.383,0,0,0,.169-1.009L9.633,96.6l-3.24.507Z" transform="translate(0 -29.968)" fill="#fff" stroke="rgba(0,0,0,0)" stroke-width="1"/>
        <path id="Path_59" data-name="Path 59" d="M5.785,118.426a5.305,5.305,0,0,1-.421-2.013,4.03,4.03,0,0,1,.447-1.851,5.311,5.311,0,0,1,1.313-1.613,8.112,8.112,0,0,1,2.2-1.282,8.094,8.094,0,0,1,2.461-.621,5.284,5.284,0,0,1,2.072.229,4.03,4.03,0,0,1,1.617,1.009A5.7,5.7,0,0,1,17,116.028a4.1,4.1,0,0,1-.445,1.859,5.1,5.1,0,0,1-1.319,1.615,8.181,8.181,0,0,1-2.194,1.272,8.191,8.191,0,0,1-2.464.631,5.1,5.1,0,0,1-2.066-.23,4.078,4.078,0,0,1-1.619-1.017,5.311,5.311,0,0,1-1.108-1.731m1.749-.714A2.466,2.466,0,0,0,9.013,119.2a3.283,3.283,0,0,0,2.365-.189l1.615-.661a3.283,3.283,0,0,0,1.822-1.52,2.72,2.72,0,0,0-1.463-3.58,3.289,3.289,0,0,0-2.365.187l-1.615.66a3.286,3.286,0,0,0-1.822,1.522,2.471,2.471,0,0,0-.016,2.1" transform="translate(-1.706 -35.322)" fill="#fff" stroke="rgba(0,0,0,0)" stroke-width="1"/>
        <path id="Path_60" data-name="Path 60" d="M14.719,134.8a5.393,5.393,0,0,1-1-2.316,5.753,5.753,0,0,1,.11-2.2l1.967.376a4.144,4.144,0,0,0-.091,1.656,3.589,3.589,0,0,0,.629,1.506,2.254,2.254,0,0,0,1.2.972,1.417,1.417,0,0,0,1.227-.249,1.3,1.3,0,0,0,.56-.79,2.18,2.18,0,0,0-.278-1.287l-.483-.966q-1.512-3.072.737-4.653a3.254,3.254,0,0,1,1.287-.56,2.935,2.935,0,0,1,1.331.063,3.792,3.792,0,0,1,1.289.666,5.728,5.728,0,0,1,1.173,1.262,5.455,5.455,0,0,1,.94,2.068,4.387,4.387,0,0,1-.078,2.052l-1.962-.4a3.38,3.38,0,0,0,.093-1.313,3.153,3.153,0,0,0-.6-1.416,2.289,2.289,0,0,0-1.077-.933,1.14,1.14,0,0,0-1.058.179,1.154,1.154,0,0,0-.558.848,2.653,2.653,0,0,0,.322,1.238l.447.972a4.835,4.835,0,0,1,.564,2.7A2.9,2.9,0,0,1,20.1,136.2a3.67,3.67,0,0,1-1.36.609,3.161,3.161,0,0,1-1.4-.024,3.763,3.763,0,0,1-1.366-.66,5.805,5.805,0,0,1-1.25-1.327" transform="translate(-4.348 -40.16)" fill="#fff" stroke="rgba(0,0,0,0)" stroke-width="1"/>
        <path id="Path_61" data-name="Path 61" d="M28.4,150.577l1.268-2.734-2.963-2.7-2.594,1.524L22.5,145.2l10.4-5.774,1.96,1.788-4.826,10.859Zm4.166-8.838-.061-.053-4.187,2.453,2.2,2.007Z" transform="translate(-7.159 -44.356)" fill="#fff" stroke="rgba(0,0,0,0)" stroke-width="1"/>
        <path id="Path_62" data-name="Path 62" d="M50.138,150.484l3.758,1.668a5.381,5.381,0,0,1,1.681,1.135,4.067,4.067,0,0,1,.976,1.591,4.816,4.816,0,0,1,.187,2.009,8.909,8.909,0,0,1-2,4.5,4.793,4.793,0,0,1-1.616,1.207,4.069,4.069,0,0,1-1.834.345,5.44,5.44,0,0,1-1.972-.487l-3.756-1.668Zm-.051,10.244a2.581,2.581,0,0,0,2.023.13,2.938,2.938,0,0,0,1.518-1.686l.721-1.625a2.925,2.925,0,0,0,.23-2.255,2.561,2.561,0,0,0-1.451-1.414l-1.8-.8-3.042,6.849Z" transform="translate(-14.496 -47.874)" fill="#fff" stroke="rgba(0,0,0,0)" stroke-width="1"/>
        <path id="Path_63" data-name="Path 63" d="M69.963,169.166l-.331-2.995-3.935-.779-1.432,2.648-2.127-.422,5.9-10.323,2.6.514L72.138,169.6ZM68.95,159.45l-.079-.016L66.558,163.7l2.92.578Z" transform="translate(-19.768 -50.041)" fill="#fff" stroke="rgba(0,0,0,0)" stroke-width="1"/>
        <path id="Path_64" data-name="Path 64" d="M91.117,161.777l-.065,0-.777,1.836L88.189,168l-2.535-4.134-.968-1.745-.065,0,.428,8.079-2.018.106-.6-11.258,2.409-.126,3.182,5.347.065,0,2.569-5.653,2.311-.122.6,11.258-2.021.108Z" transform="translate(-26.225 -50.422)" fill="#fff" stroke="rgba(0,0,0,0)" stroke-width="1"/>
        <path id="Path_65" data-name="Path 65" d="M112.831,165.5l-1.724-2.472-3.829,1.2.012,3.008-2.07.648L105.456,156l2.533-.794,6.958,9.631Zm-5.544-8.044-.077.024.014,4.854,2.841-.891Z" transform="translate(-33.474 -49.377)" fill="#fff" stroke="rgba(0,0,0,0)" stroke-width="1"/>
        <path id="Path_66" data-name="Path 66" d="M125.893,159.193a5.374,5.374,0,0,1-2.4.785,5.751,5.751,0,0,1-2.184-.308l.552-1.926a4.121,4.121,0,0,0,1.641.239,3.59,3.59,0,0,0,1.557-.491,2.258,2.258,0,0,0,1.077-1.112,1.427,1.427,0,0,0-.138-1.244,1.307,1.307,0,0,0-.737-.629,2.18,2.18,0,0,0-1.307.162l-1.006.4q-3.2,1.226-4.57-1.154a3.271,3.271,0,0,1-.442-1.332,2.919,2.919,0,0,1,.183-1.319,3.762,3.762,0,0,1,.779-1.224,5.794,5.794,0,0,1,1.36-1.057,5.5,5.5,0,0,1,2.145-.751,4.413,4.413,0,0,1,2.039.262l-.574,1.92a3.371,3.371,0,0,0-1.3-.213,3.17,3.17,0,0,0-1.463.475,2.3,2.3,0,0,0-1.028.989,1.309,1.309,0,0,0,.88,1.7,2.622,2.622,0,0,0,1.261-.209l1.008-.359a4.831,4.831,0,0,1,2.738-.32,2.892,2.892,0,0,1,1.8,1.489,3.653,3.653,0,0,1,.487,1.409,3.182,3.182,0,0,1-.15,1.392,3.743,3.743,0,0,1-.781,1.3,5.818,5.818,0,0,1-1.433,1.126" transform="translate(-37.516 -47.148)" fill="#fff" stroke="rgba(0,0,0,0)" stroke-width="1"/>
        <path id="Path_67" data-name="Path 67" d="M140.879,148.184a5.319,5.319,0,0,1-1.737,1.084,4.056,4.056,0,0,1-1.871.227,4.946,4.946,0,0,1-1.934-.676,8.3,8.3,0,0,1-1.928-1.621,8.6,8.6,0,0,1-1.448-2.1,5.158,5.158,0,0,1-.522-2.035,4.134,4.134,0,0,1,.373-1.874,5,5,0,0,1,1.232-1.641,4.564,4.564,0,0,1,2.3-1.218,4.443,4.443,0,0,1,2.5.371l-.7,1.945a2.586,2.586,0,0,0-1.408-.368,2.271,2.271,0,0,0-1.423.668,2.4,2.4,0,0,0-.865,1.877,3.326,3.326,0,0,0,1,2.147l1.193,1.315a3.252,3.252,0,0,0,2.037,1.2,2.425,2.425,0,0,0,1.934-.7,2.306,2.306,0,0,0,.808-1.431,2.984,2.984,0,0,0-.2-1.538l1.965-.408a4.956,4.956,0,0,1,.108,2.552,4.371,4.371,0,0,1-1.409,2.226" transform="translate(-41.815 -43.992)" fill="#fff" stroke="rgba(0,0,0,0)" stroke-width="1"/>
        <path id="Path_68" data-name="Path 68" d="M149.434,137.754l-9.157-6.575,4.343-6.046,1.534,1.1-3.1,4.309,2.216,1.593,2.738-3.812,1.534,1.1-2.736,3.811,2.334,1.675,3.095-4.309,1.536,1.1Z" transform="translate(-44.627 -39.809)" fill="#fff" stroke="rgba(0,0,0,0)" stroke-width="1"/>
        <path id="Path_69" data-name="Path 69" d="M154.7,117.508l-2.61.168-.02.045,7.49,3.147-.783,1.865-10.394-4.367.909-2.163,6.646-.893,2.61-.168.02-.045-7.49-3.147.782-1.865,10.394,4.367-.909,2.163Z" transform="translate(-47.205 -35.022)" fill="#fff" stroke="rgba(0,0,0,0)" stroke-width="1"/>
        <path id="Path_70" data-name="Path 70" d="M166.94,97.823l-2.981.438-.639,3.96,2.7,1.337-.345,2.141-10.526-5.532.422-2.62,11.726-1.913Zm-9.674,1.358-.012.081,4.347,2.159.473-2.94Z" transform="translate(-49.357 -30.425)" fill="#fff" stroke="rgba(0,0,0,0)" stroke-width="1"/>
        <path id="Path_71" data-name="Path 71" d="M9.289,80.841a3.374,3.374,0,1,1-3.373-3.373,3.373,3.373,0,0,1,3.373,3.373" transform="translate(-0.809 -24.645)" fill="#fff" stroke="rgba(0,0,0,0)" stroke-width="1"/>
        <path id="Path_72" data-name="Path 72" d="M169.214,80.841a3.374,3.374,0,1,1-3.373-3.373,3.373,3.373,0,0,1,3.373,3.373" transform="translate(-51.686 -24.645)" fill="#fff" stroke="rgba(0,0,0,0)" stroke-width="1"/>
      </g>
    </g>
  </g>
</svg>
