<svg xmlns="http://www.w3.org/2000/svg" xmlns:xlink="http://www.w3.org/1999/xlink" width="77.41" height="106.835" viewBox="0 0 77.41 106.835">
  <defs>
    <clipPath id="clip-path">
      <rect id="Rectangle_593" data-name="Rectangle 593" width="77.41" height="106.835" fill="none" stroke="#fff" stroke-width="2"/>
    </clipPath>
  </defs>
  <g id="Group_1171" data-name="Group 1171" clip-path="url(#clip-path)">
    <path id="Path_1421" data-name="Path 1421" d="M11.686,16.761a14.331,14.331,0,0,1-2.2-6.3,9.107,9.107,0,0,1,1.237-5.267c.853-1.483,1.284-2.591,3.29-2.659,1.127-.035,2.252.234,3.374.136A10.383,10.383,0,0,0,20.1,1.913,20.584,20.584,0,0,1,23.762.526,4.711,4.711,0,0,1,26.4,1.2a6.95,6.95,0,0,1,3.215,4.234,16.115,16.115,0,0,1,.438,5.417,48.737,48.737,0,0,1-1.493,9.708c-1.017,3.927-3.8,7.634-7.817,4.766C17.208,22.8,13.989,20.576,11.686,16.761Z" transform="translate(12.709 0.672)" fill="none" stroke="#fff" stroke-linecap="round" stroke-linejoin="round" stroke-width="2"/>
    <path id="Path_1422" data-name="Path 1422" d="M27.2,21.578a37.082,37.082,0,0,1-15.144-4.649c-2.111-1.19-4.227-2.744-5.012-5.035A5.784,5.784,0,0,1,12.4,4.232" transform="translate(9.051 5.685)" fill="none" stroke="#fff" stroke-linecap="round" stroke-linejoin="round" stroke-width="2"/>
    <path id="Path_1423" data-name="Path 1423" d="M16.651,23.925A21.42,21.42,0,0,0,27.383,9.245a7.691,7.691,0,0,0-.34-4.864,4.659,4.659,0,0,0-6.816-1.739" transform="translate(22.364 2.441)" fill="none" stroke="#fff" stroke-linecap="round" stroke-linejoin="round" stroke-width="2"/>
    <path id="Path_1424" data-name="Path 1424" d="M27.994,11.42A100.918,100.918,0,0,1,6.9,90.322" transform="translate(9.269 15.339)" fill="none" stroke="#fff" stroke-linecap="round" stroke-linejoin="round" stroke-width="2"/>
    <path id="Path_1425" data-name="Path 1425" d="M15.861,43.977A87.1,87.1,0,0,1,26.354,24.911,47.98,47.98,0,0,1,42.7,10.749c-.567,7.751-2.524,15.844-7.1,22.126S23.624,43.637,15.861,43.977Z" transform="translate(21.303 14.438)" fill="none" stroke="#fff" stroke-linecap="round" stroke-linejoin="round" stroke-width="2"/>
    <path id="Path_1426" data-name="Path 1426" d="M16,33.845c7.163.879,14.506,1.35,21.529-.309S51.288,27.828,54.754,21.5a64,64,0,0,0-17.191-2.8" transform="translate(21.485 25.123)" fill="none" stroke="#fff" stroke-linecap="round" stroke-linejoin="round" stroke-width="2"/>
    <path id="Path_1427" data-name="Path 1427" d="M24.411,57.562a38.232,38.232,0,0,1-15.3-17.121,58.288,58.288,0,0,1-5.085-22.6,24.376,24.376,0,0,1,10.406,7.58C21.775,34.4,24.976,45.973,24.411,57.562Z" transform="translate(5.41 23.958)" fill="none" stroke="#fff" stroke-linecap="round" stroke-linejoin="round" stroke-width="2"/>
    <path id="Path_1428" data-name="Path 1428" d="M29.1,43.974A42.982,42.982,0,0,1,.5,28.648a25.023,25.023,0,0,1,14.141,1.345" transform="translate(0.672 37.853)" fill="none" stroke="#fff" stroke-linecap="round" stroke-linejoin="round" stroke-width="2"/>
  </g>
</svg>
