<svg xmlns="http://www.w3.org/2000/svg" xmlns:xlink="http://www.w3.org/1999/xlink" width="87.527" height="77.16" viewBox="0 0 87.527 77.16">
  <defs>
    <clipPath id="clip-path">
      <rect id="Rectangle_535" data-name="Rectangle 535" width="87.527" height="77.159" fill="#e12058"/>
    </clipPath>
  </defs>
  <g id="Group_2039" data-name="Group 2039" transform="translate(-738 -26397.934)">
    <g id="Group_1028" data-name="Group 1028" transform="translate(738 26397.934)">
      <g id="Group_1027" data-name="Group 1027" clip-path="url(#clip-path)">
        <path id="Path_1324" data-name="Path 1324" d="M94.447,0H41.854a7.647,7.647,0,0,0-7.64,7.64V17.867a17.761,17.761,0,0,0,0,35.364v6.314H23.987a1.684,1.684,0,0,0-1.679,1.679v8.3a7.647,7.647,0,0,0,7.64,7.64H82.541a7.647,7.647,0,0,0,7.64-7.64V17.6h10.226a1.684,1.684,0,0,0,1.679-1.679v-8.3A7.632,7.632,0,0,0,94.447,0ZM21.485,35.549A14.408,14.408,0,1,1,35.893,49.956,14.426,14.426,0,0,1,21.485,35.549Zm4.181,33.97V62.9H74.918v6.616a7.675,7.675,0,0,0,1.31,4.282H29.949a4.3,4.3,0,0,1-4.282-4.282m61.157,0a4.274,4.274,0,1,1-8.547,0v-8.3A1.684,1.684,0,0,0,76.6,59.544H37.572V53.231a17.823,17.823,0,0,0,15.079-11.8H77.336a1.679,1.679,0,1,0,0-3.358H53.474a17.237,17.237,0,0,0-1.243-9.538H77.353a1.679,1.679,0,0,0,0-3.358H50.317A17.794,17.794,0,0,0,37.589,17.85V7.624a4.289,4.289,0,0,1,4.282-4.282H88.15a7.634,7.634,0,0,0-1.31,4.282v61.9ZM98.729,14.24H90.181V7.624a4.274,4.274,0,1,1,8.547,0Z" transform="translate(-14.56)" fill="#e12058"/>
        <path id="Path_1325" data-name="Path 1325" d="M188.579,62.379H158.3a1.679,1.679,0,0,0,0,3.358H188.6a1.679,1.679,0,1,0-.017-3.358" transform="translate(-125.803 -50.104)" fill="#e12058"/>
        <path id="Path_1326" data-name="Path 1326" d="M42.666,93.7l-3.652-4.757.817-5.91-5.573-2.21-2.21-5.573-5.91.817-4.8-3.7-4.757,3.652-5.91-.817-2.21,5.573-5.573,2.21.817,5.91L0,93.7l3.652,4.757-.817,5.91,5.573,2.21,2.21,5.573,5.91-.817,4.757,3.652,4.757-3.652,5.91.817,2.21-5.573,5.573-2.258-.817-5.91ZM19.6,100.615l-7.111-5.862,1.538-1.874L19.315,97.2l9.033-10.426,1.826,1.585Z" transform="translate(0 -58.123)" fill="#e12058"/>
      </g>
    </g>
  </g>
</svg>
