<svg id="Group_906" data-name="Group 906" xmlns="http://www.w3.org/2000/svg" xmlns:xlink="http://www.w3.org/1999/xlink" width="66.516" height="62.893" viewBox="0 0 66.516 62.893">
  <defs>
    <clipPath id="clip-path">
      <path id="Path_1038" data-name="Path 1038" d="M0,0H66.516V62.893H0Z" fill="none"/>
    </clipPath>
  </defs>
  <g id="Mask_Group_70" data-name="Mask Group 70" clip-path="url(#clip-path)">
    <path id="Path_1033" data-name="Path 1033" d="M66.5,27.81a17.353,17.353,0,0,1-.26,2.013A22.228,22.228,0,0,1,63.7,37.078c-.6,1.076-3.513,5.163-4.4,6.239-4.915,5.919-13.149,12.75-26.91,19.395A1.814,1.814,0,0,1,29.793,60.9l.7-6.245a1.813,1.813,0,0,0-1.6-2A38.66,38.66,0,0,1,15.719,48.9C6.288,44.236,0,35.912,0,26.426,0,11.819,14.885,0,33.251,0A37.942,37.942,0,0,1,56.83,7.817c5.628,4.5,9.232,10.616,9.619,17.4A24.162,24.162,0,0,1,66.5,27.81Z" fill="#fff"/>
    <path id="Path_1034" data-name="Path 1034" d="M78.91,104.442a1.669,1.669,0,0,1,.5,1.209,1.7,1.7,0,0,1-1.693,1.7H70.912a1.711,1.711,0,0,1-1.7-1.7V92.8a1.681,1.681,0,0,1,.5-1.209,1.7,1.7,0,0,1,2.9,1.209v11.142h5.1A1.662,1.662,0,0,1,78.91,104.442Z" transform="translate(-56.824 -72.164)" fill="#00c200"/>
    <path id="Path_1035" data-name="Path 1035" d="M129.5,92.472v13.585a1.336,1.336,0,0,1-1.33,1.33h-.762a1.33,1.33,0,0,1-1.33-1.33V92.472a1.33,1.33,0,0,1,1.33-1.33h.744a1.336,1.336,0,0,1,1.348,1.324Z" transform="translate(-101.878 -72.201)" fill="#00c200"/>
    <path id="Path_1036" data-name="Path 1036" d="M167.97,92.84v12.775a1.771,1.771,0,0,1-1.711,1.771,1.717,1.717,0,0,1-1.155-.472c-.06-.048-2.346-3.023-4.287-5.526-1.451-1.868-2.708-3.5-2.708-3.5v7.793a1.7,1.7,0,0,1-3.4,0V92.913a1.753,1.753,0,0,1,1.638-1.771,1.717,1.717,0,0,1,1.336.6c.073.085,3.585,4.655,5.562,7.255.786,1.016,1.33,1.729,1.33,1.729V92.87a1.7,1.7,0,0,1,3.4-.03Z" transform="translate(-124.554 -72.2)" fill="#00c200"/>
    <path id="Path_1037" data-name="Path 1037" d="M234.23,100.949v3.023h5.1a1.7,1.7,0,0,1,.2,3.4,1.74,1.74,0,0,1-.2,0h-6.82a1.7,1.7,0,0,1-1.7-1.7V92.829a1.7,1.7,0,0,1,1.7-1.7h6.8a1.7,1.7,0,0,1,.2,3.4,1.744,1.744,0,0,1-.2,0H234.23v3.023h5.1a1.7,1.7,0,0,1,0,3.4Z" transform="translate(-184.841 -72.189)" fill="#00c200"/>
  </g>
</svg>
