<svg xmlns="http://www.w3.org/2000/svg" xmlns:xlink="http://www.w3.org/1999/xlink" width="251" height="69.748" viewBox="0 0 251 69.748">
  <defs>
    <clipPath id="clip-path">
      <rect id="Rectangle_982" data-name="Rectangle 982" width="251" height="69.748" fill="#e12058"/>
    </clipPath>
  </defs>
  <g id="Group_2056" data-name="Group 2056" clip-path="url(#clip-path)">
    <g id="Group_2055" data-name="Group 2055">
      <g id="Group_2054" data-name="Group 2054" clip-path="url(#clip-path)">
        <g id="Group_2053" data-name="Group 2053" opacity="0.9">
          <g id="Group_2052" data-name="Group 2052">
            <g id="Group_2051" data-name="Group 2051" clip-path="url(#clip-path)">
              <path id="Path_2652" data-name="Path 2652" d="M36.521,75.033A5.436,5.436,0,0,1,30.9,69.221c0-4.747-1.647-9.978-7.168-9.978-8.622,0-10.947,13.659-10.947,19.859,0,10.849,4.65,22.184,15.016,22.184,5.425,0,10.947-3.875,13.95-10.269-1.259,11.238-9.784,17.146-18.89,17.146C8.138,108.163,0,95.086,0,82.2.1,67.768,9.59,57.693,24.315,57.79c8.815,0,18.115,3.778,18.115,11.14a5.846,5.846,0,0,1-5.909,6.1" transform="translate(0 -38.415)" fill="#e12058"/>
              <path id="Path_2653" data-name="Path 2653" d="M141.013,68.78c.872-1.065,1.453-5.231,1.453-20.827V15.887c0-7.46-1.26-9.009-1.453-9.784,1.647,0,7.362-1.065,14.047-6.1V47.952c0,15.6.581,19.762,1.453,20.827Z" transform="translate(-93.738)" fill="#e12058"/>
              <path id="Path_2654" data-name="Path 2654" d="M199.093,96.153c0-16.565,32.453-15.209,32.356-29.352,0-4.262-4.359-7.265-8.331-7.265-5.715,0-7.266,4.844-7.266,9.687a5.487,5.487,0,0,1-5.619,5.813,5.741,5.741,0,0,1-5.909-6.1c0-7.943,9.494-11.14,15.79-11.14,9.4,0,19.375,5.619,19.375,19.762v17.34c0,6.49.581,11.043,3.2,11.043a4.728,4.728,0,0,0,2.228-.775,9.445,9.445,0,0,1-7.362,3c-6.393,0-9.009-3.39-9.978-7.75-4.262,5.425-9.784,7.75-14.822,7.75-6.975,0-13.659-4.456-13.659-12.012m27.8-5.134V76.391c-3.875,3.2-14.628,6.878-14.628,16.468,0,5.909,3.681,9.3,7.943,9.3a9.542,9.542,0,0,0,7.072-3.2,54.536,54.536,0,0,1-.388-7.943" transform="translate(-132.347 -38.417)" fill="#e12058"/>
              <path id="Path_2655" data-name="Path 2655" d="M380.362,70.288c-3.584,0-7.266-4.359-11.043-4.359-5.134,0-7.653,8.234-7.653,12.3v8.138c0,15.6.581,19.762,1.453,20.827h-15.5c.872-1.065,1.453-5.231,1.453-20.827V74.647c0-7.459-1.259-9.009-1.453-9.784,1.647,0,7.362-1.066,14.047-6.1v12.4c3.875-8.815,10.947-13.368,16.468-13.368,9.881,0,9.881,12.5,2.228,12.5" transform="translate(-231.08 -38.417)" fill="#e12058"/>
              <path id="Path_2656" data-name="Path 2656" d="M471.88,58.76c3.294,2.422,6.3,3.972,9.4,3.972,4.65,0,10.075-4.941,17.146-4.941,9.494,0,14.531,4.843,14.531,15.306V86.369c0,15.6.581,19.762,1.453,20.827h-15.5c.872-1.065,1.453-5.231,1.453-20.827V71.063c0-4.165-.678-9.784-5.618-10.559-3.488-.582-7.75,2.906-10.269,3.2V86.369c0,15.6.581,19.762,1.453,20.827h-15.5c.872-1.065,1.454-5.231,1.454-20.827Z" transform="translate(-312.716 -38.417)" fill="#e12058"/>
              <path id="Path_2657" data-name="Path 2657" d="M612.017,96.153c0-16.565,32.453-15.209,32.356-29.352,0-4.262-4.359-7.265-8.331-7.265-5.715,0-7.265,4.844-7.265,9.687a5.487,5.487,0,0,1-5.619,5.813,5.741,5.741,0,0,1-5.909-6.1c0-7.943,9.494-11.14,15.79-11.14,9.4,0,19.375,5.619,19.375,19.762v17.34c0,6.49.581,11.043,3.2,11.043a4.728,4.728,0,0,0,2.228-.775,9.445,9.445,0,0,1-7.362,3c-6.393,0-9.009-3.39-9.978-7.75-4.262,5.425-9.784,7.75-14.822,7.75-6.974,0-13.659-4.456-13.659-12.012m27.8-5.134V76.391c-3.875,3.2-14.628,6.878-14.628,16.468,0,5.909,3.681,9.3,7.943,9.3a9.542,9.542,0,0,0,7.072-3.2,54.536,54.536,0,0,1-.388-7.943" transform="translate(-406.838 -38.417)" fill="#e12058"/>
            </g>
          </g>
        </g>
      </g>
    </g>
  </g>
</svg>
