<svg xmlns="http://www.w3.org/2000/svg" width="62" height="62" viewBox="0 0 62 62">
  <g id="Group_2387" data-name="Group 2387" transform="translate(-902 -24902)">
    <rect id="Rectangle_979" data-name="Rectangle 979" width="62" height="62" rx="10" transform="translate(902 24902)" fill="#101010"/>
    <g id="mastercard-2" transform="translate(905.697 24911.002)">
      <path id="Path_2642" data-name="Path 2642" d="M155.034,1323.137v.111h.1a.108.108,0,0,0,.055-.014.049.049,0,0,0,.021-.042.047.047,0,0,0-.021-.041.1.1,0,0,0-.055-.014h-.1Zm.1-.078a.192.192,0,0,1,.124.036.119.119,0,0,1,.044.1.113.113,0,0,1-.035.086.171.171,0,0,1-.1.041l.139.158H155.2l-.128-.157h-.041v.157h-.089v-.419h.194Zm-.028.564a.331.331,0,0,0,.136-.028.356.356,0,0,0,.111-.075.35.35,0,0,0,.075-.111.359.359,0,0,0,0-.274.363.363,0,0,0-.075-.111.337.337,0,0,0-.247-.1.366.366,0,0,0-.139.026.349.349,0,0,0-.187.463.331.331,0,0,0,.074.111.357.357,0,0,0,.113.075.344.344,0,0,0,.139.028m0-.8a.464.464,0,0,1,.326.133.447.447,0,0,1,.1.495.467.467,0,0,1-.1.144.5.5,0,0,1-.146.1.456.456,0,0,1-.18.036.463.463,0,0,1-.182-.036.474.474,0,0,1-.147-.1.467.467,0,0,1-.1-.149.446.446,0,0,1,0-.351.454.454,0,0,1,.245-.241.462.462,0,0,1,.182-.036m-42.444-1.615a1.378,1.378,0,1,1,1.38,1.457,1.365,1.365,0,0,1-1.38-1.457m3.683,0v-2.276h-.989v.554a1.724,1.724,0,0,0-1.437-.667,2.392,2.392,0,0,0,0,4.778,1.725,1.725,0,0,0,1.437-.667v.552h.988V1321.2Zm33.426,0a1.378,1.378,0,1,1,1.38,1.457,1.365,1.365,0,0,1-1.38-1.457m3.684,0v-4.1h-.99v2.381a1.724,1.724,0,0,0-1.437-.667,2.392,2.392,0,0,0,0,4.778,1.725,1.725,0,0,0,1.437-.667v.552h.99Zm-24.832-1.5a1.13,1.13,0,0,1,1.151,1.1h-2.36a1.172,1.172,0,0,1,1.209-1.1m.02-.887a2.391,2.391,0,0,0,.066,4.778,2.764,2.764,0,0,0,1.865-.638l-.485-.733a2.169,2.169,0,0,1-1.324.476,1.264,1.264,0,0,1-1.361-1.114h3.378c.01-.123.02-.247.02-.38a2.183,2.183,0,0,0-2.16-2.389m11.944,2.389a1.378,1.378,0,1,1,1.38,1.457,1.365,1.365,0,0,1-1.38-1.457m3.683,0v-2.274h-.989v.554a1.726,1.726,0,0,0-1.437-.667,2.392,2.392,0,0,0,0,4.778,1.726,1.726,0,0,0,1.437-.667v.552h.989V1321.2Zm-9.27,0a2.3,2.3,0,0,0,2.427,2.389,2.378,2.378,0,0,0,1.635-.542l-.475-.8a2,2,0,0,1-1.192.41,1.459,1.459,0,0,1,0-2.913,2,2,0,0,1,1.192.41l.475-.8a2.381,2.381,0,0,0-1.635-.542,2.3,2.3,0,0,0-2.427,2.389m12.753-2.389a1.343,1.343,0,0,0-1.2.667v-.552h-.98v4.549h.99v-2.55c0-.753.323-1.171.97-1.171a1.6,1.6,0,0,1,.619.115l.3-.933a2.1,2.1,0,0,0-.7-.124m-26.516.476a3.4,3.4,0,0,0-1.855-.476c-1.153,0-1.895.552-1.895,1.456,0,.742.552,1.2,1.57,1.342l.467.066c.542.076.8.219.8.476,0,.352-.36.552-1.037.552a2.424,2.424,0,0,1-1.513-.476l-.465.771a3.282,3.282,0,0,0,1.97.59c1.314,0,2.075-.619,2.075-1.485,0-.8-.6-1.218-1.589-1.361l-.466-.068c-.428-.055-.771-.142-.771-.447,0-.333.323-.533.866-.533a2.935,2.935,0,0,1,1.418.39l.428-.8Zm12.765-.475a1.34,1.34,0,0,0-1.2.667v-.553h-.98v4.549h.989v-2.55c0-.753.323-1.171.97-1.171a1.6,1.6,0,0,1,.619.115l.3-.933a2.1,2.1,0,0,0-.7-.124m-8.441.114h-1.618v-1.38h-1v1.38h-.923v.9h.923v2.075c0,1.055.41,1.684,1.58,1.684a2.325,2.325,0,0,0,1.238-.352l-.286-.847a1.831,1.831,0,0,1-.876.257c-.494,0-.656-.3-.656-.761v-2.055h1.618Zm-14.79,4.55v-2.855a1.694,1.694,0,0,0-1.79-1.808,1.761,1.761,0,0,0-1.6.809,1.67,1.67,0,0,0-1.5-.809,1.5,1.5,0,0,0-1.332.676v-.562h-.99v4.549h1v-2.522a1.065,1.065,0,0,1,1.114-1.209c.657,0,.989.428.989,1.2v2.532h1v-2.522a1.073,1.073,0,0,1,1.113-1.209c.675,0,1,.428,1,1.2v2.532Z" transform="translate(-100.689 -1280.593)" fill="#fff"/>
      <path id="Path_2643" data-name="Path 2643" d="M1930.294,977.885v-.665h-.173l-.2.457-.2-.457h-.174v.665h.123v-.5l.187.432h.127l.188-.434v.5h.122Zm-1.1,0v-.551h.222v-.112h-.567v.112h.222v.551h.122Z" transform="translate(-1875.385 -950.134)" fill="#f79410"/>
      <path id="Path_2644" data-name="Path 2644" d="M744.7,159.092H729.71V132.15H744.7Z" transform="translate(-709.484 -128.488)" fill="#ff5f00"/>
      <path id="Path_2645" data-name="Path 2645" d="M21.177,17.134A17.106,17.106,0,0,1,27.721,3.663a17.135,17.135,0,1,0,0,26.942,17.106,17.106,0,0,1-6.544-13.471" transform="translate(0 0)" fill="#eb001b"/>
      <path id="Path_2646" data-name="Path 2646" d="M1027.832,17.134a17.134,17.134,0,0,1-27.722,13.471,17.136,17.136,0,0,0,0-26.942,17.133,17.133,0,0,1,27.722,13.471" transform="translate(-972.389 0)" fill="#f79e1b"/>
    </g>
  </g>
</svg>
