<svg xmlns="http://www.w3.org/2000/svg" width="81.841" height="81.867" viewBox="0 0 81.841 81.867">
  <g id="XMLID_754_" transform="translate(-24.075 -24)">
    <g id="XMLID_953_" transform="translate(24.075 24)">
      <path id="XMLID_739_" d="M65,105.867a7.341,7.341,0,0,1-5.223-2.17l-6.316-6.316a4.538,4.538,0,0,0-3.229-1.341H41.282a7.4,7.4,0,0,1-7.393-7.393V79.7a4.538,4.538,0,0,0-1.341-3.229l-6.316-6.316a7.4,7.4,0,0,1,0-10.445l6.316-6.316a4.538,4.538,0,0,0,1.341-3.229V41.22a7.4,7.4,0,0,1,7.393-7.393h8.945a4.539,4.539,0,0,0,3.229-1.341l6.316-6.316a7.369,7.369,0,0,1,10.445,0l6.316,6.316a4.538,4.538,0,0,0,3.229,1.341h8.945A7.4,7.4,0,0,1,96.1,41.22v8.945a4.539,4.539,0,0,0,1.341,3.229l6.316,6.316a7.4,7.4,0,0,1,0,10.445l-6.316,6.316A4.539,4.539,0,0,0,96.1,79.7v8.945a7.4,7.4,0,0,1-7.393,7.393H79.763a4.538,4.538,0,0,0-3.229,1.341L70.218,103.7A7.341,7.341,0,0,1,65,105.867ZM41.282,36.651a4.571,4.571,0,0,0-4.57,4.57v8.945a7.341,7.341,0,0,1-2.17,5.223L28.226,61.7a4.568,4.568,0,0,0,0,6.458l6.316,6.316a7.341,7.341,0,0,1,2.17,5.223v8.945a4.571,4.571,0,0,0,4.57,4.57h8.945a7.341,7.341,0,0,1,5.223,2.17l6.316,6.316a4.558,4.558,0,0,0,6.458,0l6.316-6.316a7.341,7.341,0,0,1,5.223-2.17h8.945a4.571,4.571,0,0,0,4.57-4.57V79.7a7.341,7.341,0,0,1,2.17-5.223l6.316-6.316a4.568,4.568,0,0,0,0-6.458l-6.316-6.316a7.341,7.341,0,0,1-2.17-5.223V41.22a4.571,4.571,0,0,0-4.57-4.57H79.763a7.341,7.341,0,0,1-5.223-2.17l-6.316-6.316a4.558,4.558,0,0,0-6.458,0L55.45,34.48a7.341,7.341,0,0,1-5.223,2.17Z" transform="translate(-24.075 -24)" fill="#e12058"/>
    </g>
    <g id="XMLID_963_" transform="translate(39.218 39.156)">
      <path id="XMLID_736_" d="M135.678,161.455a25.778,25.778,0,1,1,25.778-25.778A25.809,25.809,0,0,1,135.678,161.455Zm0-48.732a22.955,22.955,0,1,0,22.955,22.955A22.978,22.978,0,0,0,135.678,112.723Z" transform="translate(-109.9 -109.9)" fill="#e12058"/>
    </g>
    <g id="XMLID_292_" transform="translate(48.058 50.677)">
      <path id="XMLID_733_" d="M186.822,203.571H167.061a1.419,1.419,0,0,1-1.359-1.023l-5.646-19.885a1.438,1.438,0,0,1,.529-1.535,1.379,1.379,0,0,1,1.606-.035l7.252,4.834,6.281-10.057a1.438,1.438,0,0,1,1.2-.67,1.4,1.4,0,0,1,1.2.67l6.281,10.057,7.252-4.834a1.378,1.378,0,0,1,1.606.035,1.428,1.428,0,0,1,.529,1.535l-5.646,19.885A1.346,1.346,0,0,1,186.822,203.571Z" transform="translate(-160.005 -175.2)" fill="#e12058"/>
    </g>
  </g>
</svg>
