<svg xmlns="http://www.w3.org/2000/svg" width="71.683" height="72.066" viewBox="0 0 71.683 72.066">
  <g id="Group_2040" data-name="Group 2040" transform="translate(-526.879 -26235.997)">
    <g id="Love_Chat" data-name="Love Chat" transform="translate(523.075 26232.344)">
      <path id="Path_1322" data-name="Path 1322" d="M38.782,5.176C17.7,5.871,2.627,25.825,6.492,46.559A27.31,27.31,0,0,0,11.96,58.631c1.177,1.527.333,10.024-6.466,14.761a.389.389,0,0,0,.168.71c10.112,1.02,14.991-3.757,17.635-4.879a1.28,1.28,0,0,1,1.162.106,24.225,24.225,0,0,0,10.663,3.71c20.227,2.192,38.611-13.05,38.864-33.394a34.055,34.055,0,0,0-35.2-34.469Z" transform="translate(0 0)" fill="none" stroke="#e12058" stroke-width="3"/>
      <path id="Path_1323" data-name="Path 1323" d="M53.8,21.581a10.117,10.117,0,0,0-8.638-.28,13.231,13.231,0,0,0-5.4,4.378,1.853,1.853,0,0,1-3.037,0,13.206,13.206,0,0,0-5.352-4.358,9.692,9.692,0,0,0-4.025-.854,10.258,10.258,0,0,0-4.66,1.112A7.172,7.172,0,0,0,18.7,26.4C16.23,38.985,34.588,51.608,38.24,53.979,41.892,51.608,60.249,38.985,57.782,26.4A7.171,7.171,0,0,0,53.8,21.581Z" transform="translate(1.414 4.393)" fill="#e12058"/>
    </g>
  </g>
</svg>
