<svg xmlns="http://www.w3.org/2000/svg" width="89.361" height="56.442" viewBox="0 0 89.361 56.442">
  <g id="Amex_Card" data-name="Amex Card" transform="translate(-110.4 -105.6)">
    <path id="Path_2671" data-name="Path 2671" d="M192.7,105.6H117.464a6.938,6.938,0,0,0-7.064,7.064v42.314a7.084,7.084,0,0,0,7.064,7.064H192.7a6.938,6.938,0,0,0,7.064-7.064V112.641A7.094,7.094,0,0,0,192.7,105.6Z" transform="translate(0 0)" fill="#b5b5b5"/>
    <path id="Path_2672" data-name="Path 2672" d="M200.342,115.524a4.723,4.723,0,0,1,4.709,4.709v42.314a4.723,4.723,0,0,1-4.709,4.709H125.109a4.723,4.723,0,0,1-4.709-4.709V120.209a4.723,4.723,0,0,1,4.709-4.709h75.233" transform="translate(-7.645 -7.569)" fill="#286cb4"/>
    <path id="Path_2673" data-name="Path 2673" d="M162.156,190.745l1.813,4.4h-3.626Zm37.793.188h-6.993v1.954h6.876v2.92h-6.876v2.166h6.993v1.742l4.874-5.275-4.874-5.51v2Zm-33.06-5.51h9.4l2.1,4.545,1.931-4.568h24.371l2.543,2.8,2.614-2.8h11.185l-8.265,9.066,8.194,8.995H209.58l-2.543-2.8-2.637,2.8H164.652l-1.154-2.8h-2.661l-1.154,2.8H150.5l7.723-18.061h8.053Zm20.368,2.543h-5.275l-3.532,8.312-3.815-8.312h-5.227v11.3l-4.851-11.3h-4.686l-5.6,12.951h3.65l1.154-2.8h6.146l1.154,2.8h6.4v-9.254l4.121,9.254h2.8l4.1-9.23v9.23h3.438l.024-12.951Zm21.946,6.5,5.957-6.5h-4.286l-3.768,4.05-3.65-4.05H189.612v12.974h13.657l3.791-4.1,3.65,4.1h4.4l-5.91-6.475Z" transform="translate(-30.658 -61.009)" fill="#fff"/>
  </g>
</svg>
