<svg xmlns="http://www.w3.org/2000/svg" width="17.768" height="13.605" viewBox="0 0 17.768 13.605">
  <path id="Icon_ionic-ios-checkmark" data-name="Icon ionic-ios-checkmark" d="M28.109,13.8l-1.452-1.493a.312.312,0,0,0-.231-.1h0a.3.3,0,0,0-.231.1L16.128,22.446l-3.664-3.664a.319.319,0,0,0-.462,0l-1.469,1.469a.329.329,0,0,0,0,.47l4.621,4.621a1.461,1.461,0,0,0,.965.47,1.531,1.531,0,0,0,.957-.454h.008l11.032-11.09A.353.353,0,0,0,28.109,13.8Z" transform="translate(-10.434 -12.207)" fill="#101010"/>
</svg>
