<svg xmlns="http://www.w3.org/2000/svg" width="90" height="56" viewBox="0 0 90 56">
  <g id="Group_2408" data-name="Group 2408" transform="translate(-1051 -561)">
    <rect id="Rectangle_1277" data-name="Rectangle 1277" width="90" height="56" rx="5" transform="translate(1051 561)" fill="#101010"/>
    <g id="mastercard-2" transform="translate(1066.877 566.629)">
      <path id="Path_2642" data-name="Path 2642" d="M156.947,1323.362v.115h.107a.113.113,0,0,0,.057-.015.051.051,0,0,0,.022-.044.049.049,0,0,0-.022-.043.1.1,0,0,0-.057-.015h-.107Zm.108-.082a.2.2,0,0,1,.129.037.124.124,0,0,1,.045.1.118.118,0,0,1-.036.09.177.177,0,0,1-.1.043l.144.164h-.111l-.132-.163h-.043v.163h-.093v-.435h.2Zm-.029.585a.343.343,0,0,0,.141-.029.373.373,0,0,0,.115-.078.362.362,0,0,0,.078-.115.372.372,0,0,0,0-.285.377.377,0,0,0-.078-.115.348.348,0,0,0-.256-.1.381.381,0,0,0-.144.027.363.363,0,0,0-.194.481.343.343,0,0,0,.077.115.37.37,0,0,0,.118.078.359.359,0,0,0,.144.029m0-.833a.48.48,0,0,1,.338.138.464.464,0,0,1,.1.513.483.483,0,0,1-.1.149.513.513,0,0,1-.152.1.474.474,0,0,1-.186.037.481.481,0,0,1-.189-.037.489.489,0,0,1-.153-.1.484.484,0,0,1-.1-.154.463.463,0,0,1,.1-.513.458.458,0,0,1,.153-.1.48.48,0,0,1,.189-.037m-44.022-1.675a1.429,1.429,0,1,1,1.431,1.51,1.416,1.416,0,0,1-1.431-1.51m3.82,0v-2.361H115.8v.575a1.788,1.788,0,0,0-1.49-.692,2.481,2.481,0,0,0,0,4.956,1.789,1.789,0,0,0,1.49-.691v.573h1.025v-2.36Zm34.669,0a1.429,1.429,0,1,1,1.432,1.51,1.416,1.416,0,0,1-1.432-1.51m3.821,0V1317.1H154.29v2.469a1.788,1.788,0,0,0-1.49-.692,2.481,2.481,0,0,0,0,4.956,1.789,1.789,0,0,0,1.49-.691v.573h1.027Zm-25.755-1.56a1.172,1.172,0,0,1,1.194,1.145h-2.448a1.215,1.215,0,0,1,1.254-1.145m.02-.92a2.48,2.48,0,0,0,.069,4.956,2.866,2.866,0,0,0,1.934-.661l-.5-.76a2.25,2.25,0,0,1-1.373.493,1.31,1.31,0,0,1-1.411-1.156h3.5c.01-.127.02-.256.02-.394a2.264,2.264,0,0,0-2.241-2.478m12.388,2.478a1.429,1.429,0,1,1,1.431,1.511,1.416,1.416,0,0,1-1.431-1.511m3.82,0v-2.359h-1.025v.575a1.79,1.79,0,0,0-1.49-.692,2.481,2.481,0,0,0,0,4.956,1.79,1.79,0,0,0,1.49-.691v.573h1.026v-2.36Zm-9.614,0a2.384,2.384,0,0,0,2.517,2.478,2.466,2.466,0,0,0,1.7-.563l-.493-.829a2.074,2.074,0,0,1-1.236.425,1.514,1.514,0,0,1,0-3.021,2.079,2.079,0,0,1,1.236.425l.493-.829a2.469,2.469,0,0,0-1.7-.562,2.383,2.383,0,0,0-2.517,2.478m13.227-2.478a1.393,1.393,0,0,0-1.244.691v-.572h-1.017v4.718h1.027v-2.645c0-.781.335-1.215,1.006-1.215a1.664,1.664,0,0,1,.642.119l.316-.967a2.189,2.189,0,0,0-.731-.129m-27.5.494a3.528,3.528,0,0,0-1.924-.494c-1.2,0-1.965.573-1.965,1.51,0,.769.573,1.244,1.628,1.392l.485.069c.563.079.828.227.828.494,0,.365-.374.573-1.075.573a2.515,2.515,0,0,1-1.569-.493l-.482.8a3.406,3.406,0,0,0,2.043.612c1.363,0,2.152-.642,2.152-1.54,0-.829-.622-1.263-1.648-1.411l-.484-.07c-.444-.057-.8-.147-.8-.463,0-.345.335-.552.9-.552a3.045,3.045,0,0,1,1.471.4l.444-.829Zm13.239-.493a1.389,1.389,0,0,0-1.243.691v-.574h-1.017v4.718h1.026v-2.645c0-.781.336-1.215,1.006-1.215a1.664,1.664,0,0,1,.642.119l.316-.967a2.189,2.189,0,0,0-.731-.129m-8.755.118h-1.678v-1.431h-1.037v1.431h-.957v.938h.957v2.152c0,1.095.425,1.747,1.639,1.747a2.413,2.413,0,0,0,1.284-.365l-.3-.879a1.9,1.9,0,0,1-.908.267c-.513,0-.68-.316-.68-.79v-2.132h1.678Zm-15.34,4.719v-2.961a1.757,1.757,0,0,0-1.856-1.875,1.827,1.827,0,0,0-1.659.84,1.731,1.731,0,0,0-1.559-.84,1.56,1.56,0,0,0-1.382.7v-.583H103.56v4.718h1.035V1321.1a1.1,1.1,0,0,1,1.156-1.254c.681,0,1.026.444,1.026,1.244v2.626h1.037V1321.1a1.113,1.113,0,0,1,1.155-1.254c.7,0,1.035.444,1.035,1.244v2.626Z" transform="translate(-100.583 -1279.235)" fill="#fff"/>
      <path id="Path_2643" data-name="Path 2643" d="M1930.347,977.91v-.69h-.18l-.208.474-.207-.474h-.181v.69h.128v-.52l.194.448h.132l.194-.45v.521h.126Zm-1.14,0v-.572h.23v-.116h-.588v.116h.23v.572h.127Z" transform="translate(-1873.398 -949.125)" fill="#f79410"/>
      <path id="Path_2644" data-name="Path 2644" d="M745.259,160.094H729.71V132.15h15.549Z" transform="translate(-708.732 -128.35)" fill="#ff5f00"/>
      <path id="Path_2645" data-name="Path 2645" d="M21.964,17.771A17.742,17.742,0,0,1,28.751,3.8a17.772,17.772,0,1,0,0,27.944,17.742,17.742,0,0,1-6.787-13.972" transform="translate(0 0.001)" fill="#eb001b"/>
      <path id="Path_2646" data-name="Path 2646" d="M1028.863,17.771a17.771,17.771,0,0,1-28.753,13.972,17.773,17.773,0,0,0,0-27.944,17.77,17.77,0,0,1,28.753,13.972" transform="translate(-971.358 0.001)" fill="#f79e1b"/>
    </g>
  </g>
</svg>
