<svg xmlns="http://www.w3.org/2000/svg" width="100.321" height="65.73" viewBox="0 0 100.321 65.73">
  <g id="Group_2030" data-name="Group 2030" transform="translate(-307.679 -22663.134)">
    <path id="cream" d="M103.083,67.516,71.552,13.853a1.731,1.731,0,0,0-2.345-.628L54.036,21.832a1.73,1.73,0,0,0-.638,2.38l1.3,2.214c-4.167-3.2-10.646-3.117-14.284-3.06-.619-.149-8.884,1.341-11.547-7.41a1.746,1.746,0,0,0-3.338.106c-.341,1.437-2.368,2.615-4.514,3.864-3.451,2.006-8.027,4.686-7.746,10.373H11.648a1.73,1.73,0,0,0-1.73,1.73v5.189a1.73,1.73,0,1,0,0,3.459v3.459A6.926,6.926,0,0,0,3,51.055V71.811A6.926,6.926,0,0,0,9.919,78.73h51.89a6.926,6.926,0,0,0,6.919-6.919V51.053a6.813,6.813,0,0,0-.092-.908L84.93,77.875a1.731,1.731,0,0,0,2.345.628L102.446,69.9a1.731,1.731,0,0,0,.637-2.38Zm-80.326-44.6a22.77,22.77,0,0,0,4.141-2.84c2.885,5.267,7.616,6.844,13.571,6.749,3.791-.059,10.361-.147,13.218,3.471H16.741c-.24-3.435,2.178-5.148,6.016-7.381Zm-9.378,17.76H23.756a1.73,1.73,0,0,0,0-3.459H13.378V33.756H58.35v3.459H34.134a1.73,1.73,0,0,0,0,3.459H58.35v3.459H13.378ZM6.459,56.242H47.972V66.62H6.459ZM65.269,71.809a3.463,3.463,0,0,1-3.459,3.459H9.919a3.463,3.463,0,0,1-3.459-3.459V70.08H49.7a1.73,1.73,0,0,0,1.73-1.73V54.512a1.73,1.73,0,0,0-1.73-1.73H6.459v-1.73a3.463,3.463,0,0,1,3.459-3.459h51.89a3.463,3.463,0,0,1,3.459,3.459ZM61.809,44.134V40.675a1.694,1.694,0,0,0,1.038-.382l3.07,5.225A6.853,6.853,0,0,0,61.809,44.134ZM87.05,74.653C52.775,16.318,58.078,25.322,57.272,23.973l12.161-6.9,29.778,50.68Z" transform="translate(304.679 22650.135)" fill="#e12058"/>
    <path id="Path_1321" data-name="Path 1321" d="M319.747,15860.076l1.172-4.667,10.682-7.163,4.129,4.06,5.864,2.233,11.159.87,6.058,2.021,3.056,2.646H319.747" transform="translate(0 6821)" fill="#e12058"/>
  </g>
</svg>
