<svg xmlns="http://www.w3.org/2000/svg" width="57.767" height="70.631" viewBox="0 0 57.767 70.631">
  <g id="facial-mask" transform="translate(-38.218 -22.076)">
    <path id="Path_1317" data-name="Path 1317" d="M95.961,60.485a28.065,28.065,0,0,0-2.92-10.556,16.8,16.8,0,0,0-.612-7.868,15.981,15.981,0,0,0-7.719-8.9,8.762,8.762,0,0,0-1.492-4.619c-2.422-3.622-7.488-5.8-15.057-6.465-.026,0-.052,0-.078,0H66.12q-.039,0-.078,0c-7.569.668-12.635,2.844-15.057,6.465a8.762,8.762,0,0,0-1.492,4.619,15.981,15.981,0,0,0-7.719,8.9,16.8,16.8,0,0,0-.612,7.868,28.066,28.066,0,0,0-2.92,10.556,16.075,16.075,0,0,0,4.141,11.383,8.748,8.748,0,0,0,6.106,2.845,25.222,25.222,0,0,0,8.167,11.862v6.134h1.783V87.946c.666.472,1.329.9,1.979,1.278a13.337,13.337,0,0,0,13.369,0c.65-.377,1.313-.806,1.979-1.277v4.762h1.783V86.574a25.222,25.222,0,0,0,8.167-11.862,8.748,8.748,0,0,0,6.106-2.845,16.075,16.075,0,0,0,4.141-11.383ZM52.486,29.506C54.57,26.422,59.3,24.47,66.16,23.858h1.883c6.862.612,11.59,2.564,13.674,5.648a7.037,7.037,0,0,1,1.11,2.716c-.247-.11-.5-.218-.752-.322a29.362,29.362,0,0,0-13.8-1.918A8.213,8.213,0,0,0,67.1,30.2a8.217,8.217,0,0,0-1.174-.219,29.37,29.37,0,0,0-13.8,1.918c-.255.1-.505.212-.752.322A7.038,7.038,0,0,1,52.486,29.506ZM48.547,68.27c-.093,1.322-.247,3.525-.351,4.647a7,7,0,0,1-4.532-2.288A14.359,14.359,0,0,1,40.02,60.6a27.438,27.438,0,0,1,2.329-9.087,12.513,12.513,0,0,1,8.446-6.987l-.377-1.742a13.451,13.451,0,0,0-7.69,4.794,15.248,15.248,0,0,1,.739-4.961c2.955-8.936,14.792-11.735,22.256-10.868,2.206.256,2.553,1.209,2.667,1.523.945,2.6-2.85,8.227-5.847,11.393-.889.94-1.9,1.925-2.872,2.877C58.455,48.732,57.2,49.96,56.1,51.167a36.3,36.3,0,0,0-5.65,7.976A23.029,23.029,0,0,0,48.718,66c-.025.206-.076.922-.17,2.275Zm14.628,7.96h7.853a2.686,2.686,0,0,1,0,5.372H63.175a2.686,2.686,0,0,1,0-5.372Zm-4.028-6.061c-3.1,0-5.628-2.129-5.628-4.747s2.525-4.747,5.628-4.747,5.628,2.129,5.628,4.747-2.525,4.747-5.628,4.747Zm10.282-4.747c0-2.617,2.525-4.747,5.628-4.747s5.628,2.129,5.628,4.747-2.525,4.747-5.628,4.747S69.428,68.039,69.428,65.421ZM67.1,48.789a19.185,19.185,0,0,0-7.747,1.567c.516-.515,2.747-2.7,3.329-3.281a23.133,23.133,0,0,1,8.835,0c.582.584,2.813,2.766,3.329,3.281A19.185,19.185,0,0,0,67.1,48.789Zm5.789,38.893a11.55,11.55,0,0,1-11.578,0c-4.547-2.641-9.8-7.8-11.361-14.409.031-.312.635-7.84.7-8.256,0,0,.354,4.1.361,4.37.194,7.3,5.662,13.329,10.666,16.244a10.776,10.776,0,0,0,10.85,0c5-2.915,10.472-8.943,10.666-16.244.007-.266.361-4.37.361-4.37.063.416.667,7.944.7,8.256-1.561,6.6-6.814,11.768-11.361,14.409ZM90.539,70.628a6.994,6.994,0,0,1-4.532,2.288c-.1-1.122-.259-3.324-.351-4.647-.095-1.353-.145-2.069-.171-2.274a23.029,23.029,0,0,0-1.73-6.852,36.3,36.3,0,0,0-5.65-7.976c-1.1-1.207-5.554-5.559-6.444-6.5a33.283,33.283,0,0,1-3.509-4.455c.078-.129,3.78-5.13,1.355-8.555,7.477-.511,18.407,2.425,21.23,10.962a15.248,15.248,0,0,1,.739,4.961,13.452,13.452,0,0,0-7.69-4.794l-.377,1.742a12.592,12.592,0,0,1,8.447,6.989A27.441,27.441,0,0,1,94.183,60.6a14.358,14.358,0,0,1-3.643,10.025Z" fill="#e12058"/>
    <path id="Path_1318" data-name="Path 1318" d="M96.133,150.479c-1.127,1.405-2.339,2.053-3.6,1.926a4.092,4.092,0,0,1-2.695-1.542l.007.016-1.653.667a5.578,5.578,0,0,0,3.933,2.6,4.913,4.913,0,0,0,.717.053,5.967,5.967,0,0,0,4.686-2.609Z" transform="translate(-33.775 -86.788)" fill="#e12058"/>
    <path id="Path_1319" data-name="Path 1319" d="M146.613,151.595l-1.391-1.115c-1.127,1.405-2.34,2.054-3.6,1.926a4.092,4.092,0,0,1-2.694-1.542l.007.016-1.653.667a5.578,5.578,0,0,0,3.932,2.6,4.917,4.917,0,0,0,.717.053A5.967,5.967,0,0,0,146.613,151.595Z" transform="translate(-66.954 -86.788)" fill="#e12058"/>
    <path id="Path_1320" data-name="Path 1320" d="M114.925,195.681a6.94,6.94,0,0,0,5.952-2.655l-1.421-1.076a6.243,6.243,0,0,1-9.061,0l-1.421,1.076A6.94,6.94,0,0,0,114.925,195.681Z" transform="translate(-47.824 -114.818)" fill="#e12058"/>
  </g>
</svg>
