<svg xmlns="http://www.w3.org/2000/svg" width="90.345" height="56.995" viewBox="0 0 90.345 56.995">
  <g id="Group_2407" data-name="Group 2407" transform="translate(0 0)">
    <rect id="Rectangle_515" data-name="Rectangle 515" width="88.426" height="55.266" rx="4" transform="translate(0.786 0.78)" fill="#fff"/>
    <g id="visa-4" transform="translate(0 0)">
      <path id="Path_2648" data-name="Path 2648" d="M93.179,43.857c0-4.339-2.255-6.492-6.63-6.492H9.463a6.129,6.129,0,0,0-4.852,1.777,6.314,6.314,0,0,0-1.777,4.716V87.868a6.365,6.365,0,0,0,1.777,4.715A6.583,6.583,0,0,0,9.463,94.36H86.549c4.375,0,6.63-2.186,6.63-6.492Zm-6.63-5.467c3.622,0,5.467,1.845,5.467,5.467V87.868c0,3.656-1.846,5.466-5.467,5.466H9.463a5.274,5.274,0,0,1-5.6-5.467V43.857c0-3.622,1.811-5.467,5.6-5.467Z" transform="translate(-2.834 -37.365)" fill="#315881" fill-rule="evenodd"/>
      <path id="Path_2649" data-name="Path 2649" d="M14.03,44.724a4.062,4.062,0,0,0-2.9.752,4.912,4.912,0,0,0-.649,2.938v9.533H93.44V48.414c0-2.494-1.231-3.69-3.691-3.69Z" transform="translate(-6.786 -41.17)" fill="#315881" fill-rule="evenodd"/>
      <path id="Path_2650" data-name="Path 2650" d="M10.477,129.9c0,2.527,1.2,3.827,3.553,3.827H89.749c2.46,0,3.691-1.3,3.691-3.827v-9.533H10.477Z" transform="translate(-6.786 -80.284)" fill="#dfa43b" fill-rule="evenodd"/>
      <path id="Path_2651" data-name="Path 2651" d="M50.06,78.223a1.756,1.756,0,0,1-.239,1.025L43.841,89.67l-.376-12.711H33.9L37.11,78.5a2.623,2.623,0,0,1,1.4,2.289l.888,13.5H44.08L55.288,76.959h-5.74A1.7,1.7,0,0,1,50.06,78.223Zm38.68-.752.375-.513H83.273c.2.2.273.308.273.376a6.564,6.564,0,0,1-.273.649L74.764,93.5c-.2.273-.41.513-.649.787h4.818l-.24-.513a7.347,7.347,0,0,1,.752-2.426l1.025-1.914h4.955c.206,1.606.342,2.939.41,3.93l-.41.922h5.98l-.889-1.3L88.741,77.471ZM85.186,87H81.633l3.041-5.843ZM70.425,76.07a7.879,7.879,0,0,0-4.818,1.538,3.882,3.882,0,0,0-2.289,3.418,5.485,5.485,0,0,0,1.64,4.066l3.315,2.289c1.2.855,1.777,1.606,1.777,2.29a2.081,2.081,0,0,1-.889,1.674,3.2,3.2,0,0,1-2.05.649c-1.2,0-3.246-.854-6.082-2.426v3.177a12.58,12.58,0,0,0,6.458,2.017,7.478,7.478,0,0,0,5.092-1.777,4.483,4.483,0,0,0,.512-7.484l-3.178-2.289c-1.058-.854-1.639-1.606-1.639-2.187,0-1.332.786-2.016,2.392-2.016,1.093,0,2.7.615,4.852,1.914l.65-3.315A11.386,11.386,0,0,0,70.425,76.07ZM57.714,94.283c-.069-.718-.205-1.367-.274-2.05l4.34-14.009,1.025-1.264H56.552c.069.308.137.718.205,1.025a5.327,5.327,0,0,1-.069,1.025L52.35,92.882l-.889,1.4h6.253Z" transform="translate(-18.897 -57.379)" fill="#315881" fill-rule="evenodd"/>
    </g>
  </g>
</svg>
