<svg id="Group_1288" data-name="Group 1288" xmlns="http://www.w3.org/2000/svg" xmlns:xlink="http://www.w3.org/1999/xlink" width="142.639" height="155.238" viewBox="0 0 142.639 155.238">
  <defs>
    <clipPath id="clip-path">
      <rect id="Rectangle_634" data-name="Rectangle 634" width="142.639" height="155.238" fill="none"/>
    </clipPath>
  </defs>
  <g id="Group_1285" data-name="Group 1285">
    <g id="Group_1284" data-name="Group 1284" clip-path="url(#clip-path)">
      <path id="Path_1460" data-name="Path 1460" d="M142.224,84.636A70.612,70.612,0,1,1,71.612,14.024a70.612,70.612,0,0,1,70.612,70.612" transform="translate(-0.293 -4.104)" fill="#f6f6f6"/>
      <circle id="Ellipse_189" data-name="Ellipse 189" cx="70.612" cy="70.612" r="70.612" transform="translate(0.708 9.92)" fill="none" stroke="#124b9d" stroke-miterlimit="10" stroke-width="2"/>
      <circle id="Ellipse_190" data-name="Ellipse 190" cx="65.06" cy="65.06" r="65.06" transform="translate(6.177 15.554) rotate(-0.072)" fill="none" stroke="#124b9d" stroke-linecap="round" stroke-linejoin="round" stroke-width="1" stroke-dasharray="0 9"/>
      <path id="Path_1461" data-name="Path 1461" d="M135.9,89.1A59.821,59.821,0,1,1,76.077,29.278,59.822,59.822,0,0,1,135.9,89.1" transform="translate(-4.757 -8.567)" fill="#124b9d"/>
      <path id="Path_1462" data-name="Path 1462" d="M127.2,95.235A44.989,44.989,0,1,1,82.212,50.246,44.99,44.99,0,0,1,127.2,95.235" transform="translate(-10.892 -14.703)" fill="#fff"/>
      <path id="Path_1463" data-name="Path 1463" d="M127.2,95.235A44.989,44.989,0,1,1,82.212,50.246,44.99,44.99,0,0,1,127.2,95.235Z" transform="translate(-10.892 -14.703)" fill="none" stroke="#124b9d" stroke-miterlimit="10" stroke-width="2"/>
      <path id="Path_1464" data-name="Path 1464" d="M127.2,95.235A44.989,44.989,0,1,1,82.212,50.246,44.99,44.99,0,0,1,127.2,95.235" transform="translate(-10.892 -14.703)" fill="#fff"/>
      <path id="Path_1465" data-name="Path 1465" d="M127.2,95.235A44.989,44.989,0,1,1,82.212,50.246,44.99,44.99,0,0,1,127.2,95.235Z" transform="translate(-10.892 -14.703)" fill="none" stroke="#124b9d" stroke-miterlimit="10" stroke-width="2"/>
      <path id="Path_1466" data-name="Path 1466" d="M127.2,95.235A44.989,44.989,0,1,1,82.212,50.246,44.99,44.99,0,0,1,127.2,95.235" transform="translate(-10.892 -14.703)" fill="#fff"/>
      <path id="Path_1467" data-name="Path 1467" d="M127.2,95.235A44.989,44.989,0,1,1,82.212,50.246,44.99,44.99,0,0,1,127.2,95.235Z" transform="translate(-10.892 -14.703)" fill="none" stroke="#124b9d" stroke-miterlimit="10" stroke-width="2"/>
    </g>
  </g>
  <text id="D" transform="translate(22.974 74.263) rotate(-77.509)" fill="#fff" font-size="10" font-family="Montserrat-ExtraBold, Montserrat" font-weight="800"><tspan x="0" y="0">D</tspan></text>
  <text id="E" transform="translate(24.876 65.905) rotate(-68.34)" fill="#fff" font-size="10" font-family="Montserrat-ExtraBold, Montserrat" font-weight="800"><tspan x="0" y="0">E</tspan></text>
  <text id="R" transform="translate(27.402 59.433) rotate(-59.671)" fill="#fff" font-size="10" font-family="Montserrat-ExtraBold, Montserrat" font-weight="800"><tspan x="0" y="0">R</tspan></text>
  <text id="M" transform="matrix(0.652, -0.758, 0.758, 0.652, 30.421, 52.094)" fill="#fff" font-size="9" font-family="Montserrat-ExtraBold, Montserrat" font-weight="800"><tspan x="0" y="0">M</tspan></text>
  <text id="A" transform="translate(37.691 45.265) rotate(-38.799)" fill="#fff" font-size="10" font-family="Montserrat-ExtraBold, Montserrat" font-weight="800"><tspan x="0" y="0">A</tspan></text>
  <text id="T" transform="translate(43.789 40.388) rotate(-30.503)" fill="#fff" font-size="10" font-family="Montserrat-ExtraBold, Montserrat" font-weight="800"><tspan x="0" y="0">T</tspan></text>
  <text id="O" transform="matrix(0.93, -0.367, 0.367, 0.93, 49.282, 37.022)" fill="#fff" font-size="10" font-family="Montserrat-ExtraBold, Montserrat" font-weight="800"><tspan x="0" y="0">O</tspan></text>
  <text id="L" transform="translate(57.498 33.869) rotate(-12.635)" fill="#fff" font-size="10" font-family="Montserrat-ExtraBold, Montserrat" font-weight="800"><tspan x="0" y="0">L</tspan></text>
  <text id="O-2" data-name="O" transform="translate(63.512 32.401) rotate(-3.916)" fill="#fff" font-size="10" font-family="Montserrat-ExtraBold, Montserrat" font-weight="800"><tspan x="0" y="0">O</tspan></text>
  <text id="G" transform="matrix(0.995, 0.103, -0.103, 0.995, 72.291, 31.82)" fill="#fff" font-size="10" font-family="Montserrat-ExtraBold, Montserrat" font-weight="800"><tspan x="0" y="0">G</tspan></text>
  <text id="I" transform="matrix(0.976, 0.219, -0.219, 0.976, 80.255, 32.771)" fill="#fff" font-size="10" font-family="Montserrat-ExtraBold, Montserrat" font-weight="800"><tspan x="0" y="0">I</tspan></text>
  <text id="S" transform="translate(83.67 33.443) rotate(18.702)" fill="#fff" font-size="10" font-family="Montserrat-ExtraBold, Montserrat" font-weight="800"><tspan x="0" y="0">S</tspan></text>
  <text id="T-2" data-name="T" transform="matrix(0.895, 0.445, -0.445, 0.895, 89.923, 35.545)" fill="#fff" font-size="10" font-family="Montserrat-ExtraBold, Montserrat" font-weight="800"><tspan x="0" y="0">T</tspan></text>
  <text id="_" data-name=" " transform="translate(96.87 36.873) rotate(32.143)" fill="#fff" font-size="8" font-family="Montserrat-ExtraBold, Montserrat" font-weight="800"><tspan x="0" y="0"> </tspan></text>
  <text id="T-3" data-name="T" transform="matrix(0.79, 0.613, -0.613, 0.79, 98.384, 40.074)" fill="#fff" font-size="10" font-family="Montserrat-ExtraBold, Montserrat" font-weight="800"><tspan x="0" y="0">T</tspan></text>
  <text id="E-2" data-name="E" transform="matrix(0.699, 0.715, -0.715, 0.699, 103.585, 44.08)" fill="#fff" font-size="10" font-family="Montserrat-ExtraBold, Montserrat" font-weight="800"><tspan x="0" y="0">E</tspan></text>
  <text id="S-2" data-name="S" transform="matrix(0.592, 0.806, -0.806, 0.592, 108.467, 49.078)" fill="#fff" font-size="10" font-family="Montserrat-ExtraBold, Montserrat" font-weight="800"><tspan x="0" y="0">S</tspan></text>
  <text id="T-4" data-name="T" transform="translate(112.384 54.39) rotate(61.474)" fill="#fff" font-size="10" font-family="Montserrat-ExtraBold, Montserrat" font-weight="800"><tspan x="0" y="0">T</tspan></text>
  <text id="E-3" data-name="E" transform="translate(115.546 60.155) rotate(69.502)" fill="#fff" font-size="10" font-family="Montserrat-ExtraBold, Montserrat" font-weight="800"><tspan x="0" y="0">E</tspan></text>
  <text id="D-2" data-name="D" transform="matrix(0.197, 0.98, -0.98, 0.197, 118.056, 66.643)" fill="#fff" font-size="10" font-family="Montserrat-ExtraBold, Montserrat" font-weight="800"><tspan x="0" y="0">D</tspan></text>
  <text id="D-3" data-name="D" transform="matrix(0.235, 0.972, -0.972, 0.235, 17.319, 89.008)" fill="#fff" font-size="10" font-family="Montserrat-ExtraBold, Montserrat" font-weight="800"><tspan x="0" y="0">D</tspan></text>
  <text id="E-4" data-name="E" transform="translate(19.642 98.125) rotate(67.486)" fill="#fff" font-size="10" font-family="Montserrat-ExtraBold, Montserrat" font-weight="800"><tspan x="0" y="0">E</tspan></text>
  <text id="R-2" data-name="R" transform="matrix(0.515, 0.857, -0.857, 0.515, 22.622, 105.271)" fill="#fff" font-size="10" font-family="Montserrat-ExtraBold, Montserrat" font-weight="800"><tspan x="0" y="0">R</tspan></text>
  <text id="M-2" data-name="M" transform="matrix(0.66, 0.752, -0.752, 0.66, 27.776, 112.009)" fill="#fff" font-size="9" font-family="Montserrat-ExtraBold, Montserrat" font-weight="800"><tspan x="0" y="0">M</tspan></text>
  <text id="A-2" data-name="A" transform="matrix(0.786, 0.618, -0.618, 0.786, 34.32, 120.747)" fill="#fff" font-size="10" font-family="Montserrat-ExtraBold, Montserrat" font-weight="800"><tspan x="0" y="0">A</tspan></text>
  <text id="T-5" data-name="T" transform="translate(41.087 125.977) rotate(30.062)" fill="#fff" font-size="10" font-family="Montserrat-ExtraBold, Montserrat" font-weight="800"><tspan x="0" y="0">T</tspan></text>
  <text id="O-3" data-name="O" transform="translate(47.362 129.66) rotate(21.305)" fill="#fff" font-size="10" font-family="Montserrat-ExtraBold, Montserrat" font-weight="800"><tspan x="0" y="0">O</tspan></text>
  <text id="L-2" data-name="L" transform="translate(56.342 133.011) rotate(12.585)" fill="#fff" font-size="10" font-family="Montserrat-ExtraBold, Montserrat" font-weight="800"><tspan x="0" y="0">L</tspan></text>
  <text id="O-4" data-name="O" transform="translate(63.161 134.59) rotate(3.909)" fill="#fff" font-size="10" font-family="Montserrat-ExtraBold, Montserrat" font-weight="800"><tspan x="0" y="0">O</tspan></text>
  <text id="G-2" data-name="G" transform="matrix(0.995, -0.103, 0.103, 0.995, 72.838, 135.155)" fill="#fff" font-size="10" font-family="Montserrat-ExtraBold, Montserrat" font-weight="800"><tspan x="0" y="0">G</tspan></text>
  <text id="I-2" data-name="I" transform="translate(81.402 134.105) rotate(-12.622)" fill="#fff" font-size="10" font-family="Montserrat-ExtraBold, Montserrat" font-weight="800"><tspan x="0" y="0">I</tspan></text>
  <text id="S-3" data-name="S" transform="translate(85.356 133.283) rotate(-18.544)" fill="#fff" font-size="10" font-family="Montserrat-ExtraBold, Montserrat" font-weight="800"><tspan x="0" y="0">S</tspan></text>
  <text id="T-6" data-name="T" transform="translate(92.252 130.937) rotate(-26.024)" fill="#fff" font-size="10" font-family="Montserrat-ExtraBold, Montserrat" font-weight="800"><tspan x="0" y="0">T</tspan></text>
  <text id="_2" data-name=" " transform="translate(97.57 126.004) rotate(-31.615)" fill="#fff" font-size="8" font-family="Montserrat-ExtraBold, Montserrat" font-weight="800"><tspan x="0" y="0"> </tspan></text>
  <text id="T-7" data-name="T" transform="matrix(0.796, -0.605, 0.605, 0.796, 101.636, 125.933)" fill="#fff" font-size="10" font-family="Montserrat-ExtraBold, Montserrat" font-weight="800"><tspan x="0" y="0">T</tspan></text>
  <text id="E-5" data-name="E" transform="matrix(0.705, -0.709, 0.709, 0.705, 107.438, 121.488)" fill="#fff" font-size="10" font-family="Montserrat-ExtraBold, Montserrat" font-weight="800"><tspan x="0" y="0">E</tspan></text>
  <text id="S-4" data-name="S" transform="matrix(0.6, -0.8, 0.8, 0.6, 112.829, 115.992)" fill="#fff" font-size="10" font-family="Montserrat-ExtraBold, Montserrat" font-weight="800"><tspan x="0" y="0">S</tspan></text>
  <text id="T-8" data-name="T" transform="translate(117.179 110.131) rotate(-60.73)" fill="#fff" font-size="10" font-family="Montserrat-ExtraBold, Montserrat" font-weight="800"><tspan x="0" y="0">T</tspan></text>
  <text id="E-6" data-name="E" transform="matrix(0.365, -0.931, 0.931, 0.365, 120.731, 103.742)" fill="#fff" font-size="10" font-family="Montserrat-ExtraBold, Montserrat" font-weight="800"><tspan x="0" y="0">E</tspan></text>
  <text id="D-4" data-name="D" transform="matrix(0.215, -0.977, 0.977, 0.215, 123.591, 96.491)" fill="#fff" font-size="10" font-family="Montserrat-ExtraBold, Montserrat" font-weight="800"><tspan x="0" y="0">D</tspan></text>
  <g id="Group_1287" data-name="Group 1287">
    <g id="Group_1286" data-name="Group 1286" clip-path="url(#clip-path)">
      <path id="Path_1468" data-name="Path 1468" d="M115.7,107.573a25.375,25.375,0,0,1-23.938,25.338q-.722.042-1.443.042a25.366,25.366,0,0,1-25.374-25.381c0-14.013,25.374-39.79,25.374-39.79S115.7,93.56,115.7,107.573Z" transform="translate(-19.005 -19.835)" fill="none" stroke="#124b9d" stroke-linecap="round" stroke-linejoin="round" stroke-width="2"/>
      <path id="Path_1469" data-name="Path 1469" d="M123.228,98.038A38.214,38.214,0,1,1,85.014,59.824,38.214,38.214,0,0,1,123.228,98.038Z" transform="translate(-13.694 -17.506)" fill="none" stroke="#124b9d" stroke-linecap="round" stroke-linejoin="round" stroke-width="3" stroke-dasharray="0 13.041"/>
      <path id="Path_1470" data-name="Path 1470" d="M99.44,14.98l.78,1.911a3.509,3.509,0,0,0,1.135,1.522l1.425,1.045L101.355,20.5a3.509,3.509,0,0,0-1.135,1.522l-.78,1.911-.78-1.911A3.514,3.514,0,0,0,97.525,20.5L96.1,19.457l1.425-1.045a3.514,3.514,0,0,0,1.135-1.522Z" transform="translate(-28.121 -4.383)" fill="#124b9d"/>
      <path id="Path_1471" data-name="Path 1471" d="M99.44,198.926l.78,1.911a3.509,3.509,0,0,0,1.135,1.522l1.425,1.045-1.425,1.046a3.509,3.509,0,0,0-1.135,1.522l-.78,1.911-.78-1.911a3.514,3.514,0,0,0-1.135-1.522L96.1,203.4l1.425-1.045a3.514,3.514,0,0,0,1.135-1.522Z" transform="translate(-28.121 -58.21)" fill="#124b9d"/>
      <path id="Path_1472" data-name="Path 1472" d="M195.421,111.9l-1.911.78a3.509,3.509,0,0,0-1.522,1.135l-1.045,1.425-1.046-1.425a3.508,3.508,0,0,0-1.522-1.135l-1.911-.78,1.911-.78a3.514,3.514,0,0,0,1.522-1.135l1.046-1.425,1.045,1.425a3.514,3.514,0,0,0,1.522,1.135Z" transform="translate(-54.564 -31.767)" fill="#124b9d"/>
      <path id="Path_1473" data-name="Path 1473" d="M11.474,111.9l-1.911.78a3.509,3.509,0,0,0-1.522,1.135L7,115.241l-1.045-1.425a3.509,3.509,0,0,0-1.522-1.135l-1.911-.78,1.911-.78a3.514,3.514,0,0,0,1.522-1.135L7,108.561l1.046,1.425a3.514,3.514,0,0,0,1.522,1.135Z" transform="translate(-0.737 -31.767)" fill="#124b9d"/>
      <path id="Path_1474" data-name="Path 1474" d="M28.4,113.036a1.963,1.963,0,1,1-1.964-1.964,1.964,1.964,0,0,1,1.964,1.964" transform="translate(-7.163 -32.502)" fill="#fff"/>
      <path id="Path_1475" data-name="Path 1475" d="M174.711,113.036a1.963,1.963,0,1,1-1.964-1.964,1.964,1.964,0,0,1,1.964,1.964" transform="translate(-49.975 -32.502)" fill="#fff"/>
      <path id="Path_1476" data-name="Path 1476" d="M107.09,107.961a31.739,31.739,0,0,1,2.121-4.725c-5.315,6.4-7.634,12.2-11.476,19.485H95.611l-2.788-2.81v10.712a1.148,1.148,0,0,0,1.145,1.145h9.156a1.148,1.148,0,0,0,1.145-1.145V119.406h11.217a1.148,1.148,0,0,0,1.144-1.145v-9.156a1.148,1.148,0,0,0-1.144-1.145Z" transform="translate(-27.162 -30.209)" fill="#124b9d" fill-rule="evenodd"/>
      <path id="Path_1477" data-name="Path 1477" d="M88.854,92.44h9.156a1.148,1.148,0,0,1,1.145,1.145V104.8l-8.383,10.28L86.4,110.838l-2.242,2.523,3.057,2.885H76.494a1.147,1.147,0,0,1-1.145-1.144v-9.156a1.148,1.148,0,0,1,1.145-1.145H87.71V93.585a1.148,1.148,0,0,1,1.145-1.145" transform="translate(-22.049 -27.05)" fill="#124b9d" fill-rule="evenodd"/>
    </g>
  </g>
</svg>
