<svg id="Group_1313" data-name="Group 1313" xmlns="http://www.w3.org/2000/svg" xmlns:xlink="http://www.w3.org/1999/xlink" width="140.106" height="137" viewBox="0 0 140.106 137">
  <defs>
    <clipPath id="clip-path">
      <rect id="Rectangle_642" data-name="Rectangle 642" width="140.106" height="137" fill="none"/>
    </clipPath>
  </defs>
  <g id="Group_1310" data-name="Group 1310">
    <g id="Group_1309" data-name="Group 1309" clip-path="url(#clip-path)">
      <path id="Path_1514" data-name="Path 1514" d="M133.759,83.044c1.1-4.845,6.347-9.365,6.347-14.543s-5.246-9.7-6.347-14.543c-1.138-5,1.6-11.346-.576-15.86-2.214-4.589-8.9-6.389-12.05-10.33-3.161-3.959-3.439-10.876-7.4-14.038-3.941-3.146-10.74-1.891-15.329-4.1-4.513-2.178-7.757-8.3-12.76-9.435-4.844-1.1-10.412,2.98-15.589,2.98S59.307-.911,54.463.189c-5,1.137-8.247,7.258-12.76,9.435-4.588,2.214-11.389.957-15.329,4.1-3.961,3.162-4.239,10.078-7.4,14.037C15.827,31.707,9.137,33.509,6.925,38.1c-2.18,4.516.56,10.857-.577,15.862C5.247,58.8,0,63.321,0,68.5s5.247,9.7,6.348,14.543c1.137,5-1.6,11.346.577,15.86,2.212,4.587,8.9,6.389,12.045,10.33,3.163,3.96,3.443,10.876,7.4,14.039,3.94,3.146,10.739,1.891,15.329,4.1,4.513,2.178,7.757,8.3,12.76,9.436,4.844,1.1,10.41-2.983,15.59-2.983s10.745,4.083,15.589,2.983c5-1.138,8.247-7.259,12.76-9.436,4.59-2.214,11.389-.957,15.329-4.1,3.96-3.162,4.239-10.078,7.4-14.039,3.146-3.941,9.836-5.741,12.048-10.33,2.18-4.514-.561-10.856.577-15.86" transform="translate(0 0)" fill="#0074e5"/>
      <path id="Path_1515" data-name="Path 1515" d="M93.925,120.737h0a12.048,12.048,0,0,1-3.71-.893,11.118,11.118,0,0,0-3.37-.811,10.982,10.982,0,0,0-3.371.771,9.379,9.379,0,0,1-4.772.716,9.071,9.071,0,0,1-4.1-2.79,10.712,10.712,0,0,0-2.591-2.1,10.875,10.875,0,0,0-3.319-.746,9.044,9.044,0,0,1-4.668-1.446,9.065,9.065,0,0,1-2.453-4.249,10.793,10.793,0,0,0-1.449-3.053,10.76,10.76,0,0,0-2.642-2.075,9.074,9.074,0,0,1-3.612-3.352,9,9,0,0,1-.366-4.854,10.971,10.971,0,0,0,.015-3.419,10.586,10.586,0,0,0-1.452-2.959,9.151,9.151,0,0,1-1.815-4.647,9.142,9.142,0,0,1,1.815-4.645,10.616,10.616,0,0,0,1.455-2.962,11.023,11.023,0,0,0-.017-3.417,9.013,9.013,0,0,1,.366-4.857A9.075,9.075,0,0,1,57.481,65.6a10.761,10.761,0,0,0,2.642-2.076,10.8,10.8,0,0,0,1.449-3.053,9.076,9.076,0,0,1,2.454-4.248,9.044,9.044,0,0,1,4.667-1.446,10.829,10.829,0,0,0,3.318-.744A10.729,10.729,0,0,0,74.6,51.942a9.073,9.073,0,0,1,4.1-2.788,9.4,9.4,0,0,1,4.772.725,11.044,11.044,0,0,0,3.371.784,11.037,11.037,0,0,0,3.368-.784,9.4,9.4,0,0,1,4.775-.725,9.084,9.084,0,0,1,4.1,2.788,10.688,10.688,0,0,0,2.588,2.094,10.852,10.852,0,0,0,3.319.744,9.052,9.052,0,0,1,4.667,1.446,9.078,9.078,0,0,1,2.453,4.245,10.834,10.834,0,0,0,1.45,3.056A10.7,10.7,0,0,0,116.2,65.6a9.082,9.082,0,0,1,3.613,3.35,8.992,8.992,0,0,1,.364,4.851,10.942,10.942,0,0,0-.015,3.421,10.582,10.582,0,0,0,1.452,2.965,9.13,9.13,0,0,1,1.814,4.641,9.143,9.143,0,0,1-1.814,4.645,10.506,10.506,0,0,0-1.452,2.961,10.947,10.947,0,0,0,.015,3.422,8.99,8.99,0,0,1-.364,4.851,9.079,9.079,0,0,1-3.613,3.351,10.764,10.764,0,0,0-2.642,2.076,10.834,10.834,0,0,0-1.45,3.055,9.062,9.062,0,0,1-2.453,4.245,9.022,9.022,0,0,1-4.667,1.447,10.863,10.863,0,0,0-3.318.744,10.666,10.666,0,0,0-2.589,2.095c-1.206,1.187-2.454,2.469-4.1,2.841a4.791,4.791,0,0,1-1.059.17m24.588-20.653a7.892,7.892,0,0,0,.228-4.075,12.117,12.117,0,0,1,.013-3.89,11.746,11.746,0,0,1,1.632-3.4,7.991,7.991,0,0,0,1.6-3.884,8,8,0,0,0-1.6-3.882,11.769,11.769,0,0,1-1.633-3.4,12.121,12.121,0,0,1-.013-3.891,7.891,7.891,0,0,0-.226-4.074,7.988,7.988,0,0,0-3.091-2.76,11.938,11.938,0,0,1-2.994-2.393,12.011,12.011,0,0,1-1.681-3.465,7.96,7.96,0,0,0-1.994-3.609,7.952,7.952,0,0,0-3.941-1.139,12.047,12.047,0,0,1-3.771-.878,11.812,11.812,0,0,1-2.973-2.365,7.962,7.962,0,0,0-3.4-2.408,8.119,8.119,0,0,0-3.989.685,12.241,12.241,0,0,1-3.834.86,12.248,12.248,0,0,1-3.836-.86,8.13,8.13,0,0,0-3.988-.685,7.955,7.955,0,0,0-3.4,2.407,11.8,11.8,0,0,1-2.977,2.367,12.01,12.01,0,0,1-3.768.878,7.941,7.941,0,0,0-3.942,1.139,7.934,7.934,0,0,0-1.994,3.609,11.968,11.968,0,0,1-1.68,3.465,11.907,11.907,0,0,1-2.993,2.393,7.924,7.924,0,0,0-3.089,2.759,7.911,7.911,0,0,0-.231,4.079,12.154,12.154,0,0,1-.011,3.887,11.71,11.71,0,0,1-1.633,3.4,8,8,0,0,0-1.6,3.885,8.013,8.013,0,0,0,1.6,3.888,11.733,11.733,0,0,1,1.633,3.4,12.158,12.158,0,0,1,.011,3.888,7.907,7.907,0,0,0,.231,4.078,7.924,7.924,0,0,0,3.089,2.762,11.907,11.907,0,0,1,2.993,2.393,11.942,11.942,0,0,1,1.679,3.463,7.941,7.941,0,0,0,2,3.609,7.939,7.939,0,0,0,3.942,1.139,12.053,12.053,0,0,1,3.771.879,11.848,11.848,0,0,1,2.975,2.367,7.949,7.949,0,0,0,3.4,2.407,8.144,8.144,0,0,0,3.99-.683,12.243,12.243,0,0,1,3.834-.86,12.773,12.773,0,0,1,3.834,1.119,11.874,11.874,0,0,0,3.246,1.022h0c.264,0,.5-.286.739-.338,1.245-.282,2.294-1.444,3.406-2.538a12.1,12.1,0,0,1,2.975-2.431,12.037,12.037,0,0,1,3.769-.91,7.937,7.937,0,0,0,3.942-1.157,7.988,7.988,0,0,0,1.993-3.615,12.05,12.05,0,0,1,1.681-3.47,12,12,0,0,1,2.994-2.4,7.943,7.943,0,0,0,3.09-2.762" transform="translate(-16.788 -16.386)" fill="#fff"/>
      <path id="Path_1516" data-name="Path 1516" d="M93.807,120.852h0a10.8,10.8,0,0,1-3.412-.778l-.373-.128-.232-.079a10.043,10.043,0,0,0-3.063-.72,10.97,10.97,0,0,0-3.3.758,9.6,9.6,0,0,1-4.9.723,9.215,9.215,0,0,1-4.2-2.841l-.044-.044a10.432,10.432,0,0,0-2.5-2.02A10.725,10.725,0,0,0,68.546,115a9.2,9.2,0,0,1-4.785-1.495,9.229,9.229,0,0,1-2.526-4.351l0-.011a10.644,10.644,0,0,0-1.408-2.976,10.608,10.608,0,0,0-2.584-2.023l-.017-.011a9.218,9.218,0,0,1-3.682-3.437,9.154,9.154,0,0,1-.388-4.971v-.008a10.784,10.784,0,0,0,.02-3.344,10.424,10.424,0,0,0-1.42-2.882l-.007-.013A9.3,9.3,0,0,1,49.9,84.715a9.3,9.3,0,0,1,1.845-4.761l0-.006a10.441,10.441,0,0,0,1.426-2.892,10.828,10.828,0,0,0-.022-3.341v-.008a9.166,9.166,0,0,1,.388-4.974,9.239,9.239,0,0,1,3.693-3.441l.009-.006a10.61,10.61,0,0,0,2.58-2.021,10.615,10.615,0,0,0,1.406-2.972l.005-.015a9.242,9.242,0,0,1,2.528-4.351,9.211,9.211,0,0,1,4.785-1.495h.009a10.677,10.677,0,0,0,3.236-.722,10.431,10.431,0,0,0,2.5-2.023l.029-.029a9.239,9.239,0,0,1,4.209-2.848,9.5,9.5,0,0,1,4.9.731l.013,0a10.859,10.859,0,0,0,3.283.767,10.849,10.849,0,0,0,3.288-.77l.006,0a9.5,9.5,0,0,1,4.9-.731,9.243,9.243,0,0,1,4.207,2.845l.014.014a10.474,10.474,0,0,0,2.514,2.04,10.7,10.7,0,0,0,3.235.721h.013a9.21,9.21,0,0,1,4.783,1.495,9.237,9.237,0,0,1,2.526,4.345,10.711,10.711,0,0,0,1.414,2.993,10.55,10.55,0,0,0,2.585,2.024,9.257,9.257,0,0,1,3.7,3.446,9.157,9.157,0,0,1,.386,4.975v.011a10.786,10.786,0,0,0-.019,3.336,10.41,10.41,0,0,0,1.424,2.895,9.3,9.3,0,0,1,1.849,4.764,9.3,9.3,0,0,1-1.844,4.759l0,.008a10.345,10.345,0,0,0-1.424,2.89,10.8,10.8,0,0,0,.019,3.337v.01a9.153,9.153,0,0,1-.386,4.976,9.24,9.24,0,0,1-3.7,3.446,10.6,10.6,0,0,0-2.585,2.025,10.654,10.654,0,0,0-1.41,2.984,9.242,9.242,0,0,1-2.529,4.353A9.186,9.186,0,0,1,104.9,115a10.707,10.707,0,0,0-3.246.723,10.483,10.483,0,0,0-2.522,2.046l-.151.149a8.951,8.951,0,0,1-4.065,2.759l-.113.026a4.429,4.429,0,0,1-1,.149m-7.083-2.171a10.374,10.374,0,0,1,3.214.745l.231.079.375.128a10.451,10.451,0,0,0,3.26.752h0a4.021,4.021,0,0,0,.893-.137l.115-.027a8.607,8.607,0,0,0,3.842-2.636l.152-.15a10.8,10.8,0,0,1,2.646-2.133,10.979,10.979,0,0,1,3.392-.766,8.855,8.855,0,0,0,4.549-1.4A8.9,8.9,0,0,0,111.773,109a11,11,0,0,1,1.486-3.121,10.9,10.9,0,0,1,2.7-2.127,8.9,8.9,0,0,0,3.529-3.256,8.82,8.82,0,0,0,.342-4.725v-.011a11.1,11.1,0,0,1-.009-3.489,10.678,10.678,0,0,1,1.482-3.031l.005-.008a8.958,8.958,0,0,0,1.774-4.514A8.957,8.957,0,0,0,121.3,80.2a10.726,10.726,0,0,1-1.484-3.039,11.084,11.084,0,0,1,.009-3.486v-.011a8.831,8.831,0,0,0-.342-4.726,8.917,8.917,0,0,0-3.528-3.254,10.874,10.874,0,0,1-2.7-2.128,11.008,11.008,0,0,1-1.486-3.122,8.909,8.909,0,0,0-2.38-4.143,8.865,8.865,0,0,0-4.548-1.4l-.013,0a10.984,10.984,0,0,1-3.38-.764A10.771,10.771,0,0,1,98.814,52L98.8,51.99a8.9,8.9,0,0,0-3.986-2.726,9.154,9.154,0,0,0-4.648.718l-.006,0a11.183,11.183,0,0,1-3.437.794,11.152,11.152,0,0,1-3.433-.792l-.013,0a9.145,9.145,0,0,0-4.645-.718,8.881,8.881,0,0,0-3.983,2.724l-.032.031a10.733,10.733,0,0,1-2.624,2.11,10.983,10.983,0,0,1-3.382.764H68.6a8.863,8.863,0,0,0-4.551,1.4,8.9,8.9,0,0,0-2.379,4.143l-.006.017a10.926,10.926,0,0,1-1.48,3.1,10.91,10.91,0,0,1-2.694,2.123l-.009.006a8.9,8.9,0,0,0-3.523,3.251,8.832,8.832,0,0,0-.344,4.724v.008a11.13,11.13,0,0,1,.013,3.492,10.749,10.749,0,0,1-1.484,3.033l0,.006a8.961,8.961,0,0,0-1.776,4.516,8.961,8.961,0,0,0,1.776,4.518l.008.013a10.736,10.736,0,0,1,1.478,3.023,11.092,11.092,0,0,1-.011,3.5v.007a8.82,8.82,0,0,0,.344,4.721,8.879,8.879,0,0,0,3.513,3.248l.015.009a10.916,10.916,0,0,1,2.7,2.126,10.962,10.962,0,0,1,1.482,3.109l0,.011a8.89,8.89,0,0,0,2.379,4.145,8.864,8.864,0,0,0,4.55,1.4A11.036,11.036,0,0,1,72,115.3a10.718,10.718,0,0,1,2.618,2.107l.045.044a8.876,8.876,0,0,0,3.974,2.719,9.248,9.248,0,0,0,4.645-.71,11.288,11.288,0,0,1,3.445-.784m7.083,1.135a6.326,6.326,0,0,1-2.283-.633c-.339-.139-.689-.282-1.039-.4s-.69-.253-1.028-.386a7.8,7.8,0,0,0-2.733-.721,12.046,12.046,0,0,0-3.758.848,8.225,8.225,0,0,1-4.117.691,8.07,8.07,0,0,1-3.5-2.458l-.018-.017a11.677,11.677,0,0,0-2.905-2.317,11.856,11.856,0,0,0-3.7-.857h-.005a8.071,8.071,0,0,1-4.054-1.189,8.08,8.08,0,0,1-2.067-3.706l-.006-.017a11.743,11.743,0,0,0-1.638-3.386,11.721,11.721,0,0,0-2.936-2.343,8.081,8.081,0,0,1-3.174-2.857,8.023,8.023,0,0,1-.254-4.185l0-.017a11.94,11.94,0,0,0-.007-3.812,11.545,11.545,0,0,0-1.6-3.326l0-.005a8.158,8.158,0,0,1-1.63-4,8.15,8.15,0,0,1,1.631-4l0,0a11.549,11.549,0,0,0,1.6-3.33,11.928,11.928,0,0,0,.007-3.81l0-.018a8.025,8.025,0,0,1,.255-4.187,8.065,8.065,0,0,1,3.174-2.854,11.725,11.725,0,0,0,2.935-2.341,11.761,11.761,0,0,0,1.639-3.388l.006-.015a8.071,8.071,0,0,1,2.066-3.708,8.094,8.094,0,0,1,4.055-1.189,11.875,11.875,0,0,0,3.7-.856,11.637,11.637,0,0,0,2.911-2.319l.017-.017a8.072,8.072,0,0,1,3.5-2.456,8.178,8.178,0,0,1,4.114.691,12.072,12.072,0,0,0,3.761.848,12.068,12.068,0,0,0,3.754-.846l.005,0a8.183,8.183,0,0,1,4.115-.691,8.1,8.1,0,0,1,3.514,2.466l0,0a11.641,11.641,0,0,0,2.91,2.322,11.9,11.9,0,0,0,3.7.856,8.093,8.093,0,0,1,4.058,1.189,8.1,8.1,0,0,1,2.068,3.712,11.829,11.829,0,0,0,1.643,3.4,11.72,11.72,0,0,0,2.932,2.339l.005,0a8.13,8.13,0,0,1,3.174,2.855,8.019,8.019,0,0,1,.25,4.2,11.939,11.939,0,0,0,.008,3.818,11.56,11.56,0,0,0,1.6,3.323l.007.011a8.139,8.139,0,0,1,1.632,4,8.139,8.139,0,0,1-1.634,4.007,11.554,11.554,0,0,0-1.6,3.329,11.937,11.937,0,0,0-.009,3.815,8.036,8.036,0,0,1-.25,4.2,8.084,8.084,0,0,1-3.174,2.857,11.826,11.826,0,0,0-2.937,2.344,11.873,11.873,0,0,0-1.642,3.4l-.01.027a8.066,8.066,0,0,1-2.058,3.695,8.124,8.124,0,0,1-4.059,1.207,11.764,11.764,0,0,0-3.7.888,10.654,10.654,0,0,0-2.659,2.136l-.254.251-.36.356a7.241,7.241,0,0,1-3.158,2.243.892.892,0,0,0-.233.125,1.037,1.037,0,0,1-.557.218m-7.083-2.608a8.151,8.151,0,0,1,2.9.754c.332.131.675.266,1.006.378.364.123.722.27,1.067.411a6.006,6.006,0,0,0,2.1.6.72.72,0,0,0,.306-.144,1.216,1.216,0,0,1,.384-.188,6.95,6.95,0,0,0,2.932-2.118c.12-.119.24-.24.361-.358l.253-.25a10.964,10.964,0,0,1,2.785-2.224,12.3,12.3,0,0,1,3.841-.931,7.822,7.822,0,0,0,3.825-1.108,7.775,7.775,0,0,0,1.911-3.488l.009-.024a8.922,8.922,0,0,1,4.765-5.981,7.8,7.8,0,0,0,3.008-2.67,7.74,7.74,0,0,0,.206-3.95,12.267,12.267,0,0,1,.018-3.966,11.891,11.891,0,0,1,1.66-3.471,7.836,7.836,0,0,0,1.564-3.762,7.832,7.832,0,0,0-1.563-3.759l-.007-.011a11.913,11.913,0,0,1-1.654-3.464,12.267,12.267,0,0,1-.018-3.966,7.732,7.732,0,0,0-.206-3.948,7.827,7.827,0,0,0-3-2.664l-.008-.005a12.068,12.068,0,0,1-3.045-2.441,12.16,12.16,0,0,1-1.717-3.531,7.811,7.811,0,0,0-1.921-3.5,7.8,7.8,0,0,0-3.824-1.091,12.255,12.255,0,0,1-3.844-.9,11.993,11.993,0,0,1-3.035-2.411,7.815,7.815,0,0,0-3.293-2.347,7.885,7.885,0,0,0-3.862.679l-.005,0a12.413,12.413,0,0,1-3.9.87,12.406,12.406,0,0,1-3.908-.872,8.027,8.027,0,0,0-3.864-.679,7.784,7.784,0,0,0-3.278,2.334l-.017.017a11.982,11.982,0,0,1-3.035,2.407,12.2,12.2,0,0,1-3.84.9,7.8,7.8,0,0,0-3.826,1.091,7.769,7.769,0,0,0-1.919,3.5l-.005.015a12.134,12.134,0,0,1-1.714,3.521A12.091,12.091,0,0,1,58.27,66.9a7.769,7.769,0,0,0-3,2.663,7.729,7.729,0,0,0-.21,3.938v.017a12.272,12.272,0,0,1-.015,3.961,11.924,11.924,0,0,1-1.662,3.472l0,0a7.844,7.844,0,0,0-1.562,3.758,7.856,7.856,0,0,0,1.561,3.76l0,.005a11.9,11.9,0,0,1,1.662,3.468,12.285,12.285,0,0,1,.015,3.963v.017a7.72,7.72,0,0,0,.21,3.936,7.787,7.787,0,0,0,3,2.667,12.062,12.062,0,0,1,3.049,2.444,12.069,12.069,0,0,1,1.713,3.519l.006.017a7.78,7.78,0,0,0,1.919,3.5,7.782,7.782,0,0,0,3.82,1.09h.005a12.216,12.216,0,0,1,3.844.9,12,12,0,0,1,3.03,2.4l.018.018a7.776,7.776,0,0,0,3.279,2.335,8.042,8.042,0,0,0,3.863-.677,12.394,12.394,0,0,1,3.909-.873" transform="translate(-16.671 -16.269)" fill="#fff"/>
    </g>
  </g>
  <text id="N" transform="translate(24.242 57.935) rotate(-71.662)" fill="#fff" font-size="9" font-family="SegoeUI, Segoe UI"><tspan x="0" y="0">N</tspan></text>
  <text id="O" transform="translate(26.971 49.71) rotate(-61.132)" fill="#fff" font-size="9" font-family="SegoeUI, Segoe UI"><tspan x="0" y="0">O</tspan></text>
  <text id="_" data-name=" " transform="matrix(0.588, -0.809, 0.809, 0.588, 30.455, 41.683)" fill="#fff" font-size="8" font-family="SegoeUI, Segoe UI"><tspan x="0" y="0"> </tspan></text>
  <text id="H" transform="matrix(0.682, -0.731, 0.731, 0.682, 33.007, 39.604)" fill="#fff" font-size="9" font-family="SegoeUI, Segoe UI"><tspan x="0" y="0">H</tspan></text>
  <text id="A" transform="translate(38.714 33.533) rotate(-37.274)" fill="#fff" font-size="9" font-family="SegoeUI, Segoe UI"><tspan x="0" y="0">A</tspan></text>
  <text id="R" transform="translate(44.732 28.951) rotate(-27.986)" fill="#fff" font-size="9" font-family="SegoeUI, Segoe UI"><tspan x="0" y="0">R</tspan></text>
  <text id="S" transform="translate(51.092 24.485) rotate(-19.16)" fill="#fff" font-size="8" font-family="SegoeUI, Segoe UI"><tspan x="0" y="0">S</tspan></text>
  <text id="H-2" data-name="H" transform="translate(57.815 23.076) rotate(-9.093)" fill="#fff" font-size="9" font-family="SegoeUI, Segoe UI"><tspan x="0" y="0">H</tspan></text>
  <text id="_2" data-name=" " transform="translate(65.973 20.852) rotate(-3.048)" fill="#fff" font-size="8" font-family="SegoeUI, Segoe UI"><tspan x="0" y="0"> </tspan></text>
  <text id="C" transform="translate(69.214 21.56) rotate(3.469)" fill="#fff" font-size="9" font-family="SegoeUI, Segoe UI"><tspan x="0" y="0">C</tspan></text>
  <text id="H-3" data-name="H" transform="matrix(0.974, 0.227, -0.227, 0.974, 76.617, 21.968)" fill="#fff" font-size="9" font-family="SegoeUI, Segoe UI"><tspan x="0" y="0">H</tspan></text>
  <text id="E" transform="translate(85.081 22.994) rotate(22.384)" fill="#fff" font-size="8" font-family="SegoeUI, Segoe UI"><tspan x="0" y="0">E</tspan></text>
  <text id="M" transform="matrix(0.846, 0.534, -0.534, 0.846, 91.022, 26.399)" fill="#fff" font-size="9" font-family="SegoeUI, Segoe UI"><tspan x="0" y="0">M</tspan></text>
  <text id="I" transform="translate(99.568 30.806) rotate(41.302)" fill="#fff" font-size="8" font-family="SegoeUI, Segoe UI"><tspan x="0" y="0">I</tspan></text>
  <text id="C-2" data-name="C" transform="translate(102.945 35.002) rotate(48.954)" fill="#fff" font-size="9" font-family="SegoeUI, Segoe UI"><tspan x="0" y="0">C</tspan></text>
  <text id="A-2" data-name="A" transform="matrix(0.528, 0.849, -0.849, 0.528, 107.816, 40.582)" fill="#fff" font-size="9" font-family="SegoeUI, Segoe UI"><tspan x="0" y="0">A</tspan></text>
  <text id="L" transform="translate(111.779 47.027) rotate(66.801)" fill="#fff" font-size="9" font-family="SegoeUI, Segoe UI"><tspan x="0" y="0">L</tspan></text>
  <text id="S-2" data-name="S" transform="translate(115.322 52.756) rotate(74.948)" fill="#fff" font-size="8" font-family="SegoeUI, Segoe UI"><tspan x="0" y="0">S</tspan></text>
  <text id="N-2" data-name="N" transform="translate(20.282 83.998) rotate(70.435)" fill="#fff" font-size="9" font-family="SegoeUI, Segoe UI"><tspan x="0" y="0">N</tspan></text>
  <text id="O-2" data-name="O" transform="translate(23.435 92.703) rotate(59.824)" fill="#fff" font-size="9" font-family="SegoeUI, Segoe UI"><tspan x="0" y="0">O</tspan></text>
  <text id="_3" data-name=" " transform="translate(28.928 99.783) rotate(52.574)" fill="#fff" font-size="8" font-family="SegoeUI, Segoe UI"><tspan x="0" y="0"> </tspan></text>
  <text id="H-4" data-name="H" transform="matrix(0.7, 0.714, -0.714, 0.7, 30.201, 103.314)" fill="#fff" font-size="9" font-family="SegoeUI, Segoe UI"><tspan x="0" y="0">H</tspan></text>
  <text id="A-3" data-name="A" transform="translate(36.484 109.605) rotate(35.874)" fill="#fff" font-size="9" font-family="SegoeUI, Segoe UI"><tspan x="0" y="0">A</tspan></text>
  <text id="R-2" data-name="R" transform="matrix(0.893, 0.449, -0.449, 0.893, 43.054, 114.308)" fill="#fff" font-size="9" font-family="SegoeUI, Segoe UI"><tspan x="0" y="0">R</tspan></text>
  <text id="S-3" data-name="S" transform="matrix(0.951, 0.308, -0.308, 0.951, 50.6, 116.923)" fill="#fff" font-size="8" font-family="SegoeUI, Segoe UI"><tspan x="0" y="0">S</tspan></text>
  <text id="H-5" data-name="H" transform="translate(57.26 120.15) rotate(8.63)" fill="#fff" font-size="9" font-family="SegoeUI, Segoe UI"><tspan x="0" y="0">H</tspan></text>
  <text id="_4" data-name=" " transform="matrix(1, 0.027, -0.027, 1, 65.936, 120.278)" fill="#fff" font-size="8" font-family="SegoeUI, Segoe UI"><tspan x="0" y="0"> </tspan></text>
  <text id="C-3" data-name="C" transform="translate(69.465 121.473) rotate(-4.946)" fill="#fff" font-size="9" font-family="SegoeUI, Segoe UI"><tspan x="0" y="0">C</tspan></text>
  <text id="H-6" data-name="H" transform="translate(77.371 120.784) rotate(-14.395)" fill="#fff" font-size="9" font-family="SegoeUI, Segoe UI"><tspan x="0" y="0">H</tspan></text>
  <text id="E-2" data-name="E" transform="translate(85.525 117.566) rotate(-23.646)" fill="#fff" font-size="8" font-family="SegoeUI, Segoe UI"><tspan x="0" y="0">E</tspan></text>
  <text id="M-2" data-name="M" transform="matrix(0.833, -0.554, 0.554, 0.833, 92.695, 115.59)" fill="#fff" font-size="9" font-family="SegoeUI, Segoe UI"><tspan x="0" y="0">M</tspan></text>
  <text id="I-2" data-name="I" transform="translate(100.176 109.191) rotate(-42.751)" fill="#fff" font-size="8" font-family="SegoeUI, Segoe UI"><tspan x="0" y="0">I</tspan></text>
  <text id="C-4" data-name="C" transform="matrix(0.637, -0.771, 0.771, 0.637, 105.116, 106.05)" fill="#fff" font-size="9" font-family="SegoeUI, Segoe UI"><tspan x="0" y="0">C</tspan></text>
  <text id="A-4" data-name="A" transform="matrix(0.507, -0.862, 0.862, 0.507, 110.148, 99.911)" fill="#fff" font-size="9" font-family="SegoeUI, Segoe UI"><tspan x="0" y="0">A</tspan></text>
  <text id="L-2" data-name="L" transform="matrix(0.373, -0.928, 0.928, 0.373, 114.166, 92.947)" fill="#fff" font-size="9" font-family="SegoeUI, Segoe UI"><tspan x="0" y="0">L</tspan></text>
  <text id="S-4" data-name="S" transform="matrix(0.238, -0.971, 0.971, 0.238, 115.787, 86.211)" fill="#fff" font-size="8" font-family="SegoeUI, Segoe UI"><tspan x="0" y="0">S</tspan></text>
  <g id="Group_1312" data-name="Group 1312">
    <g id="Group_1311" data-name="Group 1311" clip-path="url(#clip-path)">
      <path id="Path_1517" data-name="Path 1517" d="M105.753,69.885v0Z" transform="translate(-35.33 -23.347)" fill="#fefffd"/>
      <path id="Path_1518" data-name="Path 1518" d="M22.337,104.215l.732-2.28a.589.589,0,0,0-.216-.658l-1.942-1.4a.59.59,0,0,1,.343-1.067l2.395-.008a.59.59,0,0,0,.559-.41l.732-2.28a.589.589,0,0,1,1.121,0l.748,2.275a.589.589,0,0,0,.561.406l2.395-.009a.589.589,0,0,1,.35,1.065l-1.932,1.414a.59.59,0,0,0-.212.659l.748,2.275a.589.589,0,0,1-.9.662l-1.942-1.4a.59.59,0,0,0-.693,0l-1.932,1.414a.589.589,0,0,1-.909-.655" transform="translate(-6.904 -31.973)" fill="#fefffd"/>
      <path id="Path_1519" data-name="Path 1519" d="M176.223,104.229l.732-2.28a.589.589,0,0,0-.216-.658l-1.942-1.4a.589.589,0,0,1,.343-1.067l2.395-.008a.59.59,0,0,0,.559-.41l.732-2.28a.589.589,0,0,1,1.121,0l.748,2.275a.589.589,0,0,0,.561.406l2.395-.009a.589.589,0,0,1,.35,1.065l-1.933,1.414a.59.59,0,0,0-.212.659l.748,2.275a.589.589,0,0,1-.9.662l-1.942-1.4a.59.59,0,0,0-.693,0l-1.932,1.414a.589.589,0,0,1-.909-.655" transform="translate(-58.314 -31.977)" fill="#fefffd"/>
      <path id="Path_1520" data-name="Path 1520" d="M103.441,109.9a.894.894,0,1,0,.894-.887.89.89,0,0,0-.894.887" transform="translate(-34.558 -36.42)" fill="#fff"/>
      <path id="Path_1521" data-name="Path 1521" d="M103.441,109.9a.894.894,0,1,0,.894-.887A.89.89,0,0,0,103.441,109.9Z" transform="translate(-34.558 -36.42)" fill="none" stroke="#fff" stroke-miterlimit="10" stroke-width="0.5"/>
      <path id="Path_1522" data-name="Path 1522" d="M95.2,116.383a1.246,1.246,0,1,0,1.247-1.237,1.241,1.241,0,0,0-1.247,1.237" transform="translate(-31.805 -38.468)" fill="#fff"/>
      <path id="Path_1523" data-name="Path 1523" d="M95.2,116.383a1.246,1.246,0,1,0,1.247-1.237A1.241,1.241,0,0,0,95.2,116.383Z" transform="translate(-31.805 -38.468)" fill="none" stroke="#fff" stroke-miterlimit="10" stroke-width="0.5"/>
      <path id="Path_1524" data-name="Path 1524" d="M106.512,122.977a1.632,1.632,0,1,0,1.631-1.619,1.625,1.625,0,0,0-1.631,1.619" transform="translate(-35.584 -40.543)" fill="#fff"/>
      <path id="Path_1525" data-name="Path 1525" d="M106.512,122.977a1.632,1.632,0,1,0,1.631-1.619A1.625,1.625,0,0,0,106.512,122.977Z" transform="translate(-35.584 -40.543)" fill="none" stroke="#fff" stroke-miterlimit="10" stroke-width="0.5"/>
      <path id="Path_1526" data-name="Path 1526" d="M110.09,104.809l-.007-.019-.162-.431a.535.535,0,1,0-1,.378l.156.414.006.017.657,1.751a1.711,1.711,0,0,1-.19,1.6,1.783,1.783,0,0,1-1.468.766H84.053a1.784,1.784,0,0,1-1.467-.765,1.708,1.708,0,0,1-.192-1.594l5.885-15.758.2-.1a8.018,8.018,0,0,1,7.356,0,8.244,8.244,0,0,0,4.142,1,8.055,8.055,0,0,0,3.868-.867l.364.971a.535.535,0,0,0,1-.376l-.566-1.509v0l-3.476-9.267a4.84,4.84,0,0,1-.292-1.672l.006-3.917c0-1.391,0-2.613.006-3.627l1.6-.006a2.625,2.625,0,0,0,2.621-2.612,2.565,2.565,0,0,0-.76-1.829,2.6,2.6,0,0,0-1.848-.762H102.5l-12.852.049a2.624,2.624,0,0,0-2.62,2.612,2.568,2.568,0,0,0,.759,1.829,2.6,2.6,0,0,0,1.848.762h.007l1.6-.005v.339c0,.533,0,1.225-.005,2.044,0,1.02,0,2.237-.006,3.591l0,1.544A4.858,4.858,0,0,1,90.934,81l-3.582,9.591-5.96,15.961a2.765,2.765,0,0,0,.315,2.578,2.854,2.854,0,0,0,2.346,1.225h24.028a2.854,2.854,0,0,0,2.347-1.226,2.766,2.766,0,0,0,.313-2.581ZM91.937,81.365a5.937,5.937,0,0,0,.354-2.007l0-1.545c0-1.353,0-2.57.007-3.591,0-.819,0-1.51,0-2.043l0-.877a.534.534,0,0,0-.537-.535l-2.138.007h0a1.535,1.535,0,0,1-1.092-.45,1.506,1.506,0,0,1-.445-1.076,1.552,1.552,0,0,1,1.554-1.538L102.5,67.66a1.53,1.53,0,0,1,1.1.449,1.507,1.507,0,0,1,.445,1.076,1.552,1.552,0,0,1-1.554,1.538l-2.137.007a.535.535,0,0,0-.533.534c0,1.109,0,2.516-.007,4.159L99.8,79.341a5.93,5.93,0,0,0,.358,2.045l3.3,8.809a7.1,7.1,0,0,1-3.491.8A7.248,7.248,0,0,1,96.3,90.1a8.25,8.25,0,0,0-4.143-1,8.021,8.021,0,0,0-3.344.63Z" transform="translate(-27.13 -22.247)" fill="#fff"/>
      <path id="Path_1527" data-name="Path 1527" d="M110.09,104.809l-.007-.019-.162-.431a.535.535,0,1,0-1,.378l.156.414.006.017.657,1.751a1.711,1.711,0,0,1-.19,1.6,1.783,1.783,0,0,1-1.468.766H84.053a1.784,1.784,0,0,1-1.467-.765,1.708,1.708,0,0,1-.192-1.594l5.885-15.758.2-.1a8.018,8.018,0,0,1,7.356,0,8.244,8.244,0,0,0,4.142,1,8.055,8.055,0,0,0,3.868-.867l.364.971a.535.535,0,0,0,1-.376l-.566-1.509v0l-3.476-9.267a4.84,4.84,0,0,1-.292-1.672l.006-3.917c0-1.391,0-2.613.006-3.627l1.6-.006a2.625,2.625,0,0,0,2.621-2.612,2.565,2.565,0,0,0-.76-1.829,2.6,2.6,0,0,0-1.848-.762H102.5l-12.852.049a2.624,2.624,0,0,0-2.62,2.612,2.568,2.568,0,0,0,.759,1.829,2.6,2.6,0,0,0,1.848.762h.007l1.6-.005v.339c0,.533,0,1.225-.005,2.044,0,1.02,0,2.237-.006,3.591l0,1.544A4.858,4.858,0,0,1,90.934,81l-3.582,9.591-5.96,15.961a2.765,2.765,0,0,0,.315,2.578,2.854,2.854,0,0,0,2.346,1.225h24.028a2.854,2.854,0,0,0,2.347-1.226,2.766,2.766,0,0,0,.313-2.581ZM91.937,81.365a5.937,5.937,0,0,0,.354-2.007l0-1.545c0-1.353,0-2.57.007-3.591,0-.819,0-1.51,0-2.043l0-.877a.534.534,0,0,0-.537-.535l-2.138.007h0a1.535,1.535,0,0,1-1.092-.45,1.506,1.506,0,0,1-.445-1.076,1.552,1.552,0,0,1,1.554-1.538L102.5,67.66a1.53,1.53,0,0,1,1.1.449,1.507,1.507,0,0,1,.445,1.076,1.552,1.552,0,0,1-1.554,1.538l-2.137.007a.535.535,0,0,0-.533.534c0,1.109,0,2.516-.007,4.159L99.8,79.341a5.93,5.93,0,0,0,.358,2.045l3.3,8.809a7.1,7.1,0,0,1-3.491.8A7.248,7.248,0,0,1,96.3,90.1a8.25,8.25,0,0,0-4.143-1,8.021,8.021,0,0,0-3.344.63Z" transform="translate(-27.13 -22.247)" fill="none" stroke="#fff" stroke-miterlimit="10" stroke-width="0.5"/>
      <path id="Path_1528" data-name="Path 1528" d="M134.917,102.269l0,0,.027-.035.006-.009.016-.024.009-.015,0-.007c.007-.012.013-.023.019-.036l.01-.025c.005-.013.009-.025.013-.037a.185.185,0,0,0,.008-.027c0-.013.006-.027.009-.04l0-.027c0-.019,0-.037,0-.057v-.011a.532.532,0,0,0-.114-.329h0c-.009-.012-.019-.023-.029-.034l-.005-.006-.03-.029-.009-.008-.031-.024-.01-.007a.428.428,0,0,0-.037-.023l-.007,0a.563.563,0,0,0-.107-.045c-.36-.117-.724-.249-1.11-.389A18.765,18.765,0,0,0,129,99.834a11.057,11.057,0,0,0-6.2.865,9.327,9.327,0,0,0-4.707,6.031.534.534,0,0,0,.357.667.522.522,0,0,0,.155.023.535.535,0,0,0,.511-.38,8.3,8.3,0,0,1,4.156-5.381,10.013,10.013,0,0,1,5.61-.762,17.877,17.877,0,0,1,4.314,1.123l0,0a22.913,22.913,0,0,1-6.555,1.917c-5.388.775-8.322,6.033-9.835,10.306a.535.535,0,0,0,.326.683.525.525,0,0,0,.178.031.534.534,0,0,0,.5-.357c1.414-4,4.12-8.906,8.985-9.605a26.5,26.5,0,0,0,5.375-1.367,9.164,9.164,0,0,0-1.2,2.15l-.027.073c-.557,1.486-1.489,3.974-3.75,4.98-1.527.679-3.464.565-5.758-.339a.535.535,0,1,0-.392.995,10.914,10.914,0,0,0,3.968.85,6.371,6.371,0,0,0,2.617-.529c2.671-1.188,3.742-4.046,4.317-5.582l.027-.074a9.9,9.9,0,0,1,2.868-3.819l.03-.027.009-.009c.011-.01.021-.021.03-.032" transform="translate(-39.014 -33.319)" fill="#fff"/>
      <path id="Path_1529" data-name="Path 1529" d="M134.917,102.269l0,0,.027-.035.006-.009.016-.024.009-.015,0-.007c.007-.012.013-.023.019-.036l.01-.025c.005-.013.009-.025.013-.037a.185.185,0,0,0,.008-.027c0-.013.006-.027.009-.04l0-.027c0-.019,0-.037,0-.057v-.011a.532.532,0,0,0-.114-.329h0c-.009-.012-.019-.023-.029-.034l-.005-.006-.03-.029-.009-.008-.031-.024-.01-.007a.428.428,0,0,0-.037-.023l-.007,0a.563.563,0,0,0-.107-.045c-.36-.117-.724-.249-1.11-.389A18.765,18.765,0,0,0,129,99.834a11.057,11.057,0,0,0-6.2.865,9.327,9.327,0,0,0-4.707,6.031.534.534,0,0,0,.357.667.522.522,0,0,0,.155.023.535.535,0,0,0,.511-.38,8.3,8.3,0,0,1,4.156-5.381,10.013,10.013,0,0,1,5.61-.762,17.877,17.877,0,0,1,4.314,1.123l0,0a22.913,22.913,0,0,1-6.555,1.917c-5.388.775-8.322,6.033-9.835,10.306a.535.535,0,0,0,.326.683.525.525,0,0,0,.178.031.534.534,0,0,0,.5-.357c1.414-4,4.12-8.906,8.985-9.605a26.5,26.5,0,0,0,5.375-1.367,9.164,9.164,0,0,0-1.2,2.15l-.027.073c-.557,1.486-1.489,3.974-3.75,4.98-1.527.679-3.464.565-5.758-.339a.535.535,0,1,0-.392.995,10.914,10.914,0,0,0,3.968.85,6.371,6.371,0,0,0,2.617-.529c2.671-1.188,3.742-4.046,4.317-5.582l.027-.074a9.9,9.9,0,0,1,2.868-3.819l.03-.027.009-.009C134.9,102.291,134.908,102.279,134.917,102.269Z" transform="translate(-39.014 -33.319)" fill="none" stroke="#fff" stroke-miterlimit="10" stroke-width="0.5"/>
    </g>
  </g>
</svg>
