<svg xmlns="http://www.w3.org/2000/svg" xmlns:xlink="http://www.w3.org/1999/xlink" width="73.709" height="97.985" viewBox="0 0 73.709 97.985">
  <defs>
    <clipPath id="clip-path">
      <rect id="Rectangle_640" data-name="Rectangle 640" width="63.19" height="93.242" fill="#e12058"/>
    </clipPath>
    <clipPath id="clip-path-2">
      <rect id="Rectangle_641" data-name="Rectangle 641" width="23.197" height="34.327" transform="translate(-2 -3)" fill="#e12058"/>
    </clipPath>
  </defs>
  <g id="Group_1950" data-name="Group 1950" transform="translate(10.519 4.743)">
    <g id="Group_1305" data-name="Group 1305" transform="translate(0 0)" clip-path="url(#clip-path)">
      <path id="Path_1510" data-name="Path 1510" d="M30.927,93.242a32.993,32.993,0,0,1-8.662-1.152A30.944,30.944,0,0,1,11.48,86.784,29.3,29.3,0,0,1,.177,67.523C-.742,60.432,2.08,54.171,4.8,48.86c2.253-4.4,4.778-8.727,7.22-12.906,2.787-4.77,5.667-9.7,8.1-14.7A151.215,151.215,0,0,0,28.283,2a2.927,2.927,0,0,1,2.778-2h0A2.925,2.925,0,0,1,33.84,2a155.32,155.32,0,0,0,6.836,16.458c2.814,6.094,6.275,12.059,9.621,17.828,1.353,2.331,2.752,4.744,4.1,7.143q.384.685.781,1.385c2.953,5.227,6.3,11.152,6.923,17.459.691,7.029-2,14.716-7.2,20.561a30.247,30.247,0,0,1-9.533,7.152A32.93,32.93,0,0,1,34.02,93.1q-1.551.142-3.093.142m.146-87.423c-1.9,4.888-4.073,9.6-6.717,15.047-2.662,5.482-5.757,10.806-8.75,15.956-2.541,4.372-5.17,8.892-7.482,13.432C5.509,55.389,3.019,60.9,3.792,66.888A25.654,25.654,0,0,0,13.66,83.72a27.26,27.26,0,0,0,9.523,4.7,29.815,29.815,0,0,0,20.636-1.887,26.585,26.585,0,0,0,8.38-6.307,26.224,26.224,0,0,0,4.983-8.371,21.455,21.455,0,0,0,1.285-9.31c-.544-5.552-3.643-11.062-6.64-16.391q-.42-.749-.833-1.484c-1.4-2.512-2.869-5.053-4.288-7.51-3.6-6.23-7.318-12.672-10.4-19.368-1.835-3.991-3.6-7.833-5.237-11.973m2.063-2.2,0,.008Z" transform="translate(0 0)" fill="#e12058"/>
      <path id="Path_1511" data-name="Path 1511" d="M58.5,39c.024-.024,1.7-1.841,1.675-1.866l-5.419-5.418c-.023-.024-1.736,1.756-1.761,1.779L29.125,57.358a.061.061,0,0,1-.087,0L14.794,43.113a.062.062,0,0,0-.086,0L9.289,48.531a.063.063,0,0,0,0,.087L23.578,62.905h0a.061.061,0,0,0,0,.087L29,68.41a.059.059,0,0,0,.086,0l.042.044,5.139-5.166Z" transform="translate(2.592 8.867)" fill="#e12058"/>
      <path id="Path_1512" data-name="Path 1512" d="M29.216,69.154l-.221-.225a.491.491,0,0,1-.207-.122l-5.418-5.419a.491.491,0,0,1-.125-.214L9.081,49.014a.49.49,0,0,1,0-.69L14.5,42.906a.488.488,0,0,1,.688,0L29.175,56.894l23.609-23.61.068-.07c1.77-1.831,1.77-1.831,1.99-1.834h.178l.128.127,5.543,5.543v.177c0,.2,0,.2-.939,1.228-.377.416-.83.909-.86.938L34.658,63.682Zm-4.987-6.111,4.9,4.9.045-.046.041.042,4.836-4.861L58.285,38.792c.1-.107.978-1.062,1.4-1.542L54.836,32.4c-.223.224-.631.639-1.372,1.406l-.078.081L29.519,57.753a.485.485,0,0,1-.688,0L14.844,43.767l-4.9,4.9L24.274,63Zm-.258-.258h0M59.962,37.525h0Z" transform="translate(2.499 8.774)" fill="#e12058"/>
    </g>
    <g id="Group_1307" data-name="Group 1307" transform="translate(-8.519 -1.743)" clip-path="url(#clip-path-2)">
      <path id="Path_1513" data-name="Path 1513" d="M9.4,28.327a10.023,10.023,0,0,1-2.631-.35,9.4,9.4,0,0,1-3.277-1.612A8.9,8.9,0,0,1,.053,20.514a9.675,9.675,0,0,1,1.4-5.67c.685-1.338,1.452-2.651,2.193-3.921C4.5,9.473,5.372,7.975,6.112,6.458A45.94,45.94,0,0,0,8.592.609.889.889,0,0,1,9.436,0h0a.889.889,0,0,1,.844.607,47.187,47.187,0,0,0,2.077,5c.855,1.851,1.906,3.664,2.923,5.416.411.708.836,1.441,1.245,2.17l.237.421a14.064,14.064,0,0,1,2.1,5.3,8.408,8.408,0,0,1-2.188,6.246,9.189,9.189,0,0,1-2.9,2.173,10,10,0,0,1-3.446.947q-.471.043-.94.043M9.44,1.768C8.862,3.253,8.2,4.684,7.4,6.339S5.65,9.622,4.741,11.186c-.772,1.328-1.571,2.7-2.273,4.081a8.767,8.767,0,0,0-1.316,5.054,7.794,7.794,0,0,0,3,5.114,8.282,8.282,0,0,0,2.893,1.428,9.058,9.058,0,0,0,6.269-.573,8.077,8.077,0,0,0,2.546-1.916,7.967,7.967,0,0,0,1.514-2.543A6.518,6.518,0,0,0,17.762,19a13.555,13.555,0,0,0-2.017-4.98l-.253-.451c-.426-.763-.872-1.535-1.3-2.282C13.1,9.4,11.966,7.44,11.031,5.405c-.557-1.213-1.094-2.38-1.591-3.638m.627-.668v0Z" transform="translate(0 0)" fill="#e12058" stroke="#e12058" stroke-width="1"/>
    </g>
  </g>
</svg>
