<svg xmlns="http://www.w3.org/2000/svg" xmlns:xlink="http://www.w3.org/1999/xlink" width="114.172" height="94.169" viewBox="0 0 114.172 94.169">
  <defs>
    <clipPath id="clip-path">
      <rect id="Rectangle_638" data-name="Rectangle 638" width="114.172" height="94.169" fill="none"/>
    </clipPath>
  </defs>
  <g id="Group_1946" data-name="Group 1946" transform="translate(-1199.89 -11650)">
    <g id="Group_1295" data-name="Group 1295" transform="translate(1199.89 11650)">
      <g id="Group_1294" data-name="Group 1294" transform="translate(0 0)" clip-path="url(#clip-path)">
        <path id="Path_1494" data-name="Path 1494" d="M16.216,51.648a8.279,8.279,0,0,1-1.981,11.617A8.467,8.467,0,0,1,2.5,61.3,8.278,8.278,0,0,1,4.484,49.686a8.467,8.467,0,0,1,11.732,1.962" transform="translate(0.544 27.735)" fill="#fff"/>
        <path id="Path_1495" data-name="Path 1495" d="M9.916,66.831A9.914,9.914,0,0,1,1.837,62.71a9.769,9.769,0,0,1,2.334-13.7,9.976,9.976,0,0,1,13.8,2.312v0a9.765,9.765,0,0,1-2.336,13.7,9.91,9.91,0,0,1-5.716,1.808M9.893,50.174a6.931,6.931,0,0,0-4.008,1.269,6.79,6.79,0,0,0-2.813,4.449,6.719,6.719,0,0,0,1.182,5.084,6.976,6.976,0,0,0,9.666,1.615,6.793,6.793,0,0,0,1.633-9.537,6.955,6.955,0,0,0-5.66-2.881" transform="translate(0 27.193)" fill="#ce385a"/>
        <path id="Path_1496" data-name="Path 1496" d="M72.694,75.142H59.387a5.312,5.312,0,0,1-4.744-2.9l-.016-.03c-1.905-2.549-4.169-5.647-6.074-8.531-4.307-6.6-11.62-25.378-11.62-25.378L47.19,30.2s8.15,24.366,10.227,28.417c1.34,2.6,2.656,5.059,3.866,7.256a1.823,1.823,0,0,0,1.606.936h1.392a8.439,8.439,0,0,1,5.95,2.44,8.276,8.276,0,0,1,2.463,5.891" transform="translate(21.276 17.399)" fill="#fff"/>
        <path id="Path_1497" data-name="Path 1497" d="M74.834,77.535H60.041a6.764,6.764,0,0,1-6.073-3.716c-2.424-3.217-4.427-6.032-6-8.41C43.619,58.75,36.5,40.522,36.2,39.75l-.4-1.026L48.581,28.631l.675,2.006c.082.241,8.134,24.3,10.137,28.205,1.333,2.588,2.64,5.036,3.846,7.22a.343.343,0,0,0,.3.169h1.39a9.876,9.876,0,0,1,7,2.868,9.712,9.712,0,0,1,2.9,6.949ZM39.374,39.692c1.586,3.991,7.474,18.561,11.078,24.082,1.537,2.326,3.508,5.094,6.019,8.456a3.99,3.99,0,0,0,3.57,2.333H71.7a6.789,6.789,0,0,0-1.858-3.349A6.934,6.934,0,0,0,64.933,69.2h-1.39a3.316,3.316,0,0,1-2.906-1.7c-1.217-2.21-2.542-4.681-3.888-7.294-1.772-3.459-7.63-20.662-9.642-26.621Z" transform="translate(20.623 16.494)" fill="#ce385a"/>
        <path id="Path_1498" data-name="Path 1498" d="M96,1.137A72.028,72.028,0,0,0,74.318,7.182a72.574,72.574,0,0,0-11.28-1.351,1.39,1.39,0,0,1-.263-.016c-.325,0-.635-.03-.946-.016-.263-.014-.526-.03-.774-.03C50.5,5.77,41.95,11.416,41.95,18.382c0,5.753,5.847,10.6,13.841,12.117.727.137.566.1,0,0-12.372-2.2-27.305-1.56-38.849,4.914A30.1,30.1,0,0,0,5.759,77.929,31.161,31.161,0,0,0,17.887,89.088,26.934,26.934,0,0,0,28.04,92.056c1.712.137,3.437.063,5.149.069q2.478.009,4.954-.025,2.764-.033,5.527-.1a8.27,8.27,0,0,0-2.463-5.891,8.436,8.436,0,0,0-5.95-2.44H30.533s-.676.054-.883-.229c-.238-.326-.025-.824.164-1.234.262-.563.455-.957.545-1.1a32.582,32.582,0,0,1,7.809-8.76c3.749-2.879,8.257-4.339,12.8-5.716a.771.771,0,0,1,.942.44,87.708,87.708,0,0,0,6.974,13.469c1.905,2.884,4.167,5.984,6.073,8.531l.878.868A7.141,7.141,0,0,0,70.864,92H83.026a8.27,8.27,0,0,0-2.463-5.891,8.436,8.436,0,0,0-5.95-2.44H72.936a1.336,1.336,0,0,1-1.182-.687c-1.248-2.259-2.613-4.807-4-7.505-1.314-2.574-3.335-8.84-4.616-13.055a.622.622,0,0,1,.288-.719C76.4,53.841,83.485,37.139,81.447,22.526q-.095-.693-.233-1.382A59.365,59.365,0,0,1,91.1,25.87c6.508,3.82,12.768,6.552,15.138,4.326,2.356-2.132-1.069-9.482-9.1-14.254-1.5-.9-3.051-1.734-4.616-2.515,1.595-.323,3.207-.6,4.818-.783,7.515-.92,14.147-2.563,14.659-5.753C112.544,3.777,105.293.048,96,1.137" transform="translate(0.656 0.544)" fill="#f9f9f9"/>
        <path id="Path_1499" data-name="Path 1499" d="M31.118,94.169c-.886,0-1.772-.016-2.654-.088a28.2,28.2,0,0,1-10.713-3.127A32.522,32.522,0,0,1,5.04,79.259a31.587,31.587,0,0,1,11.715-44.6c8.055-4.522,18.519-6.67,29.684-6.2-3.4-2.541-5.433-5.918-5.433-9.538,0-7.775,9.237-14.1,20.591-14.1.282,0,.575.016.873.035a4.093,4.093,0,0,1,.526,0l.645.024a75.165,75.165,0,0,1,11.04,1.286A73.278,73.278,0,0,1,96.366.2C104.187-.7,110.328,1.578,112.71,4.1a4.083,4.083,0,0,1,1.3,3.592c-.566,3.535-5.482,5.691-15.939,6.973-.151.017-.3.035-.454.055.285.165.564.331.84.5,6.725,4,10.166,9.524,10.509,12.963a4.1,4.1,0,0,1-1.185,3.664c-2.6,2.451-7.817,1.179-16.889-4.143a57.194,57.194,0,0,0-7.286-3.68c1.633,15.1-5.921,31.309-18.309,39.151.993,3.237,3.023,9.627,4.322,12.17C71,78.022,72.356,80.558,73.6,82.805l1.56-.082a9.877,9.877,0,0,1,6.995,2.87,9.711,9.711,0,0,1,2.9,6.949v1.486H71.407a8.7,8.7,0,0,1-6.073-2.492l-.876-.868c-2.692-3.575-4.7-6.388-6.27-8.766A87.874,87.874,0,0,1,51.334,68.78c-4.457,1.366-8.424,2.755-11.717,5.285a30.972,30.972,0,0,0-7.445,8.355c-.041.069-.093.172-.158.3H35.8a9.877,9.877,0,0,1,7,2.87A9.707,9.707,0,0,1,45.7,92.542v1.445l-1.447.041c-1.852.05-3.7.079-5.551.1-1.661.022-3.308.032-4.977.025l-1.441.006c-.389,0-.779.006-1.168.006M43.462,31.375c-9.531,0-18.349,2.008-25.252,5.88A28.618,28.618,0,0,0,7.562,77.686,29.6,29.6,0,0,0,19.11,88.311,25.342,25.342,0,0,0,28.7,91.119c1.179.09,2.369.079,3.554.069l1.485,0q2.461,0,4.927-.027c1.3-.017,2.6-.035,3.907-.065A6.786,6.786,0,0,0,40.7,87.707,6.924,6.924,0,0,0,35.8,85.7H31.074A2.391,2.391,0,0,1,29,84.859a2.627,2.627,0,0,1,.013-2.733c.307-.659.537-1.11.638-1.275A33.979,33.979,0,0,1,37.8,71.71c3.844-2.95,8.287-4.446,13.275-5.962a2.257,2.257,0,0,1,2.75,1.3,85.889,85.889,0,0,0,6.845,13.225c1.537,2.325,3.508,5.092,6.021,8.456l.731.7a5.7,5.7,0,0,0,3.981,1.633H81.92a6.792,6.792,0,0,0-1.86-3.349,6.92,6.92,0,0,0-4.9-2.009H73.48a2.839,2.839,0,0,1-2.485-1.455c-1.251-2.274-2.627-4.832-4.025-7.548-1.448-2.837-3.575-9.551-4.716-13.3a2.117,2.117,0,0,1,.938-2.422c12.066-7.31,19.353-23.165,17.326-37.7-.058-.441-.131-.865-.219-1.3l-.525-2.619,2.5.931A61.385,61.385,0,0,1,92.405,25.14c10.378,6.085,12.847,5,13.357,4.517a1.444,1.444,0,0,0,.244-1.184c-.276-2.739-3.551-7.423-9.083-10.709-1.33-.8-2.805-1.606-4.522-2.463L88.531,13.37l4.243-.857c1.814-.366,3.433-.629,4.943-.8,11.958-1.463,13.25-3.822,13.357-4.509a1.431,1.431,0,0,0-.525-1.058c-1.9-2.009-7.382-3.737-13.838-2.982h0A70.261,70.261,0,0,0,75.481,9.078l-.438.2-.471-.093A71.929,71.929,0,0,0,63.521,7.861l-.482-.041-.161.014c-.139,0-.277-.011-.421,0-.411-.016-.641-.03-.859-.03-9.713,0-17.617,4.991-17.617,11.126,0,4.867,5.192,9.245,12.626,10.654.095.017.191.032.284.052l.172.032,0,.006a1.437,1.437,0,0,1,1.165.965l.287.813-.56.652a1.469,1.469,0,0,1-1.437.479l0,.006-.2-.038-.249-.044a72.253,72.253,0,0,0-12.6-1.128M65.1,62.524l0,.006,0-.006" transform="translate(0.112 0)" fill="#ce385a"/>
        <path id="Path_1500" data-name="Path 1500" d="M49.71,59.462a.932.932,0,0,1-.154-.214l.03-.016c.063.123.109.2.125.23" transform="translate(28.548 34.123)" fill="#9a729b"/>
        <path id="Path_1501" data-name="Path 1501" d="M52.871,8.824a62.011,62.011,0,0,1,11.083,3.45c1.679.7,2.411-2.038.75-2.725A61.9,61.9,0,0,0,53.619,6.1c-1.773-.372-2.531,2.35-.749,2.723" transform="translate(29.872 3.495)" fill="#ce385a"/>
        <path id="Path_1502" data-name="Path 1502" d="M40.052,9.7a1.538,1.538,0,1,1-1.538-1.524A1.531,1.531,0,0,1,40.052,9.7" transform="translate(21.301 4.709)" fill="#fff"/>
        <path id="Path_1503" data-name="Path 1503" d="M39.056,13.251a3.01,3.01,0,1,1,3.026-3.009,3.019,3.019,0,0,1-3.026,3.009m0-3.047.052.038a.048.048,0,0,0-.052-.038" transform="translate(20.758 4.165)" fill="#ce385a"/>
        <path id="Path_1504" data-name="Path 1504" d="M30.383,37.854a122.054,122.054,0,0,0,6.155,15.364c.788,1.638,3.225.206,2.438-1.425A116.635,116.635,0,0,1,33.108,37.1c-.558-1.723-3.286-.987-2.725.75" transform="translate(17.459 20.81)" fill="#ce385a"/>
        <path id="Path_1505" data-name="Path 1505" d="M35.012,21.525c3.234.638,6.5,1.418,9.066,3.617,1.371,1.179,3.379-.81,2-2-2.961-2.542-6.542-3.6-10.312-4.344-1.775-.351-2.534,2.372-.75,2.723" transform="translate(19.583 10.813)" fill="#ce385a"/>
      </g>
    </g>
    <path id="Path_1506" data-name="Path 1506" d="M61.008,38.752a.437.437,0,0,1-.057,0,.476.476,0,0,1-.25-.046l.006-.014a10.252,10.252,0,0,1-2.138-1.341A13.78,13.78,0,0,1,52.844,28.9c-.482-2.528-.049-5.6,2.606-6.638a5.106,5.106,0,0,1,4.6.724,7.739,7.739,0,0,1,.908.726,7.821,7.821,0,0,1,.908-.724,5.11,5.11,0,0,1,4.6-.726c2.655,1.039,3.087,4.11,2.606,6.638a13.783,13.783,0,0,1-5.725,8.443,10.737,10.737,0,0,1-2.115,1.329l.008.013a.46.46,0,0,1-.226.061" transform="translate(1183.366 11666.71)" fill="#e12058"/>
  </g>
</svg>
