<svg id="Group_1948" data-name="Group 1948" xmlns="http://www.w3.org/2000/svg" xmlns:xlink="http://www.w3.org/1999/xlink" width="116" height="102.571" viewBox="0 0 116 102.571">
  <defs>
    <clipPath id="clip-path">
      <rect id="Rectangle_523" data-name="Rectangle 523" width="116" height="102.571" fill="#e12058"/>
    </clipPath>
  </defs>
  <g id="Group_993" data-name="Group 993" transform="translate(0 0)" clip-path="url(#clip-path)">
    <path id="Path_1218" data-name="Path 1218" d="M8.829,15.706S5.8,13.539,4.06,13.419a2.553,2.553,0,0,0-2.907,2.773c.119,1.709,1.93,3.259,4.195,4.141S10.664,22,10.664,22L13.6,12.919s.572-2.431-1.359-2.717-2.646,1.478-2.908,2.5-.5,3-.5,3" transform="translate(0.24 2.128)" fill="#e12058"/>
    <path id="Path_1219" data-name="Path 1219" d="M48.688,66.7c-.677-1-2-.895-3.059-.907l-3.192-.024c-.048-.532-.109-1.064-.169-1.6v-.012a.3.3,0,0,1-.012-.1.266.266,0,0,1-.012-.1.206.206,0,0,1-.012-.085,28.958,28.958,0,0,0-.58-3.023,50.961,50.961,0,0,0-1.717-5.405c-1.391-3.7-3.1-7.292-4.656-10.883l-2.128.254c.06.133.121.278.181.411a2.009,2.009,0,0,1-1.294-.278l-1.85.218a3.6,3.6,0,0,0,3.7,1.379c.484,1.113.955,2.213,1.439,3.326.822,1.923,1.681,3.858,2.443,5.829a39.242,39.242,0,0,1,2.443,8.417c.048.278.085.556.121.834.06.46.1.931.133,1.4a.836.836,0,0,0,.048.387c.206,2.406.266,4.813.435,7.2.036.508.085,1.016.133,1.512.036.266.06.544.1.81a27.523,27.523,0,0,0,.81,4.281c.314,1.149.677,2.261,1.088,3.374l2.128-.254a36.682,36.682,0,0,1-1.512-4.789c-.145-.617-.266-1.233-.363-1.862a17.915,17.915,0,0,1-.242-1.8c-.024-.157-.048-.314-.06-.472-.036-.266-.048-.532-.073-.786a.86.86,0,0,0,.46-.073c1.04-.447,1.379-1.548,1.886-2.455.544-.943,1.669-1.125,2.5-1.717a2.25,2.25,0,0,0,.883-3.011M47.479,68.07A2.625,2.625,0,0,1,46.2,69a5.04,5.04,0,0,0-1.584,1,5.719,5.719,0,0,0-.943,1.56,2.255,2.255,0,0,1-.81,1.016c-.121-1.8-.193-3.6-.314-5.393,1,0,2.007.012,3.011.024.544,0,2.479-.23,1.923.859m-18.042-16.2a.966.966,0,0,0-.181-.6c-.06-.073-.1-.121-.145-.181A17.551,17.551,0,0,1,27.9,45.457l-2.056.242c.06.774.169,1.536.29,2.273-.762-.677-1.524-1.342-2.261-2.032a12.354,12.354,0,0,1-3.966-5.756,22.585,22.585,0,0,1-.52-2.419l-2.019.242a18.324,18.324,0,0,0,.883,3.785,12.248,12.248,0,0,0,3.035,4.45c1.947,1.947,4.293,3.567,5.986,5.817A20.817,20.817,0,0,0,29.8,56.667c.06.1.121.181.193.278a1.1,1.1,0,0,0,1.983-.544.948.948,0,0,0-.206-.5,20.453,20.453,0,0,1-2.334-4.039M19.46,57.9l-2.237.278a46.313,46.313,0,0,0,2.89,4.583c.762,1.076,2.564.036,1.79-1.052A42.34,42.34,0,0,1,19.46,57.9M50.647,94.82a.288.288,0,0,0-.073-.133,1.362,1.362,0,0,0-.036-.218v-.012a.971.971,0,0,0-.375-.544A84.061,84.061,0,0,1,45.205,83.67a36.682,36.682,0,0,1-1.512-4.789c-.145-.617-.266-1.233-.363-1.862a17.915,17.915,0,0,1-.242-1.8c-.024-.157-.048-.314-.06-.472-.036-.266-.048-.532-.073-.786a.86.86,0,0,0,.46-.073c1.04-.447,1.379-1.548,1.886-2.455.544-.943,1.669-1.125,2.5-1.717a2.25,2.25,0,0,0,.883-3.011c-.677-1-2-.895-3.059-.907l-3.192-.024c-.048-.532-.109-1.064-.169-1.6v-.012a.3.3,0,0,1-.012-.1.266.266,0,0,1-.012-.1.206.206,0,0,1-.012-.085,28.958,28.958,0,0,0-.58-3.023,50.961,50.961,0,0,0-1.717-5.405c-1.391-3.7-3.1-7.292-4.656-10.883-.06-.145-.133-.3-.193-.447-.593-1.366-1.125-2.769-1.766-4.1A3.468,3.468,0,0,0,31.19,38c-2.044-.617-3.991.834-4.74,2.66a11.3,11.3,0,0,0-.6,5.043c.06.774.169,1.536.29,2.273-.762-.677-1.524-1.342-2.261-2.032a12.354,12.354,0,0,1-3.966-5.756,22.585,22.585,0,0,1-.52-2.419c-.363-2.14-.508-4.353-.774-6.494-.048-.411-.1-.81-.145-1.221-.06-.568-.133-1.149-.206-1.729-.06-.508-.121-1.028-.181-1.548a1.985,1.985,0,0,1-.024-.278c-.036-.218-.048-.447-.073-.689v-.012a6.059,6.059,0,0,0-.726-2.951,2.745,2.745,0,0,0-.327-.4c-1.391-1.379-3.592-.181-4.281,1.463a13.666,13.666,0,0,0-.859,3.338C11.6,28.5,11.5,29.8,11.406,30.97c-.048.387-.048.774-.085,1.161-.012.036-.036.06-.048.1a38.58,38.58,0,0,0-1.6,6.7,39.254,39.254,0,0,0-.339,8.755,38.108,38.108,0,0,0,1.741,8.985c.23.726.484,1.439.762,2.153a53.137,53.137,0,0,0,4.087,8.223C18.081,70.61,20.548,74.008,23,77.358a.063.063,0,0,1,.024.048c.036.06.085.133.121.193a32.588,32.588,0,0,1,3.737,8.259c.157.532.3,1.076.423,1.62a37.494,37.494,0,0,1,.75,5.188,5.425,5.425,0,0,0,1.5,3.821,2.814,2.814,0,0,0,.6.411,8.958,8.958,0,0,0,3.459.871,34.338,34.338,0,0,0,5.575.193A36.144,36.144,0,0,0,49.063,96.1a1.039,1.039,0,0,0,1.584-1.282M45.556,67.212c.544,0,2.479-.23,1.923.859A2.625,2.625,0,0,1,46.2,69a5.04,5.04,0,0,0-1.584,1,5.719,5.719,0,0,0-.943,1.56,2.255,2.255,0,0,1-.81,1.016c-.121-1.8-.193-3.6-.314-5.393,1,0,2.007.012,3.011.024m-13.58-25.1c.387.907.774,1.814,1.173,2.721.06.133.121.278.181.411a2.009,2.009,0,0,1-1.294-.278,2.846,2.846,0,0,1-.955-.943,7.839,7.839,0,0,1-.859-3.785,1.046,1.046,0,0,0-.073-.278c1.076-.048,1.439,1.246,1.826,2.153m7.679,53.764c-.435.024-.871.048-1.306.048a30.576,30.576,0,0,1-3.8-.133c-1.536-.133-3.688-.121-4.208-1.874a30.246,30.246,0,0,1-.532-4.329,34.019,34.019,0,0,0-.846-3.966c-.06-.218-.121-.423-.181-.641a33.276,33.276,0,0,0-3.4-7.643l-.036-.073a.924.924,0,0,0-.181-.447c-2.406-3.265-4.861-6.578-7-10.049a51.925,51.925,0,0,1-4.208-8.2c-.266-.665-.508-1.33-.738-2.007a37.631,37.631,0,0,1-1.657-16.035,46.558,46.558,0,0,0,1.161,6.3c.036.145.073.29.121.435a47.466,47.466,0,0,0,7.268,15.5c.762,1.076,2.564.036,1.79-1.052A42.34,42.34,0,0,1,19.46,57.9a45.355,45.355,0,0,1-4.535-10.884,46.216,46.216,0,0,1-1.487-8.538c-.073-1.016-.121-2.032-.133-3.059a45.393,45.393,0,0,1,.484-7.123c.073-.435.133-.871.206-1.318a14.146,14.146,0,0,1,.435-1.911c.145-.484.411-1.294.992-.943.363.218.435.846.472,1.4.024.29.024.556.048.75l.06.46.653,5.3.29,2.491c.133,1.149.242,2.322.423,3.483a18.324,18.324,0,0,0,.883,3.785,12.248,12.248,0,0,0,3.035,4.45c1.947,1.947,4.293,3.567,5.986,5.817A20.817,20.817,0,0,0,29.8,56.667c.06.1.121.181.193.278a1.1,1.1,0,0,0,1.983-.544.948.948,0,0,0-.206-.5,20.453,20.453,0,0,1-2.334-4.039.966.966,0,0,0-.181-.6c-.06-.073-.1-.121-.145-.181A17.551,17.551,0,0,1,27.9,45.457a13.262,13.262,0,0,1,.157-2.854,4.085,4.085,0,0,1,.774-1.959A8.087,8.087,0,0,0,30,44.949c.06.085.121.157.181.23a3.6,3.6,0,0,0,3.7,1.379c.484,1.113.955,2.213,1.439,3.326.822,1.923,1.681,3.858,2.443,5.829a39.242,39.242,0,0,1,2.443,8.417c.048.278.085.556.121.834.06.46.1.931.133,1.4a.836.836,0,0,0,.048.387c.206,2.406.266,4.813.435,7.2.036.508.085,1.016.133,1.512.036.266.06.544.1.81a27.523,27.523,0,0,0,.81,4.281c.314,1.149.677,2.261,1.088,3.374A79.491,79.491,0,0,0,48,94.275c-1.113.351-2.237.653-3.386.895a31.179,31.179,0,0,1-4.958.7M21.9,61.71A42.34,42.34,0,0,1,19.46,57.9l-2.237.278a46.313,46.313,0,0,0,2.89,4.583c.762,1.076,2.564.036,1.79-1.052m9.868-5.8a20.453,20.453,0,0,1-2.334-4.039.966.966,0,0,0-.181-.6c-.06-.073-.1-.121-.145-.181A17.551,17.551,0,0,1,27.9,45.457l-2.056.242c.06.774.169,1.536.29,2.273-.762-.677-1.524-1.342-2.261-2.032a12.354,12.354,0,0,1-3.966-5.756,22.585,22.585,0,0,1-.52-2.419l-2.019.242a18.324,18.324,0,0,0,.883,3.785,12.248,12.248,0,0,0,3.035,4.45c1.947,1.947,4.293,3.567,5.986,5.817A20.817,20.817,0,0,0,29.8,56.667c.06.1.121.181.193.278a1.1,1.1,0,0,0,1.983-.544.948.948,0,0,0-.206-.5M48.688,66.7c-.677-1-2-.895-3.059-.907l-3.192-.024c-.048-.532-.109-1.064-.169-1.6v-.012a.3.3,0,0,1-.012-.1.266.266,0,0,1-.012-.1.206.206,0,0,1-.012-.085,28.958,28.958,0,0,0-.58-3.023,50.961,50.961,0,0,0-1.717-5.405c-1.391-3.7-3.1-7.292-4.656-10.883l-2.128.254c.06.133.121.278.181.411a2.009,2.009,0,0,1-1.294-.278l-1.85.218a3.6,3.6,0,0,0,3.7,1.379c.484,1.113.955,2.213,1.439,3.326.822,1.923,1.681,3.858,2.443,5.829a39.242,39.242,0,0,1,2.443,8.417c.048.278.085.556.121.834.06.46.1.931.133,1.4a.836.836,0,0,0,.048.387c.206,2.406.266,4.813.435,7.2.036.508.085,1.016.133,1.512.036.266.06.544.1.81a27.523,27.523,0,0,0,.81,4.281c.314,1.149.677,2.261,1.088,3.374l2.128-.254a36.682,36.682,0,0,1-1.512-4.789c-.145-.617-.266-1.233-.363-1.862a17.915,17.915,0,0,1-.242-1.8c-.024-.157-.048-.314-.06-.472-.036-.266-.048-.532-.073-.786a.86.86,0,0,0,.46-.073c1.04-.447,1.379-1.548,1.886-2.455.544-.943,1.669-1.125,2.5-1.717a2.25,2.25,0,0,0,.883-3.011M47.479,68.07A2.625,2.625,0,0,1,46.2,69a5.04,5.04,0,0,0-1.584,1,5.719,5.719,0,0,0-.943,1.56,2.255,2.255,0,0,1-.81,1.016c-.121-1.8-.193-3.6-.314-5.393,1,0,2.007.012,3.011.024.544,0,2.479-.23,1.923.859" transform="translate(1.932 4.57)" fill="#e12058"/>
    <path id="Path_1220" data-name="Path 1220" d="M83.931,61.71c-.786,1.088,1.016,2.128,1.778,1.052a44.724,44.724,0,0,0,3.241-5.224l-2.552.314a43.348,43.348,0,0,1-2.467,3.858m3.628-19.917a19.493,19.493,0,0,0,.98-4.341c.121-.98.218-1.959.339-2.926l.3-2.455q-.218-1.687-.58-3.338l-1.1.133c-.1.81-.193,1.608-.3,2.406-.254,2.116-.4,4.305-.762,6.421a21.185,21.185,0,0,1-.532,2.491c-.943,3.434-3.676,5.514-6.216,7.788a13.615,13.615,0,0,0-.314-7.316,4.686,4.686,0,0,0-1.451-1.935l-5.006.593c-.012.024-.024.036-.036.06a.092.092,0,0,0-.024-.048l-1.705.206a2.586,2.586,0,0,1,.193.472c.048.169.1.339.133.508.012.085.036.169.048.254v.024a.3.3,0,0,0,.012.109c.012.181.012.351.012.532,0,.085-.012.181-.012.266a.335.335,0,0,0-.012.109.246.246,0,0,0-.012.06,1.034,1.034,0,0,0,.012.387c-.266.629-.52,1.258-.786,1.874-1,2.334-2.08,4.68-3.1,7.05a.767.767,0,0,0-.931.145c-.085.073-.169.145-.254.206-1.427,1.161-3.434,1.052-5.152.689a1.132,1.132,0,0,1-.193-.048c-2.153-.472-4.245-1.221-6.47-.98-2.177.242-4.112,1.246-6.131,2.019a13.851,13.851,0,0,1-2.878.81l8.114-.967a9.08,9.08,0,0,1,1.983-.242h.036c.254,0,.508.024.762.048,1.608.181,3.132.75,4.716,1.052a8.286,8.286,0,0,0,5.49-.568A56.241,56.241,0,0,0,64.268,60.5c-.036.121-.06.242-.1.363-.931,3.688-.943,7.461-1.173,11.222-.048.895-.109,1.778-.206,2.66.7-.242,1.4-.508,2.08-.8.048-.7.1-1.4.121-2.1.133-2.286.206-4.583.5-6.881a31.307,31.307,0,0,1,1-4.728,76.3,76.3,0,0,1,3.483-9.13c.181-.411.351-.81.532-1.221,1.1-2.6,2.225-5.188,3.35-7.776a7.046,7.046,0,0,1,.774-1.608,2.845,2.845,0,0,1,.544,2.576A2.882,2.882,0,0,1,73.4,44.961a.73.73,0,0,0-.5.871.712.712,0,0,0,.871.484A4.191,4.191,0,0,0,76,40a.308.308,0,0,1,.085.024c1.1.327,1.512,1.548,1.693,2.576A15.859,15.859,0,0,1,77,50.27c-.085.278-.181.544-.29.81-.036.06-.1.109-.133.181a.836.836,0,0,0-.181.6,21.769,21.769,0,0,1-2.346,4.039c-.8,1.076,1,2.1,1.79,1.04A20.98,20.98,0,0,0,78.55,52.06a17.651,17.651,0,0,1,2.02-2.225c2.6-2.467,5.672-4.462,6.99-8.042m8.175-5.212a41.254,41.254,0,0,0-1.173-4.353.424.424,0,0,1-.06-.1l-.073-1.161c-.085-.919-.157-1.911-.278-2.9a15.154,15.154,0,0,0-.98-4.16c-.689-1.645-2.89-2.842-4.281-1.463a2.745,2.745,0,0,0-.326.4,6.059,6.059,0,0,0-.726,2.951v.012c-.024.339-.06.665-.085.967-.085.7-.169,1.4-.254,2.092-.1.81-.193,1.608-.3,2.406-.254,2.116-.4,4.305-.762,6.421a21.185,21.185,0,0,1-.532,2.491c-.943,3.434-3.676,5.514-6.216,7.788a13.615,13.615,0,0,0-.314-7.316,4.686,4.686,0,0,0-1.451-1.935A3.515,3.515,0,0,0,74.644,38a3.01,3.01,0,0,0-1.729,1.318c-.012.024-.024.036-.036.06a.092.092,0,0,0-.024-.048,5.581,5.581,0,0,0-1.294-2.08A5.776,5.776,0,0,0,66.7,35.662a10.405,10.405,0,0,0-11.948-.3,10.712,10.712,0,0,0-3.918,4.97c-.218.556-.375,1.137-.593,1.705a5.917,5.917,0,0,1-.762,1.512,5.733,5.733,0,0,1-3.132,1.814c-2.056.593-4.208.919-5.865,2.37a4.148,4.148,0,0,0-1.076,5.031,4.976,4.976,0,0,0,1.56,1.826A6.223,6.223,0,0,0,44.8,55.748c2.588-.048,4.873-1.294,7.244-2.177a15.274,15.274,0,0,1,1.705-.52,9.08,9.08,0,0,1,1.983-.242h.036c.254,0,.508.024.762.048,1.608.181,3.132.75,4.716,1.052a8.286,8.286,0,0,0,5.49-.568A56.241,56.241,0,0,0,64.268,60.5c-.036.121-.06.242-.1.363-.931,3.688-.943,7.461-1.173,11.222-.048.895-.109,1.778-.206,2.66-.073.762-.169,1.524-.3,2.273-.1.629-.23,1.246-.375,1.862-.169.7-.363,1.391-.568,2.08A65.9,65.9,0,0,1,56.13,93.042l-.472.871a1.084,1.084,0,0,0-.423.774.493.493,0,0,1-.073.133A1.04,1.04,0,0,0,56.746,96.1a36.315,36.315,0,0,0,9.892,1.862A34.189,34.189,0,0,0,72.2,97.77a7.231,7.231,0,0,0,4.063-1.282,5.425,5.425,0,0,0,1.5-3.821c.073-.75.145-1.5.242-2.237.121-.992.29-1.971.508-2.951a32.338,32.338,0,0,1,3.616-8.973c.206-.375.435-.738.665-1.1.012-.024.012-.036.024-.048,2-2.721,4.015-5.478,5.841-8.344A53.207,53.207,0,0,0,94.682,56.86c.024-.06.036-.133.06-.193a39.039,39.039,0,0,0,1.717-8.731,39.769,39.769,0,0,0-.726-11.355M61.305,52.217a1.132,1.132,0,0,1-.193-.048c-2.153-.472-4.245-1.221-6.47-.98-2.177.242-4.112,1.246-6.131,2.019a13.851,13.851,0,0,1-2.878.81l-.5.06a4.626,4.626,0,0,1-3.023-.713,2.712,2.712,0,0,1-.181-4.668c1.512-1.088,3.422-1.27,5.164-1.814a6.732,6.732,0,0,0,4.172-3.059,18.481,18.481,0,0,0,.871-2.019,10.835,10.835,0,0,1,1.62-3.289,8.775,8.775,0,0,1,12.1-1.427.858.858,0,0,0,.726.169,1.049,1.049,0,0,0,.435.024.044.044,0,0,0-.036.012c.024,0,.145-.012.157-.012a1.959,1.959,0,0,1,.266-.012,3.777,3.777,0,0,1,.52.012c.012,0,.133.012.157.012a1.406,1.406,0,0,1,.218.048,3.764,3.764,0,0,1,.5.133,1.423,1.423,0,0,1,.242.085c.048.012.06.012.073.024s.012,0,.048.024a3.33,3.33,0,0,1,.46.242,3.068,3.068,0,0,1,.411.278,1.057,1.057,0,0,1,.121.1c.073.06.145.133.218.206a3.932,3.932,0,0,1,.774,1.1,2.586,2.586,0,0,1,.193.472c.048.169.1.339.133.508.012.085.036.169.048.254v.024a.3.3,0,0,0,.012.109c.012.181.012.351.012.532,0,.085-.012.181-.012.266a.335.335,0,0,0-.012.109.246.246,0,0,0-.012.06,1.034,1.034,0,0,0,.012.387c-.266.629-.52,1.258-.786,1.874-1,2.334-2.08,4.68-3.1,7.05a.767.767,0,0,0-.931.145c-.085.073-.169.145-.254.206-1.427,1.161-3.434,1.052-5.152.689m31.3,4.341c-.06.193-.133.387-.206.568a54.6,54.6,0,0,1-6.385,12.2c-1.717,2.552-3.543,5.031-5.345,7.485a.953.953,0,0,0-.193.447c-.3.508-.593,1.028-.871,1.548a32.336,32.336,0,0,0-2.552,6.167,31.683,31.683,0,0,0-1.028,4.607c-.048.351-.085.726-.109,1.088a16.613,16.613,0,0,1-.435,3.241c-.532,1.753-2.673,1.741-4.2,1.874a32.846,32.846,0,0,1-5.115.085,34.4,34.4,0,0,1-8.344-1.6c.278-.508.544-1.016.81-1.524A59.242,59.242,0,0,0,63.784,80.7a.682.682,0,0,0,.048-.145,29.053,29.053,0,0,0,.822-4.281c.085-.774.157-1.536.218-2.322.048-.7.1-1.4.121-2.1.133-2.286.206-4.583.5-6.881a31.307,31.307,0,0,1,1-4.728,76.3,76.3,0,0,1,3.483-9.13c.181-.411.351-.81.532-1.221,1.1-2.6,2.225-5.188,3.35-7.776a7.046,7.046,0,0,1,.774-1.608,2.845,2.845,0,0,1,.544,2.576A2.882,2.882,0,0,1,73.4,44.961a.73.73,0,0,0-.5.871.712.712,0,0,0,.871.484A4.191,4.191,0,0,0,76,40a.308.308,0,0,1,.085.024c1.1.327,1.512,1.548,1.693,2.576A15.859,15.859,0,0,1,77,50.27c-.085.278-.181.544-.29.81-.036.06-.1.109-.133.181a.836.836,0,0,0-.181.6,21.769,21.769,0,0,1-2.346,4.039c-.8,1.076,1,2.1,1.79,1.04A20.98,20.98,0,0,0,78.55,52.06a17.651,17.651,0,0,1,2.02-2.225c2.6-2.467,5.672-4.462,6.99-8.042a19.493,19.493,0,0,0,.98-4.341c.121-.98.218-1.959.339-2.926l.3-2.455.423-3.459.278-2.334c.024-.181.036-.447.048-.726.024-.568.109-1.2.46-1.427.58-.351.859.46,1.016.943a22.4,22.4,0,0,1,.629,3.229v.024a43.687,43.687,0,0,1,.484,7.1c0,.52-.024,1.04-.048,1.56A44.961,44.961,0,0,1,90.4,48.661a44.559,44.559,0,0,1-4,9.191,43.348,43.348,0,0,1-2.467,3.858c-.786,1.088,1.016,2.128,1.778,1.052a44.724,44.724,0,0,0,3.241-5.224,46.009,46.009,0,0,0,3.725-9.154c.157-.52.29-1.04.423-1.56a48.517,48.517,0,0,0,1.161-6.3A37.572,37.572,0,0,1,92.6,56.558M86.434,37.693a21.185,21.185,0,0,1-.532,2.491c-.943,3.434-3.676,5.514-6.216,7.788a13.615,13.615,0,0,0-.314-7.316,4.686,4.686,0,0,0-1.451-1.935l-5.006.593c-.012.024-.024.036-.036.06a.092.092,0,0,0-.024-.048l-1.705.206a2.586,2.586,0,0,1,.193.472c.048.169.1.339.133.508.012.085.036.169.048.254v.024a.3.3,0,0,0,.012.109c.012.181.012.351.012.532,0,.085-.012.181-.012.266a.335.335,0,0,0-.012.109.246.246,0,0,0-.012.06,1.034,1.034,0,0,0,.012.387c-.266.629-.52,1.258-.786,1.874-1,2.334-2.08,4.68-3.1,7.05a.767.767,0,0,0-.931.145c-.085.073-.169.145-.254.206-1.427,1.161-3.434,1.052-5.152.689a1.132,1.132,0,0,1-.193-.048c-2.153-.472-4.245-1.221-6.47-.98-2.177.242-4.112,1.246-6.131,2.019a13.851,13.851,0,0,1-2.878.81l8.114-.967a9.08,9.08,0,0,1,1.983-.242h.036c.254,0,.508.024.762.048,1.608.181,3.132.75,4.716,1.052a8.286,8.286,0,0,0,5.49-.568A56.241,56.241,0,0,0,64.268,60.5c-.036.121-.06.242-.1.363-.931,3.688-.943,7.461-1.173,11.222-.048.895-.109,1.778-.206,2.66.7-.242,1.4-.508,2.08-.8.048-.7.1-1.4.121-2.1.133-2.286.206-4.583.5-6.881a31.307,31.307,0,0,1,1-4.728,76.3,76.3,0,0,1,3.483-9.13c.181-.411.351-.81.532-1.221,1.1-2.6,2.225-5.188,3.35-7.776a7.046,7.046,0,0,1,.774-1.608,2.845,2.845,0,0,1,.544,2.576A2.882,2.882,0,0,1,73.4,44.961a.73.73,0,0,0-.5.871.712.712,0,0,0,.871.484A4.191,4.191,0,0,0,76,40a.308.308,0,0,1,.085.024c1.1.327,1.512,1.548,1.693,2.576A15.859,15.859,0,0,1,77,50.27c-.085.278-.181.544-.29.81-.036.06-.1.109-.133.181a.836.836,0,0,0-.181.6,21.769,21.769,0,0,1-2.346,4.039c-.8,1.076,1,2.1,1.79,1.04A20.98,20.98,0,0,0,78.55,52.06a17.651,17.651,0,0,1,2.02-2.225c2.6-2.467,5.672-4.462,6.99-8.042a19.493,19.493,0,0,0,.98-4.341ZM86.4,57.852a43.348,43.348,0,0,1-2.467,3.858c-.786,1.088,1.016,2.128,1.778,1.052a44.724,44.724,0,0,0,3.241-5.224Z" transform="translate(8.155 4.57)" fill="#e12058"/>
    <path id="Path_1221" data-name="Path 1221" d="M63.528,68.026a39.412,39.412,0,0,1-13,2.186,39.725,39.725,0,0,1-7.323-.684c1.639-1.6,2.2-4.226,3.658-6.066,2.4-3.024,7.079-2.23,10.333-3.569a4.074,4.074,0,0,0,2.825-3.078,2.533,2.533,0,0,0-2.242-2.856C56,53.706,54.612,54.991,53,55.492a13.522,13.522,0,0,1-4.883.386c-3.694-.232-7.477-.993-10.944.732-.965.48-.119,1.925.845,1.446,5.109-2.542,11.108.963,16.355-1.294.827-.356,3.908-2.3,4-.245.074,1.633-2.783,2.206-3.906,2.434-2.827.576-5.94.647-8.2,2.692C44.112,63.6,43.811,67.97,40.9,69.026q-1.712-.428-3.364-1c-.705-.238-1.389-.5-2.073-.787.062.776.134,1.544.227,2.321q1.058.4,2.145.746a41.7,41.7,0,0,0,25.391,0c.726-.227,1.451-.476,2.156-.746.093-.776.166-1.544.229-2.321-.684.279-1.379.549-2.084.787" transform="translate(7.422 11.285)" fill="#e12058"/>
    <path id="Path_1222" data-name="Path 1222" d="M93.96,27.015a40.179,40.179,0,0,0-2.249-4.922,41.224,41.224,0,0,0-5.611-8.03,41.961,41.961,0,0,0-13.012-9.88A41.787,41.787,0,0,0,21.826,16.241a.722.722,0,0,0-.375.484A42.329,42.329,0,0,0,15.78,27.015c-.387,1-.726,2.044-1.04,3.084.024.29.024.556.048.75l.06.46.653,5.3a37.45,37.45,0,0,1,1.137-5.514,6.877,6.877,0,0,1,.193-.713v-.012c.181-.6.387-1.209.593-1.8a.582.582,0,0,0,.411-.218c1.741-2.116,4.861-1.33,7.231-1.366a6.842,6.842,0,0,0,3.676-.943A13.831,13.831,0,0,0,31.174,23.5c1.064-1.149,2.3-1.185,3.737-1.512a3.518,3.518,0,0,0,2.6-1.886,1.462,1.462,0,0,0,.06-.218,2.506,2.506,0,0,0-.907-2.648,4.567,4.567,0,0,0-3.628-.7,29.6,29.6,0,0,1-8.828.036,41.757,41.757,0,0,1,3.313-3.543A.853.853,0,0,0,28.187,13a8.207,8.207,0,0,1,6.131,0,8.112,8.112,0,0,1,2.624,1.633,13.744,13.744,0,0,1,2.044,2.939,6.552,6.552,0,0,0,1.8,1.923,7.784,7.784,0,0,0,3.483,1.342c2.6.375,5.188-.29,7.8-.085,1.052.073,2.806.556,2.721,1.935-.073,1.125-1.548,1.645-2.467,1.838-2.806.593-5.732-.169-8.574-.169a10.642,10.642,0,0,0-6.312,1.657,21.706,21.706,0,0,0-2.854,2.926,6.364,6.364,0,0,1-2.261,1.633c-4.91,1.947-10.545-.544-15.213,2.322a2.1,2.1,0,0,0-.218.133.875.875,0,0,0,.423,1.6.71.71,0,0,0,.411-.145c4.583-2.987,10.521-.351,15.43-2.455a8.1,8.1,0,0,0,2.818-2c.411-.46.774-.931,1.149-1.391A7.089,7.089,0,0,1,38.817,27.1c2.467-1.463,5.563-1.1,8.284-.871,2.479.218,5.49.532,7.7-.895a3.131,3.131,0,0,0,.339-5.248c-2.116-1.669-5.321-.967-7.788-.834a13.077,13.077,0,0,1-3.3-.157,7.3,7.3,0,0,1-.738-.181,5.361,5.361,0,0,1-3.241-2.83,10.229,10.229,0,0,0-5.442-4.752,9.853,9.853,0,0,0-4.607-.508c.774-.617,1.56-1.209,2.37-1.766a39.656,39.656,0,0,1,49.689,3.833c-1.258.8-2.951.762-4.353,1.1a5.178,5.178,0,0,0-2.588,1.379,4.386,4.386,0,0,0-.919,1.451c-.738,1.874-.677,3.749-2.153,5.321-1.463,1.548-3.217,1.729-5.152,2.261a4.813,4.813,0,0,0-1.778.883,2.8,2.8,0,0,0-1.137,2.406,4.365,4.365,0,0,0,2.878,3.579c4.583,1.814,8.8-1.886,13.048-2.926a7.035,7.035,0,0,1,3.906.085c1.209.4,2.322,1.052,3.495,1.56a6.652,6.652,0,0,0,5.526.242c.012.048.036.085.048.133v.012c.29.955.544,1.935.762,2.926q.363,1.651.58,3.338l.423-3.459.278-2.334c.024-.181.036-.447.048-.726-.3-1.052-.653-2.092-1.04-3.108M30.17,18.308a39.4,39.4,0,0,1,4.1-.472c1.173.048,2.842,1.221,1.512,2.249a.782.782,0,0,1-.109.1c-1,.677-2.346.532-3.459.919a5.521,5.521,0,0,0-2.431,1.874,6.336,6.336,0,0,1-2.576,2.249,9.42,9.42,0,0,1-3.725.3,10.75,10.75,0,0,0-5.115.617,38.281,38.281,0,0,1,2.128-4.22,37.482,37.482,0,0,1,2.721-4.087,25.791,25.791,0,0,0,6.953.472M89.485,22.36c.036.06.06.109.1.169a3.009,3.009,0,0,0-.351-.133,10.619,10.619,0,0,0-3.241-.738,10.332,10.332,0,0,0-2.733.157,10.888,10.888,0,0,0-1.524.411,4.93,4.93,0,0,1-1.391.375c-.387,0-.786-.133-.834-.568a4.678,4.678,0,0,1,.387-1.6,4.783,4.783,0,0,1,1.366-2.322c1.233-1.028,3.011-1.125,4.583-1.137a39.634,39.634,0,0,1,3.64,5.381M87.1,28.043a12.349,12.349,0,0,0-5.188-1.62c-4.232-.036-7.57,3.168-11.682,3.6-1.548.157-4.765-.375-4.559-2.6.157-1.608,2.89-1.608,4.039-1.947a7.512,7.512,0,0,0,2.165-1,7.71,7.71,0,0,0,1.766-1.608,10.045,10.045,0,0,0,1.85-4.426,3.253,3.253,0,0,1,1.451-2.394,7.162,7.162,0,0,1,2.3-.653,11.392,11.392,0,0,0,3.4-.919,4.419,4.419,0,0,0,.653-.387,2.771,2.771,0,0,1,.254.278c.4.4.786.822,1.161,1.246a9.259,9.259,0,0,0-3.132.677,5.627,5.627,0,0,0-3.035,3.773,4.535,4.535,0,0,0-.363,2.576,1.844,1.844,0,0,0,.8.992,2.519,2.519,0,0,0,.943.339A5.773,5.773,0,0,0,82.5,23.46a9.08,9.08,0,0,1,2.612-.423,9.6,9.6,0,0,1,5.635,1.753h.012c.58,1.246,1.113,2.515,1.572,3.821-1.645.955-3.6.206-5.224-.568" transform="translate(3.085 0)" fill="#e12058"/>
    <path id="Path_1223" data-name="Path 1223" d="M59.1,11.354c-.955-1.705-3.12-2.6-5.091-2.83-.012,0-.024-.012-.036-.012-2.044-.339-4.607-.036-6.2,1.439a2.364,2.364,0,0,0-.508,2.866,3.672,3.672,0,0,0,2.467,1.741,10.956,10.956,0,0,0,3.265.085,9.065,9.065,0,0,1,1.62,0c.568.06,1.1.278,1.657.387a.708.708,0,0,0,.157.024,2.881,2.881,0,0,0,1.923-.23,1.932,1.932,0,0,0,.726-.677,2.723,2.723,0,0,0,.024-2.793m-5.091,1.584c-.859-.012-1.705.121-2.564.121a4,4,0,0,1-2.056-.4c-.472-.278-1-.846-.58-1.379a3.989,3.989,0,0,1,2.08-1.028,6.425,6.425,0,0,1,1.524-.206.9.9,0,0,0,.375.085,6.349,6.349,0,0,1,4.2,1.318,1.727,1.727,0,0,1,.81,1.475c-.121.689-.81.556-1.33.435a10.545,10.545,0,0,0-2.455-.423" transform="translate(9.832 1.755)" fill="#e12058"/>
    <path id="Path_1224" data-name="Path 1224" d="M89.466,65.39s-.264-4.6-1.843-5.49c-1.426-.807-2.97-.5-3.045,1.568s2.932,9.663,2.932,9.663,5.038-.865,6.279-1.692,4.249-2.76,3.8-4.05-2.781-4.687-8.12,0m8.975-.883a3.391,3.391,0,0,0-.411-1.028,4.272,4.272,0,0,0-3.882-1.862,7.169,7.169,0,0,0-3.737,1.475,5.331,5.331,0,0,0-1.669-3.809,3.238,3.238,0,0,0-4.825.484c-1.088,1.766,0,4.051.556,5.817l.181.58c.653,2.032,1.318,4.075,1.971,6.107a.992.992,0,0,0,1.85.06c1.681-.5,3.386-.967,5.043-1.536a7.864,7.864,0,0,0,4.208-2.818,4.6,4.6,0,0,0,.713-3.471m-1.923,1.524c-.435,1.572-1.983,2.37-3.41,2.866-1.657.568-3.362,1.052-5.043,1.548-.411-1.294-.834-2.588-1.246-3.882-.073-.218-.133-.423-.206-.641-.218-.665-.435-1.342-.641-2.007a10.843,10.843,0,0,1-.568-2.1,1.209,1.209,0,0,1,.58-1.379,1.45,1.45,0,0,1,1.439.254c1.27.992,1.137,2.926,1.1,4.353a.84.84,0,0,0,.23.629,1.053,1.053,0,0,0,1.415.048c.1-.085.206-.169.3-.254,1.173-.967,2.515-2,4.1-1.923a2.075,2.075,0,0,1,1.9,1.209,1.91,1.91,0,0,1,.048,1.282" transform="translate(17.465 12.228)" fill="#e12058"/>
    <path id="Path_1225" data-name="Path 1225" d="M14.629,10.484A3.251,3.251,0,0,0,9.791,10a5.359,5.359,0,0,0-1.669,3.821,7.1,7.1,0,0,0-3.737-1.487A4.272,4.272,0,0,0,.5,14.2a4.01,4.01,0,0,0-.3,3.229,4.54,4.54,0,0,0,.6,1.27,7.842,7.842,0,0,0,4.208,2.818c1.669.568,3.362,1.052,5.055,1.548a.993.993,0,0,0,1.85-.073q1.07-3.338,2.14-6.687c.06-.181.121-.363.181-.556.58-1.669,1.354-3.664.387-5.26m-2.914,6.808c-.411,1.282-.822,2.576-1.246,3.87-1.681-.5-3.374-.967-5.031-1.548A5.132,5.132,0,0,1,2.185,17.2a2.451,2.451,0,0,1-.169-.447,1.929,1.929,0,0,1,1.959-2.479c1.717-.1,3.156,1.137,4.39,2.177h.012a1.033,1.033,0,0,0,1.5-.169,1.006,1.006,0,0,0,.133-.52c-.036-1.415-.157-3.362,1.1-4.353a1.533,1.533,0,0,1,1.451-.254,1.239,1.239,0,0,1,.58,1.379,10.4,10.4,0,0,1-.568,2.1c-.145.447-.29.907-.447,1.366-.133.423-.266.859-.411,1.294" transform="translate(0 1.915)" fill="#e12058"/>
    <path id="Path_1226" data-name="Path 1226" d="M75.478,57.993a.75.75,0,0,0-.207-.5.705.705,0,0,0-1,0,.7.7,0,0,0-.207.5q.062.72.121,1.44a.755.755,0,0,0,.207.5.707.707,0,0,0,1,0,.692.692,0,0,0,.207-.5l-.12-1.44" transform="translate(15.5 11.989)" fill="#e12058"/>
    <path id="Path_1227" data-name="Path 1227" d="M22.511,53.828a.716.716,0,0,0-.867.492l-.617,2.758a.706.706,0,0,0,1.36.375Q22.7,56.075,23,54.7a.717.717,0,0,0-.492-.867" transform="translate(4.397 11.261)" fill="#e12058"/>
    <path id="Path_1228" data-name="Path 1228" d="M66.121,39.462a4.879,4.879,0,0,0-2.056-2.346,4.992,4.992,0,0,0-1.5-.629,10.03,10.03,0,0,0-4.523.109.549.549,0,0,0-.169-.073,3.685,3.685,0,0,0-3.652,1.753.012.012,0,0,1-.012.012c-.846,1.246-1.173,3.011-2.443,3.942-.931.677-3.313.472-2.878,2.334.387,1.669,2.322,1.161,3.495.955a13.945,13.945,0,0,1,5.78.375,8.912,8.912,0,0,0,4.934.254,5.026,5.026,0,0,0,3.023-6.687m-3.144,5.224a6.019,6.019,0,0,1-3.858-.012,24.289,24.289,0,0,0-3.833-.7,14.264,14.264,0,0,0-3.858.3c-.206.036-.653.23-.846.121-.556-.278.339-.363.484-.4a3.5,3.5,0,0,0,1.5-.617,7.2,7.2,0,0,0,2.068-2.9,5,5,0,0,1,1.9-2.467c.012,0,.012-.012.024-.012l.012.012a.658.658,0,0,0,.653.206c2.3-.532,5.49-1.221,7.159.992a3.629,3.629,0,0,1-1.4,5.478" transform="translate(10.22 7.59)" fill="#e12058"/>
  </g>
</svg>
