<svg xmlns="http://www.w3.org/2000/svg" width="93.699" height="108.483" viewBox="0 0 93.699 108.483">
  <g id="refund" transform="translate(-53.316 -21.334)">
    <path id="Path_1229" data-name="Path 1229" d="M165.788,138.667a27.121,27.121,0,1,0,27.121,27.121A27.121,27.121,0,0,0,165.788,138.667Zm4.334,38.719a9.874,9.874,0,0,1-1.868.7v2.492a2.466,2.466,0,1,1-4.931,0v-2.369a13.319,13.319,0,0,1-5.159-2.358,2.465,2.465,0,1,1,2.921-3.973c3.4,2.5,6.072,1.476,6.812,1.1a2.569,2.569,0,0,0,1.59-1.836c0-1.17-1.08-1.78-3.5-2.7-.436-.167-.842-.324-1.194-.478-.242-.107-.533-.216-.852-.338-2.2-.836-6.782-2.575-6.782-7.357a7.239,7.239,0,0,1,4.3-6.236,9.861,9.861,0,0,1,1.868-.693v-2.347a2.466,2.466,0,1,1,4.931,0v2.232a13.278,13.278,0,0,1,5.159,2.339,2.465,2.465,0,1,1-2.921,3.973c-3.4-2.5-6.072-1.476-6.812-1.1a2.569,2.569,0,0,0-1.59,1.836c0,1.16,1.265,1.86,3.6,2.747.411.156.782.3,1.093.436.283.125.612.249.962.383,2.332.891,6.672,2.549,6.672,7.311a7.238,7.238,0,0,1-4.3,6.237Z" transform="translate(-65.623 -90.212)" fill="#e12058"/>
    <path id="Path_1230" data-name="Path 1230" d="M275.795,69.712A46.844,46.844,0,0,0,230.1,28.737l3.213-3.187a2.465,2.465,0,1,0-3.472-3.5l-7.81,7.746a2.465,2.465,0,0,0-.014,3.486l7.809,7.874a2.465,2.465,0,1,0,3.5-3.472l-3.982-4.014a41.916,41.916,0,0,1,26.166,74.639,2.465,2.465,0,0,0,3.084,3.846,46.575,46.575,0,0,0,17.2-42.442Z" transform="translate(-129.157 0)" fill="#e12058"/>
    <path id="Path_1231" data-name="Path 1231" d="M99.661,166.973a2.465,2.465,0,1,0-3.5,3.472l3.982,4.014A41.915,41.915,0,0,1,73.969,99.83a2.466,2.466,0,1,0-3.087-3.846,46.85,46.85,0,0,0,28.506,83.408l-3.213,3.188a2.465,2.465,0,1,0,3.472,3.5l7.809-7.746a2.465,2.465,0,0,0,.015-3.486Z" transform="translate(0 -56.977)" fill="#e12058"/>
  </g>
</svg>
