<svg xmlns="http://www.w3.org/2000/svg" width="53.189" height="114.024" viewBox="0 0 53.189 114.024">
  <g id="Group_2390" data-name="Group 2390" transform="translate(-249.969 -10185.583)">
    <path id="Path_414" data-name="Path 414" d="M60.957,112.953a21.391,21.391,0,0,0-4.462-13.61c-.717-.922-1.51-1.783-2.3-2.644-5.585-6.1-11.2-12.516-13.845-20.35-2.229-6.617-2.163-13.755-2.074-20.737a26.224,26.224,0,0,1,.188-4.658c.223-1.271.89-2.78,2.18-2.822,1.132-.038,1.9,1.1,2.437,2.094A18.227,18.227,0,0,1,44.4,53.084a23.464,23.464,0,0,1,.755,6.107,52.274,52.274,0,0,0,1.245,8.84,11.32,11.32,0,0,0,.773,2.422c.639,1.32-.174-6.2,1.127-5.519,1.661-1,5.368,6.42,5.9,4.555a7.814,7.814,0,0,0,.211-2.026c.176-10.628.352-21.27-.315-31.878a7.151,7.151,0,0,1,.181-2.769A2.388,2.388,0,0,1,56.271,31.1c1.495-.056,2.352,1.666,2.706,3.12,1.448,5.94,1,12.208,2.332,18.176a56.048,56.048,0,0,0,2.3,7.277,58.038,58.038,0,0,0,3.159,7.338c1.252,2.327,4.463,1.686,5.577,4.083.956,2.058-.088,7.064.482,9.26a34.609,34.609,0,0,1,1.458,10.524c.886,1.465.589,2.944.593,4.655a31.936,31.936,0,0,0,1.118,8.279c.716,2.634,1.778,5.222,1.863,7.95s-1.109,5.747-3.638,6.775c-1.869.76-4,.277-5.91-.368q-1.667-.564-3.276-1.281a9.049,9.049,0,0,1-2.725-1.684c-.765-.754-1.381-1.183-1.351-2.256" transform="translate(212.933 10176.619)" fill="#f9f9f9"/>
    <path id="Path_415" data-name="Path 415" d="M70.207,70.972c-3.295-1.674-5.382-5.518-7.147-9.422a46.089,46.089,0,0,1-3.491-11.643,65.843,65.843,0,0,1-.623-6.6c-.1-1.69-.208-3.438-.42-5.134l-.041-.329c-.277-2.245-.654-5.32-2.619-5.963-.046-.052-.141.015-.265.1a1.744,1.744,0,0,0-.609.838,8.085,8.085,0,0,0-.3,3.264l-2.441.163a10.514,10.514,0,0,1,.4-4.15,4.225,4.225,0,0,1,1.514-2.1,2.774,2.774,0,0,1,2.457-.444c3.439,1.125,3.969,5.42,4.284,7.987l.041.323c.222,1.774.332,3.562.434,5.291.127,2.094.258,4.262.595,6.352a43.683,43.683,0,0,0,3.31,11.027c.985,2.187,3.041,6.736,6.024,8.253Z" transform="translate(212.933 10176.619)" fill="#e12058"/>
    <path id="Path_416" data-name="Path 416" d="M69.178,92.429a10.14,10.14,0,0,1-2.111-7.783,34.426,34.426,0,0,1,2.2-8,24.208,24.208,0,0,0,1.775-8.1c-.023-4.748-2.5-8.859-4.718-12.8-1.523-2.7-3.144-5.491-3.818-8.592a9.712,9.712,0,0,1,.175-4.837,1.871,1.871,0,0,1,1.243-1.241c1.615-.35,3.817,2.225,4.778,3.309a44.6,44.6,0,0,1,3.967,5.472c3.39,5.244,6.485,10.836,8.181,16.965,1.817,6.568,1.772,13.646,1.226,20.407a200.153,200.153,0,0,1-4.31,26.981" transform="translate(212.933 10176.619)" fill="#f9f9f9"/>
    <path id="Path_417" data-name="Path 417" d="M78.956,114.469l-2.388-.525a199.159,199.159,0,0,0,4.286-26.816c.456-5.664.734-13.052-1.186-19.981-1.8-6.519-5.239-12.312-8.028-16.629a43.4,43.4,0,0,0-3.857-5.325c-2.407-2.722-3.281-2.98-3.6-2.925a.789.789,0,0,0-.358.47,8.544,8.544,0,0,0-.127,4.153,29.353,29.353,0,0,0,3.5,7.915l.554.982c2.206,3.9,4.489,7.944,4.51,12.753a25.394,25.394,0,0,1-1.843,8.508l-.234.657a30.359,30.359,0,0,0-1.9,7.061,8.843,8.843,0,0,0,1.8,6.838l-1.81,1.648a11.279,11.279,0,0,1-2.424-8.728,32.309,32.309,0,0,1,2.03-7.638l.231-.654a23.293,23.293,0,0,0,1.705-7.68c-.019-4.174-2.141-7.93-4.195-11.562l-.554-.983a31.151,31.151,0,0,1-3.759-8.6,10.93,10.93,0,0,1,.222-5.52,3.046,3.046,0,0,1,2.13-2.011c2.279-.487,4.587,2.147,5.839,3.56a45.594,45.594,0,0,1,4.195,5.75c2.885,4.465,6.438,10.466,8.329,17.305,2.025,7.3,1.741,14.965,1.268,20.829a201.556,201.556,0,0,1-4.334,27.145" transform="translate(212.933 10176.619)" fill="#e12058"/>
    <path id="Path_418" data-name="Path 418" d="M69.178,92.429a10.14,10.14,0,0,1-2.111-7.783" transform="translate(212.933 10176.619)" fill="#ce385a"/>
    <path id="Path_419" data-name="Path 419" d="M70,91.607a9.308,9.308,0,0,1-1.771-6.961c.12-1.49-2.2-1.483-2.323,0a11.517,11.517,0,0,0,2.452,8.6c.969,1.142,2.6-.508,1.642-1.642" transform="translate(212.933 10176.619)" fill="#ce385a"/>
    <path id="Path_420" data-name="Path 420" d="M46.947,63.1c0-4.736-.564-24.712-.45-26.54.126-2.025.115-4.05.345-6.068.2-1.76.457-5.273,2.858-4.6a3.774,3.774,0,0,1,2.48,2.452,28.009,28.009,0,0,1,1.572,8.585c.227,3.3.23,6.607.23,9.912" transform="translate(212.933 10176.619)" fill="#f9f9f9"/>
    <path id="Path_421" data-name="Path 421" d="M48.17,63.1H45.725c0-2.137-.115-7.383-.232-12.658-.169-7.8-.277-12.978-.217-13.957.045-.726.071-1.449.1-2.173.05-1.32.1-2.641.251-3.959l.029-.26c.174-1.6.439-4.021,1.962-5.053a2.8,2.8,0,0,1,2.41-.329,4.942,4.942,0,0,1,3.285,3.173,29.159,29.159,0,0,1,1.66,8.957c.231,3.374.231,6.741.231,9.995H52.759c0-3.213,0-6.538-.226-9.828A27.136,27.136,0,0,0,51.045,28.8a2.5,2.5,0,0,0-1.672-1.734c-.279-.079-.353-.021-.384,0-.588.4-.807,2.426-.9,3.293l-.028.27c-.146,1.258-.192,2.516-.239,3.777-.029.743-.057,1.488-.1,2.231-.057.95.091,7.75.222,13.751.117,5.3.232,10.566.232,12.713" transform="translate(212.933 10176.619)" fill="#e12058"/>
    <path id="Path_422" data-name="Path 422" d="M54.187,44.517c.168,6.346,2.248,15.84,3.9,21.944" transform="translate(212.933 10176.619)" fill="#ce385a"/>
    <path id="Path_423" data-name="Path 423" d="M53.026,44.517c.32,7.525,2.012,15,3.946,22.253a1.163,1.163,0,0,0,2.24-.618C57.331,59.1,55.66,51.834,55.349,44.517c-.063-1.489-2.387-1.5-2.323,0" transform="translate(212.933 10176.619)" fill="#ce385a"/>
    <path id="Path_424" data-name="Path 424" d="M54.839,69.71a18.835,18.835,0,0,1-.427-10.953,17.982,17.982,0,0,1,3.265-6.486c1.356-1.785,6.609-7.591,3.065-9.609-1.227-.7-2.748-.193-3.991.473a20.781,20.781,0,0,0-9.334,11.039,26.117,26.117,0,0,0-1.572,10.212,20.466,20.466,0,0,0,.823,4.713" transform="translate(212.933 10176.619)" fill="#f9f9f9"/>
    <path id="Path_425" data-name="Path 425" d="M53.69,70.127a19.993,19.993,0,0,1-.463-11.674A18.979,18.979,0,0,1,56.7,51.53l.565-.716c1.123-1.4,3.756-4.7,3.432-6.38a.973.973,0,0,0-.564-.709c-.764-.43-1.948.026-2.808.486A19.622,19.622,0,0,0,48.561,54.6a24.969,24.969,0,0,0-1.492,9.732,19.243,19.243,0,0,0,.766,4.4l-2.335.726a21.749,21.749,0,0,1-.876-5.029,27.43,27.43,0,0,1,1.65-10.69,22.077,22.077,0,0,1,9.9-11.686c2.044-1.1,3.784-1.249,5.172-.459A3.438,3.438,0,0,1,63.1,43.975c.493,2.574-1.768,5.669-3.927,8.367l-.525.669A16.626,16.626,0,0,0,55.6,59.059a17.54,17.54,0,0,0,.391,10.232Z" transform="translate(212.933 10176.619)" fill="#e12058"/>
    <path id="Path_426" data-name="Path 426" d="M61.638,114.447l-2.4-.482c1.638-8.172-4.441-14.717-9.8-20.491l-1.488-1.611a42.4,42.4,0,0,1-8.955-15.987,47.117,47.117,0,0,1-1.907-13.613l-.012-.523c-.218-8.99.491-13.635,2.3-15.06a2.325,2.325,0,0,1,2.091-.435,4.04,4.04,0,0,1,2.3,1.88,18.326,18.326,0,0,1,2.627,8.445c.147,1.579.177,3.171.206,4.709.028,1.564.058,3.181.217,4.738a5.466,5.466,0,0,0,.293,1.454,5.943,5.943,0,0,0,.865,1.313l.181.234a22.9,22.9,0,0,1,3.51,6.522l-2.311.8a20.4,20.4,0,0,0-3.134-5.824l-.174-.222a8.252,8.252,0,0,1-1.2-1.887,7.378,7.378,0,0,1-.462-2.139c-.17-1.657-.2-3.326-.233-4.94-.025-1.495-.055-3.038-.195-4.525A15.992,15.992,0,0,0,41.7,49.44a1.819,1.819,0,0,0-.861-.831c-.111.081-1.6,1.3-1.321,13.071l.012.54a44.754,44.754,0,0,0,1.793,12.918,39.961,39.961,0,0,0,8.43,15.077l1.473,1.6c5.478,5.9,12.294,13.236,10.411,22.637" transform="translate(212.933 10176.619)" fill="#e12058"/>
    <path id="Path_427" data-name="Path 427" d="M50.506,75.94A41.2,41.2,0,0,1,59.463,65.3" transform="translate(212.933 10176.619)" fill="#ce385a"/>
    <path id="Path_428" data-name="Path 428" d="M51.509,76.526a41.519,41.519,0,0,1,8.775-10.4c1.153-.953-.5-2.589-1.642-1.642A43.428,43.428,0,0,0,49.5,75.354c-.786,1.276,1.223,2.444,2.006,1.172" transform="translate(212.933 10176.619)" fill="#e12058"/>
    <path id="Path_429" data-name="Path 429" d="M81.686,115.95c0,3.222-5.608,5.816-12.5,5.816-6.913,0-12.5-2.594-12.5-5.816,0-1.341.993-2.577,2.647-3.57,1.1,2.055,5.1,3.57,9.856,3.57s8.76-1.515,9.84-3.57c1.671.975,2.664,2.212,2.664,3.57" transform="translate(212.933 10176.619)" fill="#f6e9ea"/>
    <path id="Path_430" data-name="Path 430" d="M69.183,122.988c-7.825,0-13.728-3.025-13.728-7.039,0-1.22.564-3.009,3.241-4.618l1.1-.661.607,1.134c.754,1.416,4.088,2.922,8.777,2.922s8.014-1.5,8.757-2.915l.594-1.132,1.1.645c2.7,1.578,3.272,3.386,3.272,4.625,0,4.014-5.9,7.039-13.726,7.039m-10.117-8.942a2.659,2.659,0,0,0-1.165,1.9c0,2.173,4.632,4.594,11.282,4.594,6.457,0,11.28-2.426,11.28-4.594a2.669,2.669,0,0,0-1.172-1.908c-1.87,1.91-5.695,3.131-10.108,3.131s-8.233-1.218-10.117-3.126" transform="translate(212.933 10176.619)" fill="#e12058"/>
    <path id="Path_431" data-name="Path 431" d="M67.924,32.148c.67-.154,11.388-2.687,17.421-9.05,1.482-1.563,3.123-3.581,3.517-5.62a6.45,6.45,0,0,0-1.042-5.15,5.8,5.8,0,0,0-5.368-2.088c-2.371.3-4.55,2.092-6.287,3.9-.043.044-.086.089-.128.134-6.034,6.362-8,17.2-8.113,17.876" transform="translate(212.933 10176.619)" fill="#e12058"/>
    <path id="Path_432" data-name="Path 432" d="M66.408,33.748l.31-1.808c.084-.48,2.1-11.836,8.43-18.508,2.621-2.729,4.916-4.124,7.151-4.4a7.03,7.03,0,0,1,6.49,2.555,7.646,7.646,0,0,1,1.275,6.127c-.475,2.464-2.414,4.735-3.83,6.23-6.33,6.674-17.562,9.293-18.037,9.4ZM83.252,11.412a5.253,5.253,0,0,0-.647.041c-1.657.207-3.474,1.363-5.559,3.534-4.51,4.756-6.688,12.032-7.512,15.463,3.381-1,10.509-3.534,14.924-8.192,1.891-1.994,2.939-3.635,3.2-5.012a5.279,5.279,0,0,0-.809-4.17,4.517,4.517,0,0,0-3.6-1.664" transform="translate(212.933 10176.619)" fill="#e12058"/>
    <path id="Path_433" data-name="Path 433" d="M79.165,19.206A50.512,50.512,0,0,0,60.829,43.478c-.51,1.407,1.734,2.014,2.24.617A47.8,47.8,0,0,1,80.337,21.212c1.206-.862.048-2.877-1.172-2.006" transform="translate(212.933 10176.619)" fill="#e12058"/>
  </g>
</svg>
