<svg id="Component_1_1" data-name="Component 1 – 1" xmlns="http://www.w3.org/2000/svg" xmlns:xlink="http://www.w3.org/1999/xlink" width="178.778" height="49.679" viewBox="0 0 178.778 49.679">
  <defs>
    <clipPath id="clip-path">
      <rect id="Rectangle_12" data-name="Rectangle 12" width="178.778" height="49.679" fill="#e12058"/>
    </clipPath>
  </defs>
  <g id="Group_6" data-name="Group 6" clip-path="url(#clip-path)">
    <g id="Group_5" data-name="Group 5">
      <g id="Group_4" data-name="Group 4" clip-path="url(#clip-path)">
        <g id="Group_3" data-name="Group 3" opacity="0.9">
          <g id="Group_2" data-name="Group 2">
            <g id="Group_1" data-name="Group 1" clip-path="url(#clip-path)">
              <path id="Path_1" data-name="Path 1" d="M26.013,70.071a3.872,3.872,0,0,1-4-4.14c0-3.381-1.173-7.107-5.106-7.107-6.141,0-7.8,9.729-7.8,14.145,0,7.728,3.312,15.8,10.695,15.8,3.864,0,7.8-2.76,9.936-7.314A13.16,13.16,0,0,1,16.284,93.669C5.8,93.669,0,84.354,0,75.177.069,64.9,6.831,57.72,17.319,57.789c6.279,0,12.9,2.691,12.9,7.935a4.164,4.164,0,0,1-4.209,4.347" transform="translate(0 -43.99)" fill="#e12058"/>
              <path id="Path_2" data-name="Path 2" d="M141.013,48.989c.621-.759,1.035-3.726,1.035-14.835V11.316c0-5.313-.9-6.417-1.035-6.969,1.173,0,5.244-.759,10-4.347V34.154c0,11.109.414,14.076,1.035,14.835Z" transform="translate(-107.341)" fill="#e12058"/>
              <path id="Path_3" data-name="Path 3" d="M199.093,85.115c0-11.8,23.115-10.833,23.046-20.907,0-3.036-3.1-5.175-5.934-5.175-4.071,0-5.175,3.45-5.175,6.9a3.908,3.908,0,0,1-4,4.14,4.089,4.089,0,0,1-4.209-4.347c0-5.658,6.762-7.935,11.247-7.935,6.693,0,13.8,4,13.8,14.076V84.218c0,4.623.414,7.866,2.277,7.866a3.368,3.368,0,0,0,1.587-.552,6.728,6.728,0,0,1-5.244,2.139c-4.554,0-6.417-2.415-7.107-5.52a13.468,13.468,0,0,1-10.557,5.52c-4.968,0-9.729-3.174-9.729-8.556m19.8-3.657V71.039c-2.76,2.277-10.419,4.9-10.419,11.73,0,4.209,2.622,6.624,5.658,6.624a6.8,6.8,0,0,0,5.037-2.277,38.843,38.843,0,0,1-.276-5.658" transform="translate(-151.552 -43.991)" fill="#e12058"/>
              <path id="Path_4" data-name="Path 4" d="M370.94,66.692c-2.553,0-5.175-3.1-7.866-3.1-3.657,0-5.451,5.865-5.451,8.763v5.8c0,11.109.414,14.076,1.035,14.835h-11.04c.621-.759,1.035-3.726,1.035-14.835V69.8c0-5.313-.9-6.417-1.035-6.969,1.173,0,5.244-.759,10-4.347v8.832c2.76-6.279,7.8-9.522,11.73-9.522,7.038,0,7.038,8.9,1.587,8.9" transform="translate(-264.613 -43.991)" fill="#e12058"/>
              <path id="Path_5" data-name="Path 5" d="M471.461,58.481c2.346,1.725,4.485,2.829,6.693,2.829,3.312,0,7.176-3.519,12.213-3.519,6.762,0,10.35,3.45,10.35,10.9v9.453c0,11.109.414,14.076,1.035,14.835h-11.04c.621-.759,1.035-3.726,1.035-14.835v-10.9c0-2.967-.483-6.969-4-7.521-2.484-.414-5.52,2.07-7.314,2.277V78.146c0,11.109.414,14.076,1.035,14.835h-11.04c.621-.759,1.035-3.726,1.035-14.835Z" transform="translate(-358.095 -43.991)" fill="#e12058"/>
              <path id="Path_6" data-name="Path 6" d="M612.017,85.115c0-11.8,23.115-10.833,23.046-20.907,0-3.036-3.1-5.175-5.934-5.175-4.071,0-5.175,3.45-5.175,6.9a3.908,3.908,0,0,1-4,4.14,4.089,4.089,0,0,1-4.209-4.347c0-5.658,6.762-7.935,11.247-7.935,6.693,0,13.8,4,13.8,14.076V84.218c0,4.623.414,7.866,2.277,7.866a3.368,3.368,0,0,0,1.587-.552,6.727,6.727,0,0,1-5.244,2.139c-4.554,0-6.417-2.415-7.107-5.52a13.468,13.468,0,0,1-10.557,5.52c-4.968,0-9.729-3.174-9.729-8.556m19.8-3.657V71.039c-2.76,2.277-10.419,4.9-10.419,11.73,0,4.209,2.622,6.624,5.658,6.624a6.8,6.8,0,0,0,5.037-2.277,38.834,38.834,0,0,1-.276-5.658" transform="translate(-465.876 -43.991)" fill="#e12058"/>
            </g>
          </g>
        </g>
      </g>
    </g>
  </g>
</svg>
